<?xml version="1.0" encoding="iso-8859-1"?>
<!-- Generator: Adobe Illustrator 19.0.0, SVG Export Plug-In . SVG Version: 6.00 Build 0)  -->
<svg version="1.1" id="Capa_1" xmlns="http://www.w3.org/2000/svg" xmlns:xlink="http://www.w3.org/1999/xlink" x="0px" y="0px"
	 viewBox="0 0 512 512" style="enable-background:new 0 0 512 512;" xml:space="preserve">
<path style="fill:#F4C892;" d="M228.916,279.82l29.565,53.022l48.596,11.911l-48.85-62.481
	c-5.751-7.356-14.568-11.654-23.906-11.654l0,0C229.598,270.618,226.616,275.695,228.916,279.82z"/>
<path style="fill:#FFD9A0;" d="M362.308,480.128l24.433-73.3l-18.854-8.045c-5.478-2.337-8.997-7.722-9.013-13.678
	c-0.026-9.805-1.434-25.475-8.771-39.233c-11.728-21.99-7.843-42.514,4.386-57.663c2.232-2.765,4.187-5.107,5.891-7.087
	c3.549-4.124,0.612-10.505-4.829-10.505h-16.415c-0.502,0-0.99,0.169-1.38,0.486c-3.438,2.792-20.108,17.551-21.86,42.517
	c-1.955,27.854-35.049,18.788-59.618,3.89c-15.856-9.615-36.833-21.162-53.091-29.914c-14.573-7.845-35.776-15.037-55.144-17.443
	c-6.03-0.749-8.88,7.188-3.711,10.382c28.436,17.568,81.391,52.593,108.444,85.536c38.524,46.913,48.949,80.794,105.635,112.069
	C359.749,478.879,361.04,479.526,362.308,480.128z"/>
<path style="fill:#F4C892;" d="M285.979,330.295c1.115,5.072,3.026,10.282,5.85,15.578c3.694,6.927,14.247,24.413,23.085,38.89
	c8.859,14.513,19.912,27.564,32.773,38.686c0,0,6.15,5.825,27.63,17.652l11.424-34.273l-16.363-6.982
	c-6.872-2.932-11.352-9.617-11.537-17.086c-0.243-9.842-1.962-24.181-8.739-36.888c-11.728-21.99-7.843-42.514,4.386-57.663
	c2.232-2.765,4.187-5.107,5.891-7.087c3.549-4.124,0.612-10.505-4.829-10.505h-14.885c-1.541,0-3.036,0.553-4.19,1.575
	c-5.13,4.538-18.991,18.785-20.58,41.428C314.688,330.824,301.599,333.935,285.979,330.295z"/>
<path style="fill:#CDDBE7;" d="M425.708,270.618H86.292c-3.747,0-7.397-1.189-10.425-3.396l-23.595-17.197
	c-2.224-1.621-1.077-5.14,1.674-5.14h404.107c2.752,0,3.898,3.519,1.674,5.14l-23.595,17.197
	C433.105,269.429,429.455,270.618,425.708,270.618z"/>
<path style="fill:#4A4256;" d="M435.355,405.719l-40.696-16.202c-3.622-1.442-7.728,0.318-9.181,3.935l-37.216,92.632
	c-1.46,3.633,0.31,7.762,3.948,9.21l40.696,16.202c3.622,1.442,7.728-0.318,9.181-3.935l37.216-92.632
	C440.763,411.296,438.993,407.168,435.355,405.719z"/>
<path style="fill:#352F3F;" d="M420.631,461.404l18.672-46.475c1.46-3.634-0.31-7.762-3.948-9.21l-40.696-16.201
	c-3.622-1.442-7.728,0.318-9.181,3.935l-18.689,46.516L420.631,461.404z"/>
<g>
	<path style="fill:#D6E5E2;" d="M256,242.321c-4.271,0-7.732-3.461-7.732-7.732v-67.997c0-4.271,3.461-7.732,7.732-7.732
		c4.271,0,7.732,3.461,7.732,7.732v67.997C263.732,238.86,260.271,242.321,256,242.321z"/>
	<path style="fill:#D6E5E2;" d="M305.81,244.884c-10.121-5.233-43.549-23.198-49.808-23.183
		c-6.062,0.015-46.724,21.564-49.77,23.183H305.81z"/>
</g>
<path style="fill:#E5F9F6;" d="M299.538,57.407c-0.721-24.156,5.894-44.507,9.197-53.069C309.542,2.247,308.002,0,305.761,0h-99.523
	c-2.241,0-3.781,2.247-2.974,4.338c3.303,8.562,9.918,28.913,9.197,53.069c-0.957,32.052-25.778,70.801-5.474,96.634
	c12.357,15.721,27.826,22.229,38.043,24.916c7.186,1.889,14.753,1.889,21.939,0c10.217-2.686,25.686-9.194,38.043-24.916
	C325.316,128.208,300.495,89.459,299.538,57.407z"/>
<path style="fill:#D6E5E2;" d="M299.538,57.407c-0.721-24.156,5.894-44.507,9.197-53.069C309.542,2.247,308.002,0,305.761,0h-52.195
	c0,0-11.96,25.355-11.003,57.407s25.778,70.801,5.474,96.634c-6.393,8.133-13.617,13.795-20.517,17.743
	c6.432,3.677,12.583,5.877,17.51,7.172c7.187,1.889,14.753,1.889,21.939,0c10.217-2.686,25.686-9.194,38.043-24.916
	C325.316,128.208,300.495,89.459,299.538,57.407z"/>
<path style="fill:#FED130;" d="M305.012,154.041c0.001-0.001,0.001-0.001,0.002-0.002c20.301-25.833-4.519-64.581-5.476-96.632
	c-0.294-9.865,0.635-19.093,2.062-27.145h-91.2c1.427,8.052,2.357,17.281,2.062,27.145c-0.957,32.051-25.777,70.799-5.476,96.632
	c0.001,0.001,0.001,0.001,0.002,0.002c3.861,4.913,8.027,8.926,12.241,12.204c0.843,0.656,1.688,1.282,2.532,1.88
	c6.757,4.785,13.509,7.772,19.208,9.634c1.425,0.466,2.784,0.861,4.061,1.197c5.311,1.396,10.828,1.754,16.248,1.086
	c0.208-0.026,0.416-0.056,0.623-0.085c1.533-0.212,3.056-0.509,4.563-0.886c0.168-0.042,0.337-0.071,0.505-0.115
	c3.831-1.007,8.401-2.552,13.269-4.919c4.056-1.972,8.319-4.515,12.533-7.793C296.985,162.967,301.151,158.954,305.012,154.041z"/>
<path style="fill:#EFBE25;" d="M282.897,172.671c0.721-0.388,1.445-0.793,2.173-1.218c0.121-0.071,0.242-0.145,0.363-0.217
	c0.668-0.396,1.338-0.808,2.01-1.238c0.126-0.08,0.251-0.157,0.377-0.239c0.732-0.474,1.465-0.971,2.198-1.486
	c0.162-0.114,0.324-0.23,0.486-0.346c1.508-1.078,3.014-2.247,4.51-3.513c0.16-0.135,0.32-0.27,0.479-0.408
	c0.73-0.629,1.456-1.278,2.178-1.955c0.119-0.112,0.237-0.228,0.356-0.341c0.66-0.628,1.317-1.276,1.968-1.946
	c0.12-0.123,0.241-0.243,0.36-0.367c0.706-0.736,1.405-1.502,2.097-2.29c0.152-0.173,0.304-0.35,0.455-0.526
	c0.707-0.82,1.408-1.658,2.097-2.533c0.002-0.003,0.004-0.005,0.006-0.008c0.001-0.001,0.001-0.001,0.002-0.002
	c11.419-14.531,8.562-33.148,3.706-52.361c-0.012-0.045-0.023-0.09-0.034-0.135c-0.746-2.946-1.538-5.906-2.332-8.867
	c-0.345-1.286-0.69-2.572-1.032-3.858c-0.399-1.498-0.792-2.994-1.176-4.488c-0.166-0.646-0.331-1.292-0.493-1.937
	c-0.152-0.606-0.302-1.212-0.449-1.817c-0.372-1.526-0.73-3.049-1.065-4.565c-0.169-0.767-0.331-1.531-0.488-2.294
	c-0.282-1.369-0.545-2.733-0.782-4.089c-0.108-0.62-0.209-1.238-0.306-1.855c-0.18-1.142-0.339-2.277-0.476-3.407
	c-0.084-0.689-0.161-1.376-0.227-2.061c-0.111-1.138-0.2-2.27-0.259-3.393c-0.026-0.504-0.047-1.006-0.062-1.507
	c-0.033-1.108-0.046-2.205-0.049-3.297c-0.001-0.216-0.002-0.432-0.002-0.647c0.003-1.052,0.017-2.096,0.045-3.131
	c0.005-0.187,0.012-0.372,0.018-0.558c0.031-0.999,0.072-1.99,0.126-2.97c0.005-0.089,0.008-0.179,0.013-0.267
	c0.059-1.038,0.132-2.062,0.213-3.079c0.016-0.197,0.032-0.393,0.048-0.589c0.085-1.005,0.178-2,0.283-2.982
	c0.012-0.113,0.026-0.225,0.038-0.338c0.103-0.947,0.215-1.882,0.335-2.806c0.015-0.113,0.028-0.227,0.043-0.339
	c0.128-0.968,0.266-1.921,0.41-2.861c0.024-0.154,0.048-0.306,0.072-0.459c0.149-0.953,0.304-1.895,0.468-2.818
	c0-0.001,0-0.003,0.001-0.004h-56.972c-1.428,8.053-2.359,17.279-2.064,27.145c0.957,32.052,25.778,70.801,5.474,96.634
	c-6.393,8.133-13.617,13.795-20.517,17.743c0.003,0.002,0.005,0.003,0.008,0.004c4.819,2.754,9.48,4.679,13.586,6.016
	c0.065,0.021,0.126,0.038,0.191,0.059c0.614,0.198,1.219,0.386,1.806,0.559c0.657,0.193,1.298,0.371,1.919,0.534
	c0.802,0.211,1.61,0.39,2.421,0.554c0.253,0.051,0.507,0.096,0.761,0.142c0.581,0.107,1.163,0.2,1.747,0.283
	c0.27,0.038,0.54,0.079,0.811,0.112c0.78,0.095,1.562,0.174,2.345,0.226c0.244,0.016,0.487,0.019,0.731,0.031
	c0.562,0.028,1.124,0.048,1.686,0.054c0.365,0.004,0.73,0,1.094-0.005c0.454-0.007,0.908-0.023,1.362-0.044
	c0.374-0.017,0.749-0.031,1.123-0.058c0.707-0.051,1.414-0.118,2.118-0.204c0.016-0.002,0.032-0.003,0.048-0.005
	c0.208-0.026,0.416-0.056,0.623-0.085c1.533-0.212,3.055-0.508,4.562-0.886c0.168-0.042,0.338-0.071,0.506-0.116
	c0.572-0.15,1.165-0.317,1.768-0.492c0.176-0.051,0.357-0.106,0.535-0.16c0.457-0.137,0.922-0.281,1.395-0.433
	c0.19-0.061,0.378-0.121,0.57-0.184c1.288-0.425,2.629-0.909,4.011-1.457c0.203-0.081,0.409-0.166,0.615-0.249
	c0.514-0.209,1.034-0.428,1.558-0.656c0.214-0.093,0.427-0.184,0.643-0.281c1.423-0.635,2.878-1.34,4.354-2.12
	C282.579,172.841,282.737,172.757,282.897,172.671z"/>
<g>
</g>
<g>
</g>
<g>
</g>
<g>
</g>
<g>
</g>
<g>
</g>
<g>
</g>
<g>
</g>
<g>
</g>
<g>
</g>
<g>
</g>
<g>
</g>
<g>
</g>
<g>
</g>
<g>
</g>
</svg>
