<?xml version="1.0" encoding="iso-8859-1"?>
<!-- Generator: Adobe Illustrator 19.0.0, SVG Export Plug-In . SVG Version: 6.00 Build 0)  -->
<svg version="1.1" id="Capa_1" xmlns="http://www.w3.org/2000/svg" xmlns:xlink="http://www.w3.org/1999/xlink" x="0px" y="0px"
	 viewBox="0 0 511.999 511.999" style="enable-background:new 0 0 511.999 511.999;" xml:space="preserve">
<path style="fill:#FED130;" d="M443.524,84.172c-1.74-1.13-4.168-2.706-5.523-3.869c0.828-1.039,2.291-2.523,3.35-3.597
	c5.932-6.018,14.897-15.111,14.897-32.288c0-26.41-19.643-42.219-39.045-44.185c-22.999-2.316-42.485,12.836-47.408,36.875
	c-0.164,0.803-0.242,1.602-0.251,2.392h25.604c3.421-11.516,12.137-14.956,19.515-14.202c7.562,0.766,16.392,6.233,16.392,19.12
	c0,6.541-2.622,9.504-7.645,14.6c-4.886,4.956-11.578,11.743-11.077,22.838c0.564,12.466,10.737,19.072,17.469,23.444
	c2.323,1.509,6.127,3.98,7.086,5.372c-1.078,1.3-5.09,3.421-7.54,4.716c-7.099,3.752-17.829,9.424-19.516,21.796
	c-1.687,12.367,7.036,20.594,12.808,26.038c2.08,1.962,5.954,5.615,6.16,6.991c0,0.001,0.002,0.059-0.026,0.194
	c-1.38,6.819,3.03,13.466,9.848,14.845c0.843,0.17,1.684,0.252,2.511,0.252c5.87,0,11.124-4.124,12.334-10.1
	c3.013-14.894-7.349-24.67-13.541-30.509c-1.302-1.228-3.063-2.888-4.202-4.183c1.494-0.988,3.741-2.175,5.397-3.051
	c7.6-4.017,20.32-10.741,21.003-25.85C462.807,96.696,450.736,88.856,443.524,84.172z"/>
<path style="fill:#D6E5E2;" d="M329.702,507.646l-58.571-20.365c-11.298-3.928-18.871-14.579-18.871-26.54V351.2
	c0-28.369,8.516-56.085,24.446-79.559L428.677,47.699c2.366-3.486-0.131-8.199-4.345-8.199H55.106c-4.213,0-6.71,4.713-4.345,8.199
	l151.971,223.942c15.93,23.474,24.446,51.19,24.446,79.559v109.541c0,11.962-7.573,22.612-18.871,26.54l-58.571,20.364
	c-2.278,0.96-1.592,4.354,0.88,4.354h178.206C331.294,512,331.98,508.606,329.702,507.646z"/>
<path style="fill:#E5F9F6;" d="M215.796,290.892L50.762,47.699c-2.366-3.486,0.131-8.199,4.345-8.199h369.227
	c4.213,0,6.71,4.713,4.345,8.199L263.643,290.892C252.172,307.795,227.266,307.795,215.796,290.892z"/>
<path style="fill:#D6E5E2;" d="M424.333,39.5h-50.681L209.425,281.504l6.371,9.388c11.471,16.903,36.376,16.903,47.847,0
	L428.677,47.699C431.043,44.213,428.546,39.5,424.333,39.5z"/>
<path style="fill:#CCF9B4;" d="M215.796,290.892c11.471,16.903,36.376,16.903,47.847,0L403.432,84.9H76.007L215.796,290.892z"/>
<path style="fill:#AFE288;" d="M342.843,84.9L209.425,281.504l6.371,9.388c11.471,16.903,36.376,16.903,47.847,0L403.432,84.9
	H342.843z"/>
<path style="fill:#9B4848;" d="M243.963,182.798c-3.75,0-7.041-2.738-7.623-6.559c-0.548-3.59-4.863-35.488,11.899-49.808
	c8.26-7.057,19.503-8.391,33.412-3.965c4.063,1.293,6.31,5.635,5.016,9.699c-1.292,4.064-5.633,6.311-9.699,5.016
	c-8.48-2.698-14.771-2.365-18.699,0.991c-8.748,7.474-7.715,28.844-6.665,35.741c0.642,4.215-2.254,8.153-6.469,8.796
	C244.742,182.768,244.35,182.798,243.963,182.798z"/>
<circle style="fill:#FC502A;" cx="243.969" cy="191.46" r="38.91"/>
<g>
</g>
<g>
</g>
<g>
</g>
<g>
</g>
<g>
</g>
<g>
</g>
<g>
</g>
<g>
</g>
<g>
</g>
<g>
</g>
<g>
</g>
<g>
</g>
<g>
</g>
<g>
</g>
<g>
</g>
</svg>
