<?xml version="1.0" encoding="iso-8859-1"?>
<!-- Generator: Adobe Illustrator 19.0.0, SVG Export Plug-In . SVG Version: 6.00 Build 0)  -->
<svg version="1.1" id="Capa_1" xmlns="http://www.w3.org/2000/svg" xmlns:xlink="http://www.w3.org/1999/xlink" x="0px" y="0px"
	 viewBox="0 0 512 512" style="enable-background:new 0 0 512 512;" xml:space="preserve">
<path style="fill:#D6E5E2;" d="M417.527,373.465c-2.284-18.223-6.179-38.095-11.878-60.619
	c30.169-16.974,58.712-50.808,66.767-79.337c11.05-39.142,12.524-77.663,4.044-105.687c-7.567-24.997-20.039-32.462-29.171-34.323
	c-1.739-0.353-3.544-0.57-5.368-0.643c-0.494-0.02-0.99-0.03-1.487-0.03c-22.132,0-47.546,20.07-67.983,53.685
	c-2.217,3.645-5.622,8.917-10.142,15.706c-3.655-17.917-5.674-34.591-6.008-49.629c2.714-3.748,5.54-7.325,8.407-10.642
	c20.73-24,45.307-36.685,71.076-36.685c1.067,0,2.136,0.021,3.206,0.064c4.515,0.183,9.123,0.749,13.697,1.681
	c23.103,4.707,40.735,23.525,49.65,52.983c9.937,32.833,8.516,76.886-3.9,120.866c-9.703,34.359-30.524,84.636-74.615,129.027
	C422.052,371.664,419.904,372.882,417.527,373.465z"/>
<path style="fill:#FFFFFF;stroke:#000000;stroke-width:15;stroke-linecap:round;stroke-linejoin:round;stroke-miterlimit:10;" d="
	M327.733,211.493c-0.629,0.984-0.981,1.536-0.987,1.553C326.179,214.608,326.651,213.818,327.733,211.493z"/>
<path style="fill:#E5F9F6;" d="M386.915,198.578C350.4,97.96,370.938,56.965,381.048,44.273c1.516-1.903,0.144-4.711-2.29-4.711
	H313.06c-26.048,0-51.642-6.82-74.236-19.781l0,0C216.23,6.82,190.636,0,164.588,0h-58.034c-1.522,0-2.232,1.886-1.088,2.889
	l41.812,36.672c0,0,44.811,32.008-1.28,159.016c-40.93,112.786-74.18,200.937-19.786,289.736
	c9.05,14.776,25.229,23.687,42.556,23.687h195.378c17.327,0,33.505-8.911,42.556-23.686
	C461.095,399.514,427.846,311.363,386.915,198.578z"/>
<path style="fill:#D6E5E2;" d="M386.915,198.578C350.4,97.96,370.937,56.965,381.048,44.273c1.516-1.903,0.144-4.711-2.29-4.711
	h-54.362c0,0-44.811,32.008,1.28,159.016c41.142,113.369,74.524,201.848,18.935,291.114C335.986,503.544,320.848,512,304.53,512
	h59.616c17.327,0,33.505-8.911,42.556-23.687C461.095,399.514,427.846,311.363,386.915,198.578z"/>
<path style="fill:#FC502A;" d="M126.212,488.313c9.05,14.775,25.229,23.687,42.556,23.687h195.378
	c17.327,0,33.505-8.911,42.556-23.687c52.299-85.38,23.573-170.165-15.099-276.821H141.311
	C102.639,318.148,73.913,402.933,126.212,488.313z"/>
<path style="fill:#E52D15;" d="M409.924,482.853c0.517-0.902,1.036-1.805,1.535-2.707c0.301-0.545,0.588-1.09,0.883-1.636
	c0.441-0.815,0.886-1.63,1.313-2.445c0.308-0.588,0.601-1.176,0.902-1.764c0.395-0.773,0.794-1.547,1.177-2.32
	c0.301-0.609,0.589-1.219,0.883-1.828c0.363-0.753,0.728-1.505,1.079-2.257c0.291-0.624,0.569-1.248,0.852-1.872
	c0.335-0.738,0.671-1.476,0.995-2.214c0.278-0.634,0.545-1.269,0.814-1.904c0.31-0.728,0.62-1.456,0.919-2.185
	c0.264-0.643,0.518-1.286,0.773-1.929c0.286-0.72,0.573-1.441,0.849-2.161c0.249-0.65,0.489-1.301,0.73-1.951
	c0.265-0.714,0.528-1.429,0.783-2.143c0.233-0.654,0.458-1.309,0.683-1.963c0.245-0.713,0.488-1.426,0.723-2.139
	c0.217-0.658,0.427-1.316,0.636-1.974c0.225-0.709,0.447-1.418,0.662-2.127c0.201-0.663,0.397-1.325,0.59-1.988
	c0.206-0.707,0.408-1.414,0.605-2.122c0.185-0.665,0.365-1.331,0.542-1.997c0.187-0.706,0.37-1.411,0.549-2.117
	c0.169-0.669,0.335-1.338,0.496-2.007c0.17-0.704,0.334-1.409,0.495-2.114c0.153-0.67,0.304-1.341,0.449-2.012
	c0.153-0.706,0.299-1.412,0.443-2.118c0.137-0.672,0.273-1.344,0.402-2.017c0.136-0.705,0.264-1.411,0.391-2.117
	c0.122-0.675,0.243-1.35,0.357-2.026c0.119-0.705,0.23-1.411,0.341-2.116c0.106-0.678,0.213-1.356,0.312-2.035
	c0.102-0.703,0.196-1.408,0.291-2.112c0.091-0.683,0.184-1.365,0.268-2.048c0.087-0.703,0.164-1.408,0.243-2.112
	c0.077-0.684,0.155-1.368,0.224-2.053c0.071-0.705,0.133-1.411,0.196-2.118c0.062-0.686,0.127-1.372,0.181-2.059
	c0.056-0.706,0.102-1.413,0.15-2.119c0.047-0.688,0.099-1.376,0.139-2.066c0.042-0.71,0.072-1.421,0.106-2.132
	c0.033-0.688,0.071-1.375,0.097-2.064c0.027-0.712,0.042-1.426,0.062-2.139c0.019-0.69,0.044-1.379,0.056-2.069
	c0.013-0.719,0.014-1.441,0.019-2.161c0.005-0.686,0.017-1.371,0.016-2.057c-0.001-0.741-0.015-1.485-0.024-2.228
	c-0.016-1.347-0.043-2.695-0.083-4.046c-0.021-0.707-0.036-1.413-0.063-2.121c-0.028-0.722-0.068-1.446-0.103-2.169
	c-0.033-0.696-0.062-1.391-0.101-2.088c-0.042-0.734-0.094-1.47-0.142-2.205c-0.045-0.687-0.086-1.374-0.137-2.062
	c-0.055-0.742-0.12-1.485-0.181-2.228c-0.057-0.685-0.11-1.369-0.172-2.055c-0.068-0.745-0.145-1.493-0.219-2.24
	c-0.068-0.687-0.134-1.373-0.207-2.061c-0.08-0.746-0.168-1.495-0.254-2.242c-0.08-0.691-0.157-1.382-0.242-2.074
	c-0.092-0.75-0.192-1.502-0.29-2.254c-0.09-0.691-0.18-1.382-0.275-2.074c-0.104-0.754-0.215-1.51-0.325-2.266
	c-0.101-0.695-0.202-1.389-0.308-2.085c-0.116-0.757-0.237-1.516-0.359-2.274c-0.112-0.695-0.223-1.39-0.339-2.087
	c-0.127-0.762-0.26-1.526-0.393-2.29c-0.121-0.697-0.243-1.394-0.369-2.092c-0.139-0.766-0.281-1.534-0.425-2.302
	c-0.131-0.699-0.263-1.399-0.399-2.099c-0.149-0.77-0.302-1.541-0.457-2.313c-0.14-0.699-0.282-1.399-0.427-2.1
	c-0.161-0.779-0.325-1.56-0.491-2.341c-0.148-0.698-0.299-1.396-0.452-2.095c-0.171-0.781-0.343-1.563-0.519-2.346
	c-0.159-0.705-0.32-1.411-0.482-2.118c-0.181-0.785-0.363-1.571-0.548-2.358c-0.166-0.701-0.334-1.403-0.503-2.106
	c-0.192-0.796-0.385-1.593-0.582-2.392c-0.173-0.701-0.349-1.404-0.526-2.106c-0.201-0.8-0.403-1.601-0.61-2.403
	c-0.18-0.702-0.364-1.405-0.548-2.108c-0.212-0.809-0.423-1.619-0.64-2.43c-0.187-0.702-0.379-1.405-0.569-2.109
	c-0.221-0.814-0.441-1.627-0.666-2.443c-0.193-0.701-0.391-1.404-0.588-2.106c-0.232-0.827-0.463-1.654-0.699-2.483
	c-0.197-0.691-0.398-1.385-0.598-2.077c-0.242-0.841-0.484-1.681-0.731-2.524c-0.201-0.685-0.406-1.373-0.61-2.06
	c-0.254-0.856-0.506-1.711-0.764-2.569c-0.2-0.666-0.405-1.334-0.608-2.001c-0.269-0.885-0.536-1.769-0.81-2.657
	c-0.188-0.611-0.381-1.226-0.572-1.838c-0.295-0.948-0.588-1.895-0.887-2.846c-0.156-0.494-0.316-0.992-0.472-1.487
	c-1.679-5.299-3.431-10.648-5.245-16.05c-0.138-0.412-0.274-0.821-0.413-1.234c-0.363-1.076-0.731-2.157-1.098-3.237
	c-0.178-0.524-0.354-1.046-0.534-1.57c-0.358-1.048-0.721-2.101-1.083-3.153c-0.192-0.557-0.382-1.112-0.575-1.67
	c-0.361-1.043-0.725-2.091-1.09-3.138c-0.2-0.573-0.398-1.145-0.598-1.72c-0.364-1.043-0.732-2.09-1.1-3.136
	c-0.204-0.582-0.407-1.162-0.613-1.744c-0.37-1.049-0.742-2.102-1.116-3.156c-0.207-0.585-0.413-1.168-0.621-1.754
	c-0.382-1.075-0.766-2.153-1.151-3.232c-0.2-0.56-0.399-1.12-0.6-1.681c-0.405-1.132-0.811-2.267-1.219-3.404
	c-0.178-0.496-0.356-0.992-0.534-1.489c-0.436-1.213-0.873-2.428-1.312-3.646c-0.15-0.417-0.3-0.834-0.451-1.251
	c-0.486-1.346-0.973-2.694-1.462-4.047c-0.087-0.241-0.174-0.482-0.261-0.723c-0.559-1.545-1.12-3.093-1.683-4.647h-61.238
	c38.88,107.229,67.707,192.352,14.248,278.199C335.986,503.544,320.848,512,304.53,512h59.616c17.327,0,33.505-8.911,42.556-23.687
	c0.834-1.361,1.645-2.721,2.438-4.082C409.408,483.772,409.661,483.312,409.924,482.853z"/>
<path style="fill:#E5F9F6;" d="M168.938,286.993H26.664c-5.322,0-9.935,3.72-11.044,8.925c-6.076,28.531-9.858,55.437-11.878,80.57
	c-3.408,42.405,7.096,84.768,29.55,120.902l0,0C38.937,506.475,48.875,512,59.571,512h76.46c10.696,0,20.634-5.525,26.279-14.61l0,0
	c22.454-36.134,32.958-78.496,29.55-120.902c-2.02-25.133-5.803-52.039-11.878-80.57
	C178.873,290.713,174.26,286.993,168.938,286.993z"/>
<path style="fill:#D6E5E2;" d="M191.86,376.488c-2.02-25.133-5.803-52.039-11.878-80.57c-1.108-5.206-5.721-8.925-11.044-8.925
	h-57.126c7.236,31.859,11.613,61.757,13.842,89.495c3.408,42.406-7.096,84.768-29.55,120.902l0,0
	C90.459,506.475,80.521,512,69.825,512h66.206c10.696,0,20.634-5.525,26.279-14.61l0,0
	C184.764,461.256,195.268,418.894,191.86,376.488z"/>
<path style="fill:#FC502A;" d="M3.742,376.488c-3.408,42.406,7.096,84.768,29.55,120.902l0,0C38.937,506.475,48.875,512,59.571,512
	h76.46c10.696,0,20.634-5.525,26.279-14.61l0,0c22.454-36.134,32.958-78.496,29.55-120.902c-0.227-2.822-0.484-5.674-0.756-8.54
	H4.497C4.225,370.815,3.969,373.667,3.742,376.488z"/>
<path style="fill:#E52D15;" d="M191.86,376.488c-0.227-2.822-0.484-5.674-0.756-8.54H124.9c0.272,2.867,0.527,5.717,0.754,8.54
	c3.408,42.406-7.096,84.768-29.55,120.902l0,0C90.459,506.475,80.521,512,69.825,512h66.206c10.696,0,20.634-5.525,26.279-14.61l0,0
	C184.764,461.256,195.268,418.894,191.86,376.488z"/>
<path style="fill:#FDC74F;" d="M358.724,305.067c1.816-1.512,2.02-4.26,0.397-5.978c-24.471-25.89-65.183-28.618-92.946-5.511
	s-32.47,63.638-11.452,92.402c1.394,1.908,4.134,2.207,5.95,0.695L358.724,305.067z"/>
<path style="fill:#FFFFBB;" d="M280.65,311.331c-19.161,15.948-21.771,44.406-5.835,63.573l69.411-57.771
	C328.27,297.982,299.812,295.383,280.65,311.331z"/>
<g>
	<path style="fill:#FDC74F;" d="M298.103,319.521c-2.728-3.277-7.595-3.721-10.87-0.995c-3.276,2.727-3.721,7.594-0.995,10.87
		l2.254,2.708c1.527,1.834,3.723,2.781,5.936,2.781c1.741,0,3.491-0.586,4.933-1.786c3.276-2.727,3.721-7.594,0.995-10.87
		L298.103,319.521z"/>
	<path style="fill:#FDC74F;" d="M312.968,310.525c-4.24-0.402-8.002,2.737-8.391,6.982l-0.322,3.508
		c-0.389,4.245,2.737,8.002,6.982,8.391c0.239,0.022,0.477,0.032,0.714,0.032c3.945,0,7.31-3.009,7.677-7.014l0.322-3.508
		C320.339,314.671,317.213,310.914,312.968,310.525z"/>
	<path style="fill:#FDC74F;" d="M286.591,335.718l-3.508-0.321c-4.248-0.393-8.001,2.74-8.389,6.984
		c-0.388,4.245,2.739,8.001,6.984,8.389l3.508,0.321c0.239,0.022,0.476,0.033,0.712,0.033c3.946,0,7.311-3.011,7.677-7.017
		C293.963,339.862,290.836,336.106,286.591,335.718z"/>
</g>
<g>
	<path style="fill:#FF7A64;" d="M220.831,274.554l-31.668-26.234c-1.241-1.028-1.414-2.869-0.386-4.11l26.234-31.668
		c1.028-1.241,2.869-1.414,4.11-0.386l31.668,26.234c1.241,1.028,1.414,2.869,0.386,4.11l-26.234,31.668
		C223.913,275.41,222.073,275.582,220.831,274.554z"/>
	<path style="fill:#FF7A64;" d="M256.593,482.119l-31.668-26.234c-1.241-1.028-1.414-2.868-0.386-4.11l26.234-31.668
		c1.028-1.241,2.869-1.414,4.11-0.386l31.668,26.234c1.241,1.028,1.414,2.869,0.386,4.11l-26.234,31.668
		C259.674,482.974,257.834,483.147,256.593,482.119z"/>
	<path style="fill:#FF7A64;" d="M358.029,410.26l-8.538-40.227c-0.335-1.577,0.672-3.127,2.249-3.461l40.227-8.538
		c1.577-0.335,3.127,0.672,3.461,2.249l8.538,40.227c0.335,1.577-0.672,3.127-2.249,3.461l-40.227,8.538
		C359.914,412.844,358.364,411.837,358.029,410.26z"/>
</g>
<path style="fill:#FC502A;" d="M401.718,403.971c1.577-0.335,2.584-1.884,2.249-3.461l-8.538-40.227
	c-0.335-1.577-1.884-2.584-3.461-2.249l-19.458,4.13c1.717,16.283,1.906,32.23,0.157,47.974L401.718,403.971z"/>
<g>
</g>
<g>
</g>
<g>
</g>
<g>
</g>
<g>
</g>
<g>
</g>
<g>
</g>
<g>
</g>
<g>
</g>
<g>
</g>
<g>
</g>
<g>
</g>
<g>
</g>
<g>
</g>
<g>
</g>
</svg>
