<?xml version="1.0" encoding="iso-8859-1"?>
<!-- Generator: Adobe Illustrator 19.0.0, SVG Export Plug-In . SVG Version: 6.00 Build 0)  -->
<svg version="1.1" id="Capa_1" xmlns="http://www.w3.org/2000/svg" xmlns:xlink="http://www.w3.org/1999/xlink" x="0px" y="0px"
	 viewBox="0 0 512 512" style="enable-background:new 0 0 512 512;" xml:space="preserve">
<path style="fill:#4E9AE5;" d="M376.269,151.922c-1.114,0-2.245-0.247-3.314-0.77c-3.751-1.833-5.306-6.359-3.472-10.11
	l27.694-56.675c1.833-3.751,6.358-5.309,10.11-3.473c3.751,1.833,5.306,6.359,3.473,10.11l-27.694,56.675
	C381.756,150.362,379.067,151.922,376.269,151.922z"/>
<path style="fill:#FF644A;" d="M424.144,36.694l-111.93,13.072c-2.54,0.297-3.384,3.55-1.321,5.061
	c53.479,39.176,114.034,67.634,178.324,83.804c2.48,0.624,4.446-2.102,3.053-4.247L430.901,39.87
	C429.436,37.613,426.817,36.382,424.144,36.694z"/>
<path style="fill:#E52D15;" d="M492.27,134.385L430.902,39.87c-1.466-2.257-4.084-3.488-6.757-3.176l-22.033,2.573
	c-16.466,1.923-25.182,20.471-16.155,34.375l24.948,38.422c25.295,10.919,51.481,19.819,78.322,26.569
	C491.701,139.256,493.66,136.525,492.27,134.385z"/>
<circle style="fill:#FED130;" cx="356.51" cy="179.09" r="67.69"/>
<path style="fill:#EFBE25;" d="M356.51,111.4c-10.173,0-19.813,2.258-28.47,6.278c23.158,10.754,39.225,34.203,39.225,61.417
	s-16.067,50.663-39.225,61.417c8.657,4.02,18.297,6.278,28.47,6.278c37.387,0,67.695-30.308,67.695-67.695
	S393.897,111.4,356.51,111.4z"/>
<circle style="fill:#FFE5B8;" cx="356.51" cy="179.09" r="46.776"/>
<g>
	<path style="fill:#FED130;" d="M356.51,194.121c-4.175,0-7.559,3.384-7.559,7.559v3.285c0,4.175,3.384,7.559,7.559,7.559
		s7.559-3.384,7.559-7.559v-3.285C364.069,197.505,360.685,194.121,356.51,194.121z"/>
	<path style="fill:#FED130;" d="M356.51,145.665c-4.175,0-7.559,3.384-7.559,7.559v3.285c0,4.175,3.384,7.559,7.559,7.559
		s7.559-3.384,7.559-7.559v-3.285C364.069,149.049,360.685,145.665,356.51,145.665z"/>
	<path style="fill:#FED130;" d="M341.484,179.095c0-4.175-3.384-7.559-7.559-7.559h-3.286c-4.175,0-7.559,3.384-7.559,7.559
		s3.384,7.559,7.559,7.559h3.286C338.1,186.654,341.484,183.27,341.484,179.095z"/>
	<path style="fill:#FED130;" d="M382.382,171.535h-3.286c-4.175,0-7.559,3.384-7.559,7.559s3.384,7.559,7.559,7.559h3.286
		c4.175,0,7.559-3.384,7.559-7.559C389.941,174.919,386.556,171.535,382.382,171.535z"/>
	<path style="fill:#FED130;" d="M343.562,155.456c-2.951-2.953-7.737-2.952-10.69-0.001c-2.952,2.952-2.953,7.737-0.001,10.69
		l2.323,2.324c1.476,1.476,3.41,2.215,5.346,2.215c1.934,0,3.869-0.738,5.345-2.214c2.952-2.952,2.953-7.737,0.001-10.69
		L343.562,155.456z"/>
	<path style="fill:#FED130;" d="M377.825,189.72c-2.952-2.951-7.738-2.951-10.69,0.001c-2.952,2.953-2.951,7.738,0.001,10.69
		l2.323,2.323c1.476,1.475,3.41,2.214,5.345,2.214s3.87-0.738,5.346-2.215c2.952-2.953,2.951-7.738-0.001-10.69L377.825,189.72z"/>
	<path style="fill:#FED130;" d="M372.481,170.684c1.935,0,3.87-0.738,5.346-2.215l2.323-2.324c2.952-2.953,2.951-7.738-0.001-10.69
		c-2.952-2.951-7.738-2.951-10.69,0.001l-2.323,2.324c-2.952,2.953-2.951,7.738,0.001,10.69
		C368.612,169.946,370.547,170.684,372.481,170.684z"/>
	<path style="fill:#FED130;" d="M335.195,189.72l-2.323,2.323c-2.952,2.952-2.953,7.737-0.001,10.69
		c1.476,1.476,3.41,2.215,5.346,2.215c1.934,0,3.869-0.738,5.345-2.214l2.323-2.323c2.952-2.952,2.953-7.737,0.001-10.69
		C342.935,186.769,338.148,186.768,335.195,189.72z"/>
</g>
<path style="fill:#77D057;" d="M217.758,201.331c-27.95-54.828-50.407-131.206-61.186-191.472c-0.339-1.895-3.055-1.895-3.375,0.003
	c-9.552,56.489-19.92,135.716-28.946,191.469H217.758z"/>
<path style="fill:#67BC44;" d="M195.968,201.331L64.142,0.772c-1.108-1.653-3.67-0.412-3.059,1.482l64.406,199.078h70.479V201.331z"
	/>
<path style="fill:#77D057;" d="M187.727,201.331C158.821,176.233,61.339,94.353,22.491,96.727c-3.078,0.188-4.371,4.009-2.001,5.982
	c15.865,13.213,62.121,53.956,86.118,98.622H187.727z"/>
<path style="fill:#67BC44;" d="M215.183,201.331c-13.92-53.845,6.977-130.378,13.967-153.327c0.899-2.95-2.278-5.436-4.955-3.904
	c-39.879,22.816-72.889,157.229-72.89,157.232h63.878V201.331z"/>
<path style="fill:#FD9727;" d="M230.296,190.381c-44.88,0-85.811-1.969-116.808-5.207c-8.492-0.887-16.432,4.365-18.955,12.521
	c-16.488,53.303-60.066,228.769,53.808,301.185c16.192,10.297,35.485,14.591,54.579,12.677l18.639-1.869
	c5.81-0.582,11.664-0.582,17.473,0l18.639,1.869c19.093,1.914,38.386-2.379,54.579-12.677
	c113.874-72.416,70.295-247.881,53.808-301.185c-2.523-8.157-10.463-13.408-18.955-12.521
	C316.108,188.411,275.176,190.381,230.296,190.381z"/>
<path id="SVGCleanerId_0" style="fill:#E57F23;" d="M366.059,197.695c-2.523-8.156-10.463-13.408-18.955-12.521
	c-11.678,1.22-24.768,2.259-38.946,3.081c12.529,37.247,71.212,233.054-50.767,310.625c-7.539,4.795-15.756,8.27-24.307,10.441
	c1.985,0.063,3.969,0.169,5.948,0.367l18.639,1.868c19.093,1.915,38.386-2.379,54.579-12.677
	C426.124,426.464,382.546,250.998,366.059,197.695z"/>
<g>
	<path id="SVGCleanerId_0_1_" style="fill:#E57F23;" d="M366.059,197.695c-2.523-8.156-10.463-13.408-18.955-12.521
		c-11.678,1.22-24.768,2.259-38.946,3.081c12.529,37.247,71.212,233.054-50.767,310.625c-7.539,4.795-15.756,8.27-24.307,10.441
		c1.985,0.063,3.969,0.169,5.948,0.367l18.639,1.868c19.093,1.915,38.386-2.379,54.579-12.677
		C426.124,426.464,382.546,250.998,366.059,197.695z"/>
</g>
<path style="fill:#FFE5B8;" d="M385.069,358.031l-40.88-40.879l39.744-39.744c-0.14-0.989-0.284-1.97-0.429-2.951
	c-0.069-0.467-0.137-0.933-0.207-1.397c-0.142-0.944-0.286-1.885-0.433-2.82c-0.075-0.476-0.151-0.949-0.227-1.423
	c-0.479-2.997-0.978-5.947-1.495-8.846c-0.106-0.596-0.213-1.193-0.32-1.785c-0.139-0.765-0.28-1.525-0.421-2.283
	c-0.123-0.659-0.247-1.313-0.372-1.966c-0.133-0.699-0.266-1.4-0.401-2.093c-0.235-1.205-0.473-2.402-0.712-3.585
	c0-0.001,0-0.002-0.001-0.003l-37.897-37.723h28.814c-1.346-4.812-2.627-9.129-3.773-12.836
	c-2.523-8.157-10.463-13.408-18.955-12.521c-30.996,3.238-71.928,5.207-116.808,5.207s-85.811-1.969-116.808-5.207
	c-8.492-0.887-16.432,4.364-18.954,12.521c-1.147,3.707-2.427,8.024-3.773,12.836h27.202l-2.882,2.997L82.02,246.589
	c0,0.001-0.001,0.003-0.001,0.004c-0.234,1.135-0.465,2.283-0.694,3.438c-0.038,0.189-0.075,0.378-0.113,0.568
	c-0.223,1.13-0.445,2.269-0.664,3.418c-0.029,0.154-0.058,0.309-0.088,0.463c-1.207,6.364-2.342,13.006-3.357,19.869
	c-0.001,0.007-0.002,0.013-0.003,0.02c-0.205,1.389-0.406,2.787-0.601,4.194c0,0.003-0.001,0.005-0.001,0.008l38.581,38.581
	L74.2,358.031l-0.891-0.891l0,0c0.608,8.3,1.576,16.596,2.954,24.816l38.817,38.817l-19.884,19.884
	c0.001,0.001,0.002,0.003,0.002,0.004c1.745,3.361,3.612,6.664,5.599,9.909c0.222,0.362,0.446,0.723,0.671,1.084
	c0.587,0.94,1.177,1.879,1.786,2.808l0,0l22.758-22.758l40.88,40.88l-23.204,23.203c0.002,0.002,0.005,0.003,0.007,0.005
	c1.521,1.045,3.061,2.077,4.642,3.083c0.002,0.001,0.003,0.002,0.005,0.003c0.003,0.002,0.005,0.003,0.008,0.005
	c0.887,0.564,1.788,1.103,2.693,1.631c0.321,0.187,0.643,0.369,0.966,0.551c0.592,0.335,1.189,0.66,1.789,0.98
	c0.382,0.203,0.762,0.409,1.146,0.606c0.83,0.426,1.666,0.839,2.508,1.236l20.371-20.371l27.772,27.772l9.837-0.986l6.128-0.615
	c1.331-0.133,2.664-0.228,3.998-0.3l-36.802-36.802l40.88-40.88l40.88,40.88l-36.752,36.752l0,0
	c0.637,0.025,1.274,0.059,1.911,0.098c1.121,0.064,2.241,0.14,3.359,0.252l14.762,1.48l27.651-27.651l20.787,20.787
	c0.001,0,0.002,0,0.002-0.001c0.658-0.301,1.309-0.617,1.96-0.935c0.326-0.159,0.651-0.317,0.975-0.48
	c0.55-0.277,1.098-0.563,1.642-0.852c0.491-0.262,0.98-0.531,1.466-0.803c0.411-0.229,0.822-0.456,1.229-0.692
	c0.918-0.534,1.831-1.081,2.73-1.654c0.004-0.002,0.008-0.005,0.012-0.007c0.002-0.001,0.004-0.003,0.006-0.004
	c1.312-0.835,2.582-1.697,3.852-2.559l-23.731-23.732l40.88-40.88l21.733,21.733l1.817,1.817c2.955-4.455,5.66-9.037,8.133-13.73
	l-20.751-20.751l40.416-40.416c0.323-2.011,0.62-4.026,0.894-6.043c0.029-0.21,0.052-0.422,0.08-0.632
	c0.244-1.833,0.473-3.667,0.679-5.504c0.018-0.155,0.032-0.31,0.049-0.465c0.212-1.925,0.407-3.852,0.58-5.78
	c0.003-0.037,0.006-0.073,0.009-0.111c0.181-2.033,0.341-4.066,0.48-6.1L385.069,358.031z M374.138,265.34l-40.88,40.88
	l-40.88-40.88l40.88-40.88L374.138,265.34z M322.326,317.151l-3.076,3.076l0,0l-37.804,37.803l-40.88-40.879l40.88-40.88
	L322.326,317.151z M324.663,210.531c-2.044,2.384-3.967,4.628-3.967,4.628l-39.25,39.25l-43.877-43.877h87.094V210.531z
	 M270.515,265.34l-40.88,40.88l-40.88-40.88l40.88-40.88L270.515,265.34z M218.704,317.151l-40.88,40.879l-40.88-40.879l40.88-40.88
	L218.704,317.151z M221.059,210.531c-4.996,5.282-9.841,10.483-9.841,10.483l-33.394,33.394l-43.877-43.877l0,0H221.059z
	 M85.132,265.34l40.88-40.88l40.88,40.88l-40.88,40.88L85.132,265.34z M126.012,409.842l-40.88-40.88l40.88-40.879l40.88,40.879
	L126.012,409.842z M177.824,461.654l-40.88-40.88l40.88-40.88l40.88,40.88L177.824,461.654z M188.755,368.962l40.88-40.879
	l40.88,40.879l-40.88,40.88L188.755,368.962z M281.446,461.654l-40.88-40.88l40.88-40.88l40.88,40.88L281.446,461.654z
	 M333.258,409.842l-40.88-40.88l33.184-33.338c0.335-0.241,0.658-0.503,0.959-0.804l6.737-6.737l40.88,40.879L333.258,409.842z"/>
<path style="fill:#EDD0A6;" d="M342.17,185.669c-2.704,0.262-5.476,0.515-8.313,0.758c-0.305,0.026-0.609,0.052-0.915,0.078
	c-2.907,0.246-5.881,0.481-8.918,0.706c-0.249,0.018-0.499,0.037-0.749,0.055c-3.109,0.228-6.283,0.444-9.519,0.649
	c-0.208,0.013-0.415,0.026-0.624,0.039c-1.644,0.103-3.299,0.204-4.973,0.301c1.646,4.895,4.091,12.532,6.817,22.276h9.688
	c-2.044,2.384-3.967,4.628-3.967,4.628l-3.514,3.514c1.417,5.397,2.87,11.279,4.296,17.567l11.78-11.78l40.88,40.88l-40.88,40.88
	l-1.141-1.141c0.583,7.564,0.964,15.27,1.093,23.053l0.049-0.049l40.88,40.879l-40.88,40.88l-8.002-8.002
	c-1.473,5.655-3.177,11.24-5.132,16.731l2.202,2.202l-4.881,4.881c-11.571,28.722-30.515,54.441-60.054,73.226
	c-7.257,4.615-15.144,7.995-23.35,10.178l-0.279,0.279l0,0c0.637,0.025,1.274,0.059,1.911,0.098
	c0.007,0.001,0.014,0.001,0.021,0.001c1.082,0.06,2.163,0.137,3.243,0.243c0.032,0.003,0.064,0.004,0.095,0.007l14.762,1.48
	l27.651-27.651l20.787,20.787c0.001,0,0.002,0,0.002-0.001c0.658-0.301,1.309-0.617,1.96-0.935c0.169-0.083,0.338-0.167,0.507-0.25
	c0.157-0.078,0.315-0.153,0.471-0.232c0.549-0.277,1.095-0.562,1.639-0.85c0.491-0.262,0.98-0.531,1.466-0.803
	c0.411-0.229,0.822-0.456,1.229-0.692c0.918-0.534,1.831-1.081,2.73-1.654c0.004-0.002,0.008-0.005,0.012-0.007
	c0.002-0.001,0.004-0.003,0.006-0.004c0,0,0,0,0.001,0c1.312-0.834,2.581-1.697,3.851-2.558l-23.731-23.732l40.88-40.88
	l21.733,21.733l1.817,1.817c2.955-4.455,5.66-9.037,8.133-13.73l-20.751-20.751l40.416-40.416c0.323-2.011,0.62-4.026,0.894-6.043
	c0.029-0.21,0.052-0.422,0.08-0.632c0.244-1.833,0.473-3.667,0.679-5.504c0.018-0.155,0.032-0.31,0.049-0.465
	c0.212-1.925,0.407-3.852,0.58-5.78c0.003-0.037,0.006-0.073,0.009-0.111c0.181-2.033,0.341-4.066,0.48-6.1l-2.308,2.308
	l-40.88-40.879l39.744-39.744c-0.14-0.989-0.284-1.97-0.429-2.951c-0.069-0.467-0.137-0.933-0.207-1.397
	c-0.142-0.944-0.286-1.885-0.433-2.82c-0.075-0.476-0.151-0.949-0.227-1.423c-0.479-2.997-0.978-5.947-1.495-8.846
	c-0.106-0.596-0.213-1.193-0.32-1.785c-0.139-0.765-0.28-1.525-0.421-2.283c-0.123-0.659-0.247-1.313-0.372-1.966
	c-0.133-0.699-0.266-1.4-0.401-2.093c-0.235-1.205-0.473-2.402-0.712-3.585c0-0.001,0-0.002-0.001-0.003l-37.897-37.723h28.814
	c-1.346-4.812-2.627-9.129-3.773-12.836c-2.208-7.137-8.563-12.05-15.806-12.572c-1.035-0.075-2.088-0.06-3.149,0.051
	c-1.298,0.136-2.621,0.268-3.953,0.399C342.825,185.605,342.498,185.637,342.17,185.669z"/>
<g>
</g>
<g>
</g>
<g>
</g>
<g>
</g>
<g>
</g>
<g>
</g>
<g>
</g>
<g>
</g>
<g>
</g>
<g>
</g>
<g>
</g>
<g>
</g>
<g>
</g>
<g>
</g>
<g>
</g>
</svg>
