<?xml version="1.0" encoding="iso-8859-1"?>
<!-- Generator: Adobe Illustrator 19.0.0, SVG Export Plug-In . SVG Version: 6.00 Build 0)  -->
<svg version="1.1" id="Capa_1" xmlns="http://www.w3.org/2000/svg" xmlns:xlink="http://www.w3.org/1999/xlink" x="0px" y="0px"
	 viewBox="0 0 512.002 512.002" style="enable-background:new 0 0 512.002 512.002;" xml:space="preserve">
<circle style="fill:#FED130;" cx="382.621" cy="140.52" r="76.21"/>
<path style="fill:#EDBA18;" d="M382.617,64.308c-10.066,0-19.666,1.97-28.462,5.515c27.987,11.279,47.75,38.672,47.75,70.698
	s-19.763,59.419-47.75,70.698c8.796,3.545,18.397,5.515,28.462,5.515c42.091,0,76.213-34.122,76.213-76.213
	S424.708,64.308,382.617,64.308z"/>
<circle style="fill:#FFE5B8;" cx="382.621" cy="140.52" r="52.662"/>
<g>
	<path style="fill:#FED130;" d="M382.617,158.219c-4.269,0-7.729,3.46-7.729,7.729v3.699c0,4.269,3.46,7.729,7.729,7.729
		s7.729-3.46,7.729-7.729v-3.699C390.346,161.679,386.885,158.219,382.617,158.219z"/>
	<path style="fill:#FED130;" d="M382.617,103.666c-4.269,0-7.729,3.46-7.729,7.729v3.699c0,4.269,3.46,7.729,7.729,7.729
		s7.729-3.46,7.729-7.729v-3.699C390.346,107.126,386.885,103.666,382.617,103.666z"/>
	<path style="fill:#FED130;" d="M364.919,140.521c0-4.269-3.46-7.729-7.729-7.729h-3.699c-4.269,0-7.729,3.46-7.729,7.729
		s3.46,7.729,7.729,7.729h3.699C361.458,148.25,364.919,144.79,364.919,140.521z"/>
	<path style="fill:#FED130;" d="M411.743,132.792h-3.699c-4.269,0-7.729,3.46-7.729,7.729s3.46,7.729,7.729,7.729h3.699
		c4.269,0,7.729-3.46,7.729-7.729S416.012,132.792,411.743,132.792z"/>
	<path style="fill:#FED130;" d="M367.487,114.46c-3.018-3.017-7.912-3.017-10.93,0c-3.019,3.019-3.019,7.912,0,10.931l2.616,2.616
		c1.509,1.509,3.487,2.263,5.465,2.263s3.956-0.755,5.465-2.263c3.019-3.019,3.019-7.912,0-10.931L367.487,114.46z"/>
	<path style="fill:#FED130;" d="M406.062,153.035c-3.018-3.017-7.912-3.017-10.93,0c-3.019,3.019-3.019,7.912,0,10.931l2.616,2.616
		c1.509,1.509,3.487,2.263,5.465,2.263s3.956-0.755,5.465-2.263c3.019-3.019,3.019-7.912,0-10.931L406.062,153.035z"/>
	<path style="fill:#FED130;" d="M400.597,130.27c1.978,0,3.956-0.755,5.465-2.263l2.616-2.616c3.019-3.019,3.019-7.912,0-10.931
		c-3.018-3.017-7.912-3.017-10.93,0l-2.616,2.616c-3.019,3.019-3.019,7.912,0,10.931C396.641,129.515,398.619,130.27,400.597,130.27
		z"/>
	<path style="fill:#FED130;" d="M359.172,153.035l-2.616,2.616c-3.019,3.019-3.019,7.912,0,10.931
		c1.509,1.509,3.487,2.263,5.465,2.263s3.956-0.755,5.465-2.263l2.616-2.616c3.019-3.019,3.019-7.912,0-10.931
		C367.084,150.018,362.19,150.018,359.172,153.035z"/>
</g>
<path style="fill:#772424;" d="M206.401,200.913c-3.385,0-6.493-2.241-7.443-5.663L152.463,27.809
	c-1.142-4.113,1.267-8.373,5.379-9.515c4.112-1.143,8.373,1.265,9.515,5.379l46.495,167.441c1.142,4.113-1.267,8.373-5.379,9.515
	C207.782,200.822,207.086,200.913,206.401,200.913z"/>
<path style="fill:#FF644A;" d="M147.728,3.16L47.312,115.557c-2.279,2.551-0.237,6.555,3.168,6.237
	c88.28-8.246,174.131-33.497,252.817-74.359c3.035-1.576,2.584-6.049-0.713-6.959L157.307,0.342
	C153.838-0.616,150.125,0.476,147.728,3.16z"/>
<path style="fill:#E52D15;" d="M302.585,40.476L157.307,0.342c-3.469-0.958-7.182,0.134-9.58,2.818l0,0
	c-17.653,19.76-8.41,51.187,17.13,58.242l66.366,18.334c24.58-9.364,48.653-20.137,72.086-32.307
	C306.338,45.856,305.874,41.384,302.585,40.476z"/>
<path style="fill:#4E9AE5;" d="M192.482,201.98c-2.73,0-5.376-1.448-6.782-4.01L100.328,42.49H38.063
	c-4.269,0-7.729-3.46-7.729-7.729s3.46-7.729,7.729-7.729h66.838c2.82,0,5.417,1.537,6.775,4.009l87.573,159.489
	c2.055,3.742,0.687,8.439-3.055,10.494C195.015,201.673,193.739,201.98,192.482,201.98z"/>
<path style="fill:#CDEAE0;" d="M480.223,247.322c-0.309-3.989-1.985-7.754-4.767-10.629l-79.616-82.294
	c-3.452-3.568-8.347-5.345-13.284-4.817c-25.437,2.719-65.013,4.466-109.466,4.466s-84.029-1.747-109.466-4.466
	c-4.937-0.528-9.832,1.249-13.284,4.817l-79.616,82.294c-2.782,2.875-4.458,6.641-4.767,10.629
	C52.922,415.77,131.365,481.678,169.718,503.595c11.112,6.35,23.887,9.173,36.65,8.226l56.17-4.168
	c7.024-0.521,14.078-0.521,21.102,0l56.171,4.168c12.763,0.947,25.538-1.876,36.65-8.226
	C414.815,481.678,493.258,415.77,480.223,247.322z"/>
<path style="fill:#B6D1C6;" d="M480.223,247.322c-0.309-3.989-1.985-7.754-4.767-10.629l-79.616-82.294
	c-3.452-3.569-8.347-5.345-13.284-4.818c-12.239,1.308-27.758,2.39-45.512,3.162l85.22,88.086c0.158,0.163,0.255,0.377,0.275,0.603
	c16.236,182.833-74.058,247.433-109.584,265.578c-1.811,0.925-3.678,1.717-5.578,2.403l32.434,2.407
	c12.764,0.947,25.538-1.876,36.65-8.226C414.815,481.678,493.258,415.77,480.223,247.322z"/>
<path style="fill:#B76955;" d="M415.062,243.79c-3.959-0.737-8.021-0.737-11.98,0l-77.854,14.493c-3.96,0.737-8.021,0.737-11.98,0
	l-77.85-14.493c-3.96-0.737-8.021-0.737-11.981,0l-77.847,14.493c-3.96,0.737-8.022,0.737-11.981,0l-67.428-12.554
	c-0.09,0.526-0.161,1.057-0.202,1.593C52.922,415.77,131.365,481.678,169.718,503.595c11.112,6.35,23.887,9.173,36.65,8.226
	l56.17-4.168c7.024-0.521,14.078-0.521,21.102,0l56.17,4.168c12.764,0.947,25.538-1.876,36.651-8.226
	c37.684-21.535,114.066-85.548,104.353-247.564L415.062,243.79z"/>
<path style="fill:#A55747;" d="M374.36,504.744c0.066-0.034,0.13-0.072,0.196-0.107c0.64-0.337,1.277-0.682,1.907-1.042
	c0.104-0.059,0.212-0.123,0.316-0.183c0.492-0.283,0.988-0.569,1.493-0.866c0.253-0.149,0.514-0.307,0.77-0.46
	c0.362-0.216,0.721-0.428,1.089-0.651c0.304-0.185,0.616-0.379,0.924-0.569c0.331-0.204,0.659-0.403,0.994-0.613
	c0.318-0.199,0.644-0.408,0.965-0.612c0.332-0.211,0.661-0.417,0.997-0.634c0.351-0.226,0.709-0.463,1.064-0.696
	c0.313-0.205,0.623-0.405,0.939-0.615c0.37-0.246,0.747-0.503,1.122-0.756c0.311-0.21,0.618-0.415,0.932-0.629
	c0.382-0.262,0.77-0.534,1.156-0.803c0.311-0.216,0.619-0.429,0.933-0.65c0.398-0.281,0.802-0.573,1.204-0.862
	c0.307-0.221,0.613-0.438,0.922-0.663c0.416-0.303,0.836-0.616,1.256-0.928c0.3-0.223,0.599-0.441,0.901-0.668
	c0.429-0.323,0.863-0.656,1.296-0.987c0.299-0.229,0.597-0.454,0.897-0.687c0.438-0.34,0.88-0.69,1.321-1.039
	c0.299-0.237,0.598-0.47,0.899-0.711c0.45-0.36,0.902-0.73,1.355-1.099c0.296-0.241,0.59-0.479,0.887-0.724
	c0.462-0.382,0.926-0.774,1.391-1.165c0.291-0.246,0.581-0.488,0.874-0.737c0.473-0.404,0.949-0.818,1.425-1.233
	c0.286-0.249,0.571-0.495,0.858-0.748c0.482-0.425,0.965-0.86,1.449-1.295c0.285-0.256,0.569-0.51,0.854-0.77
	c0.488-0.445,0.977-0.9,1.467-1.356c0.282-0.263,0.564-0.523,0.847-0.789c0.495-0.467,0.991-0.943,1.488-1.421
	c0.279-0.269,0.558-0.535,0.838-0.808c0.501-0.489,1.004-0.987,1.506-1.488c0.275-0.274,0.55-0.546,0.825-0.823
	c0.507-0.511,1.014-1.032,1.521-1.555c0.273-0.281,0.545-0.561,0.818-0.846c0.513-0.535,1.026-1.081,1.539-1.629
	c0.265-0.283,0.53-0.565,0.796-0.852c0.518-0.56,1.036-1.13,1.554-1.704c0.262-0.29,0.524-0.579,0.786-0.873
	c0.521-0.583,1.041-1.176,1.561-1.773c0.257-0.295,0.514-0.59,0.771-0.888c0.524-0.609,1.048-1.227,1.57-1.85
	c0.252-0.301,0.505-0.601,0.757-0.905c0.526-0.634,1.051-1.277,1.575-1.925c0.247-0.305,0.494-0.611,0.741-0.919
	c0.528-0.661,1.055-1.331,1.581-2.006c0.241-0.309,0.481-0.618,0.721-0.93c0.529-0.688,1.057-1.385,1.584-2.087
	c0.236-0.314,0.471-0.629,0.706-0.947c0.529-0.714,1.056-1.437,1.581-2.167c0.23-0.319,0.459-0.639,0.689-0.961
	c0.529-0.743,1.055-1.494,1.58-2.253c0.222-0.322,0.444-0.644,0.666-0.968c0.528-0.773,1.054-1.554,1.579-2.344
	c0.216-0.325,0.431-0.651,0.645-0.978c0.525-0.801,1.049-1.61,1.569-2.428c0.21-0.33,0.42-0.663,0.63-0.996
	c0.522-0.83,1.041-1.668,1.558-2.515c0.203-0.334,0.406-0.669,0.609-1.006c0.519-0.861,1.035-1.731,1.548-2.61
	c0.195-0.335,0.389-0.671,0.584-1.009c0.516-0.895,1.028-1.798,1.538-2.711c0.188-0.336,0.374-0.676,0.56-1.014
	c0.511-0.928,1.019-1.864,1.523-2.81c0.179-0.336,0.356-0.675,0.534-1.013c0.507-0.964,1.01-1.936,1.509-2.92
	c0.17-0.335,0.338-0.673,0.507-1.01c0.5-0.999,0.998-2.006,1.49-3.025c0.162-0.336,0.323-0.676,0.484-1.014
	c0.493-1.035,0.983-2.077,1.467-3.132c0.154-0.335,0.305-0.674,0.458-1.011c0.486-1.074,0.969-2.155,1.445-3.25
	c0.143-0.328,0.283-0.66,0.425-0.99c0.48-1.117,0.956-2.241,1.424-3.38c0.133-0.323,0.264-0.65,0.396-0.975
	c0.471-1.159,0.939-2.326,1.398-3.508c0.123-0.316,0.243-0.636,0.365-0.954c0.462-1.204,0.921-2.416,1.371-3.644
	c0.112-0.305,0.221-0.614,0.331-0.92c0.454-1.254,0.903-2.515,1.343-3.794c0.1-0.29,0.197-0.585,0.296-0.876
	c0.445-1.307,0.885-2.623,1.315-3.956c0.087-0.27,0.172-0.545,0.258-0.817c0.436-1.366,0.866-2.741,1.286-4.135
	c0.074-0.245,0.145-0.495,0.219-0.741c0.426-1.428,0.846-2.866,1.254-4.323c0.062-0.221,0.121-0.446,0.183-0.667
	c0.415-1.494,0.823-2.999,1.219-4.524c0.047-0.181,0.092-0.367,0.139-0.548c0.405-1.571,0.801-3.155,1.185-4.759
	c0.034-0.141,0.065-0.284,0.099-0.425c0.394-1.655,0.778-3.325,1.149-5.015c0.015-0.07,0.03-0.143,0.045-0.213
	c6.356-29.078,9.292-63.389,6.872-103.801c0-0.008-0.001-0.016-0.001-0.024l-57.969-10.792
	c14.647,179.909-74.614,243.754-109.891,261.773c-1.811,0.925-3.678,1.717-5.578,2.403l32.434,2.407
	C351.778,512.709,363.753,510.283,374.36,504.744z"/>
<g>
</g>
<g>
</g>
<g>
</g>
<g>
</g>
<g>
</g>
<g>
</g>
<g>
</g>
<g>
</g>
<g>
</g>
<g>
</g>
<g>
</g>
<g>
</g>
<g>
</g>
<g>
</g>
<g>
</g>
</svg>
