<?xml version="1.0" encoding="iso-8859-1"?>
<!-- Generator: Adobe Illustrator 19.0.0, SVG Export Plug-In . SVG Version: 6.00 Build 0)  -->
<svg version="1.1" id="Capa_1" xmlns="http://www.w3.org/2000/svg" xmlns:xlink="http://www.w3.org/1999/xlink" x="0px" y="0px"
	 viewBox="0 0 512 512" style="enable-background:new 0 0 512 512;" xml:space="preserve">
<path style="fill:#67BC44;" d="M205.969,192.239l-5.639-8.091c-7.453-10.693-11.449-23.414-11.449-36.448l0,0
	c0-28.151-1.966-56.267-5.883-84.144l-1.889-13.857c-0.114-0.624,0.365-1.199,0.999-1.199l0,0c0.561,0,1.016-0.455,1.016-1.016
	l-1.022-18.177h-56.201l-1.022,18.177c0,0.561,0.455,1.016,1.016,1.016l0,0c0.634,0,1.113,0.575,0.999,1.199l-1.889,13.857
	c-3.917,27.877-5.883,55.993-5.883,84.144l0,0c0,13.034-3.996,25.755-11.449,36.448l-5.639,8.09
	c-11.124,15.96-17.088,34.947-17.088,54.401v242.799c0,12.46,10.101,22.562,22.562,22.562h92.987
	c12.46,0,22.561-10.101,22.561-22.561v-242.8C223.056,227.185,217.093,208.199,205.969,192.239z"/>
<path style="fill:#59AA33;" d="M205.969,192.239l-5.639-8.091c-7.453-10.693-11.449-23.414-11.449-36.448
	c0-28.151-1.966-56.267-5.883-84.144l-1.889-13.857c-0.114-0.624,0.365-1.199,0.999-1.199c0.561,0,1.016-0.455,1.016-1.016
	l-1.022-18.177H134.15L132.996,147.7c0,13.034,3.996,25.755,11.449,36.448l5.639,8.091c11.124,15.96,17.087,34.946,17.087,54.4
	v242.799c0,12.46-10.101,22.561-22.561,22.561h55.885c12.46,0,22.561-10.101,22.561-22.561V246.639
	C223.056,227.185,217.092,208.199,205.969,192.239z"/>
<path style="fill:#FC502A;" d="M154.002,398.451L154.002,398.451c-23.29,0-42.17-18.88-42.17-42.17v-42.17
	c0-23.29,18.88-42.17,42.17-42.17l0,0c23.29,0,42.17,18.88,42.17,42.17v42.17C196.172,379.571,177.291,398.451,154.002,398.451z"/>
<path style="fill:#E52D15;" d="M196.172,356.281v-42.17c0-18.689-12.162-34.528-29-40.061v122.292
	C184.009,390.809,196.172,374.97,196.172,356.281z"/>
<rect x="111.83" y="318.82" style="fill:#E5F9F6;" width="84.34" height="32.76"/>
<path style="fill:#FC502A;" d="M119.203,138.401H188.8c-0.212-13.772-0.899-27.53-2.05-41.25h-65.496
	C120.102,110.871,119.415,124.629,119.203,138.401z"/>
<path style="fill:#4A4256;" d="M181.512,31.157H126.49c-2.273,0-4.116-1.843-4.116-4.116V4.116c0-2.273,1.843-4.116,4.116-4.116
	h55.022c2.273,0,4.116,1.843,4.116,4.116V27.04C185.629,29.314,183.786,31.157,181.512,31.157z"/>
<path style="fill:#E52D15;" d="M133.087,138.401H188.8c-0.052-3.346-0.134-6.691-0.241-10.036c-0.004-0.111-0.005-0.222-0.009-0.333
	c-0.111-3.406-0.252-6.81-0.421-10.213c-0.001-0.025-0.002-0.049-0.003-0.074c-0.342-6.869-0.801-13.732-1.376-20.586
	c0-0.003-0.001-0.006-0.001-0.01h-53.261L133.087,138.401z"/>
<rect x="167.17" y="318.82" style="fill:#D6E5E2;" width="29" height="32.76"/>
<path style="fill:#E5F9F6;" d="M419.842,214.325H289.947c-3.86,0-7.023,3.061-7.133,6.92c-0.408,14.35,0.336,50.925,13.375,108.854
	c21.263,94.46,11.439,154.517,6.746,174.507c-0.888,3.781,1.994,7.394,5.878,7.394h92.163c3.884,0,6.766-3.613,5.878-7.394
	c-4.693-19.99-14.517-80.047,6.746-174.507c13.04-57.929,13.783-94.504,13.375-108.854
	C426.865,217.387,423.702,214.325,419.842,214.325z"/>
<path style="fill:#D6E5E2;" d="M426.975,221.245c-0.11-3.859-3.273-6.92-7.133-6.92H369.06c0,0,4.228,39.261-12.995,115.774
	C329.588,447.721,351.313,512,351.313,512h49.663c3.884,0,6.766-3.613,5.878-7.394c-4.693-19.99-14.517-80.047,6.746-174.507
	C426.639,272.17,427.383,235.595,426.975,221.245z"/>
<path style="fill:#FED130;" d="M425.949,252.347H283.841c1.52,18.955,4.958,44.92,12.349,77.752
	c21.263,94.46,11.439,154.517,6.746,174.507c-0.888,3.781,1.994,7.394,5.878,7.394h92.163c3.884,0,6.765-3.613,5.878-7.394
	c-4.694-19.99-14.517-80.047,6.746-174.507C420.99,297.267,424.429,271.302,425.949,252.347z"/>
<path style="fill:#E5F9F6;" d="M403.962,489.498c-12.183,1.522-29.653,2.477-49.068,2.477s-36.885-0.955-49.068-2.477
	c-0.987,6.372-2.027,11.424-2.892,15.108c-0.888,3.781,1.994,7.394,5.878,7.394h92.163c3.884,0,6.765-3.613,5.878-7.394
	C405.989,500.921,404.949,495.87,403.962,489.498z"/>
<path style="fill:#FFE5B8;" d="M289.506,296.475h130.777c2.988-17.464,4.709-32.189,5.666-44.127H283.841
	C284.798,264.286,286.519,279.011,289.506,296.475z"/>
<path style="fill:#EDD0A6;" d="M368.411,252.347c-0.957,11.941-2.674,26.654-5.663,44.127h57.533
	c0.023-0.136,0.048-0.275,0.071-0.411c0.121-0.711,0.239-1.415,0.356-2.117c0.101-0.604,0.199-1.204,0.297-1.801
	c0.113-0.689,0.226-1.38,0.335-2.06c0.172-1.075,0.339-2.139,0.5-3.192c0.106-0.685,0.206-1.359,0.307-2.034
	c0.082-0.545,0.163-1.088,0.242-1.627c0.099-0.675,0.198-1.347,0.293-2.012c0.08-0.56,0.157-1.112,0.234-1.665
	c0.148-1.055,0.29-2.097,0.428-3.127c0.073-0.549,0.147-1.1,0.218-1.642c0.081-0.619,0.159-1.232,0.236-1.842
	c0.067-0.526,0.131-1.047,0.196-1.565c0.071-0.577,0.143-1.156,0.211-1.724c0.113-0.939,0.221-1.866,0.325-2.781
	c0.062-0.539,0.12-1.068,0.178-1.6c0.058-0.525,0.115-1.048,0.171-1.565c0.056-0.526,0.112-1.05,0.166-1.568
	c0.058-0.56,0.113-1.111,0.168-1.661c0.078-0.781,0.153-1.551,0.224-2.312c0.049-0.516,0.097-1.032,0.143-1.539
	c0.046-0.502,0.089-0.998,0.132-1.492c0.039-0.444,0.076-0.883,0.112-1.319c0.041-0.489,0.083-0.98,0.121-1.459
	c0-0.004,0-0.008,0.001-0.012L368.411,252.347L368.411,252.347z"/>
<path style="fill:#EFBE25;" d="M362.748,296.475c-1.755,10.263-3.946,21.469-6.683,33.625
	c-17.854,79.314-13.791,134.366-9.25,161.817c2.65,0.037,5.343,0.058,8.079,0.058c19.415,0,36.885-0.955,49.068-2.477
	c0.135,0.869,0.27,1.708,0.406,2.528c-4.548-27.413-8.647-82.504,9.231-161.926c0.011-0.05,0.021-0.098,0.033-0.148
	c0.423-1.884,0.833-3.743,1.231-5.581c0.142-0.657,0.277-1.3,0.416-1.951c0.263-1.231,0.524-2.46,0.776-3.67
	c0.152-0.731,0.298-1.45,0.445-2.173c0.227-1.111,0.452-2.218,0.67-3.311c0.148-0.742,0.292-1.477,0.435-2.21
	c0.206-1.054,0.409-2.102,0.606-3.139c0.139-0.728,0.276-1.454,0.41-2.174c0.194-1.036,0.382-2.06,0.567-3.079
	c0.125-0.685,0.25-1.372,0.371-2.05c0.192-1.075,0.376-2.135,0.558-3.191c0.055-0.316,0.109-0.631,0.164-0.948H362.748z"/>
<path style="fill:#D6E5E2;" d="M406.854,504.606c-0.004-0.017-0.008-0.037-0.012-0.054c-0.125-0.536-0.255-1.108-0.388-1.701
	c-0.044-0.197-0.088-0.401-0.133-0.604c-0.099-0.451-0.199-0.918-0.3-1.4c-0.049-0.233-0.098-0.46-0.147-0.701
	c-0.139-0.676-0.28-1.372-0.423-2.105c-0.039-0.199-0.078-0.413-0.117-0.616c-0.108-0.565-0.217-1.143-0.326-1.74
	c-0.06-0.326-0.119-0.659-0.179-0.996c-0.096-0.538-0.192-1.09-0.287-1.653c-0.057-0.337-0.115-0.666-0.172-1.012
	c-0.136-0.82-0.272-1.659-0.406-2.528c-12.183,1.522-29.653,2.477-49.068,2.477c-2.737,0-5.429-0.021-8.079-0.058
	c2.193,13.258,4.497,20.082,4.497,20.083h49.663c0.898,0,1.739-0.2,2.496-0.544c0.177-0.081,0.349-0.17,0.516-0.266
	c0.276-0.16,0.543-0.333,0.789-0.532c0.172-0.139,0.335-0.287,0.49-0.444C406.66,508.806,407.353,506.733,406.854,504.606z"/>
<g>
</g>
<g>
</g>
<g>
</g>
<g>
</g>
<g>
</g>
<g>
</g>
<g>
</g>
<g>
</g>
<g>
</g>
<g>
</g>
<g>
</g>
<g>
</g>
<g>
</g>
<g>
</g>
<g>
</g>
</svg>
