<?xml version="1.0" encoding="iso-8859-1"?>
<!-- Generator: Adobe Illustrator 19.0.0, SVG Export Plug-In . SVG Version: 6.00 Build 0)  -->
<svg version="1.1" id="Capa_1" xmlns="http://www.w3.org/2000/svg" xmlns:xlink="http://www.w3.org/1999/xlink" x="0px" y="0px"
	 viewBox="0 0 512 512" style="enable-background:new 0 0 512 512;" xml:space="preserve">
<path style="fill:#77D057;" d="M206.525,113.095V21.513h-85.268v91.582c0,21.767-14.907,40.703-36.065,45.813l-29.895,7.22
	c-21.159,5.11-36.065,24.046-36.065,45.813v272.498C19.232,499.66,31.571,512,46.793,512h234.199
	c15.221,0,27.561-12.339,27.561-27.561V211.941c0-21.767-14.907-40.703-36.065-45.813l-29.895-7.22
	C221.432,153.797,206.525,134.862,206.525,113.095z"/>
<path style="fill:#67BC44;" d="M272.486,166.128l-29.895-7.22c-21.159-5.11-36.065-24.046-36.065-45.813V21.513h-58.949v110.048
	c0,21.767,14.907,40.703,36.065,45.813l29.895,7.22c21.159,5.11,36.065,24.046,36.065,45.813v272.498
	c0,3.188-0.548,6.247-1.543,9.095h32.932c15.221,0,27.561-12.339,27.561-27.561V211.941
	C308.551,190.174,293.645,171.239,272.486,166.128z"/>
<path style="fill:#4A4256;" d="M210.59,62.778h-93.397c-4.415,0-7.994-3.579-7.994-7.994V7.994c0-4.415,3.579-7.994,7.994-7.994
	h93.397c4.415,0,7.994,3.579,7.994,7.994v46.789C218.584,59.199,215.005,62.778,210.59,62.778z"/>
<path style="fill:#352F3F;" d="M210.59,0h-51.133v62.778h51.133c4.415,0,7.994-3.579,7.994-7.994V7.994
	C218.584,3.579,215.005,0,210.59,0z"/>
<g>
	<path style="fill:#306318;" d="M209.58,129.771c-1.975-5.216-3.055-10.842-3.055-16.677V95.547h-85.268v17.548
		c0,5.834-1.08,11.461-3.055,16.677h91.378V129.771z"/>
	<path style="fill:#306318;" d="M252.819,420.085H74.963c-5.429,0-9.83-4.401-9.83-9.83V260.374c0-5.429,4.401-9.83,9.83-9.83
		h177.856c5.429,0,9.83,4.401,9.83,9.83v149.881C262.648,415.684,258.248,420.085,252.819,420.085z"/>
</g>
<path style="fill:#2C5114;" d="M252.819,250.544h-49.031v169.54h49.031c5.429,0,9.829-4.401,9.829-9.83v-149.88
	C262.648,254.945,258.248,250.544,252.819,250.544z"/>
<path style="fill:#FED130;" d="M92.841,389.357V281.271c0-1.668,1.352-3.02,3.02-3.02h136.06c1.668,0,3.02,1.352,3.02,3.02v108.086
	c0,1.668-1.352,3.02-3.02,3.02H95.862C94.193,392.378,92.841,391.025,92.841,389.357z"/>
<path style="fill:#EFBE25;" d="M231.922,278.251h-55.574v114.127h55.574c1.668,0,3.02-1.352,3.02-3.02V281.271
	C234.942,279.603,233.59,278.251,231.922,278.251z"/>
<path style="fill:#FFFFFF;" d="M256.256,465.252H71.525c-4.274,0-7.737-3.464-7.737-7.737s3.464-7.737,7.737-7.737h184.731
	c4.274,0,7.737,3.464,7.737,7.737S260.53,465.252,256.256,465.252z"/>
<rect x="121.259" y="62.778" style="fill:#E5F9F6;" width="85.27" height="32.769"/>
<g>
	<path style="fill:#D6E5E2;" d="M431.888,492.938c0,6.972-8.928,11.856-15.977,3.843v-99.342c7.048-8.013,15.977-3.129,15.977,3.843
		V492.938z"/>
	<path style="fill:#D6E5E2;" d="M471.247,508.514c0,0-40.57-18.661-47.348-18.661s-47.348,18.661-47.348,18.661
		c-1.199,0.768-0.838,3.486,0.463,3.486h93.77C472.085,512,472.446,509.283,471.247,508.514z"/>
</g>
<path style="fill:#E5F9F6;" d="M355.072,250.262l21.097,128.497c1.424,8.675,5.666,16.639,12.07,22.662l29.776,28.005
	c3.307,3.11,8.463,3.11,11.771,0l29.776-28.005c6.404-6.023,10.645-13.987,12.07-22.662l21.097-128.497
	c0.293-1.785-1.084-3.406-2.893-3.406h-131.87C356.156,246.856,354.779,248.478,355.072,250.262z"/>
<g>
	<path style="fill:#D6E5E2;" d="M489.835,246.856H434.16l-21.816,132.883c-1.32,8.039-5.251,15.42-11.185,21.002l-6.821,6.416
		l23.678,22.27c3.307,3.11,8.464,3.11,11.771,0l29.776-28.005c6.404-6.023,10.645-13.987,12.07-22.662l21.097-128.497
		C493.021,248.478,491.643,246.856,489.835,246.856z"/>
	<path style="fill:#D6E5E2;" d="M471.247,508.514c0,0-40.57-18.661-47.348-18.661s-47.348,18.661-47.348,18.661
		c-1.199,0.768-0.838,3.486,0.463,3.486h93.77C472.085,512,472.446,509.283,471.247,508.514z"/>
</g>
<path style="fill:#77D057;" d="M370.851,346.369l5.318,32.391c1.424,8.675,5.666,16.639,12.07,22.662l29.776,28.005
	c3.307,3.11,8.464,3.11,11.771,0l29.776-28.005c6.404-6.023,10.645-13.987,12.07-22.662l5.318-32.391H370.851z"/>
<path style="fill:#67BC44;" d="M417.822,346.369l-5.479,33.37c-1.32,8.039-5.251,15.42-11.185,21.002l-6.821,6.416l23.678,22.27
	c3.307,3.11,8.464,3.11,11.771,0l29.776-28.005c6.404-6.023,10.645-13.987,12.07-22.662l5.318-32.391H417.822z"/>
<path style="fill:#2C5114;" d="M208.871,127.762c-0.205-0.624-0.396-1.254-0.575-1.889c-0.015-0.054-0.03-0.107-0.045-0.16
	c-0.166-0.598-0.32-1.2-0.463-1.807c-0.021-0.09-0.044-0.18-0.064-0.27c-0.13-0.568-0.248-1.139-0.358-1.713
	c-0.024-0.127-0.05-0.253-0.074-0.38c-0.098-0.537-0.183-1.076-0.262-1.618c-0.024-0.163-0.051-0.325-0.073-0.488
	c-0.069-0.512-0.126-1.027-0.178-1.544c-0.02-0.189-0.044-0.378-0.061-0.568c-0.046-0.51-0.077-1.024-0.107-1.538
	c-0.011-0.193-0.028-0.384-0.037-0.578c-0.03-0.676-0.046-1.356-0.047-2.038c0-0.025-0.002-0.05-0.002-0.075V95.547h-58.949v34.225
	h62.004c0-0.001-0.001-0.001-0.001-0.002c-0.243-0.641-0.471-1.288-0.686-1.941C208.886,127.807,208.879,127.784,208.871,127.762z"
	/>
<rect x="147.579" y="62.778" style="fill:#D6E5E2;" width="58.949" height="32.769"/>
<g>
</g>
<g>
</g>
<g>
</g>
<g>
</g>
<g>
</g>
<g>
</g>
<g>
</g>
<g>
</g>
<g>
</g>
<g>
</g>
<g>
</g>
<g>
</g>
<g>
</g>
<g>
</g>
<g>
</g>
</svg>
