<?xml version="1.0" encoding="iso-8859-1"?>
<!-- Generator: Adobe Illustrator 19.0.0, SVG Export Plug-In . SVG Version: 6.00 Build 0)  -->
<svg version="1.1" id="Capa_1" xmlns="http://www.w3.org/2000/svg" xmlns:xlink="http://www.w3.org/1999/xlink" x="0px" y="0px"
	 viewBox="0 0 512.002 512.002" style="enable-background:new 0 0 512.002 512.002;" xml:space="preserve">
<path style="fill:#E5F9F6;" d="M248.084,197.611L248.084,197.611c1.868-1.401,2.967-3.6,2.967-5.935v-16.499
	c0-6.646-3.183-12.89-8.56-16.795l-36.48-26.489c-5.378-3.905-8.56-10.149-8.56-16.795V29.189h-52.673v85.909
	c0,6.646-3.183,12.89-8.56,16.795l-36.48,26.489c-5.378,3.905-8.56,10.149-8.56,16.795v16.499c0,2.362,1.154,4.545,3.029,5.982
	c1.831,1.403,2.906,3.579,2.906,5.888v269.506c0,2.335-1.099,4.534-2.967,5.935l0,0c-1.868,1.401-2.967,3.6-2.967,5.935v12.601
	c0,7.996,6.482,14.478,14.478,14.478h130.918c7.996,0,14.477-6.482,14.477-14.477v-12.601c0-2.335-1.099-4.534-2.967-5.935l0,0
	c-1.868-1.401-2.967-3.6-2.967-5.935V203.546C245.117,201.211,246.216,199.012,248.084,197.611z"/>
<path style="fill:#CDEAE0;" d="M144.778,115.098c0,6.646-3.183,12.89-8.56,16.795l-36.48,26.489
	c-5.378,3.905-8.56,10.149-8.56,16.795v16.499c0,2.362,1.154,4.545,3.029,5.982c1.831,1.403,2.906,3.579,2.906,5.888v269.506
	c0,2.335-1.099,4.534-2.967,5.935s-2.967,3.6-2.967,5.935v12.601c0,7.996,6.482,14.478,14.478,14.478h130.918
	c7.996,0,14.477-6.482,14.477-14.478v-12.601c0-2.335-1.099-4.534-2.967-5.935l0,0c-1.868-1.401-2.967-3.6-2.967-5.935V203.546
	c0-2.335,1.1-4.534,2.967-5.935l0,0c1.868-1.401,2.967-3.6,2.967-5.935v-16.499c0-6.646-3.183-12.89-8.56-16.795l-36.48-26.489
	c-5.378-3.905-8.56-10.149-8.56-16.795C197.452,115.098,144.778,115.098,144.778,115.098z"/>
<path style="fill:#B6D1C6;" d="M247.66,506.825c2.114-2.516,3.391-5.759,3.391-9.303v-12.601c0-2.043-0.842-3.982-2.303-5.373
	c-0.209-0.199-0.43-0.386-0.664-0.561l0,0c-0.452-0.339-0.856-0.726-1.214-1.149c-1.12-1.325-1.754-3.016-1.754-4.786l0,0V203.546
	l0,0c0-0.344,0.031-0.683,0.077-1.018c0.23-1.66,1.01-3.198,2.226-4.355c0.209-0.199,0.43-0.386,0.664-0.561l0,0
	c1.639,0,2.967-1.329,2.967-2.967v-19.467c0-6.646-3.183-12.89-8.56-16.795l-36.48-26.489c-1.168-0.848-2.225-1.812-3.176-2.861
	c-0.296-0.326-0.58-0.66-0.853-1.003c-0.218-0.273-0.428-0.551-0.631-0.834c-0.374-0.522-0.731-1.055-1.055-1.608
	c-0.613-1.046-1.133-2.145-1.555-3.284c-0.843-2.277-1.291-4.713-1.291-7.205h-52.673c0,0.087-0.007,0.173-0.008,0.26
	c-0.004,0.325-0.01,0.65-0.029,0.973c-0.015,0.244-0.042,0.485-0.065,0.728c-0.016,0.164-0.025,0.328-0.044,0.491
	c-0.04,0.338-0.093,0.674-0.15,1.009c-0.011,0.064-0.017,0.128-0.029,0.192c-0.068,0.38-0.148,0.756-0.236,1.13
	c-0.004,0.018-0.007,0.036-0.011,0.053c-0.375,1.567-0.932,3.078-1.653,4.507c0,0,0,0,0,0.001c1.469,2.913,3.621,5.481,6.335,7.451
	l27.099,21.954c7.594,6.152,12.006,15.404,12.006,25.178v301.905c0,10.937-2.951,21.672-8.543,31.071l0,0h57.123
	c1.999,0,3.903-0.405,5.635-1.138c0.603-0.255,1.176-0.563,1.734-0.894c0.644-0.382,1.265-0.8,1.84-1.274
	C246.465,508.131,247.091,507.503,247.66,506.825z"/>
<path style="fill:#4A4256;" d="M197.191,78.757h-52.152c-3.064,0-5.548-2.484-5.548-5.548V5.548c0-3.064,2.484-5.548,5.548-5.548
	h52.152c3.064,0,5.548,2.484,5.548,5.548V73.21C202.739,76.273,200.255,78.757,197.191,78.757z"/>
<rect x="139.491" y="21.537" style="fill:#FC502A;" width="63.25" height="15.305"/>
<path style="fill:#FED130;" d="M245.117,323.663V257.86c-0.357-1.772-1.921-3.107-3.798-3.107h-7.438
	c-1.83,0-3.43-1.247-3.855-3.026c-6.448-26.941-30.673-46.974-59.59-46.974l0,0c-28.918,0-53.142,20.032-59.59,46.974
	c-0.426,1.779-2.026,3.026-3.856,3.026h-7.439c-0.929,0-1.77,0.34-2.438,0.885v70.246c0.668,0.545,1.509,0.885,2.438,0.885h7.438
	c1.83,0,3.43,1.247,3.856,3.026c6.448,26.941,30.673,46.974,59.59,46.974l0,0c28.918,0,53.142-20.032,59.59-46.974
	c0.426-1.779,2.026-3.026,3.856-3.026h7.438C243.196,326.769,244.76,325.434,245.117,323.663z"/>
<path style="fill:#EFBE25;" d="M245.117,323.663V257.86c-0.357-1.772-1.921-3.107-3.798-3.107h-7.438
	c-1.83,0-3.43-1.247-3.855-3.026c-5.087-21.254-21.241-38.198-42.031-44.41v166.888c20.79-6.211,36.944-23.156,42.031-44.409
	c0.426-1.779,2.026-3.026,3.856-3.026h7.438C243.196,326.769,244.76,325.434,245.117,323.663z"/>
<path style="fill:#CDEAE0;" d="M363.382,502.484c-4.227,0-7.652-3.426-7.652-7.652v-87.801c0-4.227,3.426-7.652,7.652-7.652
	s7.652,3.426,7.652,7.652v87.801C371.034,499.059,367.609,502.484,363.382,502.484z"/>
<path style="fill:#E5F9F6;" d="M400.295,288.911h-73.828c-1.48,0-2.774,0.999-3.148,2.431l-15.448,59.157
	c-6.618,25.341,4.141,52.027,26.484,65.692l23.293,14.246c3.519,2.152,7.947,2.152,11.466,0l23.293-14.246
	c22.344-13.665,33.102-40.351,26.484-65.692l-15.448-59.157C403.069,289.91,401.776,288.911,400.295,288.911z"/>
<path style="fill:#D6E5E2;" d="M407.941,508.72c0,0-38.18-17.562-44.559-17.562s-44.559,17.562-44.559,17.562
	c-1.128,0.723-0.788,3.28,0.436,3.28h88.247C408.729,512,409.069,509.443,407.941,508.72z"/>
<path style="fill:#CDEAE0;" d="M307.872,350.499c-6.618,25.341,4.141,52.027,26.484,65.692l23.293,14.246
	c3.519,2.152,7.947,2.152,11.466,0l23.292-14.246c22.344-13.665,33.102-40.351,26.484-65.692l-4.715-18.055h-101.59L307.872,350.499
	z"/>
<g>
	<path style="fill:#FFFFFF;" d="M216.178,434.803h-90.127c-4.226,0-7.652-3.426-7.652-7.652s3.426-7.652,7.652-7.652h90.127
		c4.226,0,7.652,3.426,7.652,7.652S220.404,434.803,216.178,434.803z"/>
	<path style="fill:#FFFFFF;" d="M216.178,460.432h-90.127c-4.226,0-7.652-3.426-7.652-7.652s3.426-7.652,7.652-7.652h90.127
		c4.226,0,7.652,3.426,7.652,7.652S220.404,460.432,216.178,460.432z"/>
</g>
<path style="fill:#B6D1C6;" d="M392.407,416.192c22.344-13.665,33.102-40.351,26.484-65.692l-4.715-18.055h-57.442l5.325,20.392
	c6.255,23.954-3.914,49.178-25.034,62.095l-2.365,1.447l22.988,14.06c3.519,2.152,7.947,2.152,11.466,0L392.407,416.192z"/>
<path style="fill:#D6E5E2;" d="M400.296,288.911h-54.929l11.368,43.534h57.442l-10.734-41.102
	C403.069,289.91,401.776,288.911,400.296,288.911z"/>
<path style="fill:#EFEFEF;" d="M170.435,336.466c-13.9,0-25.972-8.898-30.156-21.919c-0.218-12.08-0.218-35.486,0-47.571
	c4.185-13.024,16.256-21.92,30.155-21.92c13.9,0,25.972,8.897,30.156,21.919c0.218,12.085,0.218,35.493,0,47.573
	C196.408,327.568,184.336,336.466,170.435,336.466z"/>
<g>
</g>
<g>
</g>
<g>
</g>
<g>
</g>
<g>
</g>
<g>
</g>
<g>
</g>
<g>
</g>
<g>
</g>
<g>
</g>
<g>
</g>
<g>
</g>
<g>
</g>
<g>
</g>
<g>
</g>
</svg>
