<?xml version="1.0" encoding="iso-8859-1"?>
<!-- Generator: Adobe Illustrator 19.0.0, SVG Export Plug-In . SVG Version: 6.00 Build 0)  -->
<svg version="1.1" id="Capa_1" xmlns="http://www.w3.org/2000/svg" xmlns:xlink="http://www.w3.org/1999/xlink" x="0px" y="0px"
	 viewBox="0 0 512 512" style="enable-background:new 0 0 512 512;" xml:space="preserve">
<path style="fill:#CDDBE7;" d="M390.023,51.883l-7.184-5.511c-8.209-6.298-13.022-16.056-13.022-26.402H142.181
	c0,10.347-4.813,20.105-13.022,26.402l-7.184,5.511c-3.682,2.824-5.84,7.2-5.84,11.841v405.529c0,4.006,1.863,7.784,5.042,10.222
	l16.703,12.813c2.712,2.08,4.301,5.303,4.301,8.721c0,6.07,4.921,10.991,10.991,10.991h205.654c6.07,0,10.991-4.921,10.991-10.991
	c0-3.418,1.59-6.641,4.301-8.721l16.703-12.813c3.178-2.438,5.042-6.216,5.042-10.222V63.723
	C395.863,59.083,393.705,54.707,390.023,51.883z"/>
<path style="fill:#B8CBD9;" d="M390.023,51.883l-7.184-5.511c-8.209-6.298-13.022-16.056-13.022-26.402h-60.351
	c0,10.347,4.813,20.105,13.022,26.402l7.184,5.511c3.682,2.824,5.84,7.2,5.84,11.841v405.529c0,4.006-1.863,7.784-5.042,10.222
	l-16.703,12.813c-2.712,2.08-4.301,5.303-4.301,8.721c0,6.07-4.921,10.991-10.991,10.991h60.351c6.07,0,10.991-4.921,10.991-10.991
	c0-3.418,1.59-6.641,4.301-8.721l16.703-12.813c3.178-2.438,5.042-6.216,5.042-10.222V63.723
	C395.863,59.083,393.705,54.707,390.023,51.883z"/>
<path style="fill:#E5F9F6;" d="M380.996,26.176H131.002c-2.888,0-5.23-2.342-5.23-5.23V5.23c0-2.888,2.342-5.23,5.23-5.23h249.993
	c2.888,0,5.23,2.342,5.23,5.23v15.716C386.226,23.835,383.884,26.176,380.996,26.176z"/>
<path style="fill:#B6D1C6;" d="M380.996,0h-54.849v26.176h54.849c2.888,0,5.23-2.342,5.23-5.23V5.23
	C386.226,2.342,383.884,0,380.996,0z"/>
<path style="fill:#4E9AE5;" d="M116.135,64.429v404.824c0,0.381,0.032,0.757,0.066,1.133h279.598
	c0.033-0.376,0.066-0.752,0.066-1.133V64.429H116.135z"/>
<path style="fill:#3C8CCE;" d="M335.512,469.252c0,0.381-0.032,0.757-0.066,1.133h60.351c0.033-0.376,0.066-0.752,0.066-1.133
	V64.429h-60.351V469.252z"/>
<circle style="fill:#EFEFEF;" cx="255.999" cy="239.9" r="95.4"/>
<path style="fill:#FC502A;" d="M222.782,229.415c32.154,0,32.154-23.103,64.308-23.103c31.581,0,33.214,22.271,63.728,23.066
	c0.185,1.684,0.326,3.382,0.423,5.091c-2.817-50.159-44.378-89.966-95.241-89.966c-41.069,0-76.074,25.952-89.516,62.351
	C190.89,210.32,193.55,229.415,222.782,229.415z"/>
<path style="fill:#FED130;" d="M222.782,277.61c-31.027,0-32.119-21.511-61.055-23.014c7.067,45.71,46.582,80.704,94.272,80.704
	c39.478,0,73.333-23.991,87.838-58.178c-24.811-3.302-27.34-22.615-56.747-22.615C254.936,254.507,254.936,277.61,222.782,277.61z"
	/>
<g>
	<path style="fill:#FFFFFF;" d="M319.1,405.054H192.898c-4.268,0-7.729-3.46-7.729-7.729s3.46-7.729,7.729-7.729H319.1
		c4.268,0,7.729,3.46,7.729,7.729S323.368,405.054,319.1,405.054z"/>
	<path style="fill:#FFFFFF;" d="M319.1,437.032H192.898c-4.268,0-7.729-3.46-7.729-7.729s3.46-7.729,7.729-7.729H319.1
		c4.268,0,7.729,3.46,7.729,7.729S323.368,437.032,319.1,437.032z"/>
</g>
<g>
</g>
<g>
</g>
<g>
</g>
<g>
</g>
<g>
</g>
<g>
</g>
<g>
</g>
<g>
</g>
<g>
</g>
<g>
</g>
<g>
</g>
<g>
</g>
<g>
</g>
<g>
</g>
<g>
</g>
</svg>
