<?xml version="1.0" encoding="iso-8859-1"?>
<!-- Generator: Adobe Illustrator 19.0.0, SVG Export Plug-In . SVG Version: 6.00 Build 0)  -->
<svg version="1.1" id="Capa_1" xmlns="http://www.w3.org/2000/svg" xmlns:xlink="http://www.w3.org/1999/xlink" x="0px" y="0px"
	 viewBox="0 0 512.003 512.003" style="enable-background:new 0 0 512.003 512.003;" xml:space="preserve">
<path id="SVGCleanerId_0" style="fill:#DFEDE7;" d="M239.788,303.009c0.364-2.203,0.547-4.432,0.547-6.664v-98.469
	c0-16.325-4.243-32.37-12.312-46.561l-40.307-70.888c-10.14-17.833-15.471-37.994-15.471-58.508h-18.514h-18.514
	c0,20.514-5.331,40.675-15.471,58.508l-40.307,70.889c-8.069,14.191-12.312,30.236-12.312,46.561v98.469
	c0,2.232,0.183,4.461,0.547,6.663l9.257,52.66c2.684,16.233,1.223,32.882-4.248,48.4l0,0c-3.677,10.431-5.556,21.41-5.556,32.47
	v6.965c0,16.533,4.197,32.796,12.199,47.264l4.583,8.287C88.329,507.042,96.737,512,105.865,512h16.922
	c4.268,0,8.278-2.041,10.791-5.491l0,0c2.512-3.45,6.523-5.491,10.791-5.491h18.728c4.268,0,8.278,2.041,10.791,5.491l0,0
	c2.512,3.45,6.523,5.491,10.791,5.491h16.922c9.128,0,17.536-4.958,21.954-12.946l4.583-8.287
	c8.001-14.468,12.199-30.731,12.199-47.264v-6.965c0-11.06-1.879-22.04-5.556-32.47l0,0c-5.47-15.518-6.932-32.166-4.248-48.4
	L239.788,303.009z"/>
<g>
	<path id="SVGCleanerId_0_1_" style="fill:#DFEDE7;" d="M239.788,303.009c0.364-2.203,0.547-4.432,0.547-6.664v-98.469
		c0-16.325-4.243-32.37-12.312-46.561l-40.307-70.888c-10.14-17.833-15.471-37.994-15.471-58.508h-18.514h-18.514
		c0,20.514-5.331,40.675-15.471,58.508l-40.307,70.889c-8.069,14.191-12.312,30.236-12.312,46.561v98.469
		c0,2.232,0.183,4.461,0.547,6.663l9.257,52.66c2.684,16.233,1.223,32.882-4.248,48.4l0,0c-3.677,10.431-5.556,21.41-5.556,32.47
		v6.965c0,16.533,4.197,32.796,12.199,47.264l4.583,8.287C88.329,507.042,96.737,512,105.865,512h16.922
		c4.268,0,8.278-2.041,10.791-5.491l0,0c2.512-3.45,6.523-5.491,10.791-5.491h18.728c4.268,0,8.278,2.041,10.791,5.491l0,0
		c2.512,3.45,6.523,5.491,10.791,5.491h16.922c9.128,0,17.536-4.958,21.954-12.946l4.583-8.287
		c8.001-14.468,12.199-30.731,12.199-47.264v-6.965c0-11.06-1.879-22.04-5.556-32.47l0,0c-5.47-15.518-6.932-32.166-4.248-48.4
		L239.788,303.009z"/>
</g>
<path style="fill:#D7E0DC;" d="M239.788,303.009c0.364-2.203,0.547-4.432,0.547-6.664v-98.469c0-16.325-4.243-32.37-12.312-46.561
	l-40.307-70.888c-10.14-17.833-15.471-37.994-15.471-58.508h-18.514h-18.514c0,13.332-2.253,26.515-6.614,39.006
	c-2.237,6.407-1.728,13.497,1.62,19.4c0.019,0.034,0.039,0.068,0.058,0.102l40.307,70.888c8.069,14.191,12.312,30.236,12.312,46.561
	v98.469c0,2.233-0.183,4.462-0.547,6.664l-9.256,52.659c-2.684,16.234-1.223,32.882,4.248,48.4l0,0
	c3.677,10.431,5.556,21.41,5.556,32.47v6.965c0,16.533-4.197,32.796-12.199,47.264l-4.583,8.287c-0.4,0.723-0.843,1.411-1.305,2.083
	c3.664,0.476,7.002,2.449,9.171,5.51c2.455,3.462,6.575,5.354,10.819,5.354h16.795c9.128,0,17.536-4.958,21.953-12.946l4.583-8.287
	c8.001-14.468,12.199-30.731,12.199-47.264v-6.965c0-11.06-1.879-22.04-5.556-32.47l0,0c-5.47-15.518-6.932-32.166-4.248-48.4
	L239.788,303.009z"/>
<path style="fill:#772424;" d="M79.441,151.316c-8.069,14.191-12.312,30.236-12.312,46.561v98.469c0,2.232,0.183,4.461,0.547,6.664
	l9.257,52.66c2.684,16.233,1.223,32.882-4.248,48.4l0,0c-3.677,10.431-5.556,21.41-5.556,32.47v6.965
	c0,16.533,4.197,32.796,12.199,47.264l4.583,8.287C88.329,507.042,96.737,512,105.865,512h16.922c4.268,0,8.278-2.041,10.791-5.491
	c2.512-3.45,6.523-5.491,10.791-5.491h18.728c4.268,0,8.278,2.041,10.791,5.491c2.512,3.45,6.523,5.491,10.791,5.491h16.922
	c9.128,0,17.536-4.958,21.954-12.946l4.583-8.287c8.001-14.468,12.199-30.731,12.199-47.264v-6.965c0-11.06-1.879-22.04-5.556-32.47
	l0,0c-5.47-15.518-6.932-32.166-4.248-48.4l9.256-52.659c0.364-2.203,0.547-4.432,0.547-6.664v-98.469
	c0-16.325-4.243-32.369-12.312-46.561l-34.06-59.902h-80.463L79.441,151.316z"/>
<path style="fill:#681818;" d="M239.546,185.71c-1.571-12.065-5.471-23.751-11.523-34.394l-8.984-15.801l-25.076-44.101h-57.434
	l34.06,59.902c8.069,14.191,12.312,30.236,12.312,46.561v98.469c0,2.233-0.183,4.462-0.547,6.664l-9.256,52.659
	c-2.684,16.234-1.223,32.882,4.248,48.4l0,0c3.677,10.431,5.556,21.41,5.556,32.47v6.965c0,16.533-4.197,32.796-12.199,47.264
	l-4.583,8.287c-0.4,0.723-0.843,1.411-1.305,2.083c0.006,0.001,0.011,0.002,0.016,0.003c0.741,0.097,1.464,0.27,2.171,0.487
	c0.183,0.056,0.369,0.103,0.549,0.167c0.249,0.088,0.49,0.195,0.733,0.298c0.211,0.089,0.422,0.175,0.628,0.275
	c0.221,0.107,0.435,0.226,0.65,0.345c0.219,0.121,0.435,0.245,0.647,0.378c0.196,0.123,0.386,0.252,0.575,0.386
	c0.221,0.155,0.436,0.319,0.647,0.488c0.169,0.135,0.336,0.271,0.499,0.414c0.221,0.195,0.432,0.402,0.641,0.613
	c0.138,0.14,0.28,0.275,0.412,0.422c0.229,0.252,0.442,0.52,0.652,0.792c0.081,0.105,0.173,0.198,0.251,0.305
	c1.566,2.151,3.715,3.752,6.144,4.655c0.008,0.003,0.015,0.007,0.023,0.01c0.257,0.095,0.525,0.161,0.788,0.24
	c0.273,0.08,0.542,0.172,0.82,0.235c0.024,0.005,0.048,0.007,0.072,0.013c1.001,0.222,2.032,0.339,3.071,0.339h16.795
	c3.17,0,6.248-0.61,9.107-1.726c0.504-0.197,1.001-0.409,1.49-0.637c1.231-0.574,2.419-1.235,3.54-2
	c0.455-0.31,0.9-0.636,1.335-0.976c2.606-2.042,4.824-4.611,6.481-7.607l4.583-8.287c2-3.617,3.763-7.346,5.282-11.164
	c0.062-0.156,0.118-0.315,0.179-0.472c2.07-5.284,3.671-10.734,4.793-16.288c0.159-0.788,0.307-1.578,0.447-2.369
	c0.807-4.573,1.301-9.208,1.449-13.875c0.033-1.031,0.049-2.063,0.049-3.096v-6.965c0-5.53-0.47-11.04-1.399-16.471
	s-2.318-10.784-4.157-15.999l0,0l0,0c-1.368-3.879-2.485-7.829-3.349-11.826c-2.161-9.991-2.742-20.274-1.711-30.469
	c0.206-2.039,0.477-4.075,0.812-6.104l9.256-52.659c0.364-2.203,0.547-4.432,0.547-6.664V197.88
	C240.335,193.795,240.07,189.731,239.546,185.71z"/>
<path id="SVGCleanerId_1" style="fill:#FC502A;" d="M67.13,197.876v98.469c0,0.644,0.02,1.286,0.05,1.928h173.105
	c0.03-0.642,0.05-1.285,0.05-1.928v-98.469c0-2.993-0.146-5.977-0.428-8.942H67.558C67.275,191.899,67.13,194.883,67.13,197.876z"/>
<g>
	<path id="SVGCleanerId_1_1_" style="fill:#FC502A;" d="M67.13,197.876v98.469c0,0.644,0.02,1.286,0.05,1.928h173.105
		c0.03-0.642,0.05-1.285,0.05-1.928v-98.469c0-2.993-0.146-5.977-0.428-8.942H67.558C67.275,191.899,67.13,194.883,67.13,197.876z"
		/>
</g>
<path style="fill:#E52D15;" d="M240.238,193.837c-0.013-0.304-0.028-0.609-0.045-0.913c-0.071-1.333-0.16-2.663-0.286-3.989v-0.001
	h-57.434c0.283,2.965,0.428,5.948,0.428,8.942v98.469c0,0.643-0.02,1.286-0.05,1.928h57.434v-0.001
	c0.03-0.642,0.05-1.284,0.05-1.927v-98.469C240.335,196.527,240.296,195.181,240.238,193.837z"/>
<path style="fill:#4A4256;" d="M177.795,41.358H129.67c-4.723,0-8.552-3.829-8.552-8.552V8.552c0-4.723,3.829-8.552,8.552-8.552
	h48.125c4.723,0,8.552,3.829,8.552,8.552v24.254C186.347,37.529,182.518,41.358,177.795,41.358z"/>
<path style="fill:#DFEDE7;" d="M444.265,262.817c-0.208-2.295-2.127-4.047-4.431-4.047H304.867c-2.304,0-4.222,1.752-4.431,4.047
	c-1.089,11.997-2.573,50.51,13.661,113.487c14.043,54.476,9.097,99.714,4.985,121.572c-1.38,7.338,4.23,14.123,11.696,14.123h83.144
	c7.467,0,13.077-6.785,11.696-14.123c-4.112-21.858-9.058-67.097,4.985-121.572C446.838,313.328,445.353,274.814,444.265,262.817z"
	/>
<path style="fill:#D7E0DC;" d="M444.265,262.817c-0.208-2.295-2.127-4.047-4.431-4.047h-53.601c0,0,6.682,40.434-13.193,117.534
	c-15.242,59.127-8.114,107.372-3.962,126.651c1.002,4.652-2.527,9.044-7.286,9.044h52.13c7.467,0,13.077-6.785,11.696-14.123
	c-4.112-21.858-9.058-67.096,4.985-121.572C446.838,313.327,445.353,274.814,444.265,262.817z"/>
<path style="fill:#772424;" d="M444.747,285.922H299.954c0.617,19.725,3.739,50.02,14.144,90.382
	c14.043,54.476,9.097,99.714,4.985,121.572c-1.38,7.338,4.23,14.123,11.696,14.123h83.144c7.467,0,13.077-6.785,11.696-14.123
	c-4.112-21.858-9.058-67.096,4.985-121.572C441.008,335.942,444.13,305.647,444.747,285.922z"/>
<path style="fill:#FED130;" d="M124.859,234.06c-28.865,0-28.865-20.743-57.73-20.743v43.271c28.865,0,28.865,20.743,57.73,20.743
	c28.869,0,28.869-20.743,57.738-20.743s28.869,20.743,57.738,20.743V234.06c-28.869,0-28.869-20.743-57.738-20.743
	S153.728,234.06,124.859,234.06z"/>
<path style="fill:#EDBB1B;" d="M182.901,256.595c28.557,0.149,28.67,20.736,57.434,20.736V234.06
	c-28.764,0-28.877-20.587-57.434-20.736L182.901,256.595L182.901,256.595z"/>
<path style="fill:#681818;" d="M431.915,371.103c0.097-0.392,0.194-0.784,0.29-1.174c0.412-1.68,0.814-3.345,1.201-4.988
	c0.049-0.208,0.096-0.413,0.144-0.621c0.351-1.5,0.691-2.984,1.022-4.453c0.077-0.34,0.154-0.682,0.23-1.021
	c0.354-1.586,0.696-3.154,1.027-4.703c0.066-0.309,0.129-0.613,0.194-0.92c0.29-1.371,0.571-2.728,0.843-4.069
	c0.056-0.274,0.113-0.552,0.168-0.824c0.3-1.494,0.588-2.968,0.867-4.426c0.068-0.353,0.133-0.703,0.199-1.054
	c0.25-1.324,0.493-2.636,0.726-3.93c0.032-0.177,0.066-0.358,0.097-0.535c0.251-1.402,0.489-2.78,0.72-4.145
	c0.064-0.379,0.127-0.757,0.19-1.133c0.223-1.338,0.44-2.665,0.645-3.969c0.031-0.199,0.06-0.393,0.091-0.591
	c0.178-1.144,0.349-2.273,0.513-3.389c0.058-0.396,0.117-0.793,0.174-1.185c0.174-1.203,0.342-2.393,0.5-3.563
	c0.048-0.357,0.093-0.706,0.14-1.06c0.12-0.902,0.235-1.794,0.346-2.676c0.052-0.413,0.105-0.828,0.155-1.237
	c0.131-1.065,0.255-2.115,0.373-3.151c0.053-0.461,0.102-0.915,0.153-1.371c0.077-0.698,0.151-1.388,0.223-2.072
	c0.054-0.514,0.108-1.03,0.159-1.537c0.086-0.858,0.167-1.703,0.245-2.538c0.05-0.537,0.098-1.068,0.144-1.596
	c0.044-0.499,0.086-0.99,0.127-1.48c0.076-0.91,0.148-1.806,0.214-2.688c0.029-0.384,0.059-0.77,0.086-1.149
	c0.043-0.594,0.084-1.182,0.122-1.763c0.016-0.248,0.031-0.491,0.047-0.737c0.072-1.121,0.136-2.219,0.193-3.289
	c0.009-0.165,0.018-0.331,0.026-0.496c0.101-1.966,0.178-3.848,0.235-5.64c0-0.003,0-0.005,0-0.008h-57.561
	c-0.618,19.725-3.743,50.028-14.146,90.382c-15.242,59.127-8.114,107.372-3.962,126.651c1.002,4.652-2.527,9.044-7.286,9.044h52.13
	c7.467,0,13.077-6.785,11.696-14.123c-4.112-21.858-9.058-67.096,4.985-121.572C431.056,374.549,431.49,372.82,431.915,371.103z"/>
<path style="fill:#DFEDE7;" d="M423.117,481.243c-14.23,0.95-31.774,1.512-50.766,1.512s-36.536-0.562-50.766-1.512
	c-0.751,6.474-1.644,12.07-2.502,16.634c-1.38,7.338,4.23,14.123,11.696,14.123h83.144c7.467,0,13.077-6.785,11.696-14.123
	C424.76,493.313,423.867,487.717,423.117,481.243z"/>
<path style="fill:#D7E0DC;" d="M425.267,495.953c-0.05-0.28-0.1-0.572-0.15-0.859c-0.065-0.374-0.13-0.748-0.195-1.133
	c-0.065-0.386-0.13-0.781-0.196-1.178c-0.046-0.283-0.093-0.568-0.139-0.857c-0.078-0.484-0.155-0.973-0.231-1.473
	c-0.026-0.167-0.051-0.337-0.077-0.506c-0.407-2.685-0.8-5.587-1.161-8.698c0-0.002-0.001-0.004-0.001-0.007
	c-14.23,0.95-31.774,1.512-50.766,1.512c-2.228,0-4.435-0.008-6.621-0.024c1.028,8.435,2.285,15.286,3.348,20.224
	c1.002,4.652-2.527,9.044-7.286,9.044h52.13c7.467,0,13.077-6.785,11.696-14.123C425.502,497.256,425.385,496.612,425.267,495.953z"
	/>
<g>
</g>
<g>
</g>
<g>
</g>
<g>
</g>
<g>
</g>
<g>
</g>
<g>
</g>
<g>
</g>
<g>
</g>
<g>
</g>
<g>
</g>
<g>
</g>
<g>
</g>
<g>
</g>
<g>
</g>
</svg>
