<?xml version="1.0" encoding="iso-8859-1"?>
<!-- Generator: Adobe Illustrator 19.0.0, SVG Export Plug-In . SVG Version: 6.00 Build 0)  -->
<svg version="1.1" id="Capa_1" xmlns="http://www.w3.org/2000/svg" xmlns:xlink="http://www.w3.org/1999/xlink" x="0px" y="0px"
	 viewBox="0 0 512 512" style="enable-background:new 0 0 512 512;" xml:space="preserve">
<path style="fill:#B2C3CE;" d="M180.154,0h-56.985c-5.75,0-10.411,4.661-10.411,10.411V58.59h77.807V10.411
	C190.564,4.661,185.904,0,180.154,0z"/>
<path style="fill:#CDDBE7;" d="M255.789,148.18L255.789,148.18L255.789,148.18l-23.065-61.576
	c-2.914-7.78-8.352-14.358-15.444-18.684l-26.674-16.27h-77.89L86.041,67.92c-7.092,4.326-12.53,10.905-15.444,18.684L47.532,148.18
	l0,0l2.889,115.003c0.022,0.877,0.077,1.754,0.164,2.627l23.429,234.252C74.691,506.839,80.394,512,87.205,512h128.911
	c6.811,0,12.514-5.161,13.192-11.938l23.428-234.252c0.087-0.873,0.142-1.75,0.164-2.627L255.789,148.18L255.789,148.18
	L255.789,148.18z"/>
<path style="fill:#B8CBD9;" d="M232.725,86.604c-2.914-7.78-8.352-14.358-15.444-18.684l-26.674-16.27h-57.049l26.674,16.27
	c7.092,4.326,12.53,10.904,15.444,18.684l23.065,61.575l0,0l-2.889,115.003c-0.022,0.877-0.077,1.754-0.164,2.627L172.26,500.061
	c-0.678,6.777-6.381,11.938-13.192,11.938h57.049c6.811,0,12.514-5.161,13.192-11.938l23.428-234.252
	c0.087-0.873,0.142-1.75,0.164-2.627l2.889-115.003l0,0L232.725,86.604z"/>
<path style="fill:#B2C3CE;" d="M259.5,168.663H43.821c-4.183,0-7.573-3.391-7.573-7.573v-15.488c0-4.183,3.391-7.573,7.573-7.573
	h215.68c4.183,0,7.573,3.391,7.573,7.573v15.488C267.074,165.272,263.683,168.663,259.5,168.663z"/>
<polygon style="fill:#CDDBE7;" points="422.802,409.328 351.276,409.328 311.165,255.587 462.912,255.587 "/>
<polygon style="fill:#B8CBD9;" points="405.691,255.587 365.581,409.328 422.802,409.328 462.912,255.587 "/>
<polygon style="fill:#CDDBE7;" points="422.802,409.328 351.276,409.328 317.988,503.541 456.09,503.541 "/>
<polygon style="fill:#B8CBD9;" points="422.802,409.328 365.581,409.328 398.697,503.541 456.09,503.541 "/>
<g>
	<path style="fill:#B2C3CE;" d="M465.077,265.661H309.001c-5.895,0-10.674-4.779-10.674-10.674l0,0
		c0-5.895,4.779-10.674,10.674-10.674h156.076c5.895,0,10.674,4.779,10.674,10.674l0,0
		C475.751,260.882,470.972,265.661,465.077,265.661z"/>
	<path style="fill:#B2C3CE;" d="M453.974,512H320.103c-5.895,0-10.674-4.779-10.674-10.674l0,0c0-5.895,4.779-10.674,10.674-10.674
		h133.871c5.895,0,10.674,4.779,10.674,10.674l0,0C464.648,507.221,459.869,512,453.974,512z"/>
	<path style="fill:#B2C3CE;" d="M431.513,417.06h-88.667c-4.271,0-7.733-3.462-7.733-7.733s3.462-7.733,7.733-7.733h88.667
		c4.271,0,7.733,3.462,7.733,7.733S435.784,417.06,431.513,417.06z"/>
</g>
<g>
</g>
<g>
</g>
<g>
</g>
<g>
</g>
<g>
</g>
<g>
</g>
<g>
</g>
<g>
</g>
<g>
</g>
<g>
</g>
<g>
</g>
<g>
</g>
<g>
</g>
<g>
</g>
<g>
</g>
</svg>
