<?xml version="1.0" encoding="iso-8859-1"?>
<!-- Generator: Adobe Illustrator 19.0.0, SVG Export Plug-In . SVG Version: 6.00 Build 0)  -->
<svg version="1.1" id="Capa_1" xmlns="http://www.w3.org/2000/svg" xmlns:xlink="http://www.w3.org/1999/xlink" x="0px" y="0px"
	 viewBox="0 0 512 512" style="enable-background:new 0 0 512 512;" xml:space="preserve">
<g>
	<path style="fill:#E5F9F6;" d="M419.768,456.079l-50.346-17.505c-9.712-3.377-16.221-12.531-16.221-22.813V257.207h-21.56v158.556
		c0,10.282-6.509,19.437-16.221,22.813l-50.345,17.505c-1.958,0.825-1.368,3.743,0.756,3.743h153.18
		C421.136,459.823,421.726,456.905,419.768,456.079z"/>
	<path style="fill:#E5F9F6;" d="M324.723,261.408L174.464,96.103c-3.613-3.974-0.793-10.348,4.578-10.348h326.759
		c5.371,0,8.191,6.374,4.578,10.348l-150.26,165.306C350.63,271.848,334.213,271.848,324.723,261.408z"/>
</g>
<path style="fill:#D6E5E2;" d="M505.801,85.754h-63.027L319.777,221.066c-6.789,7.469-17.124,9.591-25.931,6.373l30.877,33.969
	c9.489,10.44,25.907,10.44,35.396,0l150.26-165.306C513.992,92.128,511.172,85.754,505.801,85.754z"/>
<path style="fill:#CDEAE0;" d="M213.587,139.143l111.137,122.265c9.489,10.439,25.905,10.439,35.395,0.001l111.138-122.266
	L213.587,139.143L213.587,139.143z"/>
<path style="fill:#B6D1C6;" d="M338.353,268.885c0.546,0.094,1.093,0.175,1.643,0.231c0.119,0.012,0.239,0.017,0.358,0.027
	c0.688,0.059,1.377,0.095,2.067,0.095c0.115,0,0.23-0.007,0.345-0.009c0.694-0.01,1.389-0.044,2.08-0.114
	c1.527-0.154,3.041-0.46,4.521-0.908c0.082-0.025,0.166-0.045,0.248-0.071c0.285-0.089,0.567-0.19,0.849-0.291
	c0.104-0.037,0.209-0.068,0.312-0.107c3.457-1.284,6.673-3.394,9.342-6.33l111.138-122.266h-77.012l-74.466,81.923
	c-6.789,7.469-17.124,9.591-25.931,6.373l30.877,33.969c3.412,3.754,7.722,6.15,12.281,7.205
	C337.452,268.716,337.901,268.807,338.353,268.885z"/>
<path style="fill:#772424;" d="M323.851,219.277c-1.498,0-2.998-0.551-4.171-1.663c-2.43-2.304-2.532-6.142-0.229-8.572
	L466.383,54.069c2.305-2.431,6.143-2.532,8.572-0.229c2.43,2.304,2.533,6.142,0.228,8.572l-146.93,154.973
	C327.061,218.643,325.457,219.277,323.851,219.277z"/>
<ellipse transform="matrix(-0.7257 -0.688 0.688 -0.7257 475.1892 561.6299)" style="fill:#60A83F;" cx="349.55" cy="186.091" rx="24.861" ry="22.1"/>
<g>
	
		<ellipse transform="matrix(-0.7257 -0.688 0.688 -0.7257 549.7187 527.2126)" style="fill:#7DC959;" cx="379.954" cy="154.025" rx="24.861" ry="22.1"/>
	
		<ellipse transform="matrix(-0.7257 -0.688 0.688 -0.7257 624.2634 492.7867)" style="fill:#7DC959;" cx="410.364" cy="121.952" rx="24.861" ry="22.1"/>
</g>
<path style="fill:#60A83F;" d="M364.76,170.067c9.964,9.447,24.848,9.925,33.245,1.068c8.065-8.506,7.207-22.526-1.699-31.992
	h-36.192C353.789,148.105,355.586,161.369,364.76,170.067z"/>
<path style="fill:#FFD9A0;" d="M443.611,169.557l-68.023,75.154c-5.793,1.709-11.45,4.369-17.303,5.649
	c-0.656-3.277,1.285-7.723,0.753-10.884c-3.166-18.823-15.929-26.612-34.839-27.937c-23.599,1.408-58.97,4.163-79.789,6.98
	s-43.615-4.024-53.272-6.608c-8.699-2.339-2.012-0.633-2.012-0.633c-26.642-8.509-47.647-10.946-75.314-6.608
	c-15.678,2.458-38.326,6.92-55.588,9.638v126.28c0,0,96.941,15.429,139.787,27.377c12.749,3.555,26.242,3.349,38.877-0.595
	c46.648-14.561,125.042-36.016,153.008-50.134c5.938-0.971,28.794-24.777,28.794-24.777c17.401-31.162,40.148-63.617,59.68-94.046
	c6.972-10.861-0.394-24.166-4.217-28.663c-3.456-4.048-0.859-1-0.859-1C461.973,161.431,453.171,159.114,443.611,169.557z"/>
<g>
	<path style="fill:#F4C892;" d="M473.293,168.751c-3.044-1.968-6.07-3.505-9.053-4.504c-15.757,23.898-32.222,48.527-45.552,72.399
		c0,0-22.855,23.806-28.794,24.777c-27.966,14.117-106.36,35.573-153.007,50.134c-12.635,3.944-26.128,4.151-38.877,0.595
		c-42.846-11.948-139.787-27.377-139.787-27.377v55.814c0,0,96.941,15.429,139.787,27.377c12.75,3.555,26.242,3.349,38.877-0.595
		c46.647-14.561,125.042-36.016,153.007-50.134c5.938-0.971,28.794-24.777,28.794-24.777c17.401-31.162,40.148-63.617,59.681-94.046
		c6.972-10.861-0.394-24.166-4.217-28.663C470.696,165.703,473.293,168.751,473.293,168.751z"/>
	<path style="fill:#F4C892;" d="M358.381,248.167c-48.179-1.229-95.639,2.854-143.612,6.473c-0.089,0.007-0.207,0.005-0.276,0.02
		c-5.252,1.185-9.096,4.799-8.706,10.456c0.389,5.657,4.661,8.518,10.007,8.63c45.987-7.142,97.755-12.639,142.458-23.369
		C358.209,249.601,358.183,248.925,358.381,248.167z"/>
</g>
<path style="fill:#4A4256;" d="M62.563,361.074H6.964c-3.846,0-6.964-3.118-6.964-6.964V205.343c0-3.846,3.118-6.964,6.964-6.964
	h55.599c3.846,0,6.964,3.118,6.964,6.964v148.767C69.527,357.956,66.409,361.074,62.563,361.074z"/>
<path style="fill:#352F3F;" d="M0,354.109c0,3.846,3.118,6.964,6.964,6.964h55.6c3.846,0,6.964-3.118,6.964-6.964v-50.386H0V354.109
	z"/>
<g>
</g>
<g>
</g>
<g>
</g>
<g>
</g>
<g>
</g>
<g>
</g>
<g>
</g>
<g>
</g>
<g>
</g>
<g>
</g>
<g>
</g>
<g>
</g>
<g>
</g>
<g>
</g>
<g>
</g>
</svg>
