<?xml version="1.0" encoding="iso-8859-1"?>
<!-- Generator: Adobe Illustrator 19.0.0, SVG Export Plug-In . SVG Version: 6.00 Build 0)  -->
<svg version="1.1" id="Capa_1" xmlns="http://www.w3.org/2000/svg" xmlns:xlink="http://www.w3.org/1999/xlink" x="0px" y="0px"
	 viewBox="0 0 512.001 512.001" style="enable-background:new 0 0 512.001 512.001;" xml:space="preserve">
<path style="fill:#E5F9F6;" d="M178.681,202.287L178.681,202.287c5.16-4.627,8.109-11.23,8.109-18.161v-39.888h236.078v39.888
	c0,6.931,2.948,13.534,8.109,18.161l0,0c5.16,4.627,8.109,11.23,8.109,18.161v232.979c0,11.944-2.282,23.777-6.722,34.865l0,0
	c-5.736,14.321-19.61,23.709-35.036,23.709H212.329c-15.426,0-29.3-9.388-35.035-23.709l0,0
	c-4.441-11.087-6.722-22.921-6.722-34.865V220.448C170.572,213.517,173.52,206.914,178.681,202.287z"/>
<path style="fill:#D6E5E2;" d="M430.977,202.287L430.977,202.287c-5.16-4.627-8.109-11.23-8.109-18.161v-39.888h-56.683v39.888
	c0,6.931,2.948,13.534,8.109,18.161l0,0c5.16,4.627,8.109,11.23,8.109,18.161v232.979c0,11.944-2.282,23.777-6.722,34.865l0,0
	c-5.736,14.321-19.61,23.709-35.036,23.709h56.683c15.426,0,29.299-9.388,35.035-23.709l0,0c4.441-11.087,6.722-22.921,6.722-34.865
	V220.448C439.086,213.517,436.137,206.914,430.977,202.287z"/>
<path style="fill:#B0EFFE;" d="M170.572,224.586v228.841c0,11.944,2.282,23.777,6.722,34.865l0,0
	c5.736,14.321,19.609,23.709,35.035,23.709h184.999c15.426,0,29.299-9.388,35.035-23.709l0,0
	c4.441-11.087,6.722-22.921,6.722-34.865V224.586H170.572z"/>
<path style="fill:#4E9AE5;" d="M158.181,98.878c-2.369,0-4.705-1.087-6.217-3.142l-30.642-41.638
	c-2.524-3.43-1.79-8.257,1.64-10.782c3.429-2.523,8.256-1.79,10.781,1.641l30.642,41.638c2.524,3.43,1.79,8.257-1.64,10.782
	C161.369,98.389,159.768,98.878,158.181,98.878z"/>
<path style="fill:#FC502A;" d="M100.923,13.37l93.487-4.958c2.644-0.14,4.084,3.044,2.235,4.939
	c-36.899,37.816-80.637,68.292-128.892,89.811c-2.418,1.078-4.906-1.375-3.859-3.807L100.923,13.37z"/>
<path style="fill:#E52D15;" d="M194.41,8.413l-93.487,4.958L90.868,36.718c-6.938,16.111,5.46,33.903,22.976,32.974l16.027-0.85
	c24.069-16.099,46.463-34.676,66.775-55.492C198.495,11.456,197.054,8.272,194.41,8.413z"/>
<path style="fill:#FDC74F;" d="M249.261,99.18c2.585-1.916,3.021-5.645,0.905-8.069c-25.04-28.689-68.34-33.762-99.463-10.694
	s-38.864,65.97-18.7,98.273c1.704,2.73,5.398,3.398,7.984,1.481L249.261,99.18z"/>
<path style="fill:#FFFFBB;" d="M236.47,108.66c-17.131-23.103-49.747-27.949-72.855-10.822s-27.959,49.742-10.838,72.852
	L236.47,108.66z"/>
<path style="fill:#FDC74F;" d="M202.518,97.825c-4.213-0.618-8.135,2.281-8.762,6.494l-2.629,17.687l-10.648-14.367
	c-2.535-3.421-7.365-4.139-10.787-1.604c-3.421,2.536-4.139,7.365-1.604,10.787l10.649,14.367l-17.688-2.63
	c-4.214-0.624-8.135,2.28-8.762,6.493c-0.627,4.212,2.281,8.135,6.493,8.761l32.829,4.881c0.385,0.057,0.767,0.085,1.144,0.085
	c2.109,0,4.072-0.867,5.488-2.305c0.333-0.178,0.661-0.374,0.974-0.606c0.318-0.236,0.605-0.497,0.876-0.77
	c2.099-1.107,3.664-3.158,4.04-5.685l4.88-32.829C209.637,102.375,206.73,98.452,202.518,97.825z"/>
<g>
	<path style="fill:#E5F9F6;" d="M247.152,304.519l-40.136-33.248c-1.573-1.303-1.792-3.636-0.489-5.209l33.248-40.136
		c1.303-1.573,3.636-1.792,5.209-0.489l40.136,33.248c1.573,1.303,1.792,3.636,0.489,5.209l-33.248,40.136
		C251.057,305.604,248.725,305.823,247.152,304.519z"/>
	<path style="fill:#E5F9F6;" d="M364.674,318.095l-40.136-33.248c-1.573-1.303-1.792-3.636-0.489-5.209l33.248-40.136
		c1.303-1.573,3.636-1.792,5.209-0.489l40.136,33.248c1.573,1.303,1.792,3.636,0.489,5.209l-33.248,40.136
		C368.58,319.18,366.247,319.399,364.674,318.095z"/>
	<path style="fill:#E5F9F6;" d="M268.274,343.085l26.037-34.796c1.021-1.364,2.954-1.642,4.318-0.622l34.796,26.037
		c1.364,1.021,1.642,2.954,0.622,4.318l-26.037,34.796c-1.021,1.364-2.954,1.642-4.318,0.622l-34.796-26.037
		C267.532,346.383,267.254,344.449,268.274,343.085z"/>
	<path style="fill:#E5F9F6;" d="M184.845,315.813l36.641-3.721c1.436-0.146,2.719,0.9,2.865,2.337l3.721,36.641
		c0.146,1.436-0.9,2.719-2.337,2.865l-36.641,3.721c-1.436,0.146-2.719-0.9-2.865-2.337l-3.721-36.641
		C182.363,317.241,183.409,315.958,184.845,315.813z"/>
	<path style="fill:#E5F9F6;" d="M369.42,365.037l36.641-3.721c1.436-0.146,2.719,0.9,2.865,2.337l3.721,36.641
		c0.146,1.436-0.9,2.719-2.337,2.865l-36.641,3.721c-1.436,0.146-2.719-0.9-2.865-2.337l-3.721-36.641
		C366.937,366.465,367.983,365.183,369.42,365.037z"/>
</g>
<path style="fill:#FF7B98;" d="M446.315,10.332l-15.11-9.64c-2.051-1.308-4.774-0.706-6.082,1.344l-141.988,222.55h32.066
	L447.66,16.415C448.968,14.364,448.366,11.641,446.315,10.332z"/>
<g>
	<polygon style="fill:#F0FFE9;" points="320.804,165.545 311.694,179.824 341.021,184.009 350.108,169.727 	"/>
	<polygon style="fill:#F0FFE9;" points="331.712,198.638 302.362,194.451 293.252,208.73 322.624,212.92 	"/>
	<polygon style="fill:#F0FFE9;" points="357.691,107.729 348.581,122.008 377.817,126.179 386.905,111.897 	"/>
	<polygon style="fill:#F0FFE9;" points="376.132,78.825 367.022,93.104 396.213,97.268 405.301,82.986 	"/>
	<polygon style="fill:#F0FFE9;" points="394.573,49.92 385.464,64.199 414.609,68.357 423.697,54.075 	"/>
	<polygon style="fill:#F0FFE9;" points="413.015,21.015 403.905,35.294 433.005,39.446 442.093,25.164 	"/>
</g>
<path style="fill:#CEDDDA;" d="M434.322,138.935v-6.777c0-6.059-4.912-10.971-10.971-10.971H186.306
	c-6.059,0-10.971,4.912-10.971,10.971v6.777c0,6.059,4.912,10.971,10.971,10.971c-6.059,0-10.971,4.912-10.971,10.971v6.777
	c0,6.059,4.912,10.971,10.971,10.971h237.045c6.059,0,10.971-4.912,10.971-10.971v-6.777c0-6.059-4.912-10.971-10.971-10.971
	C429.41,149.906,434.322,144.994,434.322,138.935z"/>
<path style="fill:#B8CCC8;" d="M434.322,138.935v-6.777c0-6.059-4.912-10.971-10.971-10.971h-44.543v57.438h44.543
	c6.059,0,10.971-4.912,10.971-10.971v-6.777c0-6.059-4.912-10.971-10.971-10.971C429.41,149.906,434.322,144.994,434.322,138.935z"
	/>
<path style="fill:#90D8E0;" d="M382.402,453.428c0,11.944-2.282,23.777-6.722,34.865c-5.735,14.32-19.609,23.708-35.035,23.708
	h56.683c15.426,0,29.299-9.388,35.035-23.709c4.441-11.087,6.722-22.921,6.722-34.865V224.586h-56.683L382.402,453.428
	L382.402,453.428z"/>
<path style="fill:#B0EFFE;" d="M408.926,363.652c-0.146-1.436-1.429-2.483-2.865-2.337l-23.659,2.403v42.275l27.908-2.835
	c1.437-0.146,2.483-1.429,2.337-2.865L408.926,363.652z"/>
<path style="fill:#D7E0DC;" d="M304.829,482.734c-49.792,0-94.724,2.962-126.574,7.716c6.217,13.093,19.44,21.55,34.074,21.55
	h184.999c14.634,0,27.857-8.457,34.074-21.55C399.553,485.697,354.621,482.734,304.829,482.734z"/>
<path style="fill:#CBD1CF;" d="M401.087,511.791c0.6-0.06,1.201-0.117,1.794-0.205c0.391-0.058,0.776-0.141,1.164-0.211
	c0.511-0.092,1.025-0.179,1.53-0.292c0.424-0.095,0.839-0.213,1.258-0.322c0.458-0.119,0.918-0.233,1.369-0.369
	c0.443-0.134,0.878-0.288,1.314-0.437c0.414-0.141,0.829-0.279,1.237-0.434c0.456-0.174,0.905-0.367,1.353-0.558
	c0.372-0.159,0.746-0.315,1.112-0.485c0.466-0.217,0.923-0.45,1.379-0.685c0.333-0.172,0.666-0.342,0.993-0.523
	c0.471-0.261,0.934-0.537,1.393-0.818c0.295-0.18,0.589-0.361,0.878-0.549c0.473-0.307,0.938-0.627,1.396-0.956
	c0.257-0.184,0.513-0.369,0.765-0.56c0.472-0.356,0.937-0.724,1.392-1.102c0.219-0.182,0.436-0.367,0.651-0.554
	c0.468-0.407,0.929-0.825,1.377-1.255c0.183-0.176,0.362-0.355,0.542-0.535c0.461-0.461,0.913-0.93,1.35-1.416
	c0.148-0.164,0.291-0.332,0.437-0.499c0.45-0.517,0.89-1.042,1.313-1.585c0.114-0.146,0.222-0.296,0.334-0.444
	c0.436-0.577,0.862-1.164,1.266-1.768c0.078-0.117,0.151-0.238,0.228-0.357c0.421-0.645,0.829-1.301,1.212-1.975
	c0.042-0.075,0.081-0.152,0.122-0.227c0.405-0.725,0.793-1.462,1.153-2.219v-0.001c-15.405-2.299-33.877-4.178-54.473-5.507
	c-0.4,1.121-0.806,2.241-1.249,3.348c-5.732,14.322-19.606,23.71-35.032,23.71h56.683c0.94,0,1.873-0.037,2.8-0.106
	C400.45,511.871,400.767,511.823,401.087,511.791z"/>
<path style="fill:#B0EFFE;" d="M382.402,255.495v46.998l20.729-25.023c1.304-1.573,1.085-3.906-0.489-5.209L382.402,255.495z"/>
<g>
</g>
<g>
</g>
<g>
</g>
<g>
</g>
<g>
</g>
<g>
</g>
<g>
</g>
<g>
</g>
<g>
</g>
<g>
</g>
<g>
</g>
<g>
</g>
<g>
</g>
<g>
</g>
<g>
</g>
</svg>
