<?xml version="1.0" encoding="iso-8859-1"?>
<!-- Generator: Adobe Illustrator 19.0.0, SVG Export Plug-In . SVG Version: 6.00 Build 0)  -->
<svg version="1.1" id="Capa_1" xmlns="http://www.w3.org/2000/svg" xmlns:xlink="http://www.w3.org/1999/xlink" x="0px" y="0px"
	 viewBox="0 0 512 512" style="enable-background:new 0 0 512 512;" xml:space="preserve">
<circle style="fill:#FDC74F;" cx="149.369" cy="90.2" r="90.2"/>
<path style="fill:#E5B11F;" d="M149.373,0c-10.134,0-19.867,1.696-28.96,4.778c35.607,12.068,61.245,45.743,61.245,85.427
	s-25.638,73.359-61.245,85.427c9.093,3.082,18.826,4.778,28.96,4.778c49.819,0,90.205-40.386,90.205-90.205S199.192,0,149.373,0z"/>
<circle style="fill:#F0FFE9;" cx="149.369" cy="90.2" r="62.33"/>
<g>
	<path style="fill:#FDC74F;" d="M149.373,68.034c-4.377,0-7.925-3.548-7.925-7.925v-4.378c0-4.377,3.548-7.925,7.925-7.925
		s7.925,3.548,7.925,7.925v4.378C157.298,64.486,153.75,68.034,149.373,68.034z"/>
	<path style="fill:#FDC74F;" d="M119.277,98.13h-4.378c-4.377,0-7.925-3.548-7.925-7.925s3.548-7.925,7.925-7.925h4.378
		c4.377,0,7.925,3.548,7.925,7.925S123.654,98.13,119.277,98.13z"/>
	<path style="fill:#FDC74F;" d="M128.092,76.849c-2.028,0-4.056-0.774-5.604-2.321l-3.096-3.096c-3.095-3.096-3.095-8.113,0-11.208
		c3.095-3.094,8.113-3.094,11.207,0l3.096,3.096c3.095,3.096,3.095,8.113,0,11.208C132.149,76.076,130.12,76.849,128.092,76.849z"/>
	<path style="fill:#FDC74F;" d="M170.654,76.849c-2.028,0-4.056-0.774-5.604-2.321c-3.095-3.096-3.095-8.113,0-11.208l3.096-3.096
		c3.095-3.094,8.113-3.094,11.207,0c3.095,3.096,3.095,8.113,0,11.208l-3.096,3.096C174.711,76.076,172.682,76.849,170.654,76.849z"
		/>
	<path style="fill:#FDC74F;" d="M124.997,122.507c-2.028,0-4.056-0.774-5.604-2.321c-3.095-3.096-3.095-8.113,0-11.208l3.096-3.096
		c3.095-3.094,8.113-3.094,11.207,0c3.095,3.096,3.095,8.113,0,11.208l-3.096,3.096
		C129.053,121.733,127.025,122.507,124.997,122.507z"/>
</g>
<path style="fill:#E5F9F6;" d="M410.012,85.825H150.886c-4.84,0-8.987,3.463-9.85,8.226l-22.593,124.733
	c-13.956,92.017-2.647,186.096,32.717,272.185l0,0C157.604,503.858,170.778,512,185.189,512h195.088
	c14.411,0,27.584-8.142,34.029-21.031l0,0c35.364-86.089,46.673-180.168,32.717-272.185l-21.78-120.239
	C423.909,91.18,417.497,85.825,410.012,85.825z"/>
<path style="fill:#D6E5E2;" d="M447.023,218.784l-21.78-120.239c-1.334-7.365-7.746-12.72-15.231-12.72h-47.417l24.084,132.959
	c13.956,92.017,2.647,186.096-32.717,272.185l-4.278,8.557C345.861,507.171,338.047,512,329.5,512h50.777
	c14.411,0,27.584-8.142,34.029-21.031l0,0C449.67,404.88,460.978,310.801,447.023,218.784z"/>
<path style="fill:#B081E2;" d="M221.131,467.653h123.203c28.117,0,56.078-4.099,83.008-12.112
	c24.914-76.132,31.745-157.213,19.681-236.757l-8.351-46.101H126.793l-8.351,46.101c-12.064,79.544-5.233,160.625,19.681,236.757
	C165.053,463.553,193.015,467.653,221.131,467.653z"/>
<path style="fill:#A567DB;" d="M447.023,218.784l-8.351-46.101h-60.343l8.35,46.101c13.956,92.017,2.647,186.096-32.717,272.185
	l-4.278,8.557C345.861,507.171,338.047,512,329.5,512h50.777c8.106,0,15.821-2.576,22.166-7.124
	c0.705-0.505,1.393-1.035,2.063-1.588c1.34-1.106,2.607-2.307,3.79-3.595c0.592-0.644,1.162-1.31,1.711-1.997
	c1.645-2.061,3.09-4.31,4.299-6.727l0,0C449.67,404.88,460.978,310.801,447.023,218.784z"/>
<path style="fill:#D7E0DC;" d="M414.306,490.969L414.306,490.969c4.794-11.669,9.129-23.49,13.036-35.428
	c-26.93,8.012-54.891,12.112-83.008,12.112H221.131c-28.117,0-56.078-4.099-83.008-12.112c3.907,11.938,8.242,23.758,13.036,35.428
	l0,0C157.743,503.875,171.007,512,185.495,512h194.474C394.458,512,407.723,503.875,414.306,490.969z"/>
<g>
	<path style="fill:#F0FFE9;" d="M282.124,395.316l36.669-36.669c1.438-1.438,3.768-1.438,5.206,0l36.669,36.669
		c1.438,1.438,1.438,3.768,0,5.206l-36.669,36.669c-1.438,1.438-3.768,1.438-5.206,0l-36.669-36.669
		C280.686,399.085,280.686,396.754,282.124,395.316z"/>
	<path style="fill:#F0FFE9;" d="M144.196,231.574l39.47-33.636c1.547-1.319,3.871-1.133,5.189,0.414l33.636,39.47
		c1.319,1.547,1.133,3.871-0.414,5.189l-39.47,33.636c-1.547,1.319-3.871,1.133-5.189-0.414l-33.636-39.47
		C142.464,235.216,142.649,232.892,144.196,231.574z"/>
</g>
<path style="fill:#FDC74F;" d="M300.778,319.874c2.066-1.719,2.214-4.809,0.374-6.768c-29.357-31.248-78.355-34.589-111.747-6.796
	c-33.392,27.792-39.001,76.583-13.601,111.125c1.592,2.165,4.658,2.58,6.723,0.861L300.778,319.874z"/>
<path style="fill:#F0FFE9;" d="M206.134,326.083c-23.782,19.794-27.144,55.006-7.666,78.944l86.69-72.153
	C265.153,309.375,229.915,306.29,206.134,326.083z"/>
<g>
	<path style="fill:#FDC74F;" d="M224.774,354.577c-2.273,0-4.529-0.972-6.096-2.856l-2.706-3.253
		c-2.799-3.365-2.341-8.361,1.024-11.161c3.364-2.799,8.361-2.341,11.161,1.024l2.706,3.253c2.799,3.365,2.341,8.361-1.024,11.161
		C228.357,353.976,226.56,354.577,224.774,354.577z"/>
	<path style="fill:#FDC74F;" d="M245.807,348.038c-0.242,0-0.486-0.011-0.732-0.034c-4.359-0.399-7.568-4.255-7.17-8.614
		l0.385-4.211c0.399-4.359,4.244-7.576,8.614-7.17c4.359,0.399,7.568,4.255,7.17,8.614l-0.385,4.211
		C253.314,344.947,249.858,348.038,245.807,348.038z"/>
	<path style="fill:#FDC74F;" d="M214.531,374.069c-0.241,0-0.485-0.011-0.731-0.034l-4.212-0.385
		c-4.359-0.398-7.569-4.254-7.171-8.613c0.398-4.358,4.253-7.57,8.613-7.171l4.212,0.385c4.359,0.398,7.569,4.254,7.171,8.613
		C222.038,370.978,218.582,374.069,214.531,374.069z"/>
	<path style="fill:#FDC74F;" d="M382.219,346.077c1.719,2.066,4.809,2.214,6.768,0.374c31.248-29.357,34.589-78.355,6.796-111.747
		c-27.792-33.392-76.583-39.001-111.125-13.601c-2.165,1.592-2.58,4.658-0.861,6.723L382.219,346.077z"/>
</g>
<path style="fill:#F0FFE9;" d="M376.01,251.433c-19.794-23.781-55.006-27.144-78.944-7.666l72.153,86.69
	C392.718,310.452,395.803,275.214,376.01,251.433z"/>
<g>
	<path style="fill:#FDC74F;" d="M355.446,277.994c-2.272,0-4.528-0.972-6.095-2.855c-2.8-3.364-2.342-8.361,1.022-11.161
		l3.252-2.707c3.363-2.798,8.359-2.343,11.161,1.022c2.8,3.364,2.342,8.361-1.022,11.161l-3.252,2.707
		C359.03,277.392,357.233,277.994,355.446,277.994z"/>
	<path style="fill:#FDC74F;" d="M366.202,299.407c-0.242,0-0.487-0.01-0.733-0.033l-4.212-0.386
		c-4.358-0.399-7.568-4.257-7.169-8.615c0.399-4.359,4.258-7.576,8.615-7.168l4.212,0.386c4.358,0.399,7.568,4.257,7.168,8.615
		C373.708,296.318,370.252,299.407,366.202,299.407z"/>
	<path style="fill:#FDC74F;" d="M335.959,267.746c-0.242,0-0.486-0.01-0.732-0.033c-4.358-0.398-7.568-4.255-7.17-8.614l0.385-4.212
		c0.398-4.358,4.247-7.572,8.614-7.17c4.358,0.398,7.568,4.255,7.17,8.614l-0.385,4.212
		C343.465,264.655,340.01,267.746,335.959,267.746z"/>
</g>
<path style="fill:#CBD1CF;" d="M418.221,481.117c0.979-2.534,1.944-5.071,2.881-7.617c0.078-0.212,0.153-0.426,0.231-0.638
	c1.021-2.786,2.022-5.579,2.994-8.38c0.004-0.011,0.008-0.022,0.011-0.033c1.028-2.961,2.029-5.93,3.003-8.906v-0.001
	c-20.928,6.227-42.479,10.079-64.242,11.491c-2.843,8.041-5.887,16.023-9.138,23.936l-4.278,8.557
	C345.861,507.171,338.047,512,329.5,512h50.47c14.488,0,27.753-8.125,34.336-21.031l0,0c1.174-2.857,2.318-5.723,3.437-8.598
	C417.905,481.954,418.06,481.534,418.221,481.117z"/>
<path style="fill:#E5B11F;" d="M395.783,234.704c-2.51-3.015-5.196-5.796-8.022-8.356c5.407,39.615,6.139,79.558,2.31,119.034
	C420.29,315.917,423.245,267.698,395.783,234.704z"/>
<g>
</g>
<g>
</g>
<g>
</g>
<g>
</g>
<g>
</g>
<g>
</g>
<g>
</g>
<g>
</g>
<g>
</g>
<g>
</g>
<g>
</g>
<g>
</g>
<g>
</g>
<g>
</g>
<g>
</g>
</svg>
