<?xml version="1.0" encoding="iso-8859-1"?>
<!-- Generator: Adobe Illustrator 19.0.0, SVG Export Plug-In . SVG Version: 6.00 Build 0)  -->
<svg version="1.1" id="Capa_1" xmlns="http://www.w3.org/2000/svg" xmlns:xlink="http://www.w3.org/1999/xlink" x="0px" y="0px"
	 viewBox="0 0 512.001 512.001" style="enable-background:new 0 0 512.001 512.001;" xml:space="preserve">
<path style="fill:#77D057;" d="M92.404,29.421c-3.51-3.168-1.059-8.984,3.661-8.699l22.781,1.373
	c36.201,2.181,60.638,21.712,60.709,21.769c4.442,8.76,8.212,18.152,11.414,27.721C150.045,76.078,110.267,45.543,92.404,29.421z"/>
<g>
	<path style="fill:#68B543;" d="M259.44,18.228l-21.379,7.984c-28.384,10.6-45.357,30.358-50.208,36.62
		c3.481,9.206,6.391,18.71,8.817,28.093c33.635-12.804,57.833-47.1,68.816-65.448C267.916,21.417,263.872,16.573,259.44,18.228z"/>
	<path style="fill:#68B543;" d="M207.912,166.666c-3.945,0-7.296-3.026-7.628-7.029c-2.172-26.139-12.445-113.914-53.43-145.933
		c-3.335-2.605-3.927-7.422-1.321-10.757c2.605-3.337,7.421-3.928,10.757-1.321c44.635,34.869,56.317,121.23,59.268,156.741
		c0.351,4.218-2.784,7.921-7.002,8.272C208.34,166.658,208.125,166.666,207.912,166.666z"/>
</g>
<path style="fill:#DFEDE7;" d="M204.373,512.001h157.252c3.451,0,6.289-2.717,6.44-6.164l16.095-367.769
	c0.16-3.667-2.769-6.728-6.44-6.728H188.278c-3.671,0-6.601,3.061-6.44,6.728l16.095,367.769
	C198.084,509.284,200.923,512.001,204.373,512.001z"/>
<path style="fill:#D7E0DC;" d="M377.721,131.34h-49.849l-16.659,380.661h50.413c3.451,0,6.289-2.717,6.44-6.164l16.095-367.769
	C384.321,134.4,381.392,131.34,377.721,131.34z"/>
<path style="fill:#FC502A;" d="M382.458,176.971l-14.393,328.865c-0.151,3.447-2.989,6.164-6.44,6.164H204.373
	c-3.45,0-6.289-2.717-6.44-6.164L183.54,176.971H382.458z"/>
<path style="fill:#FDC74F;" d="M230.343,192.344c1.559,1.838,4.338,1.95,6.074,0.279c26.424-25.444,28.836-67.392,4.773-95.749
	s-65.845-32.803-95.25-10.871c-1.932,1.441-2.273,4.201-0.714,6.039L230.343,192.344z"/>
<path style="fill:#FFFFBB;" d="M220.924,181.245c21.56-18.304,24.204-50.619,5.904-72.184s-50.615-24.214-72.183-5.92
	L220.924,181.245z"/>
<g>
	<path style="fill:#FDC74F;" d="M208.682,132.126c-2.173,0-4.332-0.919-5.848-2.706c-2.738-3.227-2.341-8.064,0.886-10.802
		l2.767-2.347c3.229-2.736,8.064-2.34,10.802,0.887s2.341,8.064-0.886,10.802l-2.766,2.347
		C212.195,131.528,210.434,132.126,208.682,132.126z"/>
	<path style="fill:#FDC74F;" d="M218.081,150.401c-0.21,0-0.42-0.008-0.633-0.026l-3.615-0.295
		c-4.218-0.344-7.359-4.043-7.014-8.261c0.345-4.219,4.039-7.371,8.262-7.014l3.615,0.295c4.218,0.344,7.359,4.043,7.014,8.261
		C225.384,147.368,222.031,150.401,218.081,150.401z"/>
	<path style="fill:#FDC74F;" d="M191.887,123.498c-0.21,0-0.422-0.008-0.635-0.026c-4.218-0.345-7.358-4.045-7.012-8.263
		l0.296-3.615c0.346-4.219,4.039-7.375,8.264-7.012c4.218,0.345,7.358,4.045,7.012,8.263l-0.296,3.615
		C199.188,120.465,195.836,123.498,191.887,123.498z"/>
</g>
<path style="fill:#B0EFFE;" d="M419.233,38.265l-15.016-9.58c-2.038-1.3-4.744-0.702-6.045,1.336l-93.747,146.95h31.512
	l84.632-132.662C421.869,42.271,421.271,39.565,419.233,38.265z"/>
<g>
	<path style="fill:#FD9727;" d="M376.334,64.252l28.409,4.864l8.778-13.759c-0.612-0.288-1.268-0.505-1.966-0.625l-26.277-4.499
		L376.334,64.252z"/>
	<path style="fill:#FD9727;" d="M385.67,99.014l8.896-13.944c-0.333-0.106-0.674-0.198-1.028-0.259l-27.334-4.68l-8.943,14.019
		L385.67,99.014z"/>
	<path style="fill:#FD9727;" d="M375.522,114.889l-28.391-4.861l-8.908,13.964c0.292,0.087,0.589,0.162,0.897,0.215l27.477,4.704
		l8.943-14.018C375.534,114.892,375.528,114.89,375.522,114.889z"/>
	<path style="fill:#FD9727;" d="M321.103,154.286l26.421,4.523l8.943-14.019l-28.409-4.864l-8.797,13.79
		C319.837,153.975,320.451,154.174,321.103,154.286z"/>
</g>
<path style="fill:#E52D15;" d="M368.066,505.837l14.393-328.865h-56.583l-14.663,335.029h50.413c1.078,0,2.097-0.265,2.992-0.735
	C366.588,510.231,367.962,508.207,368.066,505.837z"/>
<path style="fill:#DFEDE7;" d="M282.999,479.627c33.476,0,63.883-1.419,86.376-3.73l-1.31,29.94c-0.151,3.447-2.99,6.164-6.44,6.164
	H204.373c-3.45,0-6.289-2.717-6.44-6.164l-1.31-29.94C219.116,478.208,249.523,479.627,282.999,479.627z"/>
<path style="fill:#D7E0DC;" d="M365.426,510.753c0.154-0.113,0.303-0.232,0.446-0.358c0.048-0.042,0.097-0.082,0.144-0.125
	c0.179-0.167,0.35-0.343,0.51-0.529c0.03-0.035,0.056-0.073,0.085-0.108c0.129-0.158,0.251-0.322,0.365-0.492
	c0.041-0.061,0.081-0.123,0.12-0.185c0.108-0.174,0.209-0.353,0.301-0.538c0.021-0.042,0.045-0.082,0.065-0.124
	c0.106-0.225,0.197-0.458,0.277-0.697c0.02-0.061,0.036-0.124,0.055-0.186c0.057-0.188,0.105-0.38,0.144-0.575
	c0.015-0.072,0.03-0.145,0.042-0.218c0.043-0.256,0.075-0.516,0.087-0.781l0,0l0.097-2.222l1.213-27.718
	c-15.629,1.606-35.084,2.779-56.73,3.347l-1.434,32.757h50.413c0.247,0,0.49-0.018,0.729-0.045c0.075-0.008,0.148-0.022,0.222-0.033
	c0.166-0.025,0.33-0.054,0.492-0.091c0.08-0.018,0.16-0.038,0.239-0.06c0.16-0.043,0.316-0.093,0.471-0.148
	c0.068-0.024,0.137-0.046,0.204-0.073c0.217-0.085,0.429-0.179,0.634-0.286c0.22-0.116,0.431-0.248,0.635-0.388
	C365.312,510.838,365.369,510.795,365.426,510.753z"/>
<g>
</g>
<g>
</g>
<g>
</g>
<g>
</g>
<g>
</g>
<g>
</g>
<g>
</g>
<g>
</g>
<g>
</g>
<g>
</g>
<g>
</g>
<g>
</g>
<g>
</g>
<g>
</g>
<g>
</g>
</svg>
