<?xml version="1.0" encoding="iso-8859-1"?>
<!-- Generator: Adobe Illustrator 19.0.0, SVG Export Plug-In . SVG Version: 6.00 Build 0)  -->
<svg version="1.1" id="Capa_1" xmlns="http://www.w3.org/2000/svg" xmlns:xlink="http://www.w3.org/1999/xlink" x="0px" y="0px"
	 viewBox="0 0 511.999 511.999" style="enable-background:new 0 0 511.999 511.999;" xml:space="preserve">
<circle style="fill:#FDC74F;" cx="97.232" cy="76.27" r="76.27"/>
<path style="fill:#EDBA18;" d="M97.235,0c-10.073,0-19.68,1.971-28.483,5.519c28.007,11.287,47.784,38.7,47.784,70.748
	s-19.777,59.461-47.784,70.748c8.803,3.548,18.41,5.519,28.483,5.519c42.121,0,76.267-34.146,76.267-76.267S139.356,0,97.235,0z"/>
<circle style="fill:#FFFFBB;" cx="97.232" cy="76.27" r="52.699"/>
<g>
	<path style="fill:#FDC74F;" d="M97.235,113.175c-4.287,0-7.761-3.475-7.761-7.761v-3.702c0-4.286,3.474-7.761,7.761-7.761
		s7.761,3.475,7.761,7.761v3.702C104.996,109.7,101.522,113.175,97.235,113.175z"/>
	<path style="fill:#FDC74F;" d="M97.235,58.583c-4.287,0-7.761-3.475-7.761-7.761V47.12c0-4.286,3.474-7.761,7.761-7.761
		s7.761,3.475,7.761,7.761v3.702C104.996,55.108,101.522,58.583,97.235,58.583z"/>
	<path style="fill:#FDC74F;" d="M71.789,84.028h-3.702c-4.287,0-7.761-3.475-7.761-7.761s3.474-7.761,7.761-7.761h3.702
		c4.287,0,7.761,3.475,7.761,7.761S76.076,84.028,71.789,84.028z"/>
	<path style="fill:#FDC74F;" d="M79.242,66.036c-1.986,0-3.973-0.758-5.489-2.273l-2.617-2.617c-3.031-3.031-3.031-7.945,0-10.976
		c3.032-3.031,7.945-3.031,10.977,0l2.617,2.617c3.031,3.031,3.031,7.945,0,10.976C83.215,65.278,81.228,66.036,79.242,66.036z"/>
	<path style="fill:#FDC74F;" d="M115.227,66.036c-1.986,0-3.973-0.758-5.489-2.273c-3.031-3.031-3.031-7.945,0-10.976l2.617-2.617
		c3.032-3.031,7.945-3.031,10.977,0c3.031,3.031,3.031,7.945,0,10.976l-2.617,2.617C119.2,65.278,117.213,66.036,115.227,66.036z"/>
	<path style="fill:#FDC74F;" d="M76.625,104.638c-1.986,0-3.973-0.758-5.489-2.273c-3.031-3.031-3.031-7.945,0-10.976l2.617-2.617
		c3.032-3.031,7.945-3.031,10.977,0c3.031,3.031,3.031,7.945,0,10.976l-2.617,2.617C80.597,103.88,78.611,104.638,76.625,104.638z"
		/>
</g>
<path style="fill:#D6E5E2;" d="M382.908,507.612l-59.022-20.521c-11.385-3.959-19.017-14.691-19.017-26.745V274.464h-25.276v185.881
	c0,12.054-7.631,22.786-19.017,26.745l-59.022,20.521c-2.295,0.967-1.604,4.388,0.887,4.388h179.58
	C384.513,512,385.204,508.58,382.908,507.612z"/>
<path style="fill:#E5F9F6;" d="M271.484,279.39L95.328,85.595c-4.235-4.659-0.929-12.132,5.367-12.132h383.073
	c6.297,0,9.603,7.473,5.367,12.132L312.98,279.39C301.855,291.629,282.609,291.629,271.484,279.39z"/>
<path style="fill:#D6E5E2;" d="M483.769,73.463h-47.638l-175.915,193.53l11.268,12.397c11.125,12.239,30.371,12.239,41.496,0
	L489.136,85.595C493.371,80.936,490.065,73.463,483.769,73.463z"/>
<path style="fill:#B0EFFE;" d="M141.194,136.054l130.29,143.337c11.125,12.238,30.37,12.238,41.495,0.001L443.27,136.054H141.194z"
	/>
<path style="fill:#90D8E0;" d="M312.898,279.475c0.026-0.029,0.054-0.055,0.081-0.084l109.516-120.482l20.775-22.855h-64.033
	l-119.022,130.94l11.268,12.397c0.303,0.334,0.615,0.655,0.931,0.97c0.046,0.046,0.09,0.096,0.136,0.141
	c2.904,2.868,6.284,4.972,9.886,6.31c0.377,0.14,0.758,0.267,1.14,0.391c0.074,0.024,0.146,0.052,0.22,0.075
	c0.683,0.215,1.374,0.393,2.069,0.554c1.163,0.27,2.339,0.473,3.522,0.593c0.106,0.011,0.214,0.015,0.32,0.024
	c0.839,0.075,1.681,0.119,2.523,0.119c0.147,0,0.294-0.009,0.441-0.011c0.423-0.007,0.847-0.021,1.27-0.047
	c0.745-0.045,1.487-0.12,2.227-0.224c0.106-0.015,0.213-0.024,0.319-0.04c0.366-0.056,0.73-0.125,1.094-0.195
	c0.104-0.02,0.208-0.034,0.311-0.056c0.428-0.088,0.854-0.188,1.279-0.296c0.038-0.01,0.077-0.017,0.114-0.026
	c1.279-0.331,2.536-0.759,3.766-1.273c0.104-0.043,0.209-0.081,0.313-0.126c2.612-1.128,5.085-2.675,7.32-4.635
	c0.038-0.033,0.078-0.064,0.115-0.097c0.325-0.288,0.641-0.589,0.956-0.894c0.051-0.05,0.105-0.095,0.155-0.145
	C312.248,280.171,312.576,279.827,312.898,279.475z"/>
<g>
</g>
<g>
</g>
<g>
</g>
<g>
</g>
<g>
</g>
<g>
</g>
<g>
</g>
<g>
</g>
<g>
</g>
<g>
</g>
<g>
</g>
<g>
</g>
<g>
</g>
<g>
</g>
<g>
</g>
</svg>
