<?xml version="1.0" encoding="iso-8859-1"?>
<!-- Generator: Adobe Illustrator 19.0.0, SVG Export Plug-In . SVG Version: 6.00 Build 0)  -->
<svg version="1.1" id="Capa_1" xmlns="http://www.w3.org/2000/svg" xmlns:xlink="http://www.w3.org/1999/xlink" x="0px" y="0px"
	 viewBox="0 0 512.001 512.001" style="enable-background:new 0 0 512.001 512.001;" xml:space="preserve">
<circle style="fill:#77D057;" cx="121.342" cy="95.65" r="82.5"/>
<path style="fill:#69B749;" d="M121.345,13.147c-10.019,0-19.619,1.789-28.503,5.06c31.517,11.604,53.996,41.895,53.996,77.439
	s-22.48,65.835-53.996,77.439c8.884,3.271,18.484,5.06,28.503,5.06c45.563,0,82.499-36.936,82.499-82.499
	S166.908,13.147,121.345,13.147z"/>
<circle style="fill:#F0FFE9;" cx="121.342" cy="95.65" r="57.01"/>
<g>
	<path style="fill:#77D057;" d="M118.248,75.806c-4.194,0.678-8.142-2.172-8.82-6.365l-0.639-3.953
		c-0.678-4.193,2.171-8.142,6.365-8.82s8.142,2.172,8.82,6.365l0.639,3.953C125.291,71.179,122.442,75.128,118.248,75.806z"/>
	<path style="fill:#77D057;" d="M95.469,107.371l-3.953,0.639c-4.194,0.678-8.142-2.172-8.82-6.365s2.171-8.142,6.365-8.82
		l3.953-0.639c4.194-0.678,8.142,2.172,8.82,6.365S99.663,106.693,95.469,107.371z"/>
	<path style="fill:#77D057;" d="M100.321,86.871c-1.944,0.314-4.006-0.113-5.729-1.356l-3.247-2.344
		c-3.444-2.486-4.222-7.293-1.735-10.738c2.485-3.445,7.294-4.221,10.738-1.735l3.247,2.344c3.444,2.486,4.222,7.293,1.735,10.738
		C104.088,85.502,102.264,86.557,100.321,86.871z"/>
	<path style="fill:#77D057;" d="M138.748,80.659c-1.943,0.314-4.005-0.113-5.728-1.356c-3.445-2.485-4.222-7.293-1.737-10.738
		l2.343-3.247c2.484-3.445,7.292-4.222,10.738-1.737c3.445,2.485,4.222,7.293,1.737,10.738l-2.343,3.247
		C142.516,79.289,140.691,80.344,138.748,80.659z"/>
	<path style="fill:#77D057;" d="M104.191,128.545c-1.943,0.314-4.006-0.113-5.729-1.356c-3.444-2.486-4.222-7.293-1.736-10.738
		l2.343-3.247c2.487-3.444,7.293-4.222,10.739-1.736c3.444,2.486,4.222,7.293,1.736,10.738l-2.343,3.247
		C107.957,127.175,106.134,128.23,104.191,128.545z"/>
</g>
<path style="fill:#E5F9F6;" d="M121.456,102.476l55.519,382.1C179.262,500.321,192.761,512,208.672,512h177.159
	c15.911,0,29.41-11.679,31.698-27.425l55.519-382.1c0.92-6.333-3.991-12.01-10.391-12.01h-330.81
	C125.447,90.466,120.535,96.142,121.456,102.476z"/>
<path style="fill:#D6E5E2;" d="M462.656,90.466h-45.363l-58.57,403.1C357.186,504.149,348.112,512,337.417,512h48.414
	c15.911,0,29.41-11.679,31.698-27.425l55.519-382.099C473.968,96.142,469.056,90.466,462.656,90.466z"/>
<path style="fill:#65DBEF;" d="M371.552,156.702c-0.726,0-1.463-0.104-2.194-0.321c-4.072-1.21-6.391-5.492-5.182-9.564
	l39.827-133.973C406.251,5.282,413.331,0,421.22,0h38.552c4.248,0,7.691,3.444,7.691,7.691s-3.443,7.691-7.691,7.691H421.22
	c-1.133,0-2.149,0.758-2.472,1.844L378.922,151.2C377.928,154.541,374.868,156.701,371.552,156.702z"/>
<path style="fill:#772424;" d="M128.217,149.008l48.757,335.567C179.262,500.321,192.761,512,208.672,512h177.159
	c15.911,0,29.41-11.679,31.697-27.425l48.758-335.567L128.217,149.008L128.217,149.008z"/>
<path style="fill:#681818;" d="M415.439,492.18c0.987-2.395,1.702-4.94,2.089-7.605l48.758-335.567h-57.499l-50.064,344.557
	C357.186,504.149,348.112,512,337.417,512h48.414C399.049,512,410.595,503.936,415.439,492.18z"/>
<path style="fill:#933535;" d="M258.027,512l-7.7-159.682c-1.223-25.368-24.285-46.925-51.451-46.925
	c-23.346,0-40.575,15.925-42.633,36.504l20.731,142.677C179.262,500.321,192.761,512,208.672,512H258.027z"/>
<path style="fill:#9B4848;" d="M297.252,305.394c-27.166,0-48.148,21.556-46.925,46.925l7.7,159.682h78.448l7.7-159.682
	C345.4,326.95,324.417,305.394,297.252,305.394z"/>
<path style="fill:#933535;" d="M385.831,512c15.911,0,29.41-11.679,31.697-27.425l20.731-142.678
	c-2.058-20.578-19.287-36.503-42.633-36.503c-27.166,0-50.227,21.556-51.451,46.925L336.476,512H385.831z"/>
<path style="fill:#772424;" d="M438.259,341.897c-2.058-20.578-19.287-36.503-42.633-36.503c-3.304,0-6.546,0.324-9.697,0.93
	l-27.206,187.241c-1.538,10.583-10.611,18.434-21.305,18.434h48.413c0.001,0,0.003,0,0.004,0c0.742,0,1.477-0.034,2.208-0.084
	c0.137-0.009,0.274-0.017,0.41-0.028c0.704-0.057,1.402-0.137,2.093-0.24c0.129-0.019,0.257-0.042,0.385-0.062
	c0.714-0.115,1.422-0.245,2.12-0.407c0.002,0,0.003-0.001,0.005-0.001c0.707-0.163,1.402-0.357,2.091-0.567
	c0.114-0.035,0.229-0.068,0.342-0.104c0.669-0.212,1.329-0.444,1.978-0.698c0.094-0.037,0.187-0.076,0.28-0.113
	c1.353-0.544,2.663-1.176,3.92-1.893c0.072-0.041,0.145-0.082,0.217-0.124c0.625-0.363,1.238-0.745,1.835-1.148
	c0.046-0.031,0.09-0.063,0.136-0.094c1.236-0.843,2.412-1.771,3.517-2.776c0.029-0.027,0.059-0.053,0.089-0.08
	c0.558-0.511,1.099-1.041,1.62-1.591c0.003-0.004,0.007-0.007,0.01-0.011c1.063-1.123,2.046-2.325,2.94-3.596
	c0.004-0.005,0.007-0.01,0.011-0.015c1.344-1.913,2.486-3.984,3.393-6.185c0.001-0.002,0.001-0.004,0.002-0.006
	c0.484-1.174,0.9-2.385,1.247-3.628c0.02-0.073,0.038-0.146,0.058-0.219c0.137-0.505,0.259-1.016,0.372-1.531
	c0.031-0.141,0.062-0.281,0.091-0.422c0.122-0.595,0.232-1.195,0.32-1.802L438.259,341.897z"/>
<path style="fill:#D6E5E2;" d="M397.415,479.105H197.088c-8.217,0-15.86-2.761-21.991-7.45l1.877,12.92
	C179.262,500.321,192.761,512,208.672,512h177.159c15.911,0,29.41-11.679,31.697-27.425l1.877-12.92
	C413.275,476.344,405.632,479.105,397.415,479.105z"/>
<path style="fill:#CBD1CF;" d="M385.837,512c0.742,0,1.476-0.034,2.207-0.084c0.137-0.009,0.274-0.017,0.41-0.028
	c0.704-0.057,1.402-0.137,2.093-0.24c0.129-0.019,0.257-0.042,0.385-0.062c0.714-0.115,1.422-0.245,2.12-0.407
	c0.002,0,0.003-0.001,0.005-0.001c0.707-0.163,1.402-0.357,2.091-0.567c0.114-0.035,0.229-0.068,0.342-0.104
	c0.669-0.212,1.329-0.444,1.978-0.698c0.094-0.037,0.187-0.076,0.28-0.113c1.353-0.544,2.663-1.176,3.92-1.893
	c0.072-0.041,0.145-0.082,0.217-0.124c0.625-0.363,1.238-0.745,1.835-1.148c0.046-0.031,0.09-0.063,0.136-0.094
	c1.236-0.843,2.412-1.771,3.517-2.776c0.029-0.027,0.059-0.053,0.089-0.08c0.558-0.511,1.099-1.041,1.62-1.591
	c0.003-0.004,0.007-0.007,0.01-0.011c1.063-1.123,2.046-2.324,2.94-3.596c0.001-0.001,0.001-0.002,0.002-0.002
	c0.003-0.004,0.006-0.009,0.009-0.013c1.344-1.913,2.485-3.983,3.392-6.183c0-0.001,0.001-0.002,0.001-0.003
	c0.001-0.001,0.001-0.003,0.002-0.004c0.484-1.174,0.9-2.385,1.247-3.628c0.021-0.074,0.039-0.148,0.059-0.222
	c0.136-0.503,0.258-1.012,0.371-1.525c0.02-0.092,0.041-0.184,0.06-0.277c0.011-0.05,0.022-0.099,0.032-0.149
	c0.122-0.595,0.232-1.195,0.32-1.802l1.877-12.92c-6.131,4.689-13.774,7.45-21.991,7.45h-36.59l-2.101,14.46
	c-1.538,10.583-10.611,18.434-21.305,18.434h48.413l0,0C385.833,512,385.835,512,385.837,512z"/>
<g>
</g>
<g>
</g>
<g>
</g>
<g>
</g>
<g>
</g>
<g>
</g>
<g>
</g>
<g>
</g>
<g>
</g>
<g>
</g>
<g>
</g>
<g>
</g>
<g>
</g>
<g>
</g>
<g>
</g>
</svg>
