<?xml version="1.0" encoding="iso-8859-1"?>
<!-- Generator: Adobe Illustrator 19.0.0, SVG Export Plug-In . SVG Version: 6.00 Build 0)  -->
<svg version="1.1" id="Capa_1" xmlns="http://www.w3.org/2000/svg" xmlns:xlink="http://www.w3.org/1999/xlink" x="0px" y="0px"
	 viewBox="0 0 512 512" style="enable-background:new 0 0 512 512;" xml:space="preserve">
<path style="fill:#CEDDDA;" d="M385.555,193.274h-54.083v30.77h54.083c16.837,0,30.536,13.698,30.536,30.536v148.935
	c0,16.838-13.698,30.537-30.536,30.537h-54.083v25.35c0,1.81-0.064,3.617-0.162,5.42h54.245c33.804,0,61.306-27.502,61.306-61.307
	V254.58C446.861,220.776,419.359,193.274,385.555,193.274z"/>
<path style="fill:#E5F9F6;" d="M340.671,163.658L340.671,163.658c-5.46-4.896-8.58-11.883-8.58-19.216v-42.205H82.299v42.205
	c0,7.333-3.12,14.321-8.58,19.216l0,0c-5.46,4.895-8.58,11.883-8.58,19.216v267.15c0,12.637,2.414,25.159,7.113,36.89l0,0
	C78.32,502.066,92.999,512,109.322,512h195.746c16.322,0,31.002-9.934,37.07-25.086l0,0c4.699-11.731,7.113-24.253,7.113-36.89
	v-267.15C349.251,175.541,346.131,168.554,340.671,163.658z"/>
<path style="fill:#D6E5E2;" d="M340.671,163.658L340.671,163.658c-5.46-4.896-8.58-11.883-8.58-19.216v-42.205h-56.807v42.205
	c0,7.333,3.12,14.321,8.58,19.216l0,0c5.46,4.895,8.58,11.883,8.58,19.216v267.15c0,12.637-2.414,25.158-7.113,36.89l0,0
	C279.263,502.066,264.583,512,248.261,512h56.807c16.322,0,31.002-9.934,37.07-25.086l0,0c4.699-11.731,7.113-24.253,7.113-36.89
	v-267.15C349.251,175.541,346.131,168.554,340.671,163.658z"/>
<path style="fill:#CCF9B4;" d="M65.139,183.856v266.168c0,12.637,2.414,25.159,7.113,36.89l0,0
	C78.32,502.066,92.999,512,109.322,512h195.746c16.322,0,31.002-9.934,37.07-25.086l0,0c4.699-11.731,7.113-24.253,7.113-36.89
	V183.856H65.139z"/>
<path style="fill:#AFE288;" d="M292.444,450.024c0,12.637-2.414,25.158-7.113,36.89l0,0C279.263,502.066,264.583,512,248.261,512
	h56.807c15.302,0,29.16-8.731,35.833-22.307c0.445-0.905,0.858-1.832,1.237-2.779l0,0c0.587-1.466,1.139-2.945,1.655-4.435
	s0.995-2.991,1.439-4.501c0.887-3.021,1.629-6.081,2.225-9.169c1.191-6.176,1.794-12.466,1.794-18.785V183.856h-56.807V450.024z"/>
<path style="fill:#77D057;" d="M319.26,279.887c1.932-1.608,2.077-4.504,0.351-6.331c-26.2-27.724-69.794-30.646-99.52-5.905
	s-34.766,68.141-12.258,98.939c1.483,2.029,4.358,2.412,6.289,0.804L319.26,279.887z"/>
<path style="fill:#F0FFE9;" d="M307.633,289.564c-18.821-22.603-52.402-25.674-75.01-6.856s-25.684,52.397-6.873,75.009
	L307.633,289.564z"/>
<g>
	<path style="fill:#77D057;" d="M252.003,293.878c-2.739-3.291-7.626-3.737-10.914-0.999c-3.29,2.738-3.737,7.625-0.999,10.914
		l2.414,2.9c1.533,1.842,3.739,2.792,5.961,2.792c1.748,0,3.506-0.588,4.954-1.793c3.29-2.738,3.737-7.625,0.999-10.914
		L252.003,293.878z"/>
	<path style="fill:#77D057;" d="M268.264,284.43c-4.263-0.394-8.033,2.75-8.423,7.013l-0.343,3.756
		c-0.39,4.262,2.75,8.033,7.012,8.422c0.24,0.022,0.478,0.033,0.714,0.033c3.962,0,7.341-3.023,7.708-7.046l0.343-3.756
		C275.666,288.59,272.526,284.819,268.264,284.43z"/>
	<path style="fill:#77D057;" d="M240.027,311.404l-3.757-0.344c-4.252-0.397-8.033,2.748-8.424,7.011
		c-0.391,4.262,2.749,8.034,7.011,8.424l3.756,0.344c0.241,0.022,0.479,0.033,0.716,0.033c3.961,0,7.34-3.022,7.708-7.043
		C247.428,315.566,244.289,311.794,240.027,311.404z"/>
</g>
<g>
	<path style="fill:#F0FFE9;" d="M96.586,241.762l36.212-36.212c1.42-1.42,3.721-1.42,5.141,0l36.212,36.212
		c1.42,1.42,1.42,3.721,0,5.141l-36.212,36.212c-1.42,1.42-3.721,1.42-5.141,0l-36.212-36.212
		C95.167,245.483,95.167,243.182,96.586,241.762z"/>
	<path style="fill:#F0FFE9;" d="M249.525,427.94l36.212-36.212c1.42-1.42,3.721-1.42,5.141,0l36.212,36.212
		c1.42,1.42,1.42,3.721,0,5.141l-36.212,36.212c-1.42,1.42-3.721,1.42-5.141,0l-36.212-36.212
		C248.105,431.661,248.105,429.36,249.525,427.94z"/>
</g>
<path style="fill:#77D057;" d="M170.102,384.766c-24.859-17.485-72.286-13.121-72.286-13.121s-2.824,47.544,15.457,71.823
	c33.877,44.991,71.398,12.261,71.398,12.261S216.168,417.167,170.102,384.766z"/>
<path style="fill:#68B543;" d="M181.05,418.285c0.969-4.169-1.625-8.335-5.793-9.304c-4.173-0.971-8.335,1.625-9.304,5.793
	l-2.286,9.833l-6.87-6.651l3.299-14.192c0.969-4.169-1.625-8.334-5.794-9.303c-4.169-0.968-8.334,1.625-9.303,5.794l-1.192,5.126
	l-5.886-5.698l1.689-7.265c0.969-4.169-1.624-8.335-5.793-9.304c-3.593-0.837-7.172,0.976-8.718,4.156l-16.624-16.093
	c-6.5,0.085-10.66,0.467-10.66,0.467s-0.247,4.17-0.121,10.669l16.625,16.094c-3.129,1.648-4.824,5.287-3.873,8.849
	c0.925,3.466,4.058,5.753,7.482,5.753c0.662,0,1.335-0.085,2.004-0.264l7.209-1.924l5.885,5.697l-5.085,1.357
	c-4.135,1.104-6.592,5.351-5.488,9.486c0.925,3.466,4.058,5.753,7.482,5.753c0.661,0,1.335-0.086,2.004-0.264l14.077-3.758
	l6.726,6.512l-9.378,2.503c-4.135,1.104-6.592,5.351-5.488,9.486c0.925,3.466,4.058,5.753,7.482,5.753
	c0.661,0,1.335-0.086,2.004-0.264l18.369-4.904l12.427,12.03c4.12-2.395,6.514-4.481,6.514-4.481s2.007-2.46,4.267-6.655
	l-12.282-11.891L181.05,418.285z"/>
<path style="fill:#D7E0DC;" d="M335.242,498.222c-26.665-7.549-72.682-12.538-125.002-12.538
	c-55.591,0-104.069,5.632-129.773,13.984C87.858,507.391,98.207,512,109.322,512h195.746
	C316.86,512,327.792,506.813,335.242,498.222z"/>
<path style="fill:#FF7B98;" d="M358.929,10.383l-15.186-9.688c-2.061-1.315-4.798-0.71-6.113,1.351l-115.996,181.81h32.155
	L360.28,16.496C361.595,14.435,360.99,11.698,358.929,10.383z"/>
<path style="fill:#CEDDDA;" d="M347.01,109.101V96.37c0-3.091-2.506-5.597-5.597-5.597H72.976c-3.091,0-5.597,2.506-5.597,5.597
	v12.731c0,3.091,2.506,5.597,5.597,5.597c-3.091,0-5.597,2.506-5.597,5.597v12.731c0,3.091,2.506,5.597,5.597,5.597h268.438
	c3.091,0,5.597-2.506,5.597-5.597v-12.731c0-3.091-2.506-5.597-5.597-5.597C344.505,114.697,347.01,112.192,347.01,109.101z"/>
<path style="fill:#B8CCC8;" d="M347.01,109.101V96.37c0-3.091-2.506-5.597-5.597-5.597h-50.109v47.848h50.109
	c3.091,0,5.597-2.506,5.597-5.597v-12.731c0-3.091-2.506-5.597-5.597-5.597C344.505,114.697,347.01,112.192,347.01,109.101z"/>
<path style="fill:#D6E5E2;" d="M292.444,393.295v56.729c0,6.598-0.674,13.161-1.972,19.599c0.139-0.104,0.279-0.205,0.405-0.331
	l36.212-36.212c1.42-1.42,1.42-3.721,0-5.141L292.444,393.295z"/>
<g>
	<polygon style="fill:#F0FFE9;" points="317.822,83.222 326.955,68.869 297.664,64.689 288.508,79.039 	"/>
	<polygon style="fill:#F0FFE9;" points="307.042,49.99 336.31,54.166 345.444,39.813 316.197,35.64 	"/>
	<path style="fill:#F0FFE9;" d="M359.246,10.633L334.412,7.09l-9.156,14.35l29.224,4.17l5.799-9.114
		C361.521,14.551,361.035,12.019,359.246,10.633z"/>
	<polygon style="fill:#F0FFE9;" points="262.354,170.396 271.487,156.043 242.059,151.844 232.903,166.194 	"/>
</g>
<g>
</g>
<g>
</g>
<g>
</g>
<g>
</g>
<g>
</g>
<g>
</g>
<g>
</g>
<g>
</g>
<g>
</g>
<g>
</g>
<g>
</g>
<g>
</g>
<g>
</g>
<g>
</g>
<g>
</g>
</svg>
