<?xml version="1.0" encoding="iso-8859-1"?>
<!-- Generator: Adobe Illustrator 19.0.0, SVG Export Plug-In . SVG Version: 6.00 Build 0)  -->
<svg version="1.1" id="Capa_1" xmlns="http://www.w3.org/2000/svg" xmlns:xlink="http://www.w3.org/1999/xlink" x="0px" y="0px"
	 viewBox="0 0 512 512" style="enable-background:new 0 0 512 512;" xml:space="preserve">
<path style="fill:#E5F9F6;" d="M393.94,58.819c0.501-5.043-3.46-9.417-8.528-9.417H203.497c-10.504,0-20.701-3.542-28.943-10.054
	l-26.113-20.631C129.685,3.899,105.653-2.541,81.999,0.913l-40.86,5.966c-4.769,0.696-6.671,6.557-3.221,9.921l24.427,23.816
	c5.833,5.687,9.472,13.249,10.277,21.355l37.457,377.175c2.063,20.768,0.107,41.74-5.76,61.769l0,0
	c-1.623,5.54,2.531,11.085,8.304,11.085h2.616h238.388c4.586,0,8.304-3.718,8.304-8.304v-2.781c-5.867-20.029-7.823-41-5.76-61.769
	L393.94,58.819z"/>
<path style="fill:#CEDDDA;" d="M433.133,98.793c-0.037-0.007-47.508-8.094-47.508-8.094l-3.207,32.288l46.596,6.444
	c0.087,0.012,0.175,0.023,0.262,0.034c9.267,1.12,16.131,9.299,15.628,18.619L433.341,362.26
	c-0.454,8.411-6.832,15.409-15.165,16.639c-0.076,0.012-0.152,0.023-0.228,0.035l-61.495,5.501
	c-0.151,0.025-3.661,36.865-3.661,36.865l70.026-11.838c22.751-3.421,40.15-22.55,41.391-45.536l11.563-214.176
	C477.148,124.282,458.43,101.928,433.133,98.793z"/>
<path style="fill:#D6E5E2;" d="M393.94,58.819c0.501-5.043-3.46-9.417-8.528-9.417h-47.979l-38.705,389.744
	c-2.063,20.768-0.107,41.74,5.76,61.769V512h49.139c4.586,0,8.304-3.718,8.304-8.304v-2.781c-5.867-20.029-7.823-41-5.76-61.769
	L393.94,58.819z"/>
<path style="fill:#B0EFFE;" d="M356.17,439.146l29.999-302.077c-47.066-0.572-52.174-10.323-101.856-10.323
	c-51.186,0-51.186,10.35-102.372,10.35c-47.708,0-59.98-8.99-102.872-10.212l31.01,312.262c2.063,20.768,0.107,41.74-5.76,61.769
	l0,0c-1.623,5.54,2.531,11.085,8.304,11.085h2.616h238.388c0.287,0,0.57-0.015,0.849-0.043c0.558-0.057,1.1-0.169,1.62-0.33
	c1.04-0.323,1.992-0.846,2.813-1.523c0.41-0.338,0.787-0.716,1.126-1.126c0.508-0.615,0.928-1.305,1.244-2.05
	c0.315-0.745,0.525-1.546,0.61-2.383c0.028-0.279,0.043-0.562,0.043-0.849v-2.781C356.063,480.886,354.107,459.915,356.17,439.146z"
	/>
<path style="fill:#90D8E0;" d="M353.627,512c0.287,0,0.57-0.015,0.849-0.043c0.558-0.057,1.1-0.169,1.62-0.33
	c1.04-0.323,1.992-0.846,2.813-1.523c0.41-0.338,0.787-0.716,1.126-1.126c0.508-0.615,0.928-1.305,1.244-2.05
	c0.315-0.745,0.525-1.546,0.61-2.383c0.028-0.279,0.043-0.562,0.043-0.849v-2.781c-5.867-20.029-7.823-41-5.76-61.769
	l29.999-302.077c-0.002,0-0.004,0-0.006,0c-0.199-0.002-0.396-0.005-0.593-0.008c-0.062-0.001-0.123-0.002-0.185-0.003
	c-0.138-0.002-0.277-0.004-0.414-0.006c-0.075-0.001-0.149-0.002-0.223-0.004c-0.129-0.002-0.257-0.004-0.385-0.006
	c-0.065-0.001-0.13-0.002-0.195-0.003c-0.14-0.003-0.279-0.005-0.417-0.008c-0.063-0.001-0.125-0.002-0.187-0.004
	c-0.133-0.003-0.265-0.005-0.397-0.008c-0.066-0.001-0.132-0.003-0.198-0.004c-0.169-0.004-0.338-0.008-0.506-0.011
	c-0.057-0.001-0.113-0.003-0.169-0.004c-0.155-0.004-0.31-0.008-0.465-0.011c-0.072-0.002-0.144-0.004-0.216-0.006
	c-0.11-0.003-0.221-0.006-0.33-0.009c-0.1-0.003-0.199-0.006-0.298-0.008c-0.086-0.002-0.171-0.005-0.256-0.007
	c-0.094-0.003-0.187-0.006-0.281-0.008c-0.101-0.003-0.201-0.006-0.301-0.009c-0.086-0.003-0.171-0.005-0.257-0.008
	c-0.11-0.004-0.219-0.007-0.328-0.011c-0.071-0.002-0.141-0.005-0.212-0.007c-0.162-0.005-0.323-0.011-0.484-0.017
	c-0.11-0.004-0.219-0.008-0.329-0.012c-0.08-0.003-0.16-0.006-0.24-0.009c-0.118-0.004-0.236-0.009-0.354-0.014
	c-0.058-0.002-0.116-0.004-0.174-0.007c-0.11-0.004-0.219-0.009-0.328-0.013c-0.08-0.003-0.16-0.006-0.24-0.01
	c-0.078-0.003-0.155-0.006-0.233-0.01c-0.108-0.005-0.216-0.009-0.323-0.014c-0.078-0.003-0.156-0.007-0.233-0.01
	c-0.12-0.005-0.238-0.011-0.357-0.016c-0.048-0.002-0.096-0.004-0.144-0.006c-0.176-0.008-0.352-0.016-0.527-0.025
	c-0.034-0.002-0.067-0.003-0.101-0.005c-0.144-0.007-0.288-0.014-0.431-0.021c-0.059-0.003-0.117-0.006-0.175-0.009
	c-0.105-0.005-0.21-0.011-0.315-0.016c-0.093-0.005-0.186-0.01-0.279-0.015c-0.068-0.004-0.137-0.007-0.205-0.011
	c-0.094-0.005-0.188-0.01-0.281-0.015c-0.094-0.005-0.188-0.01-0.282-0.016c-0.068-0.004-0.137-0.008-0.205-0.011
	c-0.126-0.007-0.251-0.014-0.376-0.022c-0.04-0.002-0.081-0.005-0.121-0.007c-0.139-0.008-0.278-0.016-0.417-0.025
	c-0.094-0.006-0.187-0.011-0.281-0.017c-0.098-0.006-0.196-0.012-0.293-0.018c-0.076-0.005-0.153-0.01-0.229-0.014
	c-0.083-0.005-0.166-0.011-0.249-0.016c-0.087-0.006-0.173-0.011-0.26-0.017c-0.075-0.005-0.151-0.01-0.226-0.015
	c-0.084-0.006-0.168-0.011-0.251-0.017c-0.076-0.005-0.153-0.01-0.229-0.016c-0.089-0.006-0.178-0.012-0.267-0.018
	c-0.073-0.005-0.145-0.01-0.217-0.015c-0.083-0.006-0.166-0.012-0.248-0.018c-0.039-0.003-0.077-0.006-0.116-0.008
	c-0.245-0.018-0.488-0.035-0.73-0.054c-0.015-0.001-0.03-0.002-0.045-0.003c-0.106-0.008-0.212-0.016-0.318-0.024
	c-0.05-0.004-0.101-0.008-0.151-0.012c-0.102-0.008-0.204-0.016-0.306-0.024c-0.051-0.004-0.101-0.008-0.152-0.012
	c-0.103-0.008-0.206-0.016-0.308-0.025c-0.045-0.004-0.09-0.007-0.134-0.011c-0.105-0.008-0.209-0.017-0.313-0.026
	c-0.03-0.002-0.059-0.005-0.089-0.007c-0.371-0.031-0.74-0.062-1.105-0.094c-0.031-0.003-0.063-0.006-0.094-0.008
	c-0.114-0.01-0.227-0.02-0.34-0.03c-0.031-0.003-0.062-0.006-0.093-0.008c-0.115-0.01-0.229-0.021-0.344-0.031
	c-0.026-0.002-0.051-0.005-0.077-0.007c-0.109-0.01-0.218-0.02-0.327-0.03c-0.04-0.004-0.08-0.008-0.12-0.011
	c-0.78-0.073-1.546-0.149-2.3-0.228c-0.019-0.002-0.038-0.004-0.057-0.006c-0.12-0.013-0.24-0.025-0.359-0.038
	c-0.002,0-0.004,0-0.006-0.001c-12.598-1.343-21.776-3.435-32.176-5.258l-30.657,308.704c-2.063,20.768-0.107,41.74,5.76,61.769V512
	H353.627z"/>
<g>
	<path style="fill:#E5F9F6;" d="M102.865,207.491l41.963-41.963c1.645-1.645,4.312-1.645,5.957,0l41.963,41.963
		c1.645,1.645,1.645,4.312,0,5.957l-41.963,41.963c-1.645,1.645-4.312,1.645-5.957,0l-41.963-41.963
		C101.22,211.804,101.22,209.136,102.865,207.491z"/>
	<path style="fill:#E5F9F6;" d="M249.772,338.695l41.963-41.963c1.645-1.645,4.312-1.645,5.957,0l41.963,41.963
		c1.645,1.645,1.645,4.312,0,5.957l-41.963,41.963c-1.645,1.645-4.312,1.645-5.957,0l-41.963-41.963
		C248.127,343.007,248.127,340.34,249.772,338.695z"/>
</g>
<path style="fill:#77D057;" d="M208.304,349.489c-22.635-15.921-62.689-14.979-74.369-14.322c-1.882,0.106-3.358,1.631-3.403,3.515
	c-0.278,11.696,0.079,51.759,16.725,73.866c36.392,48.331,76.698,13.172,76.698,13.172S257.789,384.295,208.304,349.489z"/>
<path style="fill:#68B543;" d="M228.259,419.083l-13.534-13.103l4.792-20.611c0.971-4.176-1.627-8.348-5.803-9.319
	c-4.18-0.971-8.348,1.627-9.319,5.803l-2.681,11.532l-8.323-8.057l3.617-15.555c0.971-4.175-1.627-8.348-5.803-9.319
	c-4.175-0.971-8.348,1.627-9.319,5.803l-1.505,6.475l-7.266-7.034l1.887-8.114c0.971-4.176-1.627-8.348-5.803-9.319
	c-3.865-0.899-7.715,1.259-9.041,4.89l-18.85-18.249c-0.11,0.002-0.213,0.004-0.322,0.006c-0.388,0.007-0.768,0.015-1.138,0.024
	c-0.208,0.005-0.414,0.01-0.617,0.016c-0.317,0.009-0.625,0.018-0.928,0.027c-0.253,0.008-0.502,0.016-0.744,0.025
	c-0.289,0.01-0.573,0.021-0.847,0.032c-0.197,0.008-0.389,0.016-0.577,0.024c-0.221,0.01-0.435,0.019-0.644,0.029
	c-0.257,0.012-0.506,0.024-0.744,0.036c-0.207,0.011-0.413,0.021-0.606,0.032c-0.074,0.004-0.142,0.008-0.214,0.012
	c-1.876,0.11-3.346,1.628-3.394,3.507c-0.002,0.064-0.003,0.126-0.005,0.192c-0.005,0.23-0.01,0.475-0.015,0.726
	c-0.003,0.186-0.006,0.378-0.009,0.574c-0.004,0.243-0.007,0.493-0.01,0.752c-0.002,0.172-0.003,0.347-0.005,0.526
	c-0.002,0.288-0.004,0.588-0.005,0.894c-0.001,0.224-0.001,0.453-0.001,0.686c0,0.319,0.001,0.645,0.003,0.98
	c0.001,0.191,0.002,0.386,0.004,0.582c0.003,0.372,0.007,0.754,0.013,1.143c0.002,0.111,0.002,0.216,0.004,0.328l18.852,18.25
	c-3.588,1.443-5.62,5.365-4.597,9.196c0.927,3.471,4.064,5.762,7.495,5.762c0.663,0,1.337-0.086,2.007-0.265l8.052-2.149
	l7.265,7.033l-6.423,1.715c-4.143,1.105-6.604,5.359-5.498,9.502c0.926,3.472,4.064,5.763,7.495,5.763
	c0.663,0,1.337-0.085,2.007-0.265l15.43-4.119l8.169,7.908l-11.035,2.946c-4.142,1.106-6.603,5.36-5.497,9.502
	c0.926,3.471,4.064,5.762,7.495,5.762c0.663,0,1.337-0.086,2.007-0.265l20.041-5.35l13.689,13.253c0.001,0,0.001-0.001,0.002-0.001
	c4.114-2.445,6.493-4.516,6.493-4.516S225.948,423.275,228.259,419.083L228.259,419.083z"/>
<path style="fill:#FDC74F;" d="M345.139,193.668c1.815-1.511,2.028-4.253,0.417-5.98c-27.078-29.013-72.431-32.165-103.318-6.457
	s-36.021,70.88-12.404,102.774c1.406,1.898,4.141,2.187,5.956,0.676L345.139,193.668z"/>
<path style="fill:#E5F9F6;" d="M361.93,500.915L361.93,500.915c-3.374-11.519-5.447-23.35-6.214-35.275
	c-33.653,3.24-76.252,5.177-122.592,5.177s-88.939-1.937-122.592-5.177c-0.766,11.925-2.839,23.756-6.214,35.275l0,0
	c-1.623,5.54,2.531,11.085,8.304,11.085h2.616h238.388C359.399,512,363.553,506.455,361.93,500.915z"/>
<path style="fill:#D6E5E2;" d="M353.627,512c5.773,0,9.926-5.545,8.304-11.085l0,0c-2.67-9.114-4.524-18.424-5.562-27.821
	c-0.003-0.031-0.007-0.063-0.01-0.095c-0.05-0.457-0.099-0.915-0.145-1.373c-0.008-0.076-0.016-0.152-0.023-0.228
	c-0.018-0.182-0.036-0.363-0.053-0.545c-0.015-0.153-0.029-0.306-0.044-0.459c-0.015-0.162-0.03-0.324-0.045-0.486
	c-0.021-0.227-0.041-0.455-0.06-0.683c-0.008-0.092-0.016-0.184-0.024-0.276c-0.027-0.323-0.054-0.646-0.079-0.969
	c-0.008-0.097-0.015-0.195-0.023-0.292c-0.02-0.255-0.039-0.51-0.057-0.766c-0.007-0.09-0.013-0.181-0.019-0.271
	c-0.024-0.337-0.047-0.674-0.069-1.012c-0.793,0.076-1.591,0.152-2.393,0.227c-0.042,0.004-0.084,0.008-0.126,0.012
	c-16.37,1.525-34.773,2.745-54.632,3.591c0.936,10.627,2.909,21.16,5.922,31.445V512H353.627z"/>
<path style="fill:#B0EFFE;" d="M311.499,310.539l-6.866,69.133l35.021-35.021c1.645-1.645,1.645-4.312,0-5.957L311.499,310.539z"/>
<path style="fill:#F2BA49;" d="M325.231,172.257l-4.112,41.402l24.019-19.991c1.815-1.511,2.028-4.253,0.417-5.98
	C339.559,181.264,332.665,176.113,325.231,172.257z"/>
<path style="fill:#FFFFBB;" d="M332.835,203.909c-19.478-23.392-54.231-26.57-77.628-7.096s-26.581,54.226-7.113,77.626
	L332.835,203.909z"/>
<g>
	<path style="fill:#FDC74F;" d="M271.6,224.268c-2.226,0-4.435-0.952-5.97-2.797l-2.498-3.001c-2.743-3.295-2.294-8.19,1.001-10.932
		c3.294-2.742,8.189-2.295,10.932,1.001l2.498,3.001c2.743,3.295,2.294,8.19-1.001,10.932
		C275.112,223.68,273.351,224.268,271.6,224.268z"/>
	<path style="fill:#FDC74F;" d="M291.015,218.233c-0.237,0-0.476-0.011-0.717-0.033c-4.269-0.391-7.413-4.168-7.023-8.438
		l0.356-3.887c0.391-4.269,4.179-7.414,8.438-7.023c4.269,0.391,7.413,4.168,7.023,8.438l-0.356,3.887
		C298.368,215.206,294.983,218.233,291.015,218.233z"/>
	<path style="fill:#FDC74F;" d="M262.147,242.261c-0.237,0-0.476-0.011-0.717-0.033l-3.888-0.356
		c-4.269-0.391-7.413-4.168-7.023-8.438c0.39-4.269,4.16-7.415,8.438-7.023l3.888,0.356c4.269,0.391,7.413,4.168,7.023,8.438
		C269.5,239.233,266.115,242.261,262.147,242.261z"/>
</g>
<path style="fill:#F2F0AD;" d="M323.005,194.676l-1.885,18.984l11.715-9.75C329.88,200.361,326.57,197.285,323.005,194.676z"/>
<g>
</g>
<g>
</g>
<g>
</g>
<g>
</g>
<g>
</g>
<g>
</g>
<g>
</g>
<g>
</g>
<g>
</g>
<g>
</g>
<g>
</g>
<g>
</g>
<g>
</g>
<g>
</g>
<g>
</g>
</svg>
