<?xml version="1.0" encoding="iso-8859-1"?>
<!-- Generator: Adobe Illustrator 19.0.0, SVG Export Plug-In . SVG Version: 6.00 Build 0)  -->
<svg version="1.1" id="Capa_1" xmlns="http://www.w3.org/2000/svg" xmlns:xlink="http://www.w3.org/1999/xlink" x="0px" y="0px"
	 viewBox="0 0 512.001 512.001" style="enable-background:new 0 0 512.001 512.001;" xml:space="preserve">
<circle style="fill:#FDC74F;" cx="161.24" cy="76.49" r="76.49"/>
<path style="fill:#EDBA18;" d="M161.236,0c-9.961,0-19.468,1.925-28.195,5.389c28.284,11.227,48.292,38.817,48.292,71.099
	s-20.009,59.872-48.292,71.099c8.728,3.464,18.234,5.389,28.195,5.389c42.243,0,76.487-34.245,76.487-76.488
	C237.724,34.245,203.479,0,161.236,0z"/>
<circle style="fill:#FFFFBB;" cx="161.24" cy="76.49" r="52.852"/>
<g>
	<path style="fill:#EDBA18;" d="M161.236,39.53c-4.267,0-7.726,3.459-7.726,7.726v3.713c0,4.267,3.459,7.726,7.726,7.726
		s7.726-3.459,7.726-7.726v-3.713C168.962,42.989,165.503,39.53,161.236,39.53z"/>
	<path style="fill:#EDBA18;" d="M143.443,76.488c0-4.267-3.459-7.726-7.726-7.726h-3.712c-4.267,0-7.726,3.459-7.726,7.726
		s3.459,7.726,7.726,7.726h3.712C139.984,84.214,143.443,80.754,143.443,76.488z"/>
	<path style="fill:#EDBA18;" d="M146.03,50.355c-3.017-3.017-7.909-3.018-10.926-0.001c-3.018,3.017-3.018,7.909-0.001,10.926
		l2.625,2.625c1.509,1.509,3.486,2.263,5.464,2.263c1.977,0,3.955-0.754,5.463-2.262c3.018-3.017,3.018-7.909,0.001-10.926
		L146.03,50.355z"/>
	<path style="fill:#EDBA18;" d="M179.281,66.169c1.977,0,3.955-0.754,5.463-2.262l2.626-2.625c3.018-3.017,3.018-7.909,0.001-10.926
		c-3.018-3.017-7.91-3.018-10.926-0.001l-2.626,2.625c-3.018,3.017-3.018,7.909-0.001,10.926
		C175.326,65.415,177.303,66.169,179.281,66.169z"/>
	<path style="fill:#EDBA18;" d="M137.728,89.07l-2.625,2.625c-3.017,3.017-3.017,7.909,0.001,10.926
		c1.509,1.508,3.486,2.262,5.463,2.262c1.978,0,3.955-0.754,5.464-2.263l2.625-2.625c3.017-3.017,3.017-7.909-0.001-10.926
		C145.634,86.051,140.744,86.052,137.728,89.07z"/>
</g>
<path style="fill:#D7E0DC;" d="M307.961,480.887c-3.017-0.607-5.238-3.312-5.037-6.383c0.018-0.282,0.028-0.566,0.028-0.852l0,0
	c0-4.619-2.423-8.663-6.06-10.96v-91.371c0-2.511,0.214-5.011,0.64-7.485c0.016-0.093,0.032-0.188,0.049-0.284
	c2.251-13.053,10.221-24.464,21.796-30.904C440.24,265.396,433.83,161.853,420.024,107.607h-274.54
	c-13.806,54.246-20.216,157.79,100.647,225.042c11.575,6.44,19.544,17.851,21.796,30.903l0.048,0.278
	c0.427,2.474,0.641,4.981,0.641,7.492v89.821c-5.53,1.481-9.608,6.513-9.608,12.51l0,0c0,0.378,0.017,0.751,0.049,1.12
	c0.279,3.231-1.824,6.175-5.002,6.822c-30.054,6.119-72.931,15.803-72.931,21.25c0,8.386,101.63,9.156,101.63,9.156
	s101.63-0.77,101.63-9.156C384.384,497.182,338.058,486.943,307.961,480.887z"/>
<path style="fill:#DFEDE7;" d="M402.643,71.64H162.865c-3.05,0-5.809,1.817-6.997,4.627
	c-11.404,26.985-61.08,165.799,81.908,251.554c24.767,14.853,65.189,14.853,89.956,0c142.988-85.755,93.312-224.569,81.908-251.554
	C408.453,73.458,405.694,71.64,402.643,71.64z"/>
<path style="fill:#D7E0DC;" d="M409.64,76.267c-1.188-2.81-3.947-4.627-6.997-4.627h-53.445c0,0,80.956,164.664-85.536,259.51
	c-2.683,1.528-5.579,2.866-8.636,4.014c23.694,6.856,53.101,4.414,72.705-7.343C470.72,242.067,421.044,103.252,409.64,76.267z"/>
<path style="fill:#AFEA96;" d="M145.485,107.607c-13.48,52.964-19.911,152.924,92.291,220.215c24.767,14.853,65.189,14.853,89.956,0
	c112.202-67.292,105.771-167.251,92.291-220.215C420.023,107.607,145.485,107.607,145.485,107.607z"/>
<path style="fill:#97D17C;" d="M333.364,324.348c1.48-0.936,2.944-1.876,4.381-2.823c0.2-0.132,0.395-0.265,0.595-0.397
	c1.302-0.863,2.584-1.732,3.851-2.604c0.287-0.198,0.577-0.395,0.863-0.594c1.373-0.954,2.726-1.914,4.058-2.878
	c0.274-0.198,0.543-0.397,0.815-0.596c1.204-0.879,2.392-1.763,3.562-2.65c0.194-0.147,0.391-0.293,0.583-0.44
	c1.287-0.983,2.551-1.972,3.797-2.964c0.285-0.227,0.568-0.455,0.851-0.683c1.233-0.991,2.452-1.985,3.645-2.985
	c0.03-0.025,0.06-0.05,0.09-0.074c1.215-1.02,2.403-2.046,3.578-3.075c0.268-0.235,0.535-0.469,0.801-0.704
	c1.148-1.015,2.28-2.033,3.389-3.057c0.15-0.138,0.296-0.278,0.445-0.416c1.006-0.934,1.995-1.871,2.969-2.812
	c0.227-0.219,0.455-0.437,0.68-0.656c1.053-1.025,2.088-2.054,3.104-3.087c0.208-0.211,0.412-0.424,0.619-0.635
	c0.909-0.932,1.804-1.866,2.683-2.804c0.161-0.171,0.324-0.342,0.484-0.513c0.973-1.044,1.924-2.092,2.861-3.142
	c0.218-0.245,0.434-0.49,0.65-0.735c0.907-1.028,1.802-2.057,2.676-3.091c0.045-0.053,0.091-0.105,0.136-0.158
	c0.905-1.073,1.786-2.149,2.655-3.227c0.205-0.254,0.41-0.509,0.613-0.763c0.85-1.066,1.687-2.134,2.504-3.205
	c0.109-0.143,0.214-0.286,0.322-0.429c0.739-0.976,1.463-1.954,2.174-2.933c0.175-0.241,0.351-0.481,0.524-0.722
	c0.768-1.068,1.52-2.137,2.255-3.209c0.151-0.22,0.299-0.441,0.449-0.662c0.652-0.959,1.292-1.92,1.919-2.883
	c0.126-0.193,0.254-0.386,0.379-0.579c0.697-1.078,1.375-2.159,2.041-3.24c0.158-0.256,0.313-0.513,0.47-0.77
	c0.631-1.038,1.252-2.077,1.856-3.117c0.047-0.081,0.096-0.162,0.143-0.244c0.636-1.099,1.25-2.2,1.855-3.302
	c0.146-0.266,0.291-0.532,0.435-0.798c0.593-1.094,1.175-2.188,1.739-3.283c0.07-0.135,0.136-0.271,0.205-0.406
	c0.513-1.004,1.013-2.009,1.502-3.014c0.122-0.251,0.245-0.502,0.366-0.753c0.522-1.087,1.032-2.174,1.526-3.262
	c0.101-0.221,0.198-0.442,0.297-0.663c0.437-0.971,0.863-1.943,1.278-2.915c0.087-0.203,0.176-0.406,0.262-0.61
	c0.461-1.09,0.907-2.181,1.342-3.271c0.103-0.259,0.204-0.517,0.306-0.776c0.407-1.035,0.805-2.071,1.188-3.106
	c0.035-0.095,0.072-0.189,0.107-0.284c0.407-1.105,0.798-2.21,1.179-3.315c0.091-0.265,0.182-0.53,0.272-0.794
	c0.374-1.1,0.739-2.199,1.088-3.297c0.037-0.118,0.072-0.236,0.11-0.353c0.321-1.017,0.629-2.034,0.929-3.05
	c0.074-0.25,0.148-0.499,0.221-0.749c0.315-1.085,0.619-2.17,0.911-3.253c0.056-0.208,0.11-0.417,0.165-0.625
	c0.258-0.972,0.507-1.943,0.747-2.913c0.049-0.199,0.1-0.399,0.149-0.598c0.264-1.085,0.516-2.168,0.758-3.25
	c0.054-0.241,0.106-0.483,0.159-0.724c0.225-1.026,0.442-2.05,0.648-3.073c0.019-0.094,0.039-0.188,0.058-0.282
	c0.218-1.093,0.422-2.183,0.618-3.271c0.045-0.248,0.089-0.496,0.133-0.744c0.191-1.087,0.375-2.172,0.545-3.254
	c0.014-0.085,0.025-0.17,0.039-0.255c0.16-1.024,0.308-2.044,0.45-3.063c0.032-0.232,0.065-0.463,0.096-0.695
	c0.144-1.068,0.28-2.133,0.405-3.195c0.02-0.174,0.039-0.347,0.059-0.52c0.112-0.971,0.215-1.94,0.311-2.907
	c0.018-0.177,0.036-0.354,0.054-0.53c0.102-1.061,0.195-2.119,0.279-3.173c0.017-0.21,0.032-0.42,0.048-0.63
	c0.077-1.008,0.147-2.013,0.208-3.014c0.005-0.077,0.01-0.154,0.015-0.231c0.064-1.063,0.116-2.121,0.162-3.176
	c0.009-0.213,0.018-0.426,0.027-0.639c0.043-1.059,0.079-2.114,0.105-3.164c0.001-0.028,0.001-0.056,0.001-0.084
	c0.025-1.032,0.04-2.058,0.049-3.081c0.002-0.192,0.004-0.384,0.005-0.575c0.007-1.033,0.006-2.063-0.003-3.087
	c-0.001-0.126-0.003-0.251-0.005-0.377c-0.01-0.958-0.027-1.913-0.05-2.862c-0.004-0.142-0.006-0.283-0.01-0.425
	c-0.027-1.019-0.062-2.033-0.103-3.042c-0.007-0.159-0.014-0.318-0.021-0.477c-0.043-0.989-0.09-1.973-0.146-2.952
	c-0.002-0.038-0.004-0.077-0.006-0.116c-0.059-1.017-0.125-2.027-0.197-3.033c-0.012-0.16-0.023-0.319-0.035-0.478
	c-0.148-2.013-0.322-4.001-0.52-5.962c-0.014-0.138-0.028-0.276-0.042-0.414c-0.101-0.983-0.207-1.961-0.32-2.931
	c-0.006-0.049-0.012-0.099-0.018-0.148c-0.112-0.957-0.229-1.906-0.351-2.849c-0.01-0.077-0.02-0.154-0.03-0.231
	c-0.126-0.967-0.258-1.926-0.394-2.877c-0.012-0.085-0.025-0.17-0.037-0.255c-0.278-1.921-0.575-3.81-0.89-5.666
	c-0.015-0.089-0.03-0.179-0.046-0.268c-0.318-1.863-0.653-3.691-1.003-5.483c-0.012-0.06-0.023-0.12-0.035-0.179
	c-0.36-1.836-0.734-3.634-1.12-5.391c-0.002-0.008-0.003-0.016-0.005-0.023c-0.196-0.889-0.394-1.768-0.595-2.636
	c-0.001-0.004-0.002-0.008-0.003-0.012c-0.402-1.737-0.815-3.431-1.235-5.08c-0.001-0.004-0.002-0.009-0.003-0.013h-58.374
	c13.704,53.844,20.122,156.26-97.986,223.544c-2.683,1.528-5.579,2.866-8.636,4.014h0.001c4.424,1.28,9.047,2.235,13.769,2.866
	c0.044,0.006,0.089,0.012,0.133,0.017c3.089,0.409,6.219,0.678,9.363,0.81c0.09,0.004,0.18,0.008,0.27,0.012
	c3.123,0.123,6.258,0.108,9.378-0.043c0.084-0.004,0.169-0.007,0.254-0.011c1.514-0.077,3.024-0.188,4.527-0.329
	c0.162-0.015,0.324-0.033,0.486-0.049c2.967-0.293,5.904-0.713,8.79-1.258c0.24-0.045,0.479-0.091,0.718-0.138
	c1.411-0.277,2.811-0.578,4.192-0.916c0.066-0.016,0.131-0.035,0.197-0.051c1.311-0.324,2.603-0.681,3.882-1.059
	c0.242-0.072,0.486-0.141,0.728-0.215c1.294-0.395,2.571-0.818,3.826-1.27c0.222-0.08,0.439-0.165,0.659-0.246
	c1.14-0.422,2.263-0.867,3.366-1.336c0.177-0.075,0.358-0.146,0.534-0.223c1.191-0.518,2.353-1.069,3.494-1.642
	c0.254-0.128,0.505-0.259,0.756-0.389c1.153-0.598,2.288-1.215,3.383-1.872c1.564-0.938,3.096-1.884,4.613-2.834
	C332.686,324.775,333.026,324.562,333.364,324.348z"/>
<g>
</g>
<g>
</g>
<g>
</g>
<g>
</g>
<g>
</g>
<g>
</g>
<g>
</g>
<g>
</g>
<g>
</g>
<g>
</g>
<g>
</g>
<g>
</g>
<g>
</g>
<g>
</g>
<g>
</g>
</svg>
