<?xml version="1.0" encoding="iso-8859-1"?>
<!-- Generator: Adobe Illustrator 19.0.0, SVG Export Plug-In . SVG Version: 6.00 Build 0)  -->
<svg version="1.1" id="Capa_1" xmlns="http://www.w3.org/2000/svg" xmlns:xlink="http://www.w3.org/1999/xlink" x="0px" y="0px"
	 viewBox="0 0 512 512" style="enable-background:new 0 0 512 512;" xml:space="preserve">
<path style="fill:#D6E5E2;" d="M261.305,467.969c0-15.011,4.139-55.708,8.119-91.371c-0.727,0.205-1.445,0.403-2.145,0.587
	c-12.801,3.365-26.278,3.365-39.078,0c-0.7-0.184-1.419-0.382-2.146-0.587c3.98,35.675,8.12,76.39,8.12,91.41v0.068
	c0,5.554-3.217,10.606-8.25,12.954l-54.765,25.553c-2.756,1.286-1.839,5.417,1.202,5.417h150.844c3.037,0,3.96-4.121,1.212-5.413
	c-15.159-7.122-41.449-19.457-54.825-25.648C264.537,478.601,261.305,473.538,261.305,467.969L261.305,467.969z"/>
<path style="fill:#E5F9F6;" d="M325.292,174.67c-1.284-43.027,10.499-79.278,16.383-94.529c1.437-3.724-1.306-7.726-5.297-7.726
	H159.103c-3.992,0-6.734,4.002-5.297,7.726c5.884,15.25,17.667,51.502,16.383,94.529c-1.704,57.092-45.918,126.114-9.751,172.129
	c22.01,28.004,49.565,39.596,67.763,44.381c12.801,3.365,26.278,3.365,39.079,0c18.199-4.785,45.753-16.377,67.763-44.381
	C371.209,300.785,326.996,231.763,325.292,174.67z"/>
<path style="fill:#D7E0DC;" d="M325.292,174.67c-1.284-43.027,10.499-79.278,16.383-94.529c1.437-3.724-1.306-7.726-5.297-7.726
	h-48.427c0,0-21.303,45.163-19.599,102.255s45.918,126.114,9.751,172.129c-18.656,23.735-41.288,35.674-58.837,41.678
	c3.16,1.081,6.158,1.973,8.935,2.703c12.801,3.366,26.278,3.366,39.079,0c18.198-4.785,45.753-16.377,67.763-44.381
	C371.209,300.785,326.996,231.763,325.292,174.67z"/>
<path style="fill:#FED130;" d="M163.059,109.935c4.291,17.548,7.867,40.018,7.129,64.735
	c-1.704,57.092-45.918,126.114-9.751,172.129c22.01,28.004,49.565,39.596,67.763,44.381c12.801,3.365,26.278,3.365,39.079,0
	c18.199-4.785,45.753-16.377,67.763-44.381c36.167-46.015-8.047-115.037-9.751-172.129c-0.738-24.716,2.838-47.187,7.129-64.735
	L163.059,109.935L163.059,109.935z"/>
<path style="fill:#77D057;" d="M186.701,25.491C161.658,7.877,117.824,8.456,103.374,9.187c-2.728,0.138-4.878,2.359-4.928,5.09
	c-0.262,14.465,0.58,58.296,18.996,82.754c41.286,54.831,87.013,14.943,87.013,14.943S242.841,64.978,186.701,25.491z"/>
<path style="fill:#68B543;" d="M198.31,65.937c0.959-4.123-1.606-8.244-5.73-9.202c-4.125-0.96-8.244,1.606-9.202,5.731
	l-3.498,15.046l-11.356-10.994l4.249-18.275c0.959-4.124-1.606-8.244-5.73-9.203c-4.122-0.961-8.244,1.606-9.202,5.73l-2.165,9.31
	l-10.155-9.831l2.287-9.835c0.959-4.124-1.606-8.244-5.73-9.203c-4.124-0.96-8.245,1.606-9.202,5.73l-0.202,0.87L109.088,8.979
	c-2.205,0.053-4.142,0.129-5.713,0.208c-2.728,0.138-4.878,2.359-4.928,5.09c-0.029,1.573-0.042,3.512-0.023,5.717l23.586,22.833
	l-0.865,0.231c-4.09,1.091-6.521,5.293-5.429,9.383c0.915,3.429,4.013,5.691,7.401,5.691c0.655,0,1.32-0.084,1.982-0.262
	l9.759-2.605l10.154,9.83l-9.235,2.465c-4.09,1.092-6.521,5.293-5.429,9.383c0.915,3.428,4.013,5.69,7.401,5.69
	c0.655,0,1.32-0.085,1.982-0.262l18.128-4.839l11.18,10.823l-14.467,3.862c-4.09,1.092-6.521,5.293-5.429,9.383
	c0.915,3.429,4.013,5.691,7.401,5.691c0.655,0,1.32-0.085,1.982-0.262l23.36-6.236l16.21,15.693c4.046-2.5,6.359-4.514,6.359-4.514
	s1.938-2.377,4.305-6.502l-16.034-15.523L198.31,65.937z"/>
<path style="fill:#772424;" d="M211.635,69.552c-0.037,0-0.074,0-0.111-0.001c-4.233-0.059-7.616-3.54-7.556-7.773
	c0.291-20.602,5.768-35.138,16.278-43.202c12.112-9.293,26.041-5.913,26.628-5.765c4.104,1.038,6.591,5.207,5.553,9.311
	c-1.033,4.082-5.16,6.564-9.242,5.57c-0.436-0.099-7.662-1.623-13.75,3.159c-6.415,5.04-9.921,15.809-10.138,31.144
	C219.239,66.19,215.818,69.552,211.635,69.552z"/>
<circle style="fill:#FC502A;" cx="206.841" cy="75.43" r="34.494"/>
<path style="fill:#65DBEF;" d="M364.901,3.738c-3.665-2.122-8.353-0.874-10.476,2.789l-59.924,103.408h17.719l55.469-95.721
	C369.812,10.552,368.564,5.861,364.901,3.738z"/>
<path style="fill:#FF644A;" d="M363.046,0.009L272.087,5.13c-2.064,0.116-2.903,2.701-1.312,4.02
	c41.256,34.207,88.743,60.109,139.839,76.275c1.971,0.624,3.69-1.481,2.67-3.279l-44.94-79.247
	C367.272,1.007,365.218-0.113,363.046,0.009z"/>
<path style="fill:#E52D15;" d="M413.285,82.146l-44.94-79.247c-1.073-1.892-3.127-3.013-5.299-2.89L344.54,1.051
	c-15.843,0.892-25.236,18.114-17.409,31.916l12.853,22.665c22.529,12.052,46.16,22.052,70.633,29.794
	C412.587,86.049,414.304,83.944,413.285,82.146z"/>
<path style="fill:#EDBA18;" d="M348.3,287.169c-0.427-3.647-0.989-7.333-1.654-11.049c-0.499-2.787-1.056-5.591-1.66-8.409
	c-1.206-5.635-2.596-11.323-4.068-17.037c-0.491-1.904-0.99-3.811-1.495-5.72c-1.01-3.818-2.042-7.642-3.065-11.464
	c-0.512-1.911-1.021-3.822-1.525-5.731s-1.001-3.817-1.489-5.722s-0.966-3.808-1.431-5.707c-3.487-14.242-6.222-28.278-6.621-41.659
	c-0.043-1.455-0.069-2.901-0.084-4.34c-0.005-0.467-0.002-0.929-0.003-1.395c-0.003-0.971-0.005-1.94,0.004-2.903
	c0.005-0.543,0.016-1.082,0.025-1.622c0.015-0.885,0.033-1.768,0.058-2.646c0.016-0.552,0.034-1.101,0.054-1.65
	c0.031-0.871,0.067-1.738,0.108-2.601c0.025-0.528,0.05-1.056,0.078-1.581c0.049-0.907,0.104-1.807,0.163-2.705
	c0.03-0.464,0.058-0.93,0.091-1.392c0.076-1.062,0.16-2.114,0.249-3.162c0.024-0.284,0.045-0.572,0.07-0.855
	c0.121-1.37,0.252-2.728,0.394-4.074c0-0.002,0.001-0.005,0.001-0.007c0.139-1.319,0.29-2.623,0.447-3.918
	c0.036-0.296,0.075-0.588,0.112-0.883c0.127-1.008,0.257-2.01,0.394-3.003c0.047-0.338,0.095-0.673,0.143-1.01
	c0.136-0.956,0.275-1.905,0.42-2.845c0.049-0.318,0.098-0.635,0.148-0.951c0.155-0.983,0.314-1.955,0.478-2.92
	c0.042-0.248,0.083-0.497,0.126-0.743c0.191-1.107,0.387-2.202,0.588-3.284c0.017-0.09,0.033-0.181,0.05-0.271
	c0.924-4.937,1.946-9.605,3.014-13.973c0,0,0-0.001,0-0.002h-56.943c-4.29,17.547-7.864,40.021-7.126,64.735
	c1.704,57.092,45.918,126.114,9.751,172.129c-18.656,23.735-41.288,35.674-58.837,41.678c0.004,0.001,0.007,0.002,0.011,0.004
	c0.733,0.251,1.456,0.49,2.171,0.72c0.15,0.048,0.298,0.095,0.446,0.142c0.567,0.181,1.129,0.355,1.683,0.524
	c0.19,0.057,0.379,0.115,0.567,0.171c0.522,0.156,1.037,0.305,1.546,0.451c0.181,0.052,0.364,0.105,0.543,0.155
	c0.666,0.187,1.323,0.366,1.966,0.535c1.6,0.421,3.211,0.789,4.829,1.104c1.619,0.315,3.245,0.578,4.877,0.789
	c9.791,1.262,19.772,0.631,29.372-1.893c1.138-0.299,2.311-0.625,3.518-0.979c1.358-0.399,2.763-0.839,4.199-1.315
	c7.896-2.615,16.892-6.442,26.133-12.03c0.569-0.344,1.139-0.695,1.709-1.053c0.911-0.571,1.823-1.159,2.736-1.765
	c0.818-0.543,1.637-1.099,2.457-1.671c2.489-1.737,4.979-3.602,7.455-5.621c6.736-5.493,13.365-12.071,19.555-19.947
	c2.825-3.595,5.16-7.33,7.063-11.189c0.761-1.544,1.453-3.107,2.08-4.689c0.313-0.791,0.61-1.587,0.891-2.387
	c1.406-4.002,2.414-8.117,3.085-12.329c0.402-2.527,0.683-5.09,0.854-7.684c0.114-1.729,0.18-3.472,0.201-5.228
	C349.281,298.024,348.941,292.64,348.3,287.169z"/>
<g>
</g>
<g>
</g>
<g>
</g>
<g>
</g>
<g>
</g>
<g>
</g>
<g>
</g>
<g>
</g>
<g>
</g>
<g>
</g>
<g>
</g>
<g>
</g>
<g>
</g>
<g>
</g>
<g>
</g>
</svg>
