<?xml version="1.0" encoding="iso-8859-1"?>
<!-- Generator: Adobe Illustrator 19.0.0, SVG Export Plug-In . SVG Version: 6.00 Build 0)  -->
<svg version="1.1" id="Capa_1" xmlns="http://www.w3.org/2000/svg" xmlns:xlink="http://www.w3.org/1999/xlink" x="0px" y="0px"
	 viewBox="0 0 512 512" style="enable-background:new 0 0 512 512;" xml:space="preserve">
<g>
	<path style="fill:#E5F9F6;" d="M353.145,507.299l-63.234-21.986c-12.198-4.241-20.373-15.739-20.373-28.653V257.516h-27.079V456.66
		c0,12.914-8.176,24.412-20.373,28.653l-63.233,21.986c-2.459,1.036-1.719,4.701,0.95,4.701h192.393
		C354.864,512,355.605,508.335,353.145,507.299z"/>
	<path style="fill:#E5F9F6;" d="M233.77,262.793L45.046,55.17c-4.537-4.992-0.996-12.998,5.75-12.998h410.407
		c6.746,0,10.288,8.006,5.75,12.998L278.228,262.793C266.309,275.905,245.689,275.905,233.77,262.793z"/>
</g>
<path style="fill:#D6E5E2;" d="M461.202,42.173h-48.271l-189.85,208.861l10.689,11.759c11.919,13.112,32.538,13.112,44.457,0
	L466.953,55.17C471.49,50.179,467.948,42.173,461.202,42.173z"/>
<path style="fill:#CDEAE0;" d="M94.184,109.229l139.587,153.564c11.918,13.111,32.537,13.112,44.456,0.001l139.588-153.565
	C417.815,109.229,94.184,109.229,94.184,109.229z"/>
<path style="fill:#B6D1C6;" d="M247.693,271.453c0.249,0.071,0.496,0.149,0.746,0.213c0.704,0.182,1.414,0.329,2.126,0.459
	c0.792,0.145,1.588,0.267,2.387,0.348c0.843,0.085,1.688,0.126,2.534,0.141c0.171,0.003,0.341,0.013,0.512,0.013
	c0.809,0,1.617-0.042,2.423-0.106c0.208-0.017,0.416-0.026,0.624-0.047c7.087-0.717,13.967-3.943,19.181-9.679L417.814,109.23
	h-65.835L223.081,251.033l10.689,11.759c0.325,0.358,0.659,0.701,0.997,1.039c0.049,0.049,0.096,0.103,0.145,0.152
	c3.5,3.457,7.646,5.877,12.049,7.26C247.204,271.32,247.449,271.383,247.693,271.453z"/>
<path style="fill:#772424;" d="M232.675,209.877c-1.881,0-3.765-0.693-5.238-2.089c-3.052-2.894-3.181-7.715-0.287-10.767
	L411.694,2.376c2.895-3.053,7.715-3.18,10.766-0.287c3.052,2.894,3.181,7.715,0.287,10.767L238.204,207.501
	C236.706,209.08,234.692,209.877,232.675,209.877z"/>
<ellipse transform="matrix(-0.7257 -0.688 0.688 -0.7257 341.5014 472.5639)" style="fill:#60A83F;" cx="264.952" cy="168.207" rx="31.23" ry="27.755"/>
<g>
	
		<ellipse transform="matrix(-0.7257 -0.688 0.688 -0.7257 435.1317 429.3182)" style="fill:#7DC959;" cx="303.146" cy="127.92" rx="31.23" ry="27.755"/>
	
		<ellipse transform="matrix(-0.7257 -0.688 0.688 -0.7257 528.7607 386.0637)" style="fill:#7DC959;" cx="341.338" cy="87.629" rx="31.23" ry="27.755"/>
</g>
<path style="fill:#60A83F;" d="M284.056,148.069c12.515,11.865,31.209,12.466,41.756,1.342c10.129-10.683,9.052-28.293-2.134-40.181
	h-45.457C270.277,120.485,272.534,137.145,284.056,148.069z"/>
<path style="fill:#D6E5E2;" d="M353.145,507.299l-63.234-21.986c-1.635-0.568-3.191-1.277-4.672-2.092
	c-15.149-2.422-43.334-2.422-58.483,0c-1.481,0.815-3.037,1.523-4.672,2.092l-63.233,21.986c-2.459,1.036-1.719,4.701,0.95,4.701
	h192.393C354.864,512,355.605,508.335,353.145,507.299z"/>
<g>
</g>
<g>
</g>
<g>
</g>
<g>
</g>
<g>
</g>
<g>
</g>
<g>
</g>
<g>
</g>
<g>
</g>
<g>
</g>
<g>
</g>
<g>
</g>
<g>
</g>
<g>
</g>
<g>
</g>
</svg>
