<?xml version="1.0" encoding="iso-8859-1"?>
<!-- Generator: Adobe Illustrator 19.0.0, SVG Export Plug-In . SVG Version: 6.00 Build 0)  -->
<svg version="1.1" id="Capa_1" xmlns="http://www.w3.org/2000/svg" xmlns:xlink="http://www.w3.org/1999/xlink" x="0px" y="0px"
	 viewBox="0 0 512.001 512.001" style="enable-background:new 0 0 512.001 512.001;" xml:space="preserve">
<path style="fill:#E5F9F6;" d="M67.582,90.036l56.524,401.46C125.761,503.255,135.824,512,147.699,512h216.604
	c11.875,0,21.937-8.745,23.593-20.504l56.524-401.46c1.026-7.286-4.631-13.795-11.989-13.795H79.571
	C72.213,76.241,66.556,82.75,67.582,90.036z"/>
<path style="fill:#D7E0DC;" d="M432.431,76.241h-43.4l-59.933,425.675c-0.814,5.784-5.763,10.085-11.604,10.085h46.809
	c11.875,0,21.937-8.745,23.593-20.504l56.524-401.46C445.446,82.75,439.789,76.241,432.431,76.241z"/>
<path style="fill:#FFA022;" d="M76.498,153.367l47.607,338.129C125.761,503.255,135.824,512,147.699,512h216.604
	c11.875,0,21.937-8.745,23.593-20.504l47.607-338.129H76.498z"/>
<circle style="fill:#FDC74F;" cx="186.351" cy="114.17" r="114.17"/>
<circle style="fill:#FFFFBB;" cx="186.351" cy="114.17" r="85.47"/>
<g>
	<path style="fill:#FFC988;" d="M173.323,351.897l-67.209-38.803c-2.635-1.521-3.537-4.89-2.016-7.525l38.803-67.209
		c1.521-2.635,4.89-3.537,7.525-2.016l67.209,38.803c2.635,1.521,3.537,4.89,2.016,7.525l-38.803,67.209
		C179.327,352.516,175.958,353.418,173.323,351.897z"/>
	<path style="fill:#FFC988;" d="M259.007,447.523l-45.868-62.601c-1.798-2.454-1.266-5.901,1.188-7.699l62.601-45.868
		c2.454-1.798,5.901-1.266,7.699,1.188l45.868,62.601c1.798,2.454,1.266,5.901-1.188,7.699l-62.601,45.868
		C264.252,450.509,260.805,449.977,259.007,447.523z"/>
	<path style="fill:#FFC988;" d="M299.911,280.303L283.742,204.4c-0.634-2.976,1.264-5.902,4.24-6.535l75.904-16.169
		c2.976-0.634,5.902,1.264,6.535,4.24l16.169,75.904c0.634,2.976-1.264,5.902-4.24,6.535l-75.904,16.169
		C303.471,285.177,300.545,283.279,299.911,280.303z"/>
</g>
<path style="fill:#E57F23;" d="M378.173,153.367l-49.074,348.549c-0.814,5.783-5.762,10.084-11.603,10.085h46.808
	c3.711,0,7.245-0.854,10.401-2.387c1.262-0.613,2.464-1.335,3.592-2.155c3.385-2.458,6.109-5.793,7.826-9.704
	c0.572-1.303,1.032-2.671,1.367-4.091c0.168-0.71,0.304-1.433,0.407-2.168l47.607-338.13L378.173,153.367L378.173,153.367z"/>
<path style="fill:#FFA022;" d="M386.59,261.839l-14.263-66.956l-10.977,77.965l21-4.473
	C385.326,267.741,387.224,264.815,386.59,261.839z"/>
<path style="fill:#DFEDE7;" d="M256.001,475.387c-55.371,0-104.735-7.468-136.856-19.127l4.961,35.236
	C125.761,503.255,135.824,512,147.699,512h216.604c11.875,0,21.937-8.745,23.593-20.504l4.961-35.236
	C360.736,467.919,311.372,475.387,256.001,475.387z"/>
<path style="fill:#CBD1CF;" d="M333.573,470.133l-4.475,31.782c-0.814,5.783-5.762,10.084-11.603,10.085h46.808
	c0.664,0,1.319-0.037,1.971-0.09c0.138-0.011,0.277-0.022,0.414-0.036c0.631-0.063,1.257-0.148,1.874-0.259
	c0.103-0.019,0.205-0.043,0.308-0.063c0.564-0.11,1.122-0.24,1.672-0.389c0.099-0.027,0.2-0.05,0.299-0.078
	c0.597-0.17,1.183-0.366,1.76-0.58c0.125-0.047,0.25-0.096,0.374-0.145c0.586-0.229,1.166-0.473,1.729-0.747
	c1.262-0.613,2.464-1.335,3.592-2.155c0.507-0.369,0.995-0.763,1.471-1.17c0.142-0.121,0.279-0.247,0.418-0.371
	c0.345-0.309,0.681-0.628,1.008-0.957c0.131-0.132,0.264-0.263,0.393-0.398c0.431-0.454,0.85-0.92,1.245-1.408
	c0.001-0.002,0.003-0.004,0.005-0.006c0.394-0.488,0.764-0.997,1.12-1.516c0.106-0.154,0.206-0.313,0.308-0.47
	c0.255-0.392,0.499-0.792,0.732-1.2c0.093-0.163,0.188-0.325,0.278-0.491c0.302-0.56,0.59-1.13,0.847-1.717
	c0.572-1.303,1.032-2.671,1.367-4.091c0.168-0.71,0.304-1.433,0.407-2.168l4.961-35.236
	C376.895,462.054,356.672,466.811,333.573,470.133z"/>
<path style="fill:#EDA524;" d="M79.085,153.367c15.991,43.745,57.979,74.971,107.261,74.971s91.27-31.226,107.261-74.971H79.085z"/>
<path style="fill:#E0DC94;" d="M110.402,153.367c14.212,27.478,42.874,46.273,75.945,46.273s61.732-18.794,75.944-46.273H110.402z"
	/>
<path style="fill:#772424;" d="M312.524,117.477c-0.787,0-1.588-0.121-2.378-0.375c-4.072-1.313-6.31-5.678-4.997-9.751
	l7.512-23.307c0.759-2.719,7.379-24.589,26.502-34.712c11.893-6.294,25.755-6.709,41.203-1.235c4.033,1.429,6.143,5.857,4.715,9.891
	c-1.429,4.033-5.857,6.143-9.891,4.715c-11.154-3.953-20.808-3.86-28.693,0.28c-13.945,7.32-18.874,25.086-18.922,25.265
	c-0.032,0.121-0.075,0.267-0.113,0.386l-7.564,23.471C318.838,115.387,315.797,117.477,312.524,117.477z"/>
<circle style="fill:#FC502A;" cx="304.601" cy="134.31" r="50.48"/>
<path style="fill:#E52D15;" d="M257.864,153.367c5.438,13.315,16.491,24.231,31.252,28.988c25.316,8.159,52.355-4.744,62.216-28.988
	H257.864z"/>
<g>
	<path style="fill:#FDC74F;" d="M186.346,55.844c-4.279,0-7.747,3.469-7.747,7.747v8.786c0,4.279,3.469,7.747,7.747,7.747
		s7.747-3.469,7.747-7.747v-8.786C194.094,59.312,190.625,55.844,186.346,55.844z"/>
	<path style="fill:#FDC74F;" d="M152.303,114.169c0-4.279-3.469-7.747-7.747-7.747h-8.786c-4.279,0-7.747,3.469-7.747,7.747
		s3.469,7.747,7.747,7.747h8.786C148.834,121.916,152.303,118.448,152.303,114.169z"/>
	<path style="fill:#FDC74F;" d="M236.924,106.421h-8.786c-4.279,0-7.747,3.469-7.747,7.747s3.469,7.747,7.747,7.747h8.786
		c4.279,0,7.747-3.469,7.747-7.747S241.203,106.421,236.924,106.421z"/>
	<path style="fill:#FDC74F;" d="M215.898,92.365c1.983,0,3.966-0.757,5.479-2.269l6.213-6.213c3.025-3.026,3.025-7.931-0.001-10.957
		c-3.026-3.025-7.931-3.025-10.957,0.001l-6.213,6.213c-3.025,3.026-3.025,7.931,0.001,10.957
		C211.933,91.609,213.915,92.365,215.898,92.365z"/>
	<path style="fill:#FDC74F;" d="M156.061,72.927c-3.025-3.025-7.931-3.025-10.956,0c-3.026,3.025-3.026,7.931,0,10.956l6.213,6.213
		c1.513,1.513,3.495,2.269,5.478,2.269s3.966-0.757,5.478-2.269c3.026-3.025,3.026-7.931,0-10.956L156.061,72.927z"/>
	<path style="fill:#FDC74F;" d="M186.346,148.213c-4.279,0-7.747,3.469-7.747,7.747v8.786c0,4.279,3.469,7.747,7.747,7.747
		s7.747-3.469,7.747-7.747v-8.786C194.094,151.681,190.625,148.213,186.346,148.213z"/>
	<path style="fill:#FDC74F;" d="M151.318,138.241l-6.213,6.213c-3.026,3.025-3.026,7.931,0,10.956
		c1.513,1.513,3.495,2.269,5.478,2.269s3.966-0.757,5.478-2.269l6.213-6.213c3.026-3.025,3.026-7.931,0-10.956
		C159.249,135.216,154.343,135.216,151.318,138.241z"/>
	<path style="fill:#FDC74F;" d="M221.376,138.241c-3.026-3.025-7.932-3.025-10.957-0.001c-3.025,3.026-3.026,7.931-0.001,10.957
		l6.213,6.213c1.513,1.513,3.496,2.269,5.479,2.269s3.966-0.757,5.478-2.269c3.025-3.026,3.026-7.931,0.001-10.957L221.376,138.241z
		"/>
</g>
<g>
</g>
<g>
</g>
<g>
</g>
<g>
</g>
<g>
</g>
<g>
</g>
<g>
</g>
<g>
</g>
<g>
</g>
<g>
</g>
<g>
</g>
<g>
</g>
<g>
</g>
<g>
</g>
<g>
</g>
</svg>
