<?xml version="1.0" encoding="iso-8859-1"?>
<!-- Generator: Adobe Illustrator 19.0.0, SVG Export Plug-In . SVG Version: 6.00 Build 0)  -->
<svg version="1.1" id="Capa_1" xmlns="http://www.w3.org/2000/svg" xmlns:xlink="http://www.w3.org/1999/xlink" x="0px" y="0px"
	 viewBox="0 0 511.999 511.999" style="enable-background:new 0 0 511.999 511.999;" xml:space="preserve">
<path style="fill:#E5F9F6;" d="M379.094,511.999H195.223c-4.035,0-7.354-3.177-7.53-7.208l-18.82-430.022
	c-0.188-4.288,3.238-7.867,7.53-7.867h221.511c4.292,0,7.718,3.579,7.53,7.867l-18.82,430.022
	C386.448,508.822,383.129,511.999,379.094,511.999z"/>
<path style="fill:#D6E5E2;" d="M397.914,66.902h-49.193l-19.48,445.097h49.853c4.035,0,7.354-3.177,7.53-7.208l18.82-430.022
	C405.632,70.481,402.206,66.902,397.914,66.902z"/>
<path style="fill:#CDEAE0;" d="M169.998,100.458l17.696,404.333c0.176,4.031,3.496,7.208,7.53,7.208h183.871
	c4.035,0,7.354-3.177,7.53-7.208l17.696-404.333L169.998,100.458L169.998,100.458z"/>
<path style="fill:#B6D1C6;" d="M347.252,100.458l-18.011,411.541h49.853c1.765,0,3.393-0.608,4.681-1.63
	c0.368-0.292,0.708-0.617,1.016-0.972c0.154-0.177,0.3-0.362,0.437-0.554c0.274-0.383,0.513-0.793,0.713-1.225
	c0.1-0.216,0.19-0.438,0.269-0.665c0.159-0.454,0.275-0.927,0.345-1.417c0.035-0.245,0.058-0.493,0.069-0.745l17.696-404.333
	L347.252,100.458L347.252,100.458z"/>
<path style="fill:#D7E0DC;" d="M287.159,477.678c-40.341,0-76.483-1.943-100.871-5.01l1.406,32.123
	c0.176,4.031,3.496,7.208,7.53,7.208h183.871c4.035,0,7.354-3.177,7.53-7.208l1.406-32.123
	C363.642,475.735,327.5,477.678,287.159,477.678z"/>
<path style="fill:#FDC74F;" d="M342.175,201.359c1.275-1.242,1.261-3.304-0.035-4.525c-29.101-27.412-74.913-27.255-103.826,0.91
	s-30.271,73.957-3.631,103.767c1.186,1.328,3.247,1.396,4.522,0.154L342.175,201.359z"/>
<path style="fill:#FFFFBB;" d="M330.007,213.212c-21.153-21.705-55.897-22.158-77.608-1.009s-22.169,55.893-1.026,77.608
	L330.007,213.212z"/>
<g>
	<path style="fill:#FDC74F;" d="M270.806,238.182c-2.209,0.173-4.477-0.6-6.144-2.312l-2.713-2.785
		c-2.979-3.058-2.914-7.951,0.143-10.93c3.057-2.979,7.95-2.915,10.93,0.143l2.713,2.785c2.979,3.058,2.914,7.951-0.143,10.93
		C274.246,237.325,272.544,238.046,270.806,238.182z"/>
	<path style="fill:#FDC74F;" d="M289.609,230.682c-0.235,0.018-0.473,0.026-0.714,0.023c-4.268-0.056-7.683-3.561-7.627-7.83
		l0.051-3.886c0.056-4.268,3.565-7.679,7.83-7.627c4.268,0.056,7.683,3.561,7.627,7.83l-0.051,3.886
		C296.672,227.105,293.547,230.373,289.609,230.682z"/>
	<path style="fill:#FDC74F;" d="M262.821,256.777c-0.235,0.018-0.473,0.026-0.714,0.023l-3.887-0.051
		c-4.268-0.056-7.683-3.561-7.627-7.83c0.055-4.268,3.555-7.691,7.83-7.627l3.887,0.051c4.268,0.056,7.683,3.561,7.627,7.83
		C269.884,253.201,266.759,256.469,262.821,256.777z"/>
</g>
<g>
	<path style="fill:#E5F9F6;" d="M190.431,171.351l8.452-43.905c0.331-1.721,1.995-2.848,3.716-2.516l43.905,8.452
		c1.721,0.331,2.848,1.995,2.516,3.716l-8.452,43.905c-0.331,1.721-1.995,2.848-3.716,2.516l-43.905-8.452
		C191.226,174.736,190.1,173.072,190.431,171.351z"/>
	<path style="fill:#E5F9F6;" d="M305.2,319.62l10.181-52.887c0.399-2.073,2.403-3.43,4.477-3.031l52.887,10.181
		c2.073,0.399,3.43,2.403,3.031,4.477l-10.181,52.887c-0.399,2.073-2.403,3.43-4.477,3.031l-52.887-10.181
		C306.158,323.698,304.801,321.694,305.2,319.62z"/>
	<path style="fill:#E5F9F6;" d="M198.987,435.067l7.96-41.35c0.312-1.621,1.879-2.682,3.5-2.37l41.35,7.96
		c1.621,0.312,2.682,1.879,2.37,3.5l-7.96,41.35c-0.312,1.621-1.879,2.682-3.5,2.37l-41.35-7.96
		C199.736,438.256,198.675,436.688,198.987,435.067z"/>
</g>
<g>
	<path style="fill:#77D057;" d="M253.066,86.406c15.977-22.876,14.846-63.307,14.147-74.923c-0.111-1.837-1.603-3.272-3.443-3.311
		c-11.634-0.245-52.079,0.203-74.313,17.061c-48.475,36.753-12.988,77.163-12.988,77.163S218.234,136.278,253.066,86.406z"/>
	<path style="fill:#77D057;" d="M192.409,28.588C170.134,6.861,124.924,1.137,113.511,0.014c-1.526-0.15-2.905,0.88-3.194,2.386
		c-2.159,11.263-9.49,56.24,5.029,83.762c30.939,58.648,80.69,27.642,80.69,27.642S239.876,74.888,192.409,28.588z"/>
</g>
<path style="fill:#68B543;" d="M201.351,108.005l-12.745-17.059l8.951-21.874c1.617-3.951-0.276-8.464-4.226-10.08
	c-3.951-1.617-8.464,0.276-10.08,4.226l-5.435,13.283l-8.687-11.627l6.796-16.608c1.617-3.951-0.276-8.464-4.226-10.08
	c-3.95-1.617-8.463,0.277-10.08,4.226l-3.281,8.017l-7.721-10.335l3.625-8.859c1.616-3.951-0.276-8.464-4.226-10.08
	c-3.952-1.616-8.464,0.276-10.08,4.226l-0.11,0.269L121.375,0.957c-3.331-0.463-6.035-0.763-7.864-0.943
	c-1.526-0.15-2.905,0.881-3.194,2.386c-0.346,1.805-0.825,4.483-1.325,7.809l18.45,24.695l-0.292,0.03
	c-4.247,0.43-7.341,4.221-6.911,8.468c0.403,3.983,3.762,6.951,7.681,6.951c0.26,0,0.523-0.013,0.787-0.04l9.527-0.964l7.72,10.333
	l-8.619,0.873c-4.247,0.43-7.341,4.221-6.911,8.468c0.403,3.983,3.762,6.951,7.68,6.951c0.261,0,0.524-0.013,0.788-0.04
	l17.853-1.808l8.545,11.438l-13.823,1.4c-4.247,0.43-7.341,4.221-6.911,8.468c0.403,3.983,3.762,6.951,7.681,6.951
	c0.26,0,0.523-0.013,0.787-0.04l23.058-2.334l12.886,17.248c4.43-1.813,7.068-3.454,7.068-3.454S198.357,111.74,201.351,108.005z"/>
<path style="fill:#77D057;" d="M352.194,372.258c-19.896-19.406-59.814-24.841-71.344-26.035c-1.823-0.189-3.475,1.045-3.811,2.847
	c-2.125,11.395-8.233,51.216,4.735,75.798c28.272,53.592,73.733,25.258,73.733,25.258S395.569,414.567,352.194,372.258z"/>
<path style="fill:#CBD1CF;" d="M330.778,476.886l-1.537,35.113h49.853c0.404,0,0.798-0.04,1.186-0.102
	c0.056-0.009,0.114-0.015,0.17-0.025c0.365-0.067,0.72-0.162,1.066-0.279c0.065-0.022,0.129-0.045,0.193-0.068
	c0.341-0.126,0.671-0.273,0.987-0.446c0.048-0.026,0.095-0.056,0.143-0.084c0.327-0.188,0.644-0.393,0.938-0.626
	c0.368-0.292,0.708-0.617,1.016-0.972c0.154-0.177,0.3-0.362,0.437-0.554c0.274-0.383,0.513-0.793,0.713-1.225
	c0.1-0.216,0.19-0.438,0.269-0.665c0.159-0.454,0.275-0.927,0.345-1.417c0.035-0.245,0.058-0.493,0.069-0.745l1.406-32.123
	C372.879,474.574,353.19,476.045,330.778,476.886z"/>
<path style="fill:#CDEAE0;" d="M372.745,273.883l-32.807-6.316l-2.718,62.11l23.898,4.601c2.073,0.399,4.078-0.958,4.477-3.031
	l10.181-52.887C376.176,276.287,374.819,274.282,372.745,273.883z"/>
<path style="fill:#6FC14D;" d="M335.851,360.965l-4.224,96.508c13.71-1.011,23.88-7.345,23.88-7.345s40.061-35.56-3.314-77.869
	C347.613,367.79,341.965,364.07,335.851,360.965z"/>
<g>
	<path style="fill:#68B543;" d="M360.793,444.289l-11.315-15.144l8.036-19.639c1.617-3.951-0.276-8.464-4.226-10.08
		c-3.951-1.616-8.463,0.276-10.08,4.226l-4.521,11.048l-7.008-9.38l6.067-14.827c1.617-3.951-0.276-8.464-4.226-10.08
		c-3.951-1.617-8.463,0.276-10.08,4.226l-2.552,6.236l-6.125-8.198l3.17-7.746c1.617-3.951-0.275-8.464-4.226-10.08
		c-3.675-1.503-7.833,0.032-9.698,3.433l-15.796-21.142c-0.126-0.018-0.246-0.034-0.37-0.052c-0.389-0.055-0.769-0.108-1.14-0.159
		c-0.189-0.026-0.377-0.051-0.561-0.076c-0.4-0.053-0.792-0.105-1.168-0.152c-0.162-0.021-0.318-0.04-0.475-0.059
		c-0.314-0.039-0.62-0.077-0.915-0.112c-0.161-0.019-0.321-0.038-0.477-0.057c-0.318-0.037-0.626-0.073-0.92-0.105
		c-0.151-0.017-0.294-0.033-0.438-0.048c-0.242-0.026-0.477-0.052-0.699-0.075c-0.07-0.007-0.138-0.014-0.206-0.021
		c-1.818-0.185-3.464,1.045-3.802,2.841c-0.013,0.068-0.025,0.136-0.038,0.206c-0.038,0.208-0.079,0.428-0.119,0.653
		c-0.031,0.174-0.063,0.35-0.096,0.534c-0.048,0.269-0.097,0.549-0.147,0.839c-0.028,0.16-0.056,0.324-0.084,0.489
		c-0.047,0.276-0.095,0.563-0.143,0.855c-0.033,0.197-0.065,0.395-0.098,0.6c-0.056,0.348-0.113,0.706-0.171,1.075
		c-0.03,0.189-0.059,0.382-0.089,0.577c-0.054,0.354-0.109,0.718-0.164,1.089c-0.02,0.138-0.041,0.27-0.061,0.411l15.796,21.143
		c-3.791,0.822-6.444,4.376-6.044,8.327c0.404,3.982,3.762,6.951,7.68,6.951c0.261,0,0.524-0.013,0.788-0.04l8.329-0.843
		l6.124,8.197l-6.704,0.679c-4.247,0.43-7.341,4.221-6.911,8.468c0.404,3.983,3.762,6.951,7.68,6.951
		c0.261,0,0.524-0.013,0.788-0.04l15.939-1.614l6.878,9.207l-11.46,1.16c-4.247,0.43-7.341,4.221-6.911,8.468
		c0.403,3.983,3.762,6.951,7.68,6.951c0.26,0,0.524-0.013,0.788-0.04l20.695-2.095l11.444,15.317c0.001,0,0.002-0.001,0.003-0.001
		c4.15-1.643,6.749-3.2,7.063-3.392c0.021-0.013,0.033-0.02,0.033-0.02S357.854,448.042,360.793,444.289z"/>
	<path style="fill:#68B543;" d="M220.495,82.657l-6.66-1.525c-0.911,5.496-2.689,10.458-4.784,14.762l7.994,1.831
		c0.581,0.133,1.161,0.197,1.732,0.197c3.523,0,6.707-2.425,7.527-6.005C227.256,87.756,224.656,83.61,220.495,82.657z"/>
	<path style="fill:#68B543;" d="M249.087,38.036l18.419-19.152c-0.063-3.055-0.183-5.582-0.293-7.401
		c-0.111-1.837-1.603-3.272-3.443-3.311c-1.822-0.038-4.351-0.06-7.406-0.004l-18.42,19.153c-1.412-3.634-5.365-5.693-9.218-4.653
		c-4.12,1.115-6.557,5.358-5.443,9.479l2.199,8.131l-7.17,7.456l-1.781-6.583c-1.114-4.121-5.355-6.556-9.479-5.443
		c-2.191,0.593-3.899,2.075-4.857,3.948c9.305,12.441,12.445,24.119,12.283,34.363l2.477-2.576l15.694,3.594
		c0.581,0.133,1.161,0.197,1.732,0.197c3.523,0,6.707-2.425,7.527-6.005c0.953-4.161-1.647-8.307-5.808-9.259l-6.647-1.522
		l7.172-7.457l8.208,1.879c0.58,0.133,1.16,0.197,1.732,0.197c3.523,0,6.707-2.425,7.527-6.006
		C254.983,43.177,252.773,39.307,249.087,38.036z"/>
</g>
<g>
</g>
<g>
</g>
<g>
</g>
<g>
</g>
<g>
</g>
<g>
</g>
<g>
</g>
<g>
</g>
<g>
</g>
<g>
</g>
<g>
</g>
<g>
</g>
<g>
</g>
<g>
</g>
<g>
</g>
</svg>
