<?xml version="1.0" encoding="iso-8859-1"?>
<!-- Generator: Adobe Illustrator 19.0.0, SVG Export Plug-In . SVG Version: 6.00 Build 0)  -->
<svg version="1.1" id="Capa_1" xmlns="http://www.w3.org/2000/svg" xmlns:xlink="http://www.w3.org/1999/xlink" x="0px" y="0px"
	 viewBox="0 0 512.001 512.001" style="enable-background:new 0 0 512.001 512.001;" xml:space="preserve">
<path style="fill:#B0EFFE;" d="M362.668,182.325c5.486-28.442-9.986-58.878-56.775-85.926
	c-40.628-23.487-27.978-75.757-22.399-93.105c0.696-2.163-1.599-4.061-3.597-2.979c-8.741,4.733-25.693,15.852-36.304,35.305
	c-16.207,29.714,9.293,73.676-16.061,79.414c-23.644,5.351-22.893-31.224-21.699-45.708c0.182-2.205-2.357-3.567-4.081-2.18
	c-9.632,7.753-31.526,27.856-40.771,56.754c-7.083,22.142-6.52,41.997-2.835,58.424h204.522V182.325z"/>
<path style="fill:#A3E5EF;" d="M305.893,96.399c-40.634-23.49-27.974-75.771-22.396-93.111c0.695-2.161-1.598-4.056-3.594-2.974
	c-8.739,4.732-25.696,15.851-36.308,35.308c-3.025,5.547-4.598,11.589-5.319,17.787c-2.384,20.495,5.031,40.95,19.493,55.666
	c20.191,20.546,49.306,54.153,45.622,73.25h59.279C368.154,153.883,352.682,123.447,305.893,96.399z"/>
<path style="fill:#90D8E0;" d="M321.218,167.352c0-4.916-1.681-9.644-4.733-13.31c-6.511-7.821-16.694-15.765-30.267-23.611
	c-3.935-2.275-7.648-4.761-11.136-7.452c-0.621-0.479-1.509-0.251-1.833,0.464c-6.92,15.255-20.106,26.1-37.04,29.933
	c-4.398,0.995-8.812,1.499-13.122,1.499c-9.196,0-17.955-2.269-25.691-6.553c-0.743-0.411-1.679,0.079-1.768,0.924
	c-0.532,5.096-0.501,10.339,0.095,15.688l1.937,17.392h123.557v-14.974H321.218z"/>
<path style="fill:#DFEDE7;" d="M140.867,170.365c-2.217,0-3.929,1.939-3.644,4.138c3.93,30.29,27.921,219.709,27.921,329.447
	c0,4.446,40.678,8.051,90.856,8.051s90.856-3.604,90.856-8.051c0-109.738,23.991-299.157,27.921-329.447
	c0.285-2.198-1.428-4.138-3.644-4.138L140.867,170.365L140.867,170.365z"/>
<path style="fill:#FFA022;" d="M148.272,267.57h215.454l-0.001,0.012c3.288-30.109,6.382-55.871,8.545-73.296H139.728
	c2.164,17.435,5.26,43.216,8.55,73.347C148.277,267.612,148.274,267.591,148.272,267.57z"/>
<path style="fill:#FFE5B8;" d="M159.072,380.137h193.855c-0.033,0.409-0.064,0.816-0.096,1.225
	c3.162-39.643,7.154-79.532,10.896-113.792H148.272c3.742,34.26,7.734,74.149,10.896,113.792
	C159.136,380.953,159.104,380.545,159.072,380.137z"/>
<path style="fill:#4A4256;" d="M164.456,468.55c18.694,6.558,52.695,10.944,91.544,10.944c38.848,0,72.85-4.386,91.544-10.944
	c0,0,2.752-55.591,5.384-88.413H159.072C161.704,412.968,164.456,468.55,164.456,468.55z"/>
<path style="fill:#EDD0A6;" d="M306.572,267.57c-3.703,33.907-7.651,73.328-10.798,112.567h57.153
	c-0.034,0.429-0.067,0.856-0.101,1.285c0.058-0.726,0.115-1.452,0.173-2.178c0.192-2.386,0.386-4.772,0.584-7.158
	c0.029-0.344,0.058-0.688,0.087-1.032c0.171-2.054,0.343-4.107,0.518-6.159c0.069-0.815,0.14-1.628,0.21-2.442
	c0.139-1.619,0.279-3.237,0.42-4.853c0.076-0.87,0.152-1.738,0.229-2.607c0.141-1.606,0.284-3.209,0.427-4.811
	c0.072-0.802,0.143-1.604,0.216-2.405c0.181-2.007,0.363-4.009,0.547-6.008c0.034-0.37,0.067-0.741,0.101-1.11
	c0.218-2.361,0.437-4.714,0.658-7.061c0.067-0.713,0.135-1.421,0.202-2.133c0.157-1.658,0.314-3.313,0.472-4.962
	c0.08-0.839,0.161-1.674,0.242-2.51c0.15-1.548,0.299-3.092,0.45-4.631c0.081-0.827,0.162-1.655,0.243-2.479
	c0.162-1.647,0.324-3.286,0.487-4.922c0.067-0.672,0.133-1.346,0.2-2.016c0.226-2.261,0.452-4.512,0.679-6.748
	c0.047-0.465,0.094-0.924,0.142-1.387c0.184-1.806,0.368-3.605,0.552-5.393c0.08-0.771,0.159-1.536,0.238-2.303
	c0.153-1.481,0.307-2.955,0.46-4.422c0.085-0.811,0.169-1.618,0.254-2.424c0.154-1.465,0.307-2.92,0.461-4.37
	c0.078-0.734,0.156-1.471,0.233-2.201c0.198-1.859,0.396-3.704,0.593-5.536c0.031-0.287,0.062-0.579,0.093-0.865
	c0.227-2.108,0.454-4.194,0.68-6.263c0.017-0.152,0.033-0.308,0.05-0.46h-57.155V267.57z"/>
<path style="fill:#352F3F;" d="M339.121,471.092c0.003-0.001,0.006-0.002,0.01-0.002c0.004-0.001,0.008-0.002,0.011-0.003
	c0.116-0.031,0.233-0.061,0.349-0.092c0.011-0.003,0.021-0.006,0.032-0.008c0.001,0,0.001,0,0.002-0.001
	c0.337-0.089,0.67-0.179,1.001-0.269c0.049-0.013,0.098-0.027,0.147-0.04c0.192-0.053,0.383-0.105,0.572-0.159
	c0.002,0,0.003-0.001,0.005-0.001c0.021-0.006,0.042-0.012,0.063-0.018c0.08-0.022,0.159-0.045,0.239-0.067
	c0.019-0.005,0.038-0.011,0.057-0.016c0.039-0.011,0.077-0.022,0.116-0.033c0.082-0.023,0.164-0.046,0.245-0.07
	c0.104-0.03,0.208-0.06,0.311-0.089c0.087-0.025,0.173-0.05,0.259-0.075c0.078-0.023,0.156-0.045,0.234-0.068
	c0.068-0.02,0.135-0.04,0.202-0.06c0.088-0.026,0.175-0.052,0.263-0.078c0.007-0.002,0.013-0.004,0.02-0.006
	c0.073-0.022,0.146-0.044,0.219-0.066c0.058-0.017,0.115-0.035,0.173-0.052c0.052-0.016,0.104-0.031,0.155-0.047
	c0.042-0.013,0.083-0.025,0.125-0.038c0.021-0.006,0.041-0.013,0.061-0.019c0.1-0.031,0.201-0.062,0.301-0.092
	c0.024-0.008,0.049-0.015,0.073-0.023c0.129-0.04,0.256-0.08,0.384-0.12c0.055-0.017,0.11-0.035,0.164-0.052
	c0.074-0.024,0.148-0.047,0.222-0.071c0.023-0.007,0.046-0.015,0.068-0.022c0.035-0.011,0.07-0.022,0.105-0.034
	c0.103-0.033,0.204-0.066,0.306-0.099c0.032-0.011,0.065-0.021,0.098-0.032c0.033-0.011,0.065-0.021,0.098-0.032
	c0.026-0.009,0.052-0.017,0.078-0.026c0.086-0.028,0.172-0.057,0.258-0.085c0.031-0.01,0.062-0.02,0.092-0.031
	c0.117-0.039,0.232-0.078,0.348-0.117c0.018-0.006,0.036-0.012,0.053-0.018c0.022-0.007,0.044-0.015,0.066-0.022
	c0.066-0.023,0.132-0.045,0.198-0.068c0.046-0.016,0.092-0.031,0.137-0.047c0.04-0.014,0.081-0.028,0.121-0.042
	c0.128-0.044,0.255-0.088,0.382-0.133l0,0c0.001-0.011,2.752-55.594,5.384-88.413l0,0h-57.154
	c-2.736,34.115-4.862,68.086-5.691,98.181C309.536,476.933,326.489,474.397,339.121,471.092z"/>
<path style="fill:#D0D6D3;" d="M346.883,497.64c0.009-1.108,0.019-2.222,0.032-3.344c0.007-0.611,0.015-1.225,0.024-1.84
	c0.015-1.067,0.032-2.141,0.05-3.219c0.01-0.611,0.02-1.219,0.032-1.834c0.024-1.258,0.051-2.527,0.08-3.801
	c0.01-0.43,0.018-0.854,0.028-1.286c0.039-1.633,0.083-3.28,0.13-4.936c0.019-0.663,0.04-1.333,0.06-1.999
	c0.032-1.068,0.065-2.138,0.101-3.215c0.024-0.741,0.049-1.486,0.075-2.231c0.016-0.462,0.03-0.919,0.047-1.383
	c-12.959,4.546-33.277,8.047-57.463,9.768c-0.065,2.344-0.122,4.667-0.171,6.963c-0.247,11.688-7.331,22.118-18.066,26.597
	c0.008,0,0.015,0,0.023,0c1.251-0.02,2.491-0.042,3.723-0.066c0.122-0.002,0.245-0.005,0.367-0.007
	c1.192-0.024,2.375-0.049,3.549-0.077c0.142-0.003,0.285-0.007,0.427-0.01c1.18-0.028,2.352-0.059,3.513-0.091
	c0.091-0.003,0.181-0.005,0.271-0.008c2.424-0.069,4.803-0.146,7.134-0.232c0.069-0.003,0.138-0.005,0.206-0.007
	c1.116-0.041,2.219-0.085,3.312-0.13c0.135-0.006,0.27-0.011,0.404-0.017c1.075-0.045,2.139-0.092,3.19-0.14
	c0.116-0.005,0.231-0.011,0.346-0.016c1.073-0.05,2.134-0.102,3.181-0.156c0.062-0.003,0.122-0.007,0.184-0.01
	c2.147-0.111,4.237-0.229,6.267-0.355c0.098-0.006,0.198-0.012,0.296-0.018c0.959-0.06,1.903-0.121,2.834-0.184
	c0.131-0.009,0.262-0.018,0.392-0.027c0.92-0.063,1.827-0.127,2.719-0.193c0.109-0.008,0.216-0.016,0.324-0.024
	c0.919-0.069,1.825-0.139,2.713-0.21c0.026-0.002,0.052-0.004,0.078-0.006c0.898-0.073,1.778-0.147,2.642-0.223
	c0.054-0.005,0.11-0.009,0.164-0.014c0.837-0.074,1.656-0.15,2.461-0.226c0.107-0.01,0.214-0.02,0.32-0.03
	c0.778-0.075,1.539-0.151,2.284-0.229c0.117-0.012,0.233-0.024,0.349-0.037c0.743-0.078,1.473-0.158,2.183-0.238
	c0.084-0.01,0.165-0.019,0.249-0.029c1.479-0.17,2.884-0.345,4.21-0.525c0.072-0.01,0.145-0.019,0.217-0.029
	c0.626-0.086,1.23-0.173,1.82-0.261c0.099-0.015,0.198-0.029,0.296-0.044c0.574-0.087,1.129-0.175,1.667-0.264
	c0.088-0.015,0.175-0.029,0.263-0.044c0.543-0.091,1.071-0.183,1.575-0.277c0.051-0.009,0.1-0.019,0.151-0.029
	c0.506-0.095,0.994-0.19,1.46-0.287c0.025-0.005,0.052-0.01,0.077-0.016c0.466-0.097,0.906-0.196,1.33-0.295
	c0.06-0.014,0.122-0.028,0.182-0.042c0.403-0.096,0.783-0.193,1.145-0.291c0.063-0.017,0.125-0.034,0.187-0.051
	c0.355-0.098,0.69-0.197,1.003-0.296c0.047-0.015,0.092-0.03,0.139-0.045c0.317-0.103,0.616-0.207,0.888-0.312
	c0.017-0.006,0.031-0.013,0.047-0.019c0.266-0.104,0.509-0.209,0.729-0.315c0.022-0.01,0.046-0.021,0.067-0.031
	c0.214-0.105,0.4-0.21,0.568-0.316c0.028-0.018,0.057-0.035,0.083-0.053c0.156-0.104,0.289-0.208,0.401-0.313
	c0.02-0.019,0.038-0.037,0.056-0.056c0.104-0.106,0.188-0.213,0.245-0.32c0.008-0.014,0.012-0.029,0.019-0.043
	c0.053-0.113,0.087-0.227,0.087-0.341c0-1.573,0.006-3.167,0.016-4.772C346.874,498.668,346.879,498.152,346.883,497.64z"/>
<path style="fill:#E57F23;" d="M315.115,194.286c-2.163,17.421-5.256,43.18-8.543,73.284h57.154
	c-0.011,0.106-0.023,0.212-0.035,0.318c-0.01,0.089-0.019,0.178-0.029,0.265c0.176-1.617,0.352-3.222,0.527-4.814
	c0.061-0.558,0.122-1.106,0.184-1.661c0.125-1.128,0.249-2.255,0.373-3.369c0.082-0.737,0.163-1.464,0.245-2.194
	c0.102-0.91,0.203-1.819,0.304-2.72c0.088-0.786,0.176-1.565,0.264-2.344c0.098-0.87,0.195-1.735,0.292-2.595
	c0.082-0.724,0.164-1.445,0.245-2.162c0.103-0.907,0.205-1.804,0.307-2.699c0.078-0.684,0.156-1.37,0.234-2.047
	c0.11-0.959,0.219-1.905,0.327-2.85c0.067-0.578,0.134-1.163,0.2-1.736c0.121-1.054,0.242-2.091,0.362-3.127
	c0.112-0.961,0.222-1.912,0.332-2.857c0.108-0.929,0.217-1.858,0.323-2.771c0.07-0.601,0.14-1.187,0.209-1.781
	c0.098-0.836,0.196-1.67,0.293-2.491c0.074-0.629,0.147-1.248,0.221-1.868c0.09-0.762,0.18-1.52,0.269-2.269
	c0.076-0.646,0.153-1.283,0.228-1.919c0.079-0.659,0.156-1.311,0.234-1.959c0.081-0.673,0.161-1.342,0.24-2.003
	c0.075-0.628,0.149-1.245,0.224-1.862c0.079-0.659,0.159-1.32,0.237-1.966c0.069-0.576,0.137-1.136,0.206-1.702
	c0.076-0.628,0.153-1.264,0.228-1.879c0.058-0.473,0.113-0.927,0.17-1.392c0.162-1.33,0.32-2.627,0.475-3.891
	c0.054-0.442,0.109-0.891,0.163-1.325c0.079-0.641,0.155-1.26,0.232-1.883c0.051-0.412,0.102-0.826,0.151-1.229
	c0.078-0.632,0.155-1.248,0.23-1.861c0.026-0.21,0.053-0.432,0.079-0.64h-57.155V194.286z"/>
<path style="fill:#D7E0DC;" d="M371.131,170.365h-52.969l-3.047,23.921h57.154c-0.002,0.02-0.005,0.04-0.007,0.06
	c1.121-9.034,1.993-15.834,2.513-19.844C375.061,172.304,373.348,170.365,371.131,170.365z"/>
<g>
</g>
<g>
</g>
<g>
</g>
<g>
</g>
<g>
</g>
<g>
</g>
<g>
</g>
<g>
</g>
<g>
</g>
<g>
</g>
<g>
</g>
<g>
</g>
<g>
</g>
<g>
</g>
<g>
</g>
</svg>
