<?xml version="1.0" encoding="iso-8859-1"?>
<!-- Generator: Adobe Illustrator 19.0.0, SVG Export Plug-In . SVG Version: 6.00 Build 0)  -->
<svg version="1.1" id="Capa_1" xmlns="http://www.w3.org/2000/svg" xmlns:xlink="http://www.w3.org/1999/xlink" x="0px" y="0px"
	 viewBox="0 0 512.001 512.001" style="enable-background:new 0 0 512.001 512.001;" xml:space="preserve">
<path style="fill:#DFEDE7;" d="M199.235,512h132.199c17.856,0,32.332-14.475,32.332-32.332V97.018c0-4.597-3.726-8.323-8.323-8.323
	H175.226c-4.597,0-8.323,3.726-8.323,8.323v382.651C166.903,497.525,181.378,512,199.235,512z"/>
<path style="fill:#D7E0DC;" d="M355.443,88.695h-49.474v399.296c0,13.26-10.749,24.009-24.009,24.009h49.474
	c17.856,0,32.332-14.475,32.332-32.332V97.018C363.766,92.421,360.039,88.695,355.443,88.695z"/>
<path style="fill:#FED130;" d="M363.766,132.001v347.667c0,17.856-14.475,32.332-32.332,32.332H199.235
	c-17.856,0-32.332-14.475-32.332-32.332V132.001H363.766z"/>
<path style="fill:#EDBA18;" d="M305.969,487.991c0,13.26-10.749,24.009-24.009,24.009h49.474c5.022,0,9.777-1.145,14.017-3.188
	c8.952-4.313,15.612-12.63,17.658-22.627c0.431-2.105,0.657-4.284,0.657-6.516V132.001h-57.797V487.991z"/>
<path style="fill:#FC502A;" d="M363.766,479.668c0,17.856-14.475,32.332-32.332,32.332H199.235
	c-17.856,0-32.332-14.475-32.332-32.332V358.077h196.863V479.668z"/>
<path style="fill:#FFFFBB;" d="M360.844,156.182l-74.718-74.718c-1.649-1.649-1.62-4.348,0.088-5.935
	c43.677-40.583,111.427-40.583,155.104,0c1.708,1.587,1.737,4.286,0.088,5.935l-74.718,74.718
	C365.074,157.796,362.457,157.796,360.844,156.182z"/>
<g>
	<path style="fill:#FDC74F;" d="M286.214,75.529c43.677-40.583,111.427-40.582,155.104,0c1.708,1.587,1.737,4.286,0.088,5.935
		L427.301,95.57c-35.436-34.208-91.634-34.208-127.07,0l-14.105-14.105C284.477,79.816,284.506,77.116,286.214,75.529z"/>
	<path style="fill:#FDC74F;" d="M333.67,111.859c-1.978,0-3.957-0.755-5.467-2.265l-4.455-4.455c-3.019-3.019-3.019-7.915,0-10.934
		c3.02-3.019,7.915-3.019,10.935,0l4.455,4.455c3.019,3.019,3.019,7.915,0,10.934C337.627,111.104,335.648,111.859,333.67,111.859z"
		/>
	<path style="fill:#FDC74F;" d="M393.947,112.169c-1.978,0-3.957-0.755-5.467-2.265c-3.019-3.019-3.019-7.915,0-10.934l4.765-4.765
		c3.02-3.019,7.915-3.019,10.935,0c3.019,3.019,3.019,7.915,0,10.934l-4.765,4.765C397.904,111.414,395.925,112.169,393.947,112.169
		z"/>
	<path style="fill:#FDC74F;" d="M363.964,106.318c-4.27,0-7.732-3.462-7.732-7.732v-6.297c0-4.27,3.461-7.732,7.732-7.732
		c4.27,0,7.732,3.462,7.732,7.732v6.297C371.695,102.857,368.234,106.318,363.964,106.318z"/>
</g>
<path style="fill:#B081E2;" d="M135.675,0.105l115.248,19.373c2.184,0.367,2.824,3.183,1.025,4.474
	c-53.929,38.704-114.917,66.473-179.52,81.74c-2.124,0.502-3.806-1.806-2.694-3.684l58.158-98.286
	C129.49,1.023,132.583-0.415,135.675,0.105z"/>
<path style="fill:#A567DB;" d="M250.923,19.478L135.675,0.105c-3.092-0.52-6.185,0.917-7.782,3.616l0,0
	c-13.79,23.305,0.097,53.193,26.802,57.682l27.429,4.611c24.315-12.107,47.679-26.167,69.847-42.079
	C253.758,22.652,253.093,19.843,250.923,19.478z"/>
<path style="fill:#E52D15;" d="M305.969,487.991c0,13.26-10.749,24.009-24.009,24.009h49.474c0,0,0,0,0.001,0
	c0.595,0,1.186-0.019,1.773-0.05c0.195-0.01,0.387-0.03,0.582-0.044c0.391-0.028,0.782-0.058,1.17-0.1
	c0.226-0.025,0.45-0.057,0.675-0.086c0.351-0.046,0.702-0.093,1.05-0.15c0.235-0.038,0.469-0.082,0.703-0.126
	c0.335-0.062,0.667-0.128,0.998-0.201c0.234-0.051,0.467-0.105,0.699-0.161c0.328-0.08,0.654-0.165,0.979-0.255
	c0.226-0.062,0.451-0.124,0.675-0.192c0.332-0.1,0.661-0.208,0.989-0.318c0.208-0.07,0.417-0.137,0.623-0.211
	c0.357-0.128,0.709-0.266,1.06-0.407c0.17-0.068,0.343-0.131,0.512-0.202c0.516-0.216,1.027-0.444,1.53-0.686
	c0.52-0.251,1.03-0.518,1.534-0.795c0.163-0.089,0.321-0.185,0.482-0.277c0.34-0.195,0.678-0.393,1.01-0.599
	c0.183-0.113,0.362-0.231,0.542-0.348c0.307-0.2,0.611-0.404,0.911-0.614c0.178-0.124,0.355-0.249,0.531-0.377
	c0.305-0.222,0.605-0.452,0.902-0.685c0.156-0.122,0.313-0.242,0.467-0.367c0.357-0.29,0.705-0.59,1.049-0.895
	c0.084-0.074,0.171-0.145,0.254-0.22c0.423-0.383,0.835-0.778,1.237-1.183c0.111-0.111,0.216-0.228,0.325-0.341
	c0.288-0.299,0.573-0.6,0.849-0.91c0.138-0.155,0.272-0.313,0.407-0.47c0.241-0.28,0.478-0.563,0.709-0.851
	c0.136-0.169,0.27-0.34,0.403-0.513c0.226-0.293,0.445-0.591,0.661-0.892c0.121-0.169,0.243-0.336,0.361-0.507
	c0.235-0.342,0.461-0.69,0.683-1.041c0.086-0.135,0.176-0.268,0.259-0.404c0.299-0.489,0.587-0.986,0.86-1.491
	c0.053-0.098,0.1-0.199,0.153-0.298c0.217-0.411,0.427-0.826,0.627-1.247c0.086-0.181,0.165-0.365,0.248-0.548
	c0.157-0.348,0.31-0.698,0.454-1.052c0.083-0.204,0.163-0.409,0.243-0.615c0.133-0.346,0.26-0.696,0.382-1.048
	c0.071-0.207,0.143-0.413,0.21-0.622c0.122-0.38,0.235-0.764,0.344-1.149c0.051-0.182,0.107-0.362,0.155-0.545
	c0.15-0.569,0.288-1.143,0.406-1.724c0.431-2.105,0.657-4.284,0.657-6.516v-121.59h-57.797v129.914H305.969z"/>
<path style="fill:#DFEDE7;" d="M195.834,473.89h139.002c15.978,0,28.93-12.953,28.93-28.931v34.709
	c0,17.856-14.475,32.332-32.332,32.332H199.235c-17.856,0-32.332-14.475-32.332-32.332v-34.709
	C166.903,460.937,179.856,473.89,195.834,473.89z"/>
<path style="fill:#D0D6D3;" d="M334.835,473.89h-28.866v14.102c0,13.26-10.749,24.009-24.009,24.009h49.474c0.002,0,0.003,0,0.005,0
	c0.593,0,1.182-0.019,1.768-0.05c0.127-0.007,0.253-0.021,0.38-0.029c0.067-0.006,0.134-0.01,0.202-0.015
	c0.391-0.028,0.782-0.058,1.17-0.1c0.226-0.025,0.45-0.057,0.675-0.086c0.351-0.046,0.702-0.093,1.049-0.15
	c0.16-0.026,0.317-0.057,0.476-0.085c0.076-0.014,0.152-0.027,0.228-0.041c0.335-0.062,0.667-0.128,0.998-0.201
	c0.117-0.026,0.232-0.054,0.348-0.08c0.117-0.027,0.235-0.053,0.351-0.081c0.328-0.08,0.653-0.165,0.977-0.255
	c0.226-0.063,0.453-0.125,0.677-0.192c0.331-0.099,0.659-0.207,0.986-0.317c0.209-0.07,0.419-0.138,0.626-0.212
	c0.355-0.128,0.705-0.265,1.054-0.404c0.172-0.069,0.347-0.132,0.517-0.204c0.514-0.215,1.022-0.442,1.522-0.682
	c0.004-0.002,0.009-0.004,0.013-0.006c0.518-0.25,1.027-0.516,1.529-0.792c0.163-0.089,0.321-0.185,0.482-0.277
	c0.34-0.195,0.678-0.392,1.009-0.599c0.184-0.114,0.364-0.232,0.545-0.349c0.307-0.199,0.61-0.403,0.909-0.612
	c0.178-0.125,0.356-0.25,0.531-0.378c0.304-0.222,0.603-0.45,0.899-0.683c0.157-0.123,0.316-0.244,0.471-0.37
	c0.356-0.29,0.705-0.59,1.048-0.894c0.034-0.03,0.069-0.06,0.104-0.09c0.05-0.044,0.101-0.086,0.151-0.131
	c0.422-0.383,0.834-0.777,1.236-1.182c0.111-0.112,0.217-0.229,0.326-0.342c0.288-0.298,0.573-0.6,0.849-0.909
	c0.138-0.155,0.272-0.313,0.407-0.47c0.24-0.279,0.477-0.562,0.708-0.85c0.137-0.171,0.272-0.343,0.405-0.516
	c0.225-0.292,0.444-0.589,0.659-0.89c0.121-0.169,0.244-0.337,0.362-0.509c0.235-0.341,0.46-0.69,0.683-1.04
	c0.086-0.135,0.176-0.268,0.259-0.404c0.299-0.489,0.587-0.986,0.86-1.491c0.012-0.023,0.023-0.046,0.035-0.068
	c0.042-0.077,0.079-0.157,0.12-0.234c0.216-0.409,0.426-0.823,0.624-1.242c0.062-0.131,0.12-0.263,0.179-0.396
	c0.023-0.051,0.046-0.103,0.07-0.154c0.156-0.347,0.309-0.695,0.453-1.048c0.084-0.204,0.164-0.411,0.243-0.617
	c0.133-0.346,0.26-0.695,0.381-1.046c0.067-0.194,0.134-0.389,0.198-0.585c0.004-0.013,0.009-0.026,0.013-0.038
	c0.122-0.38,0.235-0.764,0.344-1.149c0.051-0.182,0.107-0.362,0.155-0.545c0.15-0.569,0.288-1.143,0.406-1.724
	c0.431-2.105,0.657-4.284,0.657-6.516v-34.709C363.766,460.937,350.813,473.89,334.835,473.89z"/>
<path style="fill:#FD9727;" d="M159.352,76.657l25.209,55.344h16.992l-28.132-61.76C168.764,72.45,164.074,74.59,159.352,76.657z"/>
<g>
</g>
<g>
</g>
<g>
</g>
<g>
</g>
<g>
</g>
<g>
</g>
<g>
</g>
<g>
</g>
<g>
</g>
<g>
</g>
<g>
</g>
<g>
</g>
<g>
</g>
<g>
</g>
<g>
</g>
</svg>
