<?xml version="1.0" encoding="iso-8859-1"?>
<!-- Generator: Adobe Illustrator 19.0.0, SVG Export Plug-In . SVG Version: 6.00 Build 0)  -->
<svg version="1.1" id="Capa_1" xmlns="http://www.w3.org/2000/svg" xmlns:xlink="http://www.w3.org/1999/xlink" x="0px" y="0px"
	 viewBox="0 0 512 512" style="enable-background:new 0 0 512 512;" xml:space="preserve">
<path style="fill:#DFEDE7;" d="M341.24,512H197.835c-19.37,0-35.072-15.702-35.072-35.072V61.843c0-4.986,4.042-9.028,9.028-9.028
	h195.493c4.986,0,9.028,4.042,9.028,9.028v415.085C376.312,496.298,360.61,512,341.24,512z"/>
<path style="fill:#D7E0DC;" d="M367.284,52.814h-48.006v433.142c0,14.384-11.66,26.044-26.044,26.044h48.006
	c19.37,0,35.072-15.702,35.072-35.072V61.843C376.312,56.857,372.27,52.814,367.284,52.814z"/>
<path style="fill:#FFA022;" d="M162.763,99.791v377.137c0,19.37,15.702,35.072,35.072,35.072H341.24
	c19.37,0,35.072-15.702,35.072-35.072V99.791H162.763z"/>
<g>
	<path style="fill:#FFC988;" d="M216.699,191.902l-51.886-32.206c-2.034-1.263-2.659-3.935-1.397-5.969l32.206-51.886
		c1.263-2.034,3.935-2.66,5.969-1.397l51.886,32.206c2.034,1.263,2.66,3.935,1.397,5.969l-32.206,51.886
		C221.405,192.539,218.733,193.164,216.699,191.902z"/>
	<path style="fill:#FFC988;" d="M296.459,261.528H235.39c-2.394,0-4.335-1.941-4.335-4.335v-61.069c0-2.394,1.941-4.335,4.335-4.335
		h61.069c2.394,0,4.335,1.941,4.335,4.335v61.069C300.794,259.588,298.853,261.528,296.459,261.528z"/>
	<path style="fill:#FFC988;" d="M373.668,172.702l-52.887,30.534c-2.073,1.197-4.724,0.487-5.921-1.587l-30.534-52.887
		c-1.197-2.073-0.487-4.724,1.587-5.921l52.887-30.534c2.073-1.197,4.724-0.487,5.921,1.587l30.534,52.887
		C376.452,168.854,375.741,171.505,373.668,172.702z"/>
</g>
<path style="fill:#FDC74F;" d="M254.884,146.781c1.745,1.745,4.611,1.698,6.265-0.133c31.136-34.48,30.093-87.698-3.131-120.922
	s-86.442-34.267-120.922-3.131c-1.831,1.654-1.878,4.52-0.133,6.265L254.884,146.781z"/>
<path style="fill:#FFFFBB;" d="M151.098,42.994l89.652,89.652c23.34-24.871,22.881-63.95-1.41-88.241
	C215.047,20.113,175.969,19.654,151.098,42.994z"/>
<g>
	<path style="fill:#FDC74F;" d="M227.645,56.099c-3.024-3.023-7.926-3.023-10.949-0.001l-4.722,4.721
		c-3.023,3.023-3.024,7.926-0.001,10.949c1.512,1.512,3.494,2.268,5.475,2.268s3.963-0.756,5.474-2.267l4.722-4.721
		C230.668,64.026,230.669,59.123,227.645,56.099z"/>
	<path style="fill:#FDC74F;" d="M237.427,90.665h-6.676c-4.276,0-7.742,3.466-7.742,7.742c0,4.276,3.466,7.742,7.742,7.742h6.676
		c4.276,0,7.742-3.466,7.742-7.742C245.17,94.131,241.703,90.665,237.427,90.665z"/>
	<path style="fill:#FDC74F;" d="M185.336,38.575c-4.276,0-7.742,3.466-7.742,7.742v6.675c0,4.276,3.466,7.742,7.742,7.742
		s7.742-3.466,7.742-7.742v-6.675C193.079,42.041,189.612,38.575,185.336,38.575z"/>
</g>
<path style="fill:#E57F23;" d="M376.312,476.928V99.791h-57.034v386.165c0,14.384-11.66,26.044-26.044,26.044h48.006
	C360.61,512,376.312,496.298,376.312,476.928z"/>
<path style="fill:#DFEDE7;" d="M344.93,470.659H194.146c-17.332,0-31.383-14.051-31.383-31.383v37.652
	c0,19.37,15.702,35.072,35.072,35.072H341.24c19.37,0,35.072-15.702,35.072-35.072v-37.652
	C376.312,456.609,362.262,470.659,344.93,470.659z"/>
<path style="fill:#D7E0DC;" d="M376.312,476.928v-37.647c-0.003,17.33-14.052,31.378-31.383,31.378h-25.651v15.297
	c0,14.384-11.66,26.044-26.044,26.044h48.006C360.61,512,376.312,496.298,376.312,476.928z"/>
<path style="fill:#FFA022;" d="M344.72,113.893c-1.197-2.073-3.848-2.784-5.921-1.587l-19.521,11.27v80.179
	c0.515-0.08,1.025-0.243,1.503-0.519l52.887-30.534c2.073-1.197,2.784-3.848,1.587-5.921L344.72,113.893z"/>
<g>
</g>
<g>
</g>
<g>
</g>
<g>
</g>
<g>
</g>
<g>
</g>
<g>
</g>
<g>
</g>
<g>
</g>
<g>
</g>
<g>
</g>
<g>
</g>
<g>
</g>
<g>
</g>
<g>
</g>
</svg>
