<?xml version="1.0" encoding="iso-8859-1"?>
<!-- Generator: Adobe Illustrator 19.0.0, SVG Export Plug-In . SVG Version: 6.00 Build 0)  -->
<svg version="1.1" id="Capa_1" xmlns="http://www.w3.org/2000/svg" xmlns:xlink="http://www.w3.org/1999/xlink" x="0px" y="0px"
	 viewBox="0 0 512 512" style="enable-background:new 0 0 512 512;" xml:space="preserve">
<path style="fill:#DFEDE7;" d="M337.777,71.858h-81.485H246.15h-71.087c-2.574,0-4.169,2.809-2.832,5.009
	c8.557,14.081,29.995,57.732,20.401,129.46c-10.051,75.14-45.539,165.373,16.587,209.157c4.459,3.142,9.755,5.671,15.561,7.59
	c2.036,0.987,3.933,1.902,5.523,2.691c9.023,4.48,14.659,11.734,14.659,21.808l-0.755,2.19c-2.373,6.88-2.237,14.378,0.383,21.167
	c-1.748,9.59-9.5,17.209-19.466,18.566c-16.148,2.199-26.793,5.957-26.793,10.227c0,6.78,26.836,12.277,59.94,12.277
	s59.94-5.496,59.94-12.277c0-4.27-10.645-8.028-26.793-10.227c-9.965-1.357-17.717-8.975-19.465-18.566
	c2.62-6.79,2.756-14.287,0.383-21.167l-0.755-2.19c0-10.074,5.636-17.328,14.659-21.808c2.81-1.395,5.481-3.167,8.022-5.075
	c3.396-1.495,6.548-3.225,9.36-5.207c62.126-43.784,26.637-134.017,16.587-209.157c-9.594-71.728,11.844-115.379,20.401-129.46
	C341.945,74.667,340.351,71.858,337.777,71.858z"/>
<path style="fill:#D6E5E2;" d="M337.777,71.858h-52.882c-0.002,0.003-35.594,45.767-23.73,134.469
	c10.051,75.14,45.539,165.373-16.587,209.157c-4.994,3.519-11.044,6.262-17.68,8.247c9.081,2.717,19.264,4.008,29.394,3.859h0.256
	c17.532,0.257,35.246-3.771,47.074-12.106c62.126-43.784,26.637-134.017,16.587-209.157c-9.594-71.728,11.844-115.379,20.401-129.46
	C341.945,74.667,340.351,71.858,337.777,71.858z"/>
<path style="fill:#FC502A;" d="M320.208,206.327c-6.141-45.912,0.434-80.299,8.205-102.813H184.426
	c7.771,22.514,14.346,56.901,8.205,102.813c-10.051,75.14-45.539,165.373,16.587,209.157c11.828,8.336,29.541,12.363,47.074,12.106
	h0.256c17.532,0.257,35.246-3.771,47.074-12.106C365.747,371.7,330.259,281.466,320.208,206.327z"/>
<path style="fill:#E52D15;" d="M319.485,200.401c-0.05-0.445-0.1-0.889-0.148-1.331c-0.206-1.91-0.394-3.802-0.557-5.67
	c-0.022-0.25-0.039-0.496-0.06-0.746c-0.143-1.698-0.267-3.377-0.376-5.04c-0.025-0.388-0.053-0.777-0.076-1.163
	c-0.11-1.802-0.201-3.584-0.272-5.344c-0.014-0.357-0.025-0.709-0.037-1.064c-0.056-1.56-0.099-3.104-0.126-4.63
	c-0.006-0.308-0.014-0.62-0.019-0.927c-0.024-1.698-0.029-3.372-0.018-5.028c0.002-0.408,0.008-0.811,0.012-1.217
	c0.017-1.517,0.045-3.02,0.09-4.502c0.006-0.186,0.008-0.377,0.014-0.563c0.051-1.594,0.123-3.161,0.204-4.714
	c0.023-0.435,0.047-0.867,0.072-1.299c0.088-1.515,0.185-3.018,0.3-4.493c0.02-0.262,0.045-0.517,0.066-0.778
	c0.103-1.269,0.217-2.521,0.339-3.76c0.045-0.453,0.089-0.907,0.136-1.356c0.142-1.359,0.294-2.702,0.457-4.024
	c0.054-0.436,0.112-0.863,0.169-1.295c0.13-1,0.265-1.989,0.407-2.968c0.069-0.476,0.136-0.955,0.207-1.426
	c0.182-1.202,0.372-2.387,0.57-3.556c0.091-0.538,0.185-1.068,0.28-1.599c0.14-0.79,0.284-1.572,0.431-2.346
	c0.13-0.686,0.261-1.368,0.396-2.042c0.174-0.866,0.35-1.724,0.532-2.57c0.132-0.616,0.266-1.225,0.402-1.831
	c0.128-0.569,0.258-1.13,0.388-1.689c0.244-1.046,0.494-2.075,0.748-3.089c0.105-0.417,0.209-0.835,0.316-1.247
	c0.178-0.688,0.357-1.369,0.539-2.042c0.063-0.233,0.128-0.46,0.191-0.691c0.362-1.315,0.73-2.6,1.105-3.855
	c0.057-0.19,0.114-0.381,0.171-0.57c0.677-2.238,1.37-4.377,2.075-6.42h-59.051c-7.768,22.514-14.336,56.913-8.197,102.813
	c10.051,75.14,45.539,165.373-16.587,209.157c-4.994,3.519-11.044,6.262-17.68,8.247c3.382,1.012,6.918,1.825,10.547,2.44
	c0.1,0.017,0.202,0.031,0.303,0.048c1.042,0.173,2.092,0.329,3.148,0.47c0.271,0.036,0.542,0.068,0.814,0.102
	c0.892,0.111,1.788,0.211,2.687,0.299c0.349,0.034,0.699,0.067,1.049,0.098c0.836,0.073,1.675,0.134,2.515,0.188
	c0.38,0.024,0.76,0.051,1.14,0.071c0.852,0.045,1.706,0.074,2.56,0.099c0.351,0.01,0.702,0.026,1.053,0.033
	c1.192,0.022,2.385,0.029,3.578,0.011h0.256c17.532,0.257,35.246-3.771,47.074-12.106c62.126-43.784,26.637-134.017,16.587-209.157
	C319.94,204.327,319.706,202.357,319.485,200.401z"/>
<circle style="fill:#FD9727;" cx="340.73" cy="32.2" r="24.601"/>
<path style="fill:#FFFFBB;" d="M374.973,82.204c-23.306-25.366-55.707-42.453-92.503-45.876c-1.912-0.178-3.533,1.391-3.385,3.306
	l7.627,98.656c0.18,2.329,2.779,3.623,4.74,2.353c15.74-10.197,69.594-45.091,82.954-53.748
	C376.017,85.851,376.272,83.619,374.973,82.204z"/>
<path style="fill:#65DBEF;" d="M202.341,103.514h15.752L196.635,22.89c-0.631-2.37-2.365-4.29-4.657-5.159l-45.47-17.235
	c-3.931-1.49-8.325,0.489-9.815,4.42c-1.49,3.93,0.489,8.325,4.42,9.815l41.816,15.85L202.341,103.514z"/>
<path style="fill:#EFEDAB;" d="M374.973,82.204c-12.562-13.672-27.766-24.939-44.876-32.957l-46.512,48.594l3.127,40.45
	c0.18,2.329,2.779,3.623,4.74,2.353c15.74-10.197,69.594-45.091,82.954-53.748C376.017,85.852,376.272,83.619,374.973,82.204z"/>
<path style="fill:#FDC74F;" d="M374.973,82.204c-23.306-25.366-55.707-42.453-92.503-45.876c-1.912-0.178-3.533,1.391-3.385,3.306
	l1.539,19.91c30.062,4.446,56.852,18.073,77.666,37.793c7.047-4.566,12.818-8.306,16.116-10.442
	C376.017,85.852,376.273,83.619,374.973,82.204z"/>
<path style="fill:#EAB447;" d="M375.732,83.747c-0.104-0.553-0.344-1.091-0.759-1.543c-0.759-0.826-1.528-1.642-2.306-2.45
	c-0.249-0.259-0.504-0.512-0.755-0.769c-0.532-0.545-1.065-1.089-1.605-1.626c-0.31-0.307-0.625-0.608-0.937-0.912
	c-0.491-0.478-0.982-0.956-1.479-1.428c-0.341-0.322-0.686-0.64-1.03-0.959c-0.479-0.444-0.958-0.888-1.442-1.326
	c-0.36-0.325-0.724-0.646-1.088-0.968c-0.478-0.423-0.957-0.845-1.441-1.262c-0.374-0.322-0.751-0.641-1.128-0.96
	c-0.483-0.408-0.967-0.813-1.456-1.214c-0.385-0.316-0.771-0.63-1.159-0.942c-0.49-0.394-0.983-0.785-1.478-1.173
	c-0.393-0.308-0.787-0.615-1.184-0.918c-0.502-0.385-1.007-0.765-1.514-1.143c-0.396-0.295-0.792-0.591-1.191-0.882
	c-0.519-0.379-1.043-0.752-1.567-1.124c-0.396-0.281-0.79-0.563-1.189-0.84c-0.542-0.376-1.089-0.745-1.636-1.114
	c-0.388-0.262-0.775-0.526-1.166-0.784c-0.58-0.383-1.166-0.757-1.753-1.132c-0.366-0.234-0.729-0.472-1.098-0.703
	c-0.663-0.416-1.333-0.821-2.004-1.226c-0.298-0.18-0.592-0.365-0.892-0.543c-0.973-0.578-1.953-1.146-2.941-1.702
	c-0.118-0.066-0.237-0.129-0.355-0.195c-0.872-0.487-1.748-0.968-2.631-1.438c-0.342-0.182-0.69-0.357-1.034-0.536
	c-0.663-0.346-1.326-0.691-1.995-1.027c-0.405-0.203-0.815-0.399-1.222-0.599c-0.616-0.302-1.231-0.603-1.852-0.896
	c-0.117-0.055-0.234-0.107-0.351-0.162l-17.919,18.722c17.314,6.817,32.92,16.86,46.117,29.364c0.103-0.067,0.204-0.132,0.306-0.199
	c0.559-0.362,1.109-0.719,1.65-1.069c0.467-0.303,0.927-0.601,1.381-0.895c0.233-0.151,0.463-0.3,0.692-0.449
	c2.766-1.792,5.26-3.408,7.384-4.785c0.017-0.011,0.034-0.022,0.051-0.033c0.77-0.499,1.486-0.963,2.154-1.396
	c0.317-0.205,0.623-0.404,0.916-0.594c0.171-0.111,0.337-0.218,0.499-0.323c0.383-0.248,0.748-0.485,1.081-0.701
	C375.502,86.185,375.954,84.926,375.732,83.747z"/>
<g>
</g>
<g>
</g>
<g>
</g>
<g>
</g>
<g>
</g>
<g>
</g>
<g>
</g>
<g>
</g>
<g>
</g>
<g>
</g>
<g>
</g>
<g>
</g>
<g>
</g>
<g>
</g>
<g>
</g>
</svg>
