<?xml version="1.0" encoding="iso-8859-1"?>
<!-- Generator: Adobe Illustrator 19.0.0, SVG Export Plug-In . SVG Version: 6.00 Build 0)  -->
<svg version="1.1" id="Capa_1" xmlns="http://www.w3.org/2000/svg" xmlns:xlink="http://www.w3.org/1999/xlink" x="0px" y="0px"
	 viewBox="0 0 512 512" style="enable-background:new 0 0 512 512;" xml:space="preserve">
<circle style="fill:#FDC74F;" cx="119.706" cy="70.59" r="70.59"/>
<path style="fill:#EAB242;" d="M119.702,0C109.4,0,99.624,2.225,90.799,6.192c24.571,11.045,41.69,35.716,41.69,64.401
	s-17.119,53.356-41.69,64.401c8.824,3.967,18.601,6.192,28.903,6.192c38.987,0,70.593-31.606,70.593-70.593
	C190.295,31.605,158.69,0,119.702,0z"/>
<circle style="fill:#FFFFBB;" cx="119.706" cy="70.59" r="47.15"/>
<g>
	<path style="fill:#FDC74F;" d="M119.702,55.657c-4.324,0-7.829-3.505-7.829-7.829v-3.312c0-4.324,3.505-7.829,7.829-7.829
		s7.829,3.505,7.829,7.829v3.312C127.531,52.152,124.026,55.657,119.702,55.657z"/>
	<path style="fill:#FDC74F;" d="M96.937,78.422h-3.311c-4.324,0-7.829-3.505-7.829-7.829c0-4.324,3.505-7.829,7.829-7.829h3.311
		c4.324,0,7.829,3.505,7.829,7.829C104.766,74.916,101.261,78.422,96.937,78.422z"/>
	<path style="fill:#FDC74F;" d="M103.605,62.324c-2.004,0-4.007-0.764-5.535-2.293l-2.342-2.342
		c-3.058-3.057-3.058-8.014-0.001-11.072c3.057-3.058,8.014-3.058,11.072-0.001l2.342,2.342c3.058,3.057,3.058,8.014,0.001,11.072
		C107.613,61.56,105.609,62.324,103.605,62.324z"/>
	<path style="fill:#FDC74F;" d="M135.799,62.324c-2.004,0-4.007-0.765-5.536-2.293c-3.058-3.057-3.058-8.014,0-11.072l2.342-2.342
		c3.057-3.057,8.014-3.057,11.072,0c3.058,3.057,3.058,8.014,0,11.072l-2.342,2.342C139.807,61.56,137.803,62.324,135.799,62.324z"
		/>
	<path style="fill:#FDC74F;" d="M101.263,96.861c-2.004,0-4.007-0.765-5.536-2.293c-3.058-3.057-3.058-8.014,0-11.072l2.342-2.342
		c3.057-3.057,8.014-3.057,11.072,0s3.058,8.014,0,11.072l-2.342,2.342C105.27,96.096,103.267,96.861,101.263,96.861z"/>
</g>
<path style="fill:#E5F9F6;" d="M461.373,64.576h-340.16c-0.834,0-1.51,0.676-1.51,1.51v7.312c0,42.404,28.949,78.042,68.162,88.238
	c13.66,3.552,23.983,14.759,26.384,28.668l9.952,57.644c3.226,18.686,13.884,34.488,28.621,44.587
	c14.941,10.239,24.064,27.013,24.064,45.126V460.17c-5.636,1.509-9.792,6.637-9.792,12.749l0,0c0,0.35,0.014,0.697,0.041,1.04
	c0.264,3.335-1.823,6.389-5.101,7.056c-30.628,6.236-74.313,16.104-74.313,21.654c0,8.546,103.573,9.331,103.573,9.331
	s103.573-0.785,103.573-9.331c0-5.769-47.197-16.202-77.87-22.374c-3.084-0.621-5.349-3.385-5.146-6.525
	c0.018-0.282,0.027-0.566,0.027-0.852l0,0c0-4.707-2.469-8.829-6.176-11.169V337.66c0-18.113,9.123-34.887,24.064-45.126
	c14.737-10.099,25.395-25.901,28.621-44.587l9.952-57.644c2.401-13.909,12.724-25.116,26.384-28.668
	c39.212-10.197,68.162-45.834,68.162-88.238v-7.312C462.883,65.252,462.207,64.576,461.373,64.576z"/>
<path style="fill:#D6E5E2;" d="M461.373,64.576h-53.452c-3.983,38.111-31.426,69.239-67.644,78.657
	c-13.66,3.552-23.983,14.759-26.384,28.668l-9.952,57.644c-3.226,18.686-13.884,34.488-28.621,44.587
	c-8.043,5.512-14.379,12.928-18.535,21.417c12.564,10.349,20.099,25.67,20.099,42.112v2.818V460.17
	c-0.518,0.139-1.018,0.318-1.509,0.515c-0.085,0.034-0.17,0.067-0.254,0.103c-0.489,0.209-0.963,0.445-1.42,0.709
	c-0.025,0.015-0.049,0.031-0.074,0.045c-3.906,2.292-6.535,6.52-6.535,11.377l0,0c0,0.35,0.014,0.697,0.041,1.04
	c0.264,3.335-1.823,6.389-5.101,7.056c-2.778,0.566-5.664,1.161-8.615,1.781c0.191,2.799,2.302,5.164,5.121,5.731
	c30.57,6.151,77.548,16.534,77.863,22.315c27.916-1.181,58.463-3.532,58.463-8.173c0-5.769-47.197-16.202-77.87-22.374
	c-3.084-0.621-5.349-3.386-5.146-6.525c0.018-0.275,0.026-0.552,0.027-0.831l0,0c0-0.007,0.001-0.014,0.001-0.021l0,0
	c0-4.707-2.469-8.829-6.176-11.169v-121.27v-2.818c0-18.113,9.123-34.887,24.064-45.126c14.737-10.099,25.395-25.901,28.621-44.587
	l9.952-57.644c2.401-13.909,12.724-25.116,26.384-28.668c39.212-10.197,68.162-45.834,68.162-88.238v-7.312
	C462.883,65.252,462.207,64.576,461.373,64.576z"/>
<path style="fill:#B0EFFE;" d="M122.317,95.089c7.93,32.483,33.248,58.149,65.547,66.548c13.66,3.552,23.983,14.759,26.384,28.668
	l9.952,57.644c3.966,22.974,19.166,41.588,39.369,50.604c7.434,3.317,48.014,3.317,55.448,0
	c20.203-9.016,35.403-27.63,39.369-50.604l9.952-57.644c2.401-13.909,12.724-25.116,26.384-28.668
	c32.298-8.399,57.616-34.064,65.547-66.548L122.317,95.089L122.317,95.089z"/>
<path style="fill:#90D8E0;" d="M399.146,95.089c-11.553,23.561-32.964,41.408-58.869,48.144
	c-13.66,3.552-23.983,14.759-26.384,28.668l-9.952,57.644c-3.226,18.686-13.884,34.488-28.621,44.587
	c-7.921,5.428-14.175,12.708-18.332,21.035c2.126,1.242,4.32,2.377,6.581,3.386c7.434,3.317,48.014,3.317,55.448,0
	c3.777-1.686,7.379-3.707,10.765-6.029c0.821-0.563,1.625-1.149,2.42-1.747c0.163-0.122,0.326-0.244,0.487-0.368
	c0.771-0.591,1.531-1.196,2.276-1.819c0.127-0.106,0.252-0.216,0.378-0.323c0.695-0.589,1.378-1.192,2.049-1.809
	c0.096-0.089,0.195-0.174,0.29-0.263c0.715-0.665,1.413-1.349,2.099-2.044c0.148-0.15,0.294-0.3,0.44-0.451
	c0.683-0.706,1.355-1.422,2.008-2.157c0.069-0.078,0.135-0.158,0.204-0.236c0.611-0.695,1.207-1.404,1.79-2.124
	c0.113-0.14,0.228-0.278,0.34-0.418c0.606-0.76,1.195-1.535,1.769-2.323c0.118-0.162,0.235-0.327,0.352-0.491
	c0.577-0.806,1.142-1.621,1.684-2.454c0.01-0.015,0.02-0.029,0.029-0.044c0.548-0.843,1.072-1.704,1.584-2.573
	c0.104-0.176,0.208-0.352,0.311-0.53c0.491-0.852,0.966-1.715,1.421-2.591c0.079-0.153,0.155-0.308,0.234-0.461
	c0.423-0.83,0.832-1.67,1.222-2.52c0.052-0.112,0.106-0.223,0.157-0.336c0.412-0.911,0.8-1.835,1.174-2.768
	c0.08-0.2,0.159-0.401,0.237-0.602c0.365-0.94,0.716-1.888,1.041-2.848c0.037-0.11,0.07-0.221,0.107-0.331
	c0.3-0.903,0.58-1.816,0.844-2.736c0.05-0.176,0.103-0.351,0.152-0.528c0.27-0.974,0.519-1.958,0.747-2.95
	c0.048-0.207,0.093-0.416,0.138-0.624c0.227-1.028,0.438-2.061,0.619-3.107l9.952-57.644c0.15-0.869,0.331-1.728,0.542-2.575
	c1.687-6.776,5.282-12.799,10.213-17.45c4.315-4.07,9.652-7.089,15.629-8.643c0.004-0.001,0.008-0.002,0.012-0.003
	c1.126-0.293,2.242-0.612,3.351-0.947c0.357-0.108,0.711-0.225,1.066-0.337c0.758-0.239,1.513-0.484,2.262-0.742
	c0.407-0.14,0.811-0.285,1.215-0.43c0.704-0.254,1.403-0.516,2.098-0.787c0.399-0.155,0.798-0.309,1.195-0.47
	c0.744-0.301,1.481-0.616,2.215-0.936c0.325-0.142,0.653-0.277,0.975-0.422c1.026-0.462,2.043-0.941,3.049-1.44
	c0.281-0.14,0.557-0.289,0.837-0.432c0.733-0.373,1.462-0.751,2.183-1.143c0.41-0.223,0.815-0.454,1.221-0.683
	c0.583-0.329,1.164-0.662,1.739-1.003c0.434-0.257,0.865-0.518,1.294-0.782c0.542-0.334,1.079-0.675,1.613-1.02
	c0.43-0.277,0.86-0.552,1.285-0.836c0.544-0.364,1.079-0.739,1.615-1.115c0.437-0.306,0.877-0.608,1.308-0.921
	c0.801-0.582,1.591-1.176,2.372-1.783c0.466-0.362,0.921-0.737,1.38-1.109c0.405-0.328,0.812-0.655,1.212-0.99
	c0.481-0.403,0.955-0.814,1.427-1.227c0.357-0.312,0.712-0.626,1.065-0.943c0.488-0.44,0.973-0.883,1.451-1.333
	c0.307-0.288,0.608-0.582,0.91-0.874c0.506-0.489,1.012-0.978,1.507-1.479c0.156-0.158,0.307-0.321,0.462-0.481
	c1.252-1.287,2.472-2.607,3.647-3.967c0.022-0.026,0.045-0.05,0.068-0.076c0.541-0.627,1.067-1.266,1.591-1.907
	c0.166-0.203,0.334-0.405,0.498-0.61c0.507-0.632,1.004-1.272,1.494-1.917c0.154-0.203,0.307-0.407,0.459-0.611
	c0.506-0.678,1.006-1.361,1.494-2.054c0.074-0.105,0.146-0.212,0.219-0.317c2.235-3.204,4.271-6.557,6.088-10.044
	c0.042-0.081,0.085-0.161,0.127-0.242c0.44-0.85,0.866-1.708,1.28-2.573c0.031-0.065,0.062-0.131,0.093-0.197
	c2.164-4.558,3.961-9.323,5.354-14.259c0.014-0.05,0.029-0.101,0.043-0.151c0.274-0.978,0.533-1.963,0.776-2.954
	c0-0.001,0-0.001,0-0.002h-61.125V95.089z"/>
<g>
</g>
<g>
</g>
<g>
</g>
<g>
</g>
<g>
</g>
<g>
</g>
<g>
</g>
<g>
</g>
<g>
</g>
<g>
</g>
<g>
</g>
<g>
</g>
<g>
</g>
<g>
</g>
<g>
</g>
</svg>
