<?xml version="1.0" encoding="iso-8859-1"?>
<!-- Generator: Adobe Illustrator 19.0.0, SVG Export Plug-In . SVG Version: 6.00 Build 0)  -->
<svg version="1.1" id="Capa_1" xmlns="http://www.w3.org/2000/svg" xmlns:xlink="http://www.w3.org/1999/xlink" x="0px" y="0px"
	 viewBox="0 0 512.003 512.003" style="enable-background:new 0 0 512.003 512.003;" xml:space="preserve">
<path style="fill:#306318;" d="M200.349,78.77V30.358h-46.3V78.77c0,39.362-8.923,78.212-26.097,113.629l0,0
	c-17.175,35.417-26.097,74.267-26.097,113.629v181.881c0,13.305,10.786,24.091,24.091,24.091h102.506
	c13.305,0,24.091-10.786,24.091-24.091V306.028c0-39.362-8.923-78.211-26.097-113.629l0,0
	C209.271,156.981,200.349,118.132,200.349,78.77z"/>
<path style="fill:#2C5114;" d="M250.34,497.986c0.002-0.005,0.004-0.01,0.007-0.015c0.028-0.06,0.055-0.12,0.083-0.181
	c0.018-0.04,0.035-0.08,0.053-0.119c0.024-0.055,0.049-0.11,0.073-0.166c0.011-0.025,0.022-0.05,0.032-0.076
	c0.006-0.014,0.012-0.028,0.018-0.042c0.026-0.06,0.052-0.121,0.077-0.181c0.009-0.022,0.019-0.045,0.028-0.068
	c0.007-0.016,0.014-0.032,0.02-0.048c0.023-0.057,0.046-0.113,0.069-0.17c0.017-0.042,0.034-0.085,0.051-0.127
	c0.022-0.056,0.044-0.112,0.066-0.167c0.01-0.026,0.02-0.052,0.03-0.078c0.005-0.014,0.011-0.029,0.017-0.043
	c0.025-0.065,0.049-0.13,0.073-0.195c0.011-0.031,0.023-0.062,0.035-0.093c0.001-0.002,0.002-0.004,0.002-0.007
	c0.072-0.197,0.142-0.395,0.209-0.595c0.005-0.016,0.011-0.032,0.016-0.048c0.006-0.017,0.011-0.034,0.017-0.052
	c0.022-0.067,0.045-0.134,0.066-0.201c0.007-0.022,0.014-0.044,0.021-0.065c0.006-0.019,0.012-0.038,0.018-0.056
	c0.018-0.059,0.037-0.117,0.055-0.176c0.003-0.008,0.005-0.016,0.008-0.025c0.011-0.035,0.021-0.07,0.032-0.106
	c0.017-0.058,0.035-0.116,0.052-0.175c0.004-0.012,0.007-0.024,0.01-0.036c0.009-0.03,0.017-0.059,0.026-0.089
	c0.018-0.062,0.035-0.123,0.052-0.185c0.001-0.005,0.003-0.01,0.004-0.016c0.01-0.035,0.02-0.07,0.029-0.105
	c0.018-0.065,0.035-0.13,0.052-0.195c0.01-0.038,0.021-0.077,0.03-0.115c0.019-0.074,0.038-0.148,0.056-0.222
	c0.007-0.028,0.014-0.056,0.021-0.084c0.051-0.209,0.1-0.419,0.145-0.63c0.001-0.005,0.002-0.01,0.003-0.016
	c0.004-0.019,0.008-0.038,0.012-0.057c0.017-0.079,0.033-0.158,0.05-0.237c0.009-0.045,0.018-0.089,0.026-0.134
	c0.012-0.061,0.024-0.123,0.036-0.184c0.008-0.04,0.015-0.081,0.022-0.121c0.012-0.065,0.023-0.129,0.035-0.194
	c0.003-0.016,0.005-0.031,0.008-0.047c0.005-0.027,0.01-0.054,0.014-0.081c0.011-0.068,0.023-0.135,0.033-0.203
	c0.002-0.015,0.005-0.03,0.007-0.046c0.004-0.026,0.008-0.051,0.012-0.077c0.011-0.069,0.021-0.139,0.031-0.208
	c0-0.003,0.001-0.006,0.001-0.009c0.005-0.032,0.01-0.064,0.014-0.097c0.012-0.082,0.023-0.164,0.034-0.246
	c0.003-0.025,0.007-0.05,0.01-0.076c0.028-0.217,0.053-0.435,0.075-0.654c0.003-0.027,0.005-0.055,0.008-0.082
	c0.008-0.082,0.016-0.163,0.023-0.245c0.001-0.016,0.003-0.033,0.004-0.049c0.002-0.023,0.004-0.046,0.006-0.069
	c0.006-0.068,0.011-0.137,0.016-0.205c0.003-0.039,0.005-0.078,0.008-0.116c0-0.003,0-0.006,0.001-0.01
	c0.005-0.066,0.009-0.132,0.013-0.198c0.003-0.043,0.005-0.086,0.007-0.129v-0.006c0.004-0.068,0.007-0.136,0.01-0.205
	c0.002-0.041,0.004-0.081,0.005-0.122c0.003-0.076,0.006-0.151,0.008-0.227c0.001-0.022,0.001-0.044,0.002-0.065
	c0-0.015,0.001-0.029,0.001-0.043c0.002-0.077,0.004-0.154,0.005-0.231c0-0.028,0.001-0.055,0.002-0.083c0-0.005,0-0.009,0-0.013
	c0.002-0.113,0.002-0.226,0.002-0.339V306.028c0-0.833-0.004-1.666-0.012-2.499c-0.001-0.079-0.001-0.159-0.002-0.238
	c-0.003-0.253-0.006-0.505-0.009-0.758c-0.001-0.047-0.001-0.095-0.002-0.142c-0.003-0.216-0.007-0.433-0.01-0.649
	c-0.001-0.092-0.003-0.183-0.004-0.275c-0.003-0.196-0.007-0.392-0.011-0.588c-0.002-0.108-0.004-0.217-0.006-0.325
	c-0.004-0.182-0.008-0.365-0.012-0.547c-0.003-0.124-0.005-0.248-0.009-0.372c-0.005-0.184-0.01-0.368-0.015-0.553
	c-0.003-0.118-0.006-0.235-0.009-0.353c-0.005-0.195-0.011-0.39-0.017-0.584c-0.003-0.109-0.006-0.217-0.01-0.326
	c-0.006-0.189-0.012-0.379-0.019-0.568c-0.004-0.117-0.008-0.233-0.012-0.35c-0.006-0.183-0.013-0.366-0.02-0.548
	c-0.004-0.12-0.009-0.24-0.013-0.36c-0.007-0.185-0.015-0.37-0.022-0.555c-0.005-0.119-0.01-0.238-0.015-0.357
	c-0.008-0.18-0.016-0.36-0.024-0.54c-0.005-0.126-0.011-0.251-0.017-0.377c-0.008-0.179-0.017-0.357-0.025-0.536
	c-0.006-0.124-0.012-0.247-0.018-0.37c-0.009-0.18-0.018-0.359-0.027-0.539c-0.006-0.125-0.013-0.251-0.019-0.376
	c-0.009-0.169-0.018-0.339-0.027-0.508c-0.007-0.137-0.015-0.275-0.023-0.412c-0.009-0.165-0.019-0.329-0.028-0.494
	c-0.008-0.138-0.016-0.276-0.024-0.414c-0.01-0.164-0.02-0.328-0.03-0.492c-0.009-0.14-0.017-0.281-0.026-0.421
	c-0.011-0.168-0.022-0.336-0.033-0.504c-0.009-0.132-0.017-0.264-0.026-0.396c-0.012-0.176-0.024-0.352-0.036-0.528
	c-0.009-0.126-0.017-0.253-0.026-0.379c-0.012-0.173-0.025-0.347-0.037-0.52c-0.01-0.133-0.019-0.265-0.029-0.398
	c-0.012-0.162-0.024-0.323-0.036-0.485c-0.011-0.146-0.022-0.291-0.033-0.437c-0.012-0.16-0.025-0.32-0.038-0.48
	c-0.011-0.136-0.022-0.272-0.033-0.408c-0.014-0.174-0.028-0.348-0.043-0.522c-0.011-0.131-0.022-0.263-0.033-0.394
	c-0.013-0.157-0.027-0.314-0.04-0.471c-0.013-0.151-0.026-0.302-0.039-0.453c-0.014-0.159-0.028-0.319-0.043-0.478
	c-0.012-0.136-0.025-0.272-0.037-0.409c-0.016-0.17-0.031-0.34-0.047-0.51c-0.012-0.13-0.024-0.259-0.037-0.389
	c-0.016-0.172-0.033-0.344-0.049-0.515c-0.013-0.137-0.027-0.274-0.04-0.41c-0.015-0.156-0.031-0.312-0.047-0.467
	c-0.015-0.152-0.031-0.303-0.046-0.455c-0.015-0.148-0.031-0.297-0.046-0.445c-0.015-0.149-0.031-0.298-0.047-0.447
	c-0.017-0.162-0.034-0.325-0.052-0.487c-0.015-0.138-0.03-0.275-0.045-0.413c-0.018-0.161-0.035-0.321-0.053-0.482
	c-0.015-0.139-0.031-0.278-0.047-0.417c-0.019-0.165-0.037-0.331-0.056-0.496c-0.016-0.14-0.032-0.281-0.049-0.422
	c-0.018-0.157-0.037-0.314-0.055-0.471c-0.016-0.14-0.033-0.279-0.05-0.419c-0.02-0.167-0.04-0.334-0.061-0.502
	c-0.017-0.139-0.034-0.278-0.051-0.417c-0.019-0.153-0.038-0.305-0.057-0.458c-0.019-0.15-0.037-0.299-0.056-0.448
	c-0.02-0.158-0.04-0.316-0.061-0.474c-0.019-0.145-0.037-0.29-0.056-0.435c-0.019-0.149-0.039-0.298-0.059-0.448
	c-0.02-0.152-0.041-0.304-0.061-0.457c-0.021-0.153-0.041-0.305-0.062-0.458c-0.02-0.146-0.04-0.292-0.06-0.439
	c-0.021-0.155-0.043-0.309-0.064-0.464c-0.02-0.146-0.041-0.292-0.062-0.438c-0.022-0.153-0.043-0.306-0.065-0.459
	c-0.021-0.145-0.042-0.29-0.063-0.435c-0.023-0.158-0.046-0.317-0.069-0.475c-0.021-0.141-0.042-0.282-0.062-0.422
	c-0.023-0.158-0.047-0.317-0.071-0.475c-0.021-0.143-0.043-0.285-0.065-0.428c-0.024-0.156-0.047-0.313-0.071-0.469
	c-0.023-0.149-0.046-0.298-0.069-0.448c-0.023-0.146-0.045-0.292-0.068-0.438c-0.025-0.157-0.049-0.313-0.074-0.47
	c-0.024-0.148-0.047-0.297-0.071-0.445c-0.022-0.136-0.044-0.271-0.066-0.407c-0.027-0.167-0.054-0.334-0.082-0.5
	c-0.023-0.137-0.045-0.274-0.068-0.411c-0.026-0.157-0.052-0.314-0.078-0.471c-0.025-0.151-0.051-0.301-0.077-0.452
	c-0.025-0.147-0.05-0.293-0.075-0.44c-0.027-0.157-0.054-0.314-0.082-0.471c-0.025-0.144-0.05-0.287-0.075-0.431
	c-0.025-0.146-0.051-0.291-0.077-0.436c-0.027-0.153-0.054-0.307-0.082-0.46c-0.028-0.156-0.056-0.312-0.084-0.469
	c-0.025-0.14-0.051-0.28-0.076-0.42c-0.028-0.156-0.057-0.312-0.086-0.467c-0.027-0.145-0.053-0.289-0.08-0.434
	c-0.028-0.151-0.057-0.303-0.085-0.454c-0.027-0.146-0.054-0.291-0.082-0.437c-0.028-0.15-0.057-0.301-0.086-0.451
	c-0.029-0.15-0.057-0.3-0.086-0.45c-0.026-0.136-0.053-0.272-0.08-0.409c-0.032-0.162-0.063-0.324-0.095-0.486
	c-0.026-0.134-0.053-0.269-0.08-0.403c-0.032-0.162-0.064-0.324-0.097-0.485c-0.034-0.169-0.068-0.338-0.102-0.507
	c-0.025-0.123-0.049-0.246-0.075-0.368c-0.035-0.17-0.07-0.339-0.104-0.508c-0.027-0.133-0.055-0.266-0.082-0.399
	c-0.031-0.147-0.062-0.294-0.092-0.441c-0.031-0.148-0.062-0.295-0.093-0.443c-0.035-0.166-0.071-0.332-0.106-0.497
	c-0.028-0.131-0.056-0.262-0.084-0.394c-0.028-0.13-0.056-0.26-0.084-0.389c-0.037-0.17-0.073-0.339-0.11-0.509
	c-0.024-0.109-0.048-0.218-0.072-0.328c-0.04-0.183-0.08-0.365-0.121-0.548c-0.066-0.297-0.132-0.593-0.199-0.89
	c-0.067-0.298-0.135-0.596-0.204-0.894c-4.377-19.06-10.902-37.626-19.489-55.335l0,0c-17.174-35.417-26.097-74.267-26.097-113.629
	V30.358h-46.3V78.77c0,0.293-0.001,0.586-0.002,0.878c0,0.087-0.001,0.174-0.001,0.262c-0.001,0.203-0.002,0.406-0.003,0.609
	c-0.001,0.112-0.002,0.223-0.003,0.335c-0.001,0.182-0.003,0.365-0.005,0.547c-0.001,0.114-0.003,0.229-0.004,0.343
	c-0.002,0.177-0.004,0.354-0.007,0.532c-0.002,0.12-0.003,0.239-0.005,0.359c-0.003,0.177-0.005,0.355-0.008,0.532
	c-0.002,0.114-0.004,0.228-0.006,0.342c-0.003,0.184-0.007,0.367-0.011,0.551c-0.002,0.111-0.004,0.221-0.007,0.332
	c-0.004,0.181-0.008,0.363-0.012,0.544c-0.003,0.115-0.005,0.229-0.008,0.344c-0.005,0.223-0.012,0.446-0.018,0.669
	c-0.006,0.204-0.012,0.408-0.018,0.612c-0.004,0.136-0.008,0.273-0.012,0.409c-0.005,0.152-0.01,0.304-0.015,0.456
	c-0.005,0.144-0.009,0.287-0.014,0.431c-0.005,0.141-0.01,0.281-0.015,0.422c-0.005,0.146-0.011,0.292-0.016,0.437
	c-0.006,0.152-0.012,0.305-0.018,0.457c-0.005,0.134-0.011,0.268-0.016,0.402c-0.007,0.161-0.013,0.321-0.02,0.482
	c-0.005,0.115-0.01,0.229-0.015,0.344c-0.008,0.178-0.016,0.357-0.024,0.535c-0.005,0.098-0.009,0.196-0.014,0.294
	c-0.009,0.19-0.018,0.38-0.028,0.571c-0.003,0.063-0.007,0.126-0.01,0.189c-0.038,0.741-0.078,1.482-0.122,2.222
	c-0.001,0.022-0.003,0.044-0.004,0.066c-0.014,0.231-0.028,0.462-0.042,0.693c-0.003,0.049-0.006,0.098-0.009,0.148
	c-0.014,0.221-0.028,0.442-0.043,0.663c-0.004,0.061-0.008,0.122-0.012,0.183c-0.015,0.222-0.03,0.444-0.045,0.666
	c-0.004,0.053-0.007,0.106-0.011,0.159c-0.016,0.226-0.032,0.452-0.048,0.678c-0.004,0.049-0.007,0.098-0.011,0.148
	c-0.017,0.236-0.035,0.472-0.052,0.708c-0.001,0.015-0.002,0.031-0.004,0.046c-0.12,1.593-0.255,3.183-0.404,4.772
	c-0.003,0.034-0.006,0.068-0.01,0.103c-0.023,0.243-0.046,0.486-0.07,0.73c-0.002,0.027-0.005,0.053-0.008,0.08
	c-0.025,0.253-0.05,0.506-0.075,0.759c0,0.003-0.001,0.006-0.001,0.009c-2.582,29.874,2.547,59.986,15.571,87.012
	c0.091,0.189,0.183,0.378,0.274,0.567l0,0c17.162,34.324,26.097,72.173,26.097,110.549v184.961
	c0,13.305-10.786,24.091-24.091,24.091h57.859c0.125,0,0.25-0.001,0.374-0.003c0.037-0.001,0.075-0.001,0.113-0.002
	c0.095-0.002,0.189-0.004,0.283-0.007c0.009,0,0.018-0.001,0.028-0.001c0.022-0.001,0.044-0.001,0.067-0.002
	c0.257-0.009,0.513-0.022,0.768-0.039c0.006,0,0.013-0.001,0.019-0.001c0.019-0.001,0.038-0.003,0.057-0.004
	c0.115-0.008,0.23-0.017,0.344-0.026c0.003,0,0.007-0.001,0.01-0.001c0.005,0,0.01-0.001,0.014-0.001
	c3.683-0.316,7.128-1.463,10.151-3.248c0.234-0.138,0.464-0.281,0.693-0.427c0.315-0.201,0.626-0.409,0.931-0.624
	c3.342-2.354,6.062-5.531,7.854-9.243c0.003-0.006,0.006-0.011,0.009-0.017c0.045-0.094,0.089-0.188,0.133-0.282
	C250.314,498.043,250.327,498.014,250.34,497.986z"/>
<path style="fill:#FFE5B8;" d="M154.049,78.77c0,39.362-8.923,78.212-26.097,113.629l0,0c-2.012,4.15-3.911,8.347-5.696,12.586
	c-0.01,0.041-0.024,0.082-0.041,0.122c14.886,4.123,34.055,6.607,54.984,6.607c20.848,0,40.126-2.525,54.989-6.62
	c-0.098-0.234-0.197-0.467-0.296-0.701c-0.017-0.04-0.034-0.081-0.051-0.121c-0.092-0.217-0.185-0.435-0.278-0.652
	c-0.023-0.054-0.046-0.108-0.069-0.162c-0.088-0.205-0.176-0.41-0.265-0.615c-0.03-0.071-0.061-0.141-0.091-0.212
	c-0.078-0.18-0.156-0.36-0.234-0.539c-0.044-0.102-0.088-0.203-0.133-0.305c-0.072-0.165-0.144-0.33-0.217-0.494
	c-0.046-0.106-0.093-0.211-0.139-0.317c-0.075-0.17-0.15-0.34-0.226-0.51c-0.044-0.099-0.088-0.198-0.131-0.296
	c-0.077-0.172-0.154-0.345-0.231-0.517c-0.046-0.102-0.091-0.203-0.137-0.305c-0.073-0.161-0.145-0.323-0.218-0.484
	c-0.054-0.119-0.107-0.237-0.161-0.356c-0.068-0.151-0.137-0.302-0.206-0.453c-0.053-0.117-0.107-0.234-0.16-0.351
	c-0.072-0.157-0.143-0.313-0.215-0.47c-0.057-0.124-0.114-0.248-0.171-0.371c-0.063-0.137-0.126-0.273-0.19-0.41
	c-0.063-0.136-0.127-0.273-0.191-0.41c-0.067-0.143-0.133-0.286-0.2-0.428c-0.059-0.125-0.117-0.25-0.176-0.375
	c-0.065-0.139-0.13-0.277-0.196-0.416c-0.069-0.146-0.139-0.293-0.208-0.439c-0.06-0.125-0.119-0.251-0.179-0.376
	c-0.081-0.17-0.162-0.34-0.244-0.51c-0.046-0.096-0.092-0.193-0.138-0.289c-0.13-0.271-0.26-0.541-0.391-0.811l0,0
	c-0.003-0.006-0.006-0.012-0.009-0.018c-17.169-35.412-26.088-74.255-26.088-113.61V30.358h-46.3L154.049,78.77L154.049,78.77z"/>
<path style="fill:#F2D6AF;" d="M154.047,79.649c0,0.086-0.001,0.172-0.001,0.258c-0.001,0.204-0.002,0.409-0.003,0.613
	c-0.001,0.109-0.002,0.219-0.002,0.328c-0.001,0.185-0.003,0.371-0.005,0.556c-0.001,0.111-0.002,0.221-0.004,0.332
	c-0.002,0.182-0.004,0.364-0.007,0.547c-0.001,0.114-0.003,0.228-0.005,0.342c-0.003,0.186-0.006,0.372-0.009,0.559
	c-0.002,0.104-0.004,0.209-0.005,0.313c-0.004,0.199-0.007,0.398-0.012,0.596c-0.002,0.095-0.004,0.189-0.006,0.284
	c-0.005,0.211-0.01,0.422-0.015,0.633c-0.002,0.084-0.004,0.168-0.006,0.253c-0.006,0.241-0.012,0.483-0.019,0.724
	c-0.005,0.18-0.01,0.361-0.016,0.541c-0.004,0.149-0.009,0.297-0.013,0.446c-0.004,0.14-0.009,0.28-0.014,0.42
	c-0.005,0.157-0.01,0.315-0.016,0.472c-0.005,0.137-0.01,0.274-0.015,0.41c-0.005,0.145-0.011,0.289-0.016,0.434
	c-0.006,0.154-0.012,0.308-0.018,0.462c-0.005,0.136-0.011,0.272-0.017,0.408c-0.006,0.155-0.013,0.309-0.02,0.464
	c-0.006,0.127-0.011,0.254-0.017,0.38c-0.007,0.164-0.015,0.328-0.022,0.491c-0.006,0.127-0.012,0.253-0.018,0.38
	c-0.008,0.159-0.015,0.319-0.023,0.478c-0.006,0.114-0.012,0.228-0.018,0.341c-0.034,0.671-0.071,1.341-0.111,2.011
	c-0.003,0.054-0.006,0.107-0.009,0.161c-0.012,0.207-0.025,0.413-0.038,0.62c-0.005,0.078-0.01,0.157-0.015,0.235
	c-0.012,0.19-0.024,0.381-0.037,0.571c-0.006,0.098-0.013,0.196-0.019,0.294c-0.013,0.194-0.026,0.387-0.039,0.581
	c-0.006,0.08-0.011,0.159-0.017,0.239c-0.014,0.208-0.029,0.415-0.044,0.622c-0.005,0.067-0.01,0.135-0.015,0.202
	c-0.016,0.214-0.031,0.429-0.047,0.643c-0.004,0.058-0.009,0.115-0.013,0.173c-0.078,1.033-0.163,2.066-0.254,3.098
	c-0.001,0.007-0.001,0.014-0.002,0.022c-0.021,0.236-0.042,0.473-0.063,0.709c-0.004,0.045-0.008,0.09-0.012,0.135
	c-0.02,0.22-0.041,0.44-0.061,0.66c-0.006,0.063-0.012,0.127-0.018,0.191c-0.021,0.22-0.042,0.441-0.063,0.661
	c-0.005,0.05-0.01,0.1-0.015,0.15c-0.023,0.234-0.046,0.469-0.07,0.703c-0.001,0.01-0.002,0.021-0.003,0.031
	c-2.58,29.872,2.549,59.981,15.572,87.005c0.091,0.189,0.183,0.378,0.274,0.567l0,0c3.162,6.325,6.045,12.77,8.645,19.315
	c20.835-0.003,40.101-2.527,54.956-6.62l0,0c-1.798-4.276-3.712-8.51-5.742-12.695l0,0c-17.174-35.417-26.097-74.267-26.097-113.629
	V30.358h-46.3V78.77C154.049,79.063,154.048,79.356,154.047,79.649z"/>
<path style="fill:#E5C498;" d="M201.632,68.031h-48.867c-2.499,0-4.525-2.026-4.525-4.526V4.526c0-2.499,2.026-4.526,4.525-4.526
	h48.867c2.499,0,4.526,2.026,4.526,4.526v58.98C206.158,66.004,204.131,68.031,201.632,68.031z"/>
<ellipse style="fill:#FC502A;" cx="177.201" cy="211.71" rx="27.565" ry="23.308"/>
<path style="fill:#FD9727;" d="M219.038,439.4h-83.679c-4.04,0-7.315-3.275-7.315-7.315V326.641c0-4.04,3.275-7.315,7.315-7.315
	h83.679c4.04,0,7.315,3.275,7.315,7.315v105.444C226.353,436.125,223.078,439.4,219.038,439.4z"/>
<path style="fill:#CDEAE0;" d="M198.545,365.044c0-12.032-9.955-21.739-22.077-21.334c-11.595,0.387-20.615,10.292-20.615,21.893
	v21.647c0,1.686,1.367,3.053,3.053,3.053h36.587c1.686,0,3.053-1.367,3.053-3.053L198.545,365.044L198.545,365.044z"/>
<path style="fill:#FFFFFF;" d="M198.545,422.332h-42.692c-4.328,0-7.836-3.508-7.836-7.836s3.508-7.836,7.836-7.836h42.692
	c4.328,0,7.836,3.508,7.836,7.836S202.873,422.332,198.545,422.332z"/>
<polygon style="fill:#FD9727;" points="148.24,34.015 206.157,34.015 206.158,34.015 206.158,18.343 206.157,18.343 148.24,18.343 
	"/>
<path style="fill:#D7E0DC;" d="M361.738,338.693c-4.328,0-7.836,3.508-7.836,7.836v157.418c0,4.328,3.508,7.836,7.836,7.836
	s7.836-3.508,7.836-7.836V346.529C369.574,342.201,366.066,338.693,361.738,338.693z"/>
<path style="fill:#DFEDE7;" d="M394.883,203.992h-66.29c-2.162,0-4,1.575-4.331,3.712c-1.975,12.764-8.251,55.751-8.251,86.481
	c0,83.352,45.727,98.49,45.727,98.49s45.726-15.138,45.726-98.49c0-30.729-6.276-73.716-8.251-86.481
	C398.883,205.568,397.046,203.992,394.883,203.992z"/>
<g>
	<path style="fill:#D7E0DC;" d="M399.214,207.705c-0.331-2.137-2.168-3.712-4.331-3.712h-54.115c0,0,8.838,53.727,8.838,90.193
		c0,34.224-7.71,56.941-16.797,71.838c13.045,21.386,28.929,26.651,28.929,26.651s45.726-15.138,45.726-98.49
		C407.465,263.456,401.189,220.469,399.214,207.705z"/>
	<path style="fill:#D7E0DC;" d="M373.357,484.954c-8.221-3.803-17.716-3.803-25.937,0c-15.516,7.178-36.79,11.818-36.79,18.471
		c0,7.052,22.278,8.358,49.759,8.358s49.759-1.306,49.759-8.358C410.148,496.772,388.874,492.132,373.357,484.954z"/>
</g>
<path style="fill:#306318;" d="M318.487,252.748c-1.4,13.905-2.475,28.72-2.475,41.437c0,83.352,45.727,98.49,45.727,98.49
	s45.726-15.138,45.726-98.49c0-12.717-1.075-27.532-2.475-41.437H318.487z"/>
<path style="fill:#2C5114;" d="M407.465,294.185c0-1.435-0.018-2.905-0.044-4.389c-0.005-0.275-0.009-0.549-0.015-0.826
	c-0.03-1.44-0.071-2.9-0.123-4.376c-0.009-0.266-0.02-0.533-0.03-0.8c-0.057-1.515-0.122-3.041-0.2-4.584
	c-0.001-0.026-0.002-0.051-0.004-0.076c-0.08-1.581-0.173-3.177-0.272-4.778c-0.017-0.266-0.033-0.532-0.05-0.799
	c-0.1-1.564-0.208-3.135-0.324-4.71c-0.016-0.221-0.033-0.442-0.05-0.662c-0.122-1.62-0.249-3.243-0.385-4.863
	c-0.001-0.01-0.002-0.019-0.002-0.029c-0.138-1.647-0.285-3.291-0.436-4.929c-0.021-0.228-0.042-0.456-0.063-0.683
	c-0.149-1.602-0.304-3.198-0.463-4.782c-0.005-0.051-0.01-0.101-0.015-0.151h-57.858c1.4,13.905,2.475,28.72,2.475,41.437
	c0,34.224-7.71,56.941-16.797,71.838c0.399,0.654,0.801,1.292,1.204,1.916c0.019,0.03,0.039,0.06,0.058,0.09
	c0.4,0.616,0.801,1.219,1.205,1.807c0.004,0.006,0.008,0.012,0.013,0.018c8.741,12.73,18.199,18.819,23.091,21.327
	c0.005,0.002,0.009,0.005,0.014,0.007c0.225,0.115,0.44,0.223,0.645,0.323c0.008,0.004,0.017,0.008,0.025,0.012
	c0.206,0.101,0.403,0.195,0.588,0.281c0.001,0,0.002,0.001,0.003,0.001c0.56,0.261,1.018,0.456,1.361,0.595
	c0.018,0.007,0.034,0.014,0.052,0.021c0.087,0.035,0.167,0.066,0.237,0.094c0.023,0.009,0.046,0.018,0.068,0.026
	c0.058,0.022,0.109,0.041,0.154,0.058c0.018,0.007,0.038,0.014,0.054,0.02c0.035,0.013,0.064,0.023,0.087,0.031
	c0.011,0.004,0.027,0.01,0.035,0.013c0.009,0.003,0.012,0.004,0.017,0.006c0.007,0.003,0.019,0.007,0.019,0.007
	S407.465,377.537,407.465,294.185z"/>
<g>
</g>
<g>
</g>
<g>
</g>
<g>
</g>
<g>
</g>
<g>
</g>
<g>
</g>
<g>
</g>
<g>
</g>
<g>
</g>
<g>
</g>
<g>
</g>
<g>
</g>
<g>
</g>
<g>
</g>
</svg>
