<?xml version="1.0" encoding="iso-8859-1"?>
<!-- Generator: Adobe Illustrator 19.0.0, SVG Export Plug-In . SVG Version: 6.00 Build 0)  -->
<svg version="1.1" id="Capa_1" xmlns="http://www.w3.org/2000/svg" xmlns:xlink="http://www.w3.org/1999/xlink" x="0px" y="0px"
	 viewBox="0 0 512.002 512.002" style="enable-background:new 0 0 512.002 512.002;" xml:space="preserve">
<path style="fill:#DFEDE7;" d="M404.591,361.397h-96.223c-3.585,0-6.678,2.506-7.419,6.013c-3.704,17.535-13.93,68.89-12.057,93.007
	c1.7,21.882,12.763,36.36,21.03,44.264c4.914,4.699,11.446,7.319,18.245,7.319h56.625c6.799,0,13.331-2.62,18.245-7.319
	c8.266-7.904,19.33-22.382,21.03-44.264c1.873-24.117-8.353-75.472-12.057-93.007C411.269,363.903,408.175,361.397,404.591,361.397z
	"/>
<path style="fill:#4A4256;" d="M293.348,408.144c-3.037,19.013-5.45,39.477-4.456,52.274c1.7,21.882,12.763,36.36,21.03,44.264
	c4.914,4.699,11.446,7.319,18.245,7.319h56.625c6.799,0,13.331-2.62,18.245-7.319c8.266-7.904,19.33-22.382,21.03-44.264
	c0.994-12.796-1.419-33.261-4.456-52.274L293.348,408.144L293.348,408.144z"/>
<path style="fill:#766D84;" d="M191.379,106.509V12.781h-43.725v93.729c0,29.967-7.468,59.461-21.73,85.816l-31.077,57.43
	c-4.685,8.658-7.139,18.348-7.139,28.192v212.22c0,11.939,9.679,21.618,21.618,21.618h120.379c11.939,0,21.618-9.679,21.618-21.618
	v-212.22c0-9.845-2.454-19.534-7.139-28.192l-31.077-57.43C198.847,165.97,191.379,136.476,191.379,106.509z"/>
<path style="fill:#4A4256;" d="M213.109,192.326c-9.46-17.483-15.911-36.35-19.196-55.817h-48.792
	c-3.285,19.467-9.736,38.334-19.196,55.817l-31.077,57.43c-4.685,8.658-7.139,18.348-7.139,28.192v212.221
	c0,11.939,9.679,21.618,21.618,21.618h120.379c11.939,0,21.618-9.679,21.618-21.618V277.948c0-9.845-2.454-19.534-7.139-28.192
	L213.109,192.326z"/>
<path style="fill:#352F3F;" d="M244.186,249.755l-31.077-57.43c-9.46-17.483-15.911-36.35-19.196-55.817h-48.792
	c-1.051,6.23-2.431,12.398-4.125,18.479c3.601,12.921,8.638,25.45,15.071,37.338l31.077,57.43
	c4.685,8.658,7.139,18.348,7.139,28.192v212.221c0,11.939-9.679,21.618-21.618,21.618h57.043c11.939,0,21.618-9.679,21.618-21.618
	v-212.22C251.324,268.103,248.871,258.414,244.186,249.755z"/>
<rect x="147.651" y="12.781" style="fill:#D0D4D8;" width="43.725" height="59.03"/>
<path style="fill:#FC502A;" d="M192.153,45.224h-45.272c-2.525,0-4.572-2.047-4.572-4.572V4.572c0-2.525,2.047-4.572,4.572-4.572
	h45.272c2.525,0,4.572,2.047,4.572,4.572v36.079C196.725,43.177,194.678,45.224,192.153,45.224z"/>
<path style="fill:#FFE5B8;" d="M217.712,448.971h-96.391c-3.724,0-6.743-3.019-6.743-6.743V319.741c0-3.724,3.019-6.743,6.743-6.743
	h96.392c3.724,0,6.743,3.019,6.743,6.743v122.487C224.455,445.952,221.436,448.971,217.712,448.971z"/>
<path style="fill:#EDD0A6;" d="M217.712,312.999h-23.431v135.973h23.431c3.724,0,6.743-3.019,6.743-6.742V319.741
	C224.455,316.017,221.436,312.999,217.712,312.999z"/>
<g>
	<path style="fill:#FFFFFF;" d="M197.842,361.929c-2.668,0-5.263-1.384-6.695-3.859c-3.247-5.613-12.142-9.534-21.63-9.534
		s-18.383,3.921-21.63,9.534c-2.136,3.693-6.861,4.956-10.555,2.819s-4.956-6.863-2.82-10.556
		c6.061-10.478,19.801-17.249,35.005-17.249c15.204,0,28.944,6.771,35.005,17.249c2.137,3.693,0.874,8.419-2.82,10.556
		C200.485,361.594,199.154,361.929,197.842,361.929z"/>
	<path style="fill:#FFFFFF;" d="M197.834,400.042h-56.635c-4.267,0-7.726-3.459-7.726-7.726s3.458-7.726,7.726-7.726h56.635
		c4.267,0,7.726,3.459,7.726,7.726S202.102,400.042,197.834,400.042z"/>
	<path style="fill:#FFFFFF;" d="M197.834,427.854h-56.635c-4.267,0-7.726-3.459-7.726-7.726s3.458-7.726,7.726-7.726h56.635
		c4.267,0,7.726,3.459,7.726,7.726C205.56,424.395,202.102,427.854,197.834,427.854z"/>
</g>
<path style="fill:#352F3F;" d="M424.234,457.151c0.019-0.569,0.038-1.138,0.047-1.73c0.005-0.351,0.002-0.718,0.004-1.076
	c0.002-0.544,0.006-1.085,0-1.645c-0.004-0.395-0.015-0.803-0.022-1.206c-0.011-0.546-0.021-1.091-0.038-1.65
	c-0.013-0.427-0.032-0.864-0.049-1.298c-0.022-0.555-0.044-1.11-0.072-1.677c-0.022-0.453-0.049-0.914-0.075-1.374
	c-0.032-0.567-0.065-1.135-0.103-1.713c-0.031-0.471-0.065-0.949-0.099-1.426c-0.042-0.583-0.085-1.168-0.132-1.76
	c-0.038-0.484-0.079-0.972-0.121-1.462c-0.051-0.602-0.104-1.207-0.161-1.818c-0.045-0.49-0.091-0.981-0.139-1.475
	c-0.061-0.623-0.123-1.25-0.188-1.879c-0.051-0.494-0.103-0.988-0.156-1.486c-0.069-0.638-0.14-1.28-0.213-1.924
	c-0.056-0.498-0.113-0.996-0.172-1.497c-0.077-0.655-0.157-1.313-0.237-1.971c-0.06-0.494-0.121-0.988-0.183-1.484
	c-0.086-0.681-0.175-1.364-0.264-2.047c-0.062-0.476-0.124-0.951-0.188-1.428c-0.097-0.723-0.197-1.447-0.297-2.171
	c-0.061-0.441-0.121-0.882-0.183-1.323c-0.111-0.785-0.225-1.57-0.339-2.354c-0.056-0.382-0.11-0.764-0.166-1.146
	c-0.13-0.876-0.262-1.75-0.396-2.624c-0.045-0.293-0.088-0.587-0.133-0.88c-0.179-1.164-0.361-2.325-0.546-3.481h-57.152
	c3.037,19.013,5.45,39.477,4.456,52.274c-1.934,24.898-15.991,40.21-24.256,47.159c-3.396,2.855-7.682,4.423-12.119,4.423h54.249
	c6.799,0,13.331-2.62,18.245-7.319c8.266-7.904,19.33-22.382,21.03-44.264c0.06-0.778,0.107-1.587,0.143-2.42
	C424.221,457.723,424.225,457.431,424.234,457.151z"/>
<path style="fill:#DFEDE7;" d="M297.024,487.933c3.996,7.272,8.792,12.822,12.898,16.749c4.914,4.699,11.446,7.319,18.245,7.319
	h56.625c6.799,0,13.331-2.62,18.245-7.319c4.106-3.926,8.902-9.476,12.898-16.749C414.754,488.968,298.204,488.968,297.024,487.933z
	"/>
<path style="fill:#D7E0DC;" d="M403.642,504.084c0.321-0.315,0.64-0.621,0.967-0.955c0.31-0.315,0.627-0.658,0.941-0.991
	c0.226-0.239,0.449-0.465,0.677-0.713c0.409-0.445,0.822-0.919,1.236-1.394c0.137-0.158,0.273-0.303,0.411-0.463
	c0.451-0.527,0.904-1.084,1.357-1.646c0.101-0.125,0.202-0.24,0.302-0.367c0.45-0.568,0.899-1.164,1.347-1.767
	c0.103-0.138,0.206-0.266,0.309-0.406c0.435-0.594,0.864-1.217,1.293-1.845c0.113-0.165,0.228-0.32,0.341-0.488
	c0.413-0.617,0.818-1.263,1.223-1.911c0.123-0.197,0.249-0.383,0.371-0.582c0.375-0.615,0.738-1.259,1.101-1.901
	c0.137-0.243,0.28-0.474,0.415-0.72c-0.611,0.506-28.804,0.764-57.583,0.775c-5.03,8.874-11.208,15.102-15.687,18.868
	c-3.396,2.855-7.682,4.423-12.119,4.423h54.249c2.55,0,5.062-0.368,7.465-1.077c0.401-0.118,0.798-0.245,1.192-0.382
	c1.577-0.547,3.1-1.243,4.548-2.08c1.81-1.046,3.504-2.311,5.04-3.779C403.235,504.492,403.441,504.281,403.642,504.084z"/>
<g>
</g>
<g>
</g>
<g>
</g>
<g>
</g>
<g>
</g>
<g>
</g>
<g>
</g>
<g>
</g>
<g>
</g>
<g>
</g>
<g>
</g>
<g>
</g>
<g>
</g>
<g>
</g>
<g>
</g>
</svg>
