<?xml version="1.0" encoding="iso-8859-1"?>
<!-- Generator: Adobe Illustrator 19.0.0, SVG Export Plug-In . SVG Version: 6.00 Build 0)  -->
<svg version="1.1" id="Capa_1" xmlns="http://www.w3.org/2000/svg" xmlns:xlink="http://www.w3.org/1999/xlink" x="0px" y="0px"
	 viewBox="0 0 512 512" style="enable-background:new 0 0 512 512;" xml:space="preserve">
<path style="fill:#B8CBD9;" d="M160.649,0h-54.92c-5.542,0-10.034,4.492-10.034,10.034v63.45h74.987v-63.45
	C170.683,4.492,166.191,0,160.649,0z"/>
<path style="fill:#B2C3CE;" d="M160.649,0h-47.001v73.484h57.034v-63.45C170.683,4.492,166.191,0,160.649,0z"/>
<path style="fill:#CDDBE7;" d="M233.545,161.363l-22.229-59.344c-2.809-7.498-8.049-13.838-14.885-18.007l-25.708-15.68H95.656
	l-25.708,15.68c-6.835,4.169-12.076,10.509-14.885,18.007l-22.229,59.344l0,0l0,0l0,0l0,0l2.784,110.836
	c0.021,0.846,0.074,1.69,0.158,2.532l22.58,225.764C59.009,507.026,64.505,512,71.07,512h124.24c6.564,0,12.06-4.974,12.714-11.505
	l22.579-225.764c0.084-0.842,0.137-1.686,0.158-2.532L233.545,161.363L233.545,161.363z"/>
<path style="fill:#B8CBD9;" d="M211.316,102.018c-2.809-7.498-8.049-13.838-14.885-18.007l-25.708-15.68h-57.075l25.708,15.68
	c6.835,4.169,12.076,10.509,14.885,18.007l22.229,59.344l0,0l-2.784,110.836c-0.021,0.846-0.074,1.69-0.158,2.532l-22.579,225.764
	c-0.653,6.531-6.149,11.505-12.714,11.505h57.075c6.564,0,12.06-4.974,12.714-11.505l22.579-225.764
	c0.084-0.842,0.137-1.686,0.158-2.532l2.784-110.836l0,0L211.316,102.018z"/>
<path style="fill:#B2C3CE;" d="M237.122,181.103H29.257c-4.031,0-7.299-3.268-7.299-7.299v-14.927c0-4.031,3.268-7.299,7.299-7.299
	h207.865c4.031,0,7.299,3.268,7.299,7.299v14.927C244.421,177.836,241.153,181.103,237.122,181.103z"/>
<circle style="fill:#FDC74F;" cx="291.65" cy="262.36" r="35.14"/>
<path style="fill:#B8CBD9;" d="M390.848,500.855c-4.27,0-7.73-3.461-7.73-7.73V324.097c0-4.269,3.46-7.73,7.73-7.73
	s7.73,3.461,7.73,7.73v169.028C398.578,497.394,395.118,500.855,390.848,500.855z"/>
<path style="fill:#D7E0DC;" d="M451.976,509.042l-57.964-24.378c-2.023-0.851-4.304-0.851-6.327,0l-57.964,24.378
	c-1.547,0.652-1.081,2.958,0.598,2.958h121.06C453.057,512,453.523,509.694,451.976,509.042z"/>
<path style="fill:#DFEDE7;" d="M386.181,372.286L292.778,269.53c-2.503-2.754-0.549-7.17,3.172-7.17h189.797
	c3.721,0,5.675,4.416,3.172,7.17l-93.403,102.755C393.013,375.039,388.684,375.039,386.181,372.286z"/>
<path style="fill:#D7E0DC;" d="M485.747,262.361h-52.779l-73.353,80.698l26.567,29.227c2.503,2.753,6.833,2.753,9.335,0
	l93.403-102.755C491.422,266.777,489.468,262.361,485.747,262.361z"/>
<path style="fill:#B0EFFE;" d="M465.516,295.277H316.181l70,77.009c2.503,2.753,6.833,2.753,9.335,0L465.516,295.277z"/>
<path style="fill:#A0E0EA;" d="M390.879,374.349c0.952-0.005,1.899-0.229,2.77-0.661c0.683-0.339,1.32-0.801,1.867-1.402
	l66.363-73.009l3.636-4h-62.469l-43.433,47.782l10.599,11.66l15.968,17.567c1.251,1.377,2.96,2.065,4.668,2.065
	C390.859,374.351,390.869,374.349,390.879,374.349z"/>
<g>
</g>
<g>
</g>
<g>
</g>
<g>
</g>
<g>
</g>
<g>
</g>
<g>
</g>
<g>
</g>
<g>
</g>
<g>
</g>
<g>
</g>
<g>
</g>
<g>
</g>
<g>
</g>
<g>
</g>
</svg>
