<?xml version="1.0" encoding="iso-8859-1"?>
<!-- Generator: Adobe Illustrator 19.0.0, SVG Export Plug-In . SVG Version: 6.00 Build 0)  -->
<svg version="1.1" id="Capa_1" xmlns="http://www.w3.org/2000/svg" xmlns:xlink="http://www.w3.org/1999/xlink" x="0px" y="0px"
	 viewBox="0 0 512 512" style="enable-background:new 0 0 512 512;" xml:space="preserve">
<path style="fill:#E5F9F6;" d="M242.656,498.326l0.003-280.605c0-6.85-2.67-13.43-7.442-18.343l-24.964-25.699
	c-4.115-4.236-6.417-9.909-6.417-15.815V70.622h-48.233v87.253c0,5.906-2.302,11.579-6.417,15.815l-24.961,25.722
	c-4.767,4.912-7.433,11.488-7.433,18.333v280.579c0,7.552,6.122,13.674,13.674,13.674h98.516
	C236.534,512,242.656,505.878,242.656,498.326z"/>
<path style="fill:#CDEAE0;" d="M149.186,173.691l-24.961,25.723c-4.767,4.912-7.433,11.488-7.433,18.333v280.579
	c0,7.552,6.122,13.674,13.674,13.674h98.516c7.552,0,13.674-6.122,13.674-13.674l0.003-280.605c0-6.85-2.67-13.43-7.442-18.343
	l-24.964-25.699c-3.963-4.079-6.222-9.494-6.385-15.163h-48.295C155.412,164.189,153.152,169.609,149.186,173.691z"/>
<path id="SVGCleanerId_0" style="fill:#B6D1C6;" d="M235.217,199.378l-24.964-25.699c-3.963-4.079-6.222-9.494-6.385-15.163h-48.295
	c-0.126,4.461-1.568,8.754-4.099,12.375c0.687,0.979,1.433,1.92,2.277,2.788l24.964,25.699c4.773,4.913,7.442,11.493,7.442,18.343
	l-0.003,280.605c0,7.552-6.122,13.674-13.674,13.674h56.503c7.552,0,13.674-6.122,13.674-13.674l0.003-280.605
	C242.659,210.871,239.99,204.291,235.217,199.378z"/>
<g>
	<path id="SVGCleanerId_0_1_" style="fill:#B6D1C6;" d="M235.217,199.378l-24.964-25.699c-3.963-4.079-6.222-9.494-6.385-15.163
		h-48.295c-0.126,4.461-1.568,8.754-4.099,12.375c0.687,0.979,1.433,1.92,2.277,2.788l24.964,25.699
		c4.773,4.913,7.442,11.493,7.442,18.343l-0.003,280.605c0,7.552-6.122,13.674-13.674,13.674h56.503
		c7.552,0,13.674-6.122,13.674-13.674l0.003-280.605C242.659,210.871,239.99,204.291,235.217,199.378z"/>
</g>
<path style="fill:#E5F9F6;" d="M374.876,512h-69.574c-5.746,0-10.509-4.451-10.898-10.184l-9.419-138.818
	c-0.246-3.621,2.625-6.693,6.254-6.693h97.699c3.629,0,6.5,3.072,6.254,6.693l-9.419,138.818
	C385.386,507.549,380.622,512,374.876,512z"/>
<path style="fill:#D6E5E2;" d="M388.939,356.305H339.41L328.846,512h46.03c5.746,0,10.509-4.451,10.898-10.184l9.419-138.818
	C395.439,359.377,392.568,356.305,388.939,356.305z"/>
<path style="fill:#CDEAE0;" d="M287.012,392.864l7.392,108.952c0.389,5.732,5.152,10.184,10.898,10.184h69.574
	c5.746,0,10.509-4.451,10.898-10.184l7.392-108.952H287.012z"/>
<path style="fill:#772424;" d="M180.275,91.562c-4.206,0-7.617-3.41-7.617-7.617V34.602c0-4.212-1.64-8.172-4.618-11.15
	l-10.449-10.45c-2.975-2.975-2.975-7.797,0-10.771c2.975-2.975,7.798-2.975,10.771,0l10.449,10.45
	c5.856,5.855,9.08,13.64,9.08,21.921v49.344C187.891,88.152,184.481,91.562,180.275,91.562z"/>
<path style="fill:#FC502A;" d="M150.159,280.556c19.131-10.99,39.99-10.99,59.129,0.023c3.752,2.159,8.454-0.426,8.632-4.751
	l0.542-13.177c0.095-2.3-1.187-4.442-3.261-5.441c-22.846-11.008-48.092-11.022-70.951-0.024c-2.075,0.998-3.358,3.142-3.264,5.442
	l0.542,13.174C141.708,280.127,146.408,282.711,150.159,280.556z"/>
<path style="fill:#E52D15;" d="M215.203,257.211c-9.387-4.523-19.18-7.186-29.046-7.996v23.491
	c7.837,0.93,15.617,3.548,23.132,7.873c3.752,2.159,8.454-0.426,8.632-4.751l0.542-13.177
	C218.558,260.352,217.276,258.21,215.203,257.211z"/>
<g>
	<path style="fill:#FFFFFF;" d="M218.589,419.686h-77.727c-4.206,0-7.617-3.41-7.617-7.617c0-4.206,3.41-7.617,7.617-7.617h77.727
		c4.206,0,7.617,3.41,7.617,7.617C226.206,416.275,222.796,419.686,218.589,419.686z"/>
	<path style="fill:#FFFFFF;" d="M218.589,453.32h-77.727c-4.206,0-7.617-3.41-7.617-7.617c0-4.206,3.41-7.617,7.617-7.617h77.727
		c4.206,0,7.617,3.41,7.617,7.617S222.796,453.32,218.589,453.32z"/>
</g>
<circle style="fill:#FC502A;" cx="179.73" cy="346.25" r="33.09"/>
<path style="fill:#E52D15;" d="M186.156,313.795l-0.001,64.916c15.195-2.993,26.658-16.385,26.658-32.458
	C212.813,330.179,201.351,316.788,186.156,313.795z"/>
<path style="fill:#4A4256;" d="M206.19,87.792h-52.928c-1.789,0-3.238-1.45-3.238-3.238V62.649c0-1.789,1.45-3.238,3.238-3.238
	h52.928c1.789,0,3.238,1.45,3.238,3.238v21.904C209.428,86.342,207.978,87.792,206.19,87.792z"/>
<path style="fill:#B6D1C6;" d="M336.93,392.864L328.846,512h46.03c5.746,0,10.509-4.451,10.898-10.184l7.392-108.952H336.93z"/>
<path style="fill:#DFEDE7;" d="M382.788,487.766h-85.397c-1.44,0-2.803-0.349-4.005-0.969l1.019,15.019
	c0.389,5.733,5.152,10.184,10.898,10.184h69.574c5.746,0,10.509-4.451,10.898-10.184l1.019-15.019
	C385.591,487.417,384.228,487.766,382.788,487.766z"/>
<path style="fill:#D7E0DC;" d="M385.775,501.816l0.196-2.891l0.823-12.128c-1.203,0.62-2.566,0.969-4.005,0.969h-52.297L328.846,512
	h46.03c1.077,0,2.12-0.157,3.106-0.449c0.329-0.097,0.651-0.21,0.966-0.336C382.73,509.694,385.483,506.116,385.775,501.816z"/>
<rect x="155.6" y="87.79" style="fill:#352F3F;" width="48.23" height="23.847"/>
<g>
</g>
<g>
</g>
<g>
</g>
<g>
</g>
<g>
</g>
<g>
</g>
<g>
</g>
<g>
</g>
<g>
</g>
<g>
</g>
<g>
</g>
<g>
</g>
<g>
</g>
<g>
</g>
<g>
</g>
</svg>
