<?xml version="1.0" encoding="iso-8859-1"?>
<!-- Generator: Adobe Illustrator 19.0.0, SVG Export Plug-In . SVG Version: 6.00 Build 0)  -->
<svg version="1.1" id="Capa_1" xmlns="http://www.w3.org/2000/svg" xmlns:xlink="http://www.w3.org/1999/xlink" x="0px" y="0px"
	 viewBox="0 0 512 512" style="enable-background:new 0 0 512 512;" xml:space="preserve">
<path style="fill:#DFEDE7;" d="M433.977,512h-87.569c-5.887,0-10.799-4.498-11.315-10.362l-11.648-132.141
	c-0.373-4.23,2.961-7.871,7.207-7.871h119.083c4.247,0,7.58,3.64,7.207,7.871l-11.648,132.141
	C444.775,507.502,439.864,512,433.977,512z"/>
<path style="fill:#D7E0DC;" d="M449.733,361.627h-49.142l-12.924,146.611c-0.188,2.129-1.971,3.762-4.108,3.762h50.418
	c5.887,0,10.799-4.498,11.316-10.362l11.648-132.141C457.313,365.267,453.98,361.627,449.733,361.627z"/>
<path style="fill:#772424;" d="M325.5,395.492l9.334,105.889c0.517,5.864,5.428,10.362,11.316,10.362h87.569
	c5.887,0,10.799-4.498,11.316-10.362l9.334-105.889H325.5z"/>
<path style="fill:#681818;" d="M397.583,395.749l-9.916,112.489c-0.188,2.129-1.971,3.762-4.108,3.762h50.418
	c5.887,0,10.799-4.498,11.316-10.362l9.334-105.889L397.583,395.749L397.583,395.749z"/>
<path style="fill:#77D057;" d="M192.877,74.267V0h-56.81v74.267c0,23.092-17.211,42.563-40.128,45.398l0,0
	c-23.364,2.89-40.91,22.741-40.91,46.283v325.506c0,11.347,9.199,20.546,20.546,20.546h177.793c11.347,0,20.546-9.199,20.546-20.546
	V165.948c0-23.542-17.546-43.392-40.91-46.283l0,0C210.087,116.83,192.877,97.359,192.877,74.267z"/>
<path style="fill:#69B749;" d="M233.004,119.665L233.004,119.665c-22.917-2.835-40.128-22.306-40.128-45.398V0h-44.682v74.267
	c0,23.092,4.849,42.563,27.767,45.398l0,0c23.364,2.89,40.91,22.741,40.91,46.283V512h36.497c11.347,0,20.546-9.199,20.546-20.546
	V165.948C273.914,142.406,256.368,122.555,233.004,119.665z"/>
<path style="fill:#4A4256;" d="M195.04,67.9h-61.137c-3.171,0-5.742-2.571-5.742-5.742V5.742c0-3.171,2.571-5.742,5.742-5.742
	h61.137c3.171,0,5.742,2.571,5.742,5.742v56.416C200.782,65.329,198.211,67.9,195.04,67.9z"/>
<path style="fill:#306318;" d="M95.939,119.665L95.939,119.665c-23.364,2.89-40.91,22.741-40.91,46.283v325.506
	c0,11.347,9.199,20.546,20.546,20.546h177.793c11.347,0,20.546-9.199,20.546-20.546V165.948c0-23.542-17.546-43.392-40.91-46.283
	l0,0C226.839,118.902,102.105,118.902,95.939,119.665z"/>
<polygon style="fill:#E9EAEB;" points="128.161,35.577 200.782,35.577 200.782,35.577 200.782,20.126 200.782,20.126 
	128.161,20.126 "/>
<path style="fill:#D7E0DC;" d="M438.93,485.331h-97.991c-2.907,0-5.599-0.982-7.752-2.641l1.648,18.691
	c0.517,5.864,5.428,10.362,11.315,10.362h87.569c5.887,0,10.799-4.498,11.316-10.362l1.648-18.691
	C444.529,484.349,441.837,485.331,438.93,485.331z"/>
<path style="fill:#2C5114;" d="M273.914,165.948c0-22.806-16.466-42.148-38.737-45.962c-0.718-0.123-1.443-0.23-2.173-0.32l0,0
	c-2.826-0.35-30.564-0.539-60.376-0.568c1.07,0.227,2.172,0.425,3.332,0.568l0,0c23.364,2.89,40.91,22.741,40.91,46.283V512h36.497
	c0.709,0,1.41-0.036,2.101-0.106c1.381-0.14,2.722-0.417,4.009-0.818c3.217-1.001,6.095-2.77,8.418-5.094
	c3.718-3.718,6.018-8.854,6.018-14.528V165.948H273.914z"/>
<path style="fill:#E9EAEB;" d="M242.767,423.082V190.8c0-8.11-6.574-14.684-14.684-14.684H100.86
	c-8.11,0-14.684,6.574-14.684,14.684v232.282c0,4.094,3.319,7.412,7.412,7.412h141.767
	C239.449,430.494,242.767,427.176,242.767,423.082z"/>
<circle style="fill:#772424;" cx="164.469" cy="249.24" r="37.936"/>
<path style="fill:#306318;" d="M196,403.475h-63.056c-4.267,0-7.726-3.459-7.726-7.726s3.459-7.726,7.726-7.726H196
	c4.267,0,7.726,3.459,7.726,7.726C203.725,400.016,200.266,403.475,196,403.475z"/>
<path style="fill:#CBD1CF;" d="M445.292,501.638l0.369-4.189l1.278-14.502c-2.153,1.659-4.845,2.641-7.752,2.641h-49.524
	l-1.997,22.65c-0.188,2.129-1.971,3.762-4.108,3.762h50.418c5.837,0,10.709-4.423,11.295-10.214
	C445.277,501.736,445.288,501.688,445.292,501.638z"/>
<path style="fill:#D0D6D3;" d="M228.084,176.116h-11.213v254.378h18.484c4.094,0,7.412-3.319,7.412-7.412V190.8
	C242.767,182.69,236.193,176.116,228.084,176.116z"/>
<rect x="86.179" y="313.77" style="fill:#FC502A;" width="156.59" height="39.83"/>
<rect x="216.869" y="313.77" style="fill:#EA3C1F;" width="25.896" height="39.83"/>
<g>
</g>
<g>
</g>
<g>
</g>
<g>
</g>
<g>
</g>
<g>
</g>
<g>
</g>
<g>
</g>
<g>
</g>
<g>
</g>
<g>
</g>
<g>
</g>
<g>
</g>
<g>
</g>
<g>
</g>
</svg>
