<?xml version="1.0" encoding="iso-8859-1"?>
<!-- Generator: Adobe Illustrator 19.0.0, SVG Export Plug-In . SVG Version: 6.00 Build 0)  -->
<svg version="1.1" id="Capa_1" xmlns="http://www.w3.org/2000/svg" xmlns:xlink="http://www.w3.org/1999/xlink" x="0px" y="0px"
	 viewBox="0 0 512.001 512.001" style="enable-background:new 0 0 512.001 512.001;" xml:space="preserve">
<path style="fill:#DFEDE7;" d="M418.127,512h-70.625c-5.832,0-10.668-4.518-11.063-10.337l-9.561-140.915
	c-0.249-3.676,2.665-6.794,6.349-6.794h99.174c3.684,0,6.598,3.119,6.349,6.794l-9.561,140.915
	C428.795,507.482,423.96,512,418.127,512z"/>
<path style="fill:#D7E0DC;" d="M432.402,353.954h-50.276L371.402,512h46.725c5.832,0,10.668-4.518,11.063-10.338l9.561-140.915
	C439,357.072,436.086,353.954,432.402,353.954z"/>
<path style="fill:#CDEAE0;" d="M329.402,397.938l7.038,103.725c0.395,5.819,5.23,10.338,11.063,10.338h70.624
	c5.832,0,10.668-4.518,11.063-10.338l7.038-103.725L329.402,397.938L329.402,397.938z"/>
<path style="fill:#DFEDE7;" d="M208.297,102.896V25.179h-67.039v77.717c0,16.419-9.091,31.489-23.615,39.147l-10.838,5.714
	c-20.647,10.886-33.569,32.308-33.569,55.648v281.187c0,15.137,12.271,27.409,27.409,27.409H248.91
	c15.137,0,27.409-12.271,27.409-27.409V203.405c0-23.341-12.923-44.763-33.569-55.648l-10.838-5.714
	C217.387,134.385,208.297,119.315,208.297,102.896z"/>
<path style="fill:#4A4256;" d="M210.622,68.008h-71.69c-4.629,0-8.382-3.753-8.382-8.382V8.382c0-4.629,3.753-8.382,8.382-8.382
	h71.69c4.629,0,8.382,3.753,8.382,8.382v51.244C219.004,64.255,215.252,68.008,210.622,68.008z"/>
<path style="fill:#352F3F;" d="M210.622,0h-48.933v68.008h48.933c4.629,0,8.382-3.753,8.382-8.382V8.382
	C219.004,3.753,215.252,0,210.622,0z"/>
<path style="fill:#CDEAE0;" d="M117.643,142.043l-10.838,5.714c-20.647,10.886-33.569,32.308-33.569,55.648v281.187
	c0,15.137,12.271,27.409,27.409,27.409H248.91c15.137,0,27.409-12.271,27.409-27.409V203.405c0-23.34-12.923-44.762-33.569-55.648
	l-10.838-5.714c-14.054-7.41-22.994-21.763-23.56-37.56h-67.148C140.637,120.279,131.697,134.633,117.643,142.043z"/>
<path style="fill:#B6D1C6;" d="M242.75,147.757l-10.838-5.714c-0.892-0.471-1.763-0.97-2.614-1.495
	c-0.324-0.2-0.63-0.421-0.948-0.628c-0.514-0.336-1.034-0.666-1.532-1.022c-0.395-0.282-0.769-0.586-1.153-0.88
	c-0.397-0.304-0.802-0.599-1.187-0.915c-0.429-0.352-0.836-0.725-1.25-1.091c-0.315-0.28-0.64-0.551-0.946-0.839
	c-0.447-0.419-0.871-0.858-1.299-1.294c-0.249-0.255-0.507-0.501-0.75-0.762c-0.454-0.485-0.884-0.989-1.315-1.494
	c-0.193-0.227-0.395-0.447-0.583-0.678c-0.452-0.552-0.88-1.12-1.305-1.693c-0.145-0.196-0.297-0.388-0.439-0.586
	c-0.443-0.618-0.861-1.252-1.271-1.892c-0.104-0.163-0.214-0.322-0.315-0.485c-0.426-0.684-0.826-1.381-1.214-2.087
	c-0.07-0.127-0.144-0.252-0.213-0.381c-0.4-0.746-0.775-1.505-1.132-2.273c-0.043-0.094-0.09-0.186-0.133-0.28
	c-0.367-0.803-0.706-1.619-1.025-2.445c-0.024-0.062-0.05-0.124-0.073-0.186c-0.326-0.855-0.623-1.721-0.896-2.597
	c-0.011-0.036-0.023-0.071-0.034-0.107c-0.278-0.9-0.525-1.809-0.746-2.728c-0.003-0.014-0.007-0.028-0.01-0.042
	c-0.223-0.935-0.415-1.879-0.578-2.832c0-0.001-0.001-0.003-0.001-0.004c-0.327-1.919-0.527-3.869-0.598-5.843v-0.001h-46.679v3.211
	c0,16.557,8.979,31.848,23.501,39.8c0.318,0.174,0.489,0.263,0.489,0.263c20.647,10.885,33.569,32.307,33.569,55.648V512h29.678
	c15.137,0,27.409-12.271,27.409-27.409V203.405C276.319,180.064,263.396,158.642,242.75,147.757z"/>
<g>
	<circle style="fill:#65DBEF;" cx="174.781" cy="182.31" r="34.06"/>
	<path style="fill:#65DBEF;" d="M232.494,308.252H117.061c-3.207,0-5.807-2.6-5.807-5.807v-40.617c0-3.207,2.6-5.807,5.807-5.807
		h115.432c3.207,0,5.807,2.6,5.807,5.807v40.617C238.301,305.652,235.701,308.252,232.494,308.252z"/>
</g>
<g>
	<path style="fill:#FFFFFF;" d="M238.301,430.754H111.254c-4.27,0-7.732-3.462-7.732-7.732s3.461-7.732,7.732-7.732h127.047
		c4.27,0,7.732,3.462,7.732,7.732S242.571,430.754,238.301,430.754z"/>
	<path style="fill:#FFFFFF;" d="M238.301,464.643H111.254c-4.27,0-7.732-3.462-7.732-7.732s3.461-7.732,7.732-7.732h127.047
		c4.27,0,7.732,3.462,7.732,7.732S242.571,464.643,238.301,464.643z"/>
</g>
<path style="fill:#D7E0DC;" d="M208.297,68.008h-46.624v36.475h46.665c-0.019-0.528-0.041-1.056-0.041-1.587V68.008z"/>
<path style="fill:#B6D1C6;" d="M379.141,397.938L371.402,512h46.725c5.832,0,10.668-4.518,11.063-10.338l7.038-103.725h-57.087
	V397.938z"/>
<path style="fill:#D7E0DC;" d="M426.158,487.4h-86.687c-1.462,0-2.845-0.354-4.066-0.983l1.034,15.246
	c0.395,5.819,5.23,10.337,11.063,10.337h70.625c5.832,0,10.668-4.518,11.063-10.337l1.034-15.246
	C429.003,487.046,427.62,487.4,426.158,487.4z"/>
<path style="fill:#C9D1CD;" d="M429.19,501.662l1.034-15.246c-1.221,0.629-2.604,0.983-4.066,0.983h-53.087l-1.669,24.6h46.725
	C423.96,512,428.795,507.482,429.19,501.662z"/>
<path style="fill:#4DCDDB;" d="M232.494,308.252c3.207,0,5.807-2.6,5.807-5.807v-40.616c0-3.207-2.6-5.807-5.807-5.807h-13.261
	v52.231L232.494,308.252L232.494,308.252z"/>
<g>
</g>
<g>
</g>
<g>
</g>
<g>
</g>
<g>
</g>
<g>
</g>
<g>
</g>
<g>
</g>
<g>
</g>
<g>
</g>
<g>
</g>
<g>
</g>
<g>
</g>
<g>
</g>
<g>
</g>
</svg>
