<?xml version="1.0" encoding="iso-8859-1"?>
<!-- Generator: Adobe Illustrator 19.0.0, SVG Export Plug-In . SVG Version: 6.00 Build 0)  -->
<svg version="1.1" id="Capa_1" xmlns="http://www.w3.org/2000/svg" xmlns:xlink="http://www.w3.org/1999/xlink" x="0px" y="0px"
	 viewBox="0 0 512.001 512.001" style="enable-background:new 0 0 512.001 512.001;" xml:space="preserve">
<path style="fill:#DFEDE7;" d="M429.223,341.378H320.209c-4.061,0-7.566,2.839-8.405,6.813
	c-4.196,19.866-15.782,78.048-13.659,105.37c1.926,24.791,14.46,41.193,23.825,50.148c5.567,5.323,12.968,8.292,20.67,8.292h64.152
	c7.703,0,15.103-2.969,20.67-8.292c9.365-8.955,21.9-25.357,23.825-50.148c2.122-27.323-9.463-85.504-13.659-105.37
	C436.789,344.217,433.284,341.378,429.223,341.378z"/>
<path style="fill:#D7E0DC;" d="M437.628,348.19c-0.839-3.974-4.344-6.813-8.405-6.813h-50.757c0,0,17.714,78.937,15.132,112.183
	c-2.191,28.207-18.116,45.555-27.48,53.428c-3.847,3.235-8.703,5.012-13.73,5.012h54.405c7.703,0,15.103-2.969,20.67-8.292
	c9.365-8.955,21.899-25.357,23.825-50.148C453.409,426.238,441.824,368.056,437.628,348.19z"/>
<path style="fill:#FD9727;" d="M303.959,389.647c-3.785,22.797-7.022,48.356-5.814,63.914c1.925,24.791,14.46,41.193,23.825,50.148
	c5.567,5.323,12.968,8.292,20.67,8.292h64.152c7.703,0,15.103-2.969,20.67-8.292c9.365-8.955,21.899-25.357,23.825-50.148
	c1.208-15.558-2.029-41.116-5.814-63.914L303.959,389.647L303.959,389.647z"/>
<path style="fill:#E57F23;" d="M451.482,449.696c0.021-0.676,0.04-1.356,0.049-2.06c0.005-0.404,0.004-0.822,0.004-1.235
	c0.001-0.663,0-1.332-0.009-2.017c-0.006-0.443-0.015-0.892-0.025-1.343c-0.015-0.687-0.035-1.383-0.059-2.089
	c-0.016-0.46-0.033-0.922-0.053-1.39c-0.031-0.736-0.069-1.483-0.109-2.237c-0.024-0.452-0.047-0.902-0.075-1.36
	c-0.05-0.837-0.108-1.687-0.169-2.542c-0.027-0.389-0.051-0.773-0.081-1.166c-0.091-1.21-0.19-2.435-0.3-3.676
	c-0.004-0.042-0.007-0.083-0.01-0.126c-0.117-1.323-0.245-2.663-0.381-4.015c-0.027-0.265-0.057-0.536-0.084-0.802
	c-0.111-1.073-0.225-2.152-0.346-3.24c-0.043-0.385-0.089-0.773-0.133-1.16c-0.113-0.984-0.228-1.972-0.349-2.965
	c-0.05-0.416-0.102-0.833-0.154-1.251c-0.123-0.987-0.248-1.976-0.377-2.969c-0.052-0.399-0.104-0.799-0.157-1.199
	c-0.14-1.058-0.284-2.117-0.431-3.178c-0.044-0.321-0.088-0.642-0.134-0.963c-0.172-1.228-0.349-2.458-0.529-3.686
	c-0.023-0.154-0.044-0.308-0.067-0.461c-0.641-4.347-1.325-8.681-2.029-12.92h-57.689c3.785,22.797,7.021,48.357,5.813,63.914
	c-2.191,28.207-18.116,45.555-27.48,53.428c-3.847,3.235-8.703,5.012-13.73,5.012h54.405c7.703,0,15.103-2.969,20.67-8.292
	c9.365-8.955,21.899-25.357,23.825-50.148c0.071-0.918,0.125-1.877,0.166-2.863C451.467,450.372,451.472,450.028,451.482,449.696z"
	/>
<path style="fill:#DFEDE7;" d="M223.225,161.622L223.225,161.622c-17.749-3.702-30.468-19.346-30.468-37.477V77.266
	c0-3.221,2.611-5.833,5.833-5.833l0,0c3.221,0,5.833-2.611,5.833-5.833V24.677h-87.195V65.6c0,3.221,2.611,5.833,5.833,5.833l0,0
	c3.221,0,5.833,2.611,5.833,5.833v46.879c0,18.131-12.719,33.776-30.468,37.477l0,0c-22.518,4.696-38.478,24.79-37.957,47.786
	l6.41,282.46c0.253,11.127,9.345,20.015,20.475,20.015h146.942c11.13,0,20.222-8.888,20.475-20.015l6.41-282.46
	C261.704,186.412,245.743,166.318,223.225,161.622z"/>
<path style="fill:#4A4256;" d="M204.423,41.832h-87.195V5.216c0-2.881,2.335-5.216,5.216-5.216h76.763
	c2.881,0,5.216,2.335,5.216,5.216V41.832z"/>
<path style="fill:#FD9727;" d="M98.427,161.622L98.427,161.622c-22.518,4.696-38.479,24.79-37.957,47.787l6.41,282.46
	c0.253,11.127,9.345,20.015,20.475,20.015h146.942c11.13,0,20.222-8.888,20.475-20.015l6.41-282.46
	c0.522-22.996-15.439-43.09-37.957-47.786l0,0c-15.23-3.176-26.748-15.149-29.713-29.938h-65.373
	C125.175,146.473,113.657,158.446,98.427,161.622z"/>
<path style="fill:#D7E0DC;" d="M307.358,484.733c4.527,8.239,9.96,14.527,14.612,18.975c5.567,5.323,12.968,8.292,20.67,8.292
	h64.152c7.703,0,15.103-2.969,20.67-8.292c4.652-4.448,10.085-10.736,14.612-18.975
	C440.738,485.906,308.695,485.906,307.358,484.733z"/>
<path style="fill:#E57F23;" d="M223.225,161.622L223.225,161.622c-0.865-0.181-1.715-0.398-2.555-0.634
	c-0.136-0.038-0.272-0.074-0.407-0.113c-0.8-0.234-1.588-0.495-2.363-0.778c-0.146-0.053-0.29-0.108-0.435-0.163
	c-0.784-0.297-1.558-0.614-2.315-0.959c-0.077-0.035-0.152-0.073-0.228-0.109c-0.754-0.35-1.494-0.722-2.219-1.118
	c-0.06-0.032-0.121-0.063-0.18-0.095c-0.739-0.408-1.459-0.844-2.165-1.298c-0.105-0.068-0.211-0.135-0.315-0.203
	c-0.698-0.458-1.38-0.937-2.044-1.438c-0.074-0.056-0.146-0.113-0.219-0.169c-1.394-1.067-2.709-2.226-3.938-3.468
	c-0.037-0.037-0.075-0.074-0.112-0.111c-0.609-0.62-1.195-1.262-1.76-1.922c-0.042-0.049-0.083-0.097-0.124-0.146
	c-1.754-2.069-3.287-4.321-4.57-6.722c-0.007-0.013-0.014-0.026-0.021-0.038c-1.731-3.247-3.003-6.762-3.743-10.453l0,0h-45.895
	c0.768,15.508,4.592,29.876,19.879,33.064l0,0c22.518,4.696,37.437,21.665,36.915,44.661l-7.312,302.475h37.197
	c1.391,0,2.751-0.139,4.065-0.404c9.2-1.853,16.189-9.876,16.41-19.612l6.41-282.46
	C261.703,186.412,245.743,166.318,223.225,161.622z"/>
<path style="fill:#FFE5B8;" d="M217.93,403.411H103.722c-3.439,0-6.228-2.788-6.228-6.228V269.125c0-3.439,2.788-6.228,6.228-6.228
	H217.93c3.439,0,6.228,2.788,6.228,6.228v128.059C224.157,400.622,221.369,403.411,217.93,403.411z"/>
<circle style="fill:#FC502A;" cx="160.821" cy="262.9" r="38.466"/>
<g>
	<path style="fill:#FFFFFF;" d="M192.774,346.523h-63.895c-4.316,0-7.813-3.498-7.813-7.813s3.498-7.813,7.813-7.813h63.895
		c4.316,0,7.813,3.498,7.813,7.813S197.09,346.523,192.774,346.523z"/>
	<path style="fill:#FFFFFF;" d="M192.774,378.013h-63.895c-4.316,0-7.813-3.498-7.813-7.813s3.498-7.813,7.813-7.813h63.895
		c4.316,0,7.813,3.498,7.813,7.813S197.09,378.013,192.774,378.013z"/>
</g>
<path style="fill:#D7E0DC;" d="M160.826,480.976c-34.935,0-67.379-1.101-94.26-2.986l0.315,13.878
	c0.253,11.127,9.345,20.015,20.475,20.015h146.942c11.13,0,20.222-8.888,20.475-20.015l0.315-13.878
	C228.205,479.875,195.761,480.976,160.826,480.976z"/>
<g>
	<path style="fill:#C9D1CD;" d="M197.857,480.551l-0.757,31.332h37.197c1.391,0,2.751-0.139,4.065-0.404
		c0.62-0.125,1.228-0.283,1.826-0.462c0.195-0.059,0.384-0.132,0.576-0.196c0.398-0.133,0.795-0.269,1.182-0.426
		c0.222-0.09,0.438-0.19,0.656-0.287c0.348-0.155,0.694-0.315,1.031-0.488c0.221-0.113,0.438-0.233,0.654-0.354
		c0.324-0.182,0.643-0.372,0.956-0.57c0.208-0.132,0.416-0.266,0.619-0.405c0.312-0.214,0.615-0.44,0.914-0.67
		c0.186-0.143,0.374-0.283,0.554-0.432c0.318-0.262,0.622-0.54,0.923-0.821c0.145-0.135,0.296-0.263,0.436-0.402
		c0.866-0.856,1.656-1.789,2.36-2.787c0.114-0.161,0.215-0.332,0.324-0.496c0.229-0.346,0.454-0.694,0.662-1.054
		c0.118-0.204,0.225-0.414,0.336-0.622c0.179-0.336,0.353-0.676,0.513-1.023c0.104-0.226,0.202-0.455,0.298-0.685
		c0.145-0.347,0.281-0.698,0.407-1.055c0.084-0.236,0.166-0.474,0.241-0.714c0.116-0.369,0.216-0.745,0.311-1.123
		c0.059-0.236,0.122-0.47,0.173-0.709c0.089-0.418,0.157-0.843,0.221-1.27c0.031-0.207,0.071-0.41,0.096-0.619
		c0.075-0.639,0.126-1.286,0.141-1.942l0.315-13.878C237.997,479.188,218.653,480.068,197.857,480.551z"/>
	<path style="fill:#C9D1CD;" d="M429.241,501.953c4.218-4.296,8.873-10.011,12.834-17.22c-0.607,0.532-28.155,0.823-58.182,0.872
		c-5.699,10.057-12.7,17.115-17.776,21.383c-3.847,3.234-8.702,5.011-13.728,5.012h54.404c7.703,0,15.103-2.969,20.67-8.292
		c0.581-0.555,1.174-1.139,1.776-1.752C429.239,501.955,429.24,501.954,429.241,501.953z"/>
</g>
<path style="fill:#D7E0DC;" d="M147.446,41.832v82.313c0,2.515,0.047,5.041,0.171,7.539h45.895l0,0c0,0.001,0,0.001,0,0.002
	c-0.491-2.446-0.755-4.967-0.755-7.541V77.266c0-3.221,2.612-5.833,5.833-5.833c3.221,0,5.833-2.611,5.833-5.833V41.832H147.446z"/>
<g>
</g>
<g>
</g>
<g>
</g>
<g>
</g>
<g>
</g>
<g>
</g>
<g>
</g>
<g>
</g>
<g>
</g>
<g>
</g>
<g>
</g>
<g>
</g>
<g>
</g>
<g>
</g>
<g>
</g>
</svg>
