<?xml version="1.0" encoding="iso-8859-1"?>
<!-- Generator: Adobe Illustrator 19.0.0, SVG Export Plug-In . SVG Version: 6.00 Build 0)  -->
<svg version="1.1" id="Capa_1" xmlns="http://www.w3.org/2000/svg" xmlns:xlink="http://www.w3.org/1999/xlink" x="0px" y="0px"
	 viewBox="0 0 512.001 512.001" style="enable-background:new 0 0 512.001 512.001;" xml:space="preserve">
<path style="fill:#E5F9F6;" d="M427.373,512h-84.525c-8.759,0-15.86-7.101-15.86-15.86V360.271c0-2.508,2.033-4.541,4.541-4.541
	H438.69c2.508,0,4.541,2.033,4.541,4.541V496.14C443.233,504.899,436.132,512,427.373,512z"/>
<path style="fill:#D6E5E2;" d="M438.691,355.73h-52.518V512h41.2c8.759,0,15.86-7.1,15.86-15.86V360.271
	C443.233,357.763,441.2,355.73,438.691,355.73z"/>
<g>
	<path style="fill:#FD9727;" d="M326.989,404.128v92.013c0,8.759,7.101,15.86,15.86,15.86h84.525c8.759,0,15.86-7.101,15.86-15.86
		v-92.013H326.989z"/>
	<path style="fill:#FD9727;" d="M192.966,155.256c0,0,5.832-5.876,5.832-33.112c0-39.53-14.601-68.027-14.601-68.027h-50.303
		c0,0-14.601,28.497-14.601,68.027c0,27.236,5.831,33.112,5.831,33.112L80.23,191.001c-7.243,5.767-11.462,14.52-11.462,23.778
		v279.224c0,9.939,8.057,17.996,17.996,17.996h144.563c9.939,0,17.996-8.057,17.996-17.996V214.779
		c0-9.258-4.22-18.012-11.462-23.778L192.966,155.256z"/>
</g>
<path style="fill:#E57F23;" d="M237.86,191.001l-44.894-35.745c0,0,5.831-5.876,5.831-33.112c0-39.53-14.601-68.027-14.601-68.027
	h-43.041c0,38.662-0.001,83.892-0.001,84.046c-0.1,23.251,10.447,30.053,28.637,44.536l10.428,8.303
	c7.243,5.767,11.462,14.52,11.462,23.778V512h39.645c9.939,0,17.996-8.057,17.996-17.996V214.779
	C249.322,205.521,245.103,196.768,237.86,191.001z"/>
<rect x="68.767" y="232.85" style="fill:#4A4256;" width="180.56" height="241.37"/>
<rect x="191.68" y="232.85" style="fill:#352F3F;" width="57.642" height="241.37"/>
<g>
	<path style="fill:#EFEFEF;" d="M199.908,300.299c-27.563-12.297-54.099-12.325-81.727,0.001c-3.264,1.456-7.103,0.2-8.925-2.874
		c-2.287-3.858-4.574-7.716-6.862-11.575c-2.144-3.617-0.676-8.291,3.14-10.057c35.545-16.45,71.461-16.457,107.021,0
		c3.816,1.766,5.285,6.44,3.14,10.057c-2.287,3.858-4.574,7.716-6.861,11.575C207.012,300.5,203.172,301.755,199.908,300.299z"/>
	<ellipse style="fill:#EFEFEF;" cx="159.04" cy="360.24" rx="45.02" ry="30.862"/>
	<path style="fill:#EFEFEF;" d="M205.741,436.945h-93.394c-4.268,0-7.728-3.46-7.728-7.728s3.46-7.728,7.728-7.728h93.394
		c4.268,0,7.728,3.46,7.728,7.728C213.469,433.485,210.009,436.945,205.741,436.945z"/>
</g>
<path style="fill:#4A4256;" d="M198.766,119.403c-0.649-38.096-14.57-65.287-14.57-65.287h-50.303c0,0-13.92,27.19-14.57,65.287
	H198.766z"/>
<path style="fill:#352F3F;" d="M198.766,119.403c-0.609-35.711-12.878-61.839-14.413-64.971c-0.022-0.044-0.033-0.067-0.05-0.102
	c-0.023-0.047-0.051-0.103-0.066-0.133c-0.026-0.053-0.041-0.081-0.041-0.081h-43.041c0,23.087,0,48.512-0.001,65.287H198.766z"/>
<path style="fill:#4A4256;" d="M189.33,62.701h-60.57c-2.679,0-4.851-2.172-4.851-4.851V4.851c0-2.679,2.172-4.851,4.851-4.851
	h60.57c2.679,0,4.851,2.172,4.851,4.851v52.998C194.181,60.529,192.009,62.701,189.33,62.701z"/>
<rect x="123.91" y="19.557" style="fill:#EFEFEF;" width="70.27" height="16.514"/>
<path style="fill:#E57F23;" d="M443.233,496.14v-92.013h-57.06V512h41.2C436.132,512,443.233,504.9,443.233,496.14z"/>
<path style="fill:#D7E0DC;" d="M427.373,486.787h-84.525c-8.759,0-15.86,0.208-15.86-8.551v17.904c0,8.759,7.101,15.86,15.86,15.86
	h84.525c8.759,0,15.86-7.101,15.86-15.86v-17.904C443.233,486.996,436.132,486.787,427.373,486.787z"/>
<path style="fill:#C9D1CD;" d="M427.373,486.787h-41.2V512h41.2c5.24,0,9.873-2.552,12.76-6.47c0.431-0.584,0.836-1.188,1.185-1.83
	c0.244-0.449,0.467-0.912,0.668-1.386c0.242-0.571,0.439-1.165,0.613-1.768c0.241-0.833,0.418-1.692,0.519-2.575
	c0.069-0.601,0.114-1.21,0.114-1.83v-17.904C443.233,486.996,436.132,486.787,427.373,486.787z"/>
<g>
	<path style="fill:#DEE0E2;" d="M212.555,275.794c-6.946-3.215-13.907-5.792-20.875-7.751v28.945
		c2.734,0.983,5.475,2.083,8.227,3.311c3.264,1.456,7.104,0.201,8.926-2.874c2.287-3.858,4.574-7.716,6.862-11.574
		C217.84,282.234,216.372,277.56,212.555,275.794z"/>
	<path style="fill:#DEE0E2;" d="M191.681,338.993v42.49c7.668-5.534,12.382-13.01,12.382-21.245S199.348,344.527,191.681,338.993z"
		/>
</g>
<g>
</g>
<g>
</g>
<g>
</g>
<g>
</g>
<g>
</g>
<g>
</g>
<g>
</g>
<g>
</g>
<g>
</g>
<g>
</g>
<g>
</g>
<g>
</g>
<g>
</g>
<g>
</g>
<g>
</g>
</svg>
