<?xml version="1.0" encoding="iso-8859-1"?>
<!-- Generator: Adobe Illustrator 19.0.0, SVG Export Plug-In . SVG Version: 6.00 Build 0)  -->
<svg version="1.1" id="Capa_1" xmlns="http://www.w3.org/2000/svg" xmlns:xlink="http://www.w3.org/1999/xlink" x="0px" y="0px"
	 viewBox="0 0 512 512" style="enable-background:new 0 0 512 512;" xml:space="preserve">
<path style="fill:#CDEAE0;" d="M244.713,470.806c-2.54-1.841-3.874-4.927-3.82-8.064l5.015-288.545
	c0.183-4.447-1.47-8.774-4.571-11.967l-29.421-30.287c-4.354-4.482-6.79-10.486-6.79-16.735V0.021h-25.484h-25.484v115.188
	c0,6.249-2.436,12.252-6.79,16.735l-29.421,30.287c-3.101,3.193-4.754,7.52-4.571,11.967l5.015,288.545
	c0.055,3.137-1.279,6.223-3.82,8.064c-1.724,1.25-2.821,3.301-2.758,5.609l0.672,24.854c0.161,5.973,5.05,10.73,11.024,10.73h56.133
	h56.133c5.975,0,10.863-4.758,11.024-10.73l0.672-24.854C247.534,474.108,246.437,472.056,244.713,470.806z"/>
<path style="fill:#B6D1C6;" d="M244.713,470.806c-2.54-1.841-3.874-4.927-3.82-8.064l5.015-288.545
	c0.183-4.447-1.47-8.774-4.571-11.967l-29.421-30.287c-4.354-4.482-6.79-10.486-6.79-16.735V0.021h-25.484h-25.484v115.188
	c0,3.986-1,7.867-2.848,11.322c1.049,1.962,2.365,3.789,3.942,5.412l29.421,30.287c3.101,3.193,4.754,7.52,4.571,11.967
	l-5.015,288.545c-0.055,3.137,1.279,6.223,3.82,8.064c1.724,1.25,2.821,3.301,2.758,5.609L189.845,512h45.93
	c5.975,0,10.863-4.758,11.024-10.73l0.672-24.854C247.534,474.108,246.437,472.056,244.713,470.806z"/>
<path style="fill:#E52D15;" d="M203.648,99.203h-48.01c-2.327,0-4.213-1.886-4.213-4.213V4.213c0-2.327,1.886-4.213,4.213-4.213
	h48.01c2.327,0,4.213,1.886,4.213,4.213V94.99C207.86,97.317,205.974,99.203,203.648,99.203z"/>
<path style="fill:#FC502A;" d="M148.426,225.857c20.202-11.57,42.219-11.57,62.429,0.025c4.014,2.302,9.037-0.455,9.228-5.078
	l0.452-10.993c0.174-4.227-2.215-8.178-6.083-9.889c-22.531-9.962-47.07-9.975-69.613-0.024c-3.872,1.709-6.263,5.663-6.089,9.892
	l0.452,10.988C139.392,225.398,144.413,228.156,148.426,225.857z"/>
<g>
	<path style="fill:#FFFFFF;" d="M208.49,433.248h-57.695c-4.267,0-7.727-3.46-7.727-7.727s3.46-7.727,7.727-7.727h57.695
		c4.267,0,7.727,3.46,7.727,7.727C216.217,429.788,212.758,433.248,208.49,433.248z"/>
	<path style="fill:#FFFFFF;" d="M208.49,457.115h-57.695c-4.267,0-7.727-3.46-7.727-7.727s3.46-7.727,7.727-7.727h57.695
		c4.267,0,7.727,3.46,7.727,7.727C216.217,453.656,212.758,457.115,208.49,457.115z"/>
</g>
<path style="fill:#FC502A;" d="M209.048,324.555h-58.81c-2.694,0-4.891-2.157-4.94-4.851l-0.849-46.267
	c-0.051-2.764,2.176-5.032,4.94-5.032h60.508c2.764,0,4.991,2.268,4.94,5.032l-0.849,46.267
	C213.939,322.397,211.741,324.555,209.048,324.555z"/>
<polygon style="fill:#4A4256;" points="151.425,19.253 151.425,34.707 151.425,34.707 207.86,34.707 207.86,19.253 "/>
<path style="fill:#E5F9F6;" d="M379.562,511.871h-70.583c-5.829,0-10.662-4.516-11.056-10.331l-9.555-140.832
	c-0.249-3.673,2.663-6.79,6.345-6.79h99.116c3.682,0,6.594,3.117,6.345,6.79l-9.555,140.832
	C390.224,507.355,385.391,511.871,379.562,511.871z"/>
<path style="fill:#D6E5E2;" d="M393.828,353.917h-49.112L333.999,511.87h45.563c5.829,0,10.662-4.516,11.056-10.331l9.555-140.832
	C400.423,357.034,397.51,353.917,393.828,353.917z"/>
<path id="SVGCleanerId_0" style="fill:#CDEAE0;" d="M289.864,382.765l8.059,118.774c0.395,5.816,5.227,10.331,11.056,10.331h70.583
	c5.829,0,10.662-4.516,11.056-10.331l8.059-118.774H289.864z"/>
<g>
	<path id="SVGCleanerId_0_1_" style="fill:#CDEAE0;" d="M289.864,382.765l8.059,118.774c0.395,5.816,5.227,10.331,11.056,10.331
		h70.583c5.829,0,10.662-4.516,11.056-10.331l8.059-118.774H289.864z"/>
</g>
<path style="fill:#B6D1C6;" d="M342.759,382.765l-8.76,129.106h45.563c5.829,0,10.662-4.516,11.056-10.331l8.059-118.774h-55.918
	V382.765z"/>
<path style="fill:#DFEDE7;" d="M387.589,487.285h-86.636c-1.461,0-2.843-0.354-4.064-0.983l1.034,15.237
	c0.395,5.816,5.227,10.331,11.056,10.331h70.583c5.829,0,10.662-4.516,11.056-10.331l1.034-15.237
	C390.432,486.931,389.049,487.285,387.589,487.285z"/>
<path style="fill:#D7E0DC;" d="M390.618,501.539l0.21-3.089l0.824-12.147c-1.22,0.629-2.603,0.983-4.064,0.983h-51.921
	l-1.668,24.586h45.563C385.391,511.871,390.224,507.355,390.618,501.539z"/>
<g>
	<path style="fill:#E52D15;" d="M214.452,199.921c-8.305-3.672-16.884-5.982-25.534-6.949l-0.433,24.902
		c7.578,1.169,15.092,3.833,22.37,8.008c4.014,2.302,9.037-0.455,9.228-5.078l0.452-10.993
		C220.71,205.584,218.321,201.632,214.452,199.921z"/>
	<path style="fill:#E52D15;" d="M209.897,268.405h-22.29l-0.976,56.149h22.417c2.694,0,4.891-2.157,4.94-4.851l0.849-46.267
		C214.888,270.673,212.661,268.405,209.897,268.405z"/>
</g>
<g>
</g>
<g>
</g>
<g>
</g>
<g>
</g>
<g>
</g>
<g>
</g>
<g>
</g>
<g>
</g>
<g>
</g>
<g>
</g>
<g>
</g>
<g>
</g>
<g>
</g>
<g>
</g>
<g>
</g>
</svg>
