<?xml version="1.0" encoding="utf-8"?>
<!-- Generator: Adobe Illustrator 23.0.6, SVG Export Plug-In . SVG Version: 6.00 Build 0)  -->
<svg version="1.1" id="Ebene_1" xmlns="http://www.w3.org/2000/svg" xmlns:xlink="http://www.w3.org/1999/xlink" x="0px" y="0px"
	 viewBox="0 0 192 192" style="enable-background:new 0 0 192 192;" xml:space="preserve">
<style type="text/css">
	.st0{fill:#1C1C2B;}
	.st1{fill:#03514B;}
	.st2{fill:#045D56;}
	.st3{fill:#1EB980;}
	.st4{fill:url(#finish_1_);fill-opacity:0.2;}
</style>
<title>xxxhdpi/ic_launcher_APP</title>
<desc>Created with Sketch.</desc>
<g id="xxxhdpi_x2F_ic_x5F_launcher_x5F_APP">
	<rect id="Rectangle" class="st0" width="192" height="192"/>
	<g id="Group-2" transform="translate(48.000000, 28.000000)">
		<g id="card-behind">
			<path id="Rectangle_1_" class="st1" d="M-2.3-8.7h81.1c3.2,0,5.7,2.5,5.7,5.7v124.7c0,3.2-2.5,5.7-5.7,5.7H-2.3
				c-3.2,0-5.7-2.5-5.7-5.7V-3C-8-6.1-5.5-8.7-2.3-8.7z"/>
			<path id="Rectangle_2_" class="st2" d="M-2.3-9.7h81.1c3.2,0,5.7,2.5,5.7,5.7v124.7c0,3.2-2.5,5.7-5.7,5.7H-2.3
				c-3.2,0-5.7-2.5-5.7-5.7V-4C-8-7.2-5.5-9.7-2.3-9.7z"/>
		</g>
		<g id="card-foreground" transform="translate(18.566506, 16.334711)">
			<path id="Rectangle_3_" class="st3" d="M0.4-6.4h80.1c3.2,0,5.7,2.5,5.7,5.7V124c0,3.2-2.5,5.7-5.7,5.7H0.4
				c-3.2,0-5.7-2.5-5.7-5.7V-0.6C-5.3-3.7-2.8-6.4,0.4-6.4z"/>
			<g id="Rectangle_4_">
				<g>
					<path id="path-1_2_" d="M0.4-7.4h80.1c3.2,0,5.7,2.5,5.7,5.7V123c0,3.2-2.5,5.7-5.7,5.7H0.4c-3.2,0-5.7-2.5-5.7-5.7V-1.7
						C-5.3-4.9-2.8-7.4,0.4-7.4z"/>
				</g>
				<g>
					<path id="path-1_1_" class="st3" d="M0.4-7.4h80.1c3.2,0,5.7,2.5,5.7,5.7V123c0,3.2-2.5,5.7-5.7,5.7H0.4
						c-3.2,0-5.7-2.5-5.7-5.7V-1.7C-5.3-4.9-2.8-7.4,0.4-7.4z"/>
				</g>
			</g>
		</g>
	</g>
	
		<radialGradient id="finish_1_" cx="-671.0261" cy="830.4197" r="1.0591" gradientTransform="matrix(168 0 0 168 112738 -139504)" gradientUnits="userSpaceOnUse">
		<stop  offset="0" style="stop-color:#747482"/>
		<stop  offset="1" style="stop-color:#FFFFFF;stop-opacity:0"/>
	</radialGradient>
	<rect id="finish" class="st4" width="192" height="192"/>
</g>
</svg>
