<svg width="720.0599609375px" height="119.6199951171875px" xmlns="http://www.w3.org/2000/svg" viewBox="-110.02998046875001 15.19000244140625 720.0599609375 119.6199951171875" style="background: none;" preserveAspectRatio="xMidYMid"><defs><linearGradient id="editing-glowing-gradient" x1="0.8146601955249185" x2="0.18533980447508147" y1="0.8885729807284856" y2="0.11142701927151444"><stop offset="0" stop-color="#236662"></stop><stop offset="1" stop-color="#1eba7f"></stop></linearGradient><filter id="editing-glowing" x="-100%" y="-100%" width="300%" height="300%"><feGaussianBlur in="SourceGraphic" result="blur" stdDeviation="10"></feGaussianBlur><feMerge><feMergeNode in="blur"></feMergeNode><feMergeNode in="SourceGraphic"></feMergeNode></feMerge></filter></defs><g filter="url(#editing-glowing)"><g transform="translate(-8.175003051757812, 106.03750038146973)"><path d="M13.50 0.38L13.50 0.38Q10.30 0.38 7.78-1.57L7.78-1.57L7.78-1.57Q5.25-3.52 5.25-8.45L5.25-8.45L5.25-46.72L5.25-46.72Q5.25-48.13 7.81-48.13L7.81-48.13L8.06-48.13L8.06-48.13Q10.62-48.13 10.62-46.72L10.62-46.72L10.62-8.96L10.62-8.96Q10.62-6.27 11.55-5.25L11.55-5.25L11.55-5.25Q12.48-4.22 14.08-4.22L14.08-4.22L14.08-4.22Q15.30-4.22 15.90-4.38L15.90-4.38L15.90-4.38Q16.51-4.54 16.83-4.54L16.83-4.54L16.83-4.54Q17.41-4.54 17.79-3.36L17.79-3.36L17.79-3.36Q18.18-2.18 18.18-1.54L18.18-1.54L18.18-1.54Q18.18 0.38 13.50 0.38L13.50 0.38ZM38.21 0.38L38.21 0.38Q30.21 0.38 26.37-3.78L26.37-3.78L26.37-3.78Q22.53-7.94 22.53-16.51L22.53-16.51L22.53-16.51Q22.53-25.02 26.30-29.44L26.30-29.44L26.30-29.44Q30.08-33.86 37.44-33.86L37.44-33.86L37.44-33.86Q43.97-33.86 47.30-29.60L47.30-29.60L47.30-29.60Q50.62-25.34 50.62-17.15L50.62-17.15L50.62-17.15Q50.62-16.58 49.86-15.55L49.86-15.55L49.86-15.55Q49.09-14.53 48.51-14.53L48.51-14.53L28.29-14.53L28.29-14.53Q28.67-9.22 31.04-6.72L31.04-6.72L31.04-6.72Q33.41-4.22 38.14-4.22L38.14-4.22L38.14-4.22Q40.83-4.22 42.78-4.90L42.78-4.90L42.78-4.90Q44.74-5.57 46.02-6.24L46.02-6.24L46.02-6.24Q47.30-6.91 47.49-6.91L47.49-6.91L47.49-6.91Q48.13-6.91 48.93-5.63L48.93-5.63L48.93-5.63Q49.73-4.35 49.73-3.71L49.73-3.71L49.73-3.71Q49.73-2.94 48.13-1.95L48.13-1.95L48.13-1.95Q46.53-0.96 43.87-0.29L43.87-0.29L43.87-0.29Q41.22 0.38 38.21 0.38L38.21 0.38ZM28.29-19.14L44.93-19.14L44.93-19.14Q44.93-29.25 37.25-29.25L37.25-29.25L37.25-29.25Q28.99-29.25 28.29-19.14L28.29-19.14ZM68.61 0.38L68.61 0.38Q65.41 0.38 62.88-1.57L62.88-1.57L62.88-1.57Q60.35-3.52 60.35-8.45L60.35-8.45L60.35-28.86L57.15-28.86L57.15-28.86Q56.51-28.86 56.19-29.31L56.19-29.31L56.19-29.31Q55.87-29.76 55.87-30.78L55.87-30.78L55.87-31.55L55.87-31.55Q55.87-32.58 56.19-33.02L56.19-33.02L56.19-33.02Q56.51-33.47 57.15-33.47L57.15-33.47L60.35-33.47L61.12-40.19L61.12-40.19Q61.31-41.60 63.17-41.60L63.17-41.60L63.81-41.60L63.81-41.60Q65.73-41.60 65.73-40.19L65.73-40.19L65.73-33.47L71.10-33.47L71.10-33.47Q71.81-33.47 72.10-33.02L72.10-33.02L72.10-33.02Q72.38-32.58 72.38-31.55L72.38-31.55L72.38-30.78L72.38-30.78Q72.38-29.76 72.10-29.31L72.10-29.31L72.10-29.31Q71.81-28.86 71.10-28.86L71.10-28.86L65.73-28.86L65.73-8.96L65.73-8.96Q65.73-6.27 66.66-5.25L66.66-5.25L66.66-5.25Q67.58-4.22 69.18-4.22L69.18-4.22L69.18-4.22Q70.40-4.22 71.01-4.38L71.01-4.38L71.01-4.38Q71.62-4.54 71.94-4.54L71.94-4.54L71.94-4.54Q72.51-4.54 72.90-3.36L72.90-3.36L72.90-3.36Q73.28-2.18 73.28-1.54L73.28-1.54L73.28-1.54Q73.28 0.38 68.61 0.38L68.61 0.38ZM81.41-30.21L81.41-30.21Q80.19-30.21 80.00-30.98L80.00-30.98L78.59-42.75L78.59-43.52L78.59-43.52Q78.59-44.93 81.15-44.93L81.15-44.93L81.79-44.93L81.79-44.93Q84.35-44.93 84.35-43.52L84.35-43.52L84.35-43.52Q84.35-42.94 82.88-30.98L82.88-30.98L82.88-30.98Q82.69-30.21 81.47-30.21L81.47-30.21L81.41-30.21ZM99.52 0.58L99.52 0.58Q96.77 0.58 94.43-0.10L94.43-0.10L94.43-0.10Q92.10-0.77 90.72-1.73L90.72-1.73L90.72-1.73Q89.34-2.69 89.34-3.46L89.34-3.46L89.34-3.46Q89.34-4.10 90.14-5.38L90.14-5.38L90.14-5.38Q90.94-6.66 91.58-6.66L91.58-6.66L91.58-6.66Q91.71-6.66 92.80-5.95L92.80-5.95L92.80-5.95Q93.89-5.25 95.52-4.67L95.52-4.67L95.52-4.67Q97.15-4.10 99.14-4.10L99.14-4.10L99.14-4.10Q105.41-4.10 105.41-9.28L105.41-9.28L105.41-9.28Q105.41-11.46 104.00-12.74L104.00-12.74L104.00-12.74Q102.59-14.02 99.01-15.04L99.01-15.04L99.01-15.04Q93.95-16.51 92.03-18.72L92.03-18.72L92.03-18.72Q90.11-20.93 90.11-24.64L90.11-24.64L90.11-24.64Q90.11-27.33 91.49-29.44L91.49-29.44L91.49-29.44Q92.86-31.55 95.26-32.74L95.26-32.74L95.26-32.74Q97.66-33.92 100.74-33.92L100.74-33.92L100.74-33.92Q104.00-33.92 106.59-33.09L106.59-33.09L106.59-33.09Q109.18-32.26 109.18-31.17L109.18-31.17L109.18-31.17Q109.18-30.34 108.45-29.02L108.45-29.02L108.45-29.02Q107.71-27.71 107.14-27.71L107.14-27.71L107.14-27.71Q106.94-27.78 105.44-28.58L105.44-28.58L105.44-28.58Q103.94-29.38 101.31-29.38L101.31-29.38L101.31-29.38Q98.88-29.38 97.25-28.29L97.25-28.29L97.25-28.29Q95.62-27.20 95.62-25.34L95.62-25.34L95.62-25.34Q95.62-23.17 96.77-21.89L96.77-21.89L96.77-21.89Q97.92-20.61 100.61-19.78L100.61-19.78L100.61-19.78Q104.70-18.50 106.85-17.25L106.85-17.25L106.85-17.25Q108.99-16 109.92-14.18L109.92-14.18L109.92-14.18Q110.85-12.35 110.85-9.41L110.85-9.41L110.85-9.41Q110.85-6.59 109.34-4.32L109.34-4.32L109.34-4.32Q107.84-2.05 105.25-0.74L105.25-0.74L105.25-0.74Q102.66 0.58 99.52 0.58L99.52 0.58ZM145.09 13.57L145.09 13.57Q138.94 13.57 135.39 11.65L135.39 11.65L135.39 11.65Q131.84 9.73 131.84 5.63L131.84 5.63L131.84 5.63Q131.84 2.82 133.44 0.77L133.44 0.77L133.44 0.77Q135.04-1.28 137.66-2.37L137.66-2.37L137.73-2.50L137.73-2.50Q135.17-4.54 135.17-7.74L135.17-7.74L135.17-7.74Q135.17-11.90 138.75-14.40L138.75-14.40L138.75-14.40Q136.06-15.74 134.66-18.11L134.66-18.11L134.66-18.11Q133.25-20.48 133.25-23.42L133.25-23.42L133.25-23.42Q133.25-27.97 136.58-30.91L136.58-30.91L136.58-30.91Q139.90-33.86 145.86-33.86L145.86-33.86L145.86-33.86Q147.90-33.86 149.63-33.47L149.63-33.47L161.28-33.47L161.28-33.47Q161.98-33.47 162.27-33.02L162.27-33.02L162.27-33.02Q162.56-32.58 162.56-31.55L162.56-31.55L162.56-30.78L162.56-30.78Q162.56-29.76 162.27-29.31L162.27-29.31L162.27-29.31Q161.98-28.86 161.28-28.86L161.28-28.86L161.28-28.86Q158.66-28.86 156.80-29.06L156.80-29.06L156.74-28.93L156.74-28.93Q158.40-26.56 158.40-23.42L158.40-23.42L158.40-23.42Q158.40-18.82 155.10-15.87L155.10-15.87L155.10-15.87Q151.81-12.93 145.79-12.93L145.79-12.93L145.79-12.93Q142.78-12.93 141.25-11.87L141.25-11.87L141.25-11.87Q139.71-10.82 139.71-8.51L139.71-8.51L139.71-8.51Q139.71-6.85 140.77-5.98L140.77-5.98L140.77-5.98Q141.82-5.12 143.42-4.74L143.42-4.74L143.42-4.74Q145.02-4.35 147.90-4.03L147.90-4.03L147.90-4.03Q149.31-3.90 150.02-3.78L150.02-3.78L150.02-3.78Q154.62-3.20 157.15-1.63L157.15-1.63L157.15-1.63Q159.68-0.06 159.68 3.90L159.68 3.90L159.68 3.90Q159.68 8.58 155.97 11.07L155.97 11.07L155.97 11.07Q152.26 13.57 145.09 13.57L145.09 13.57ZM145.79-17.22L145.79-17.22Q149.31-17.22 151.39-18.66L151.39-18.66L151.39-18.66Q153.47-20.10 153.47-23.36L153.47-23.36L153.47-23.36Q153.47-29.57 145.79-29.57L145.79-29.57L145.79-29.57Q138.18-29.57 138.18-23.36L138.18-23.36L138.18-23.36Q138.18-17.22 145.79-17.22L145.79-17.22ZM145.79 9.22L145.79 9.22Q150.27 9.22 152.42 8.06L152.42 8.06L152.42 8.06Q154.56 6.91 154.56 4.48L154.56 4.48L154.56 4.48Q154.56 2.24 152.45 1.47L152.45 1.47L152.45 1.47Q150.34 0.70 146.11 0.26L146.11 0.26L146.11 0.26Q142.27-0.13 140.86-0.58L140.86-0.58L140.86-0.58Q136.64 1.22 136.64 4.61L136.64 4.61L136.64 4.61Q136.64 9.22 145.79 9.22L145.79 9.22ZM183.04 0.38L183.04 0.38Q175.04 0.38 171.20-3.78L171.20-3.78L171.20-3.78Q167.36-7.94 167.36-16.51L167.36-16.51L167.36-16.51Q167.36-25.02 171.14-29.44L171.14-29.44L171.14-29.44Q174.91-33.86 182.27-33.86L182.27-33.86L182.27-33.86Q188.80-33.86 192.13-29.60L192.13-29.60L192.13-29.60Q195.46-25.34 195.46-17.15L195.46-17.15L195.46-17.15Q195.46-16.58 194.69-15.55L194.69-15.55L194.69-15.55Q193.92-14.53 193.34-14.53L193.34-14.53L173.12-14.53L173.12-14.53Q173.50-9.22 175.87-6.72L175.87-6.72L175.87-6.72Q178.24-4.22 182.98-4.22L182.98-4.22L182.98-4.22Q185.66-4.22 187.62-4.90L187.62-4.90L187.62-4.90Q189.57-5.57 190.85-6.24L190.85-6.24L190.85-6.24Q192.13-6.91 192.32-6.91L192.32-6.91L192.32-6.91Q192.96-6.91 193.76-5.63L193.76-5.63L193.76-5.63Q194.56-4.35 194.56-3.71L194.56-3.71L194.56-3.71Q194.56-2.94 192.96-1.95L192.96-1.95L192.96-1.95Q191.36-0.96 188.70-0.29L188.70-0.29L188.70-0.29Q186.05 0.38 183.04 0.38L183.04 0.38ZM173.12-19.14L189.76-19.14L189.76-19.14Q189.76-29.25 182.08-29.25L182.08-29.25L182.08-29.25Q173.82-29.25 173.12-19.14L173.12-19.14ZM213.44 0.38L213.44 0.38Q210.24 0.38 207.71-1.57L207.71-1.57L207.71-1.57Q205.18-3.52 205.18-8.45L205.18-8.45L205.18-28.86L201.98-28.86L201.98-28.86Q201.34-28.86 201.02-29.31L201.02-29.31L201.02-29.31Q200.70-29.76 200.70-30.78L200.70-30.78L200.70-31.55L200.70-31.55Q200.70-32.58 201.02-33.02L201.02-33.02L201.02-33.02Q201.34-33.47 201.98-33.47L201.98-33.47L205.18-33.47L205.95-40.19L205.95-40.19Q206.14-41.60 208.00-41.60L208.00-41.60L208.64-41.60L208.64-41.60Q210.56-41.60 210.56-40.19L210.56-40.19L210.56-33.47L215.94-33.47L215.94-33.47Q216.64-33.47 216.93-33.02L216.93-33.02L216.93-33.02Q217.22-32.58 217.22-31.55L217.22-31.55L217.22-30.78L217.22-30.78Q217.22-29.76 216.93-29.31L216.93-29.31L216.93-29.31Q216.64-28.86 215.94-28.86L215.94-28.86L210.56-28.86L210.56-8.96L210.56-8.96Q210.56-6.27 211.49-5.25L211.49-5.25L211.49-5.25Q212.42-4.22 214.02-4.22L214.02-4.22L214.02-4.22Q215.23-4.22 215.84-4.38L215.84-4.38L215.84-4.38Q216.45-4.54 216.77-4.54L216.77-4.54L216.77-4.54Q217.34-4.54 217.73-3.36L217.73-3.36L217.73-3.36Q218.11-2.18 218.11-1.54L218.11-1.54L218.11-1.54Q218.11 0.38 213.44 0.38L213.44 0.38ZM245.06 0.13L245.06 0.13Q242.50 0.13 242.50-1.28L242.50-1.28L242.50-28.86L239.94-28.86L239.94-28.86Q239.30-28.86 238.98-29.31L238.98-29.31L238.98-29.31Q238.66-29.76 238.66-30.78L238.66-30.78L238.66-31.55L238.66-31.55Q238.66-32.58 238.98-33.02L238.98-33.02L238.98-33.02Q239.30-33.47 239.94-33.47L239.94-33.47L242.50-33.47L242.50-39.55L242.50-39.55Q242.50-44.61 244.99-46.50L244.99-46.50L244.99-46.50Q247.49-48.38 250.75-48.38L250.75-48.38L250.75-48.38Q255.42-48.38 255.42-46.46L255.42-46.46L255.42-46.46Q255.42-45.82 255.04-44.64L255.04-44.64L255.04-44.64Q254.66-43.46 254.08-43.46L254.08-43.46L254.08-43.46Q253.76-43.46 253.15-43.62L253.15-43.62L253.15-43.62Q252.54-43.78 251.33-43.78L251.33-43.78L251.33-43.78Q249.66-43.78 248.77-42.85L248.77-42.85L248.77-42.85Q247.87-41.92 247.87-39.04L247.87-39.04L247.87-33.47L253.44-33.47L253.44-33.47Q254.14-33.47 254.43-33.02L254.43-33.02L254.43-33.02Q254.72-32.58 254.72-31.55L254.72-31.55L254.72-30.78L254.72-30.78Q254.72-29.76 254.43-29.31L254.43-29.31L254.43-29.31Q254.14-28.86 253.44-28.86L253.44-28.86L247.87-28.86L247.87-1.28L247.87-1.28Q247.87 0.13 245.31 0.13L245.31 0.13L245.06 0.13ZM271.62 0.38L271.62 0.38Q266.75 0.38 263.97-2.37L263.97-2.37L263.97-2.37Q261.18-5.12 261.18-9.98L261.18-9.98L261.18-32.19L261.18-32.19Q261.18-33.60 263.74-33.60L263.74-33.60L264.00-33.60L264.00-33.60Q266.56-33.60 266.56-32.19L266.56-32.19L266.56-10.50L266.56-10.50Q266.56-7.55 268.26-5.92L268.26-5.92L268.26-5.92Q269.95-4.29 273.09-4.29L273.09-4.29L273.09-4.29Q275.26-4.29 277.41-5.50L277.41-5.50L277.41-5.50Q279.55-6.72 281.15-8.77L281.15-8.77L281.15-32.19L281.15-32.19Q281.15-33.60 283.71-33.60L283.71-33.60L283.97-33.60L283.97-33.60Q286.53-33.60 286.53-32.19L286.53-32.19L286.53-9.47L286.53-9.47Q286.53-5.25 286.91-3.42L286.91-3.42L286.91-3.42Q287.30-1.60 287.30-1.41L287.30-1.41L287.30-1.41Q287.30-0.64 286.08-0.29L286.08-0.29L286.08-0.29Q284.86 0.06 283.84 0.06L283.84 0.06L283.84 0.06Q282.94 0.06 282.53-0.93L282.53-0.93L282.53-0.93Q282.11-1.92 281.89-3.01L281.89-3.01L281.89-3.01Q281.66-4.10 281.60-4.42L281.60-4.42L281.60-4.42Q279.55-2.18 276.93-0.90L276.93-0.90L276.93-0.90Q274.30 0.38 271.62 0.38L271.62 0.38ZM311.10 0.38L311.10 0.38Q303.17 0.38 299.26-3.71L299.26-3.71L299.26-3.71Q295.36-7.81 295.36-16.90L295.36-16.90L295.36-16.90Q295.36-26.05 299.71-29.95L299.71-29.95L299.71-29.95Q304.06-33.86 310.53-33.86L310.53-33.86L310.53-33.86Q314.24-33.86 317.18-32.96L317.18-32.96L317.18-32.96Q320.13-32.06 320.13-30.91L320.13-30.91L320.13-30.91Q320.13-30.08 319.39-28.77L319.39-28.77L319.39-28.77Q318.66-27.46 318.08-27.46L318.08-27.46L318.08-27.46Q317.95-27.46 317.79-27.55L317.79-27.55L317.79-27.55Q317.63-27.65 317.38-27.71L317.38-27.71L317.38-27.71Q313.92-29.25 310.40-29.25L310.40-29.25L310.40-29.25Q301.12-29.25 301.12-17.02L301.12-17.02L301.12-17.02Q301.12-10.24 303.39-7.23L303.39-7.23L303.39-7.23Q305.66-4.22 311.04-4.22L311.04-4.22L311.04-4.22Q314.94-4.22 318.27-5.89L318.27-5.89L318.98-6.14L318.98-6.14Q319.62-6.14 320.38-4.90L320.38-4.90L320.38-4.90Q321.15-3.65 321.15-2.88L321.15-2.88L321.15-2.88Q321.15-2.11 319.78-1.38L319.78-1.38L319.78-1.38Q318.40-0.64 316.10-0.13L316.10-0.13L316.10-0.13Q313.79 0.38 311.10 0.38L311.10 0.38ZM353.47-1.79L353.47-1.79Q354.05-1.15 354.05-0.77L354.05-0.77L354.05-0.77Q354.05-0.26 353.41-0.06L353.41-0.06L353.41-0.06Q352.77 0.13 351.23 0.13L351.23 0.13L350.98 0.13L350.98 0.13Q349.63 0.13 348.80-0.03L348.80-0.03L348.80-0.03Q347.97-0.19 347.52-0.70L347.52-0.70L334.72-15.87L334.46-15.87L334.46-1.28L334.46-1.28Q334.46 0.13 331.90 0.13L331.90 0.13L331.65 0.13L331.65 0.13Q329.09 0.13 329.09-1.28L329.09-1.28L329.09-46.72L329.09-46.72Q329.09-48.13 331.65-48.13L331.65-48.13L331.90-48.13L331.90-48.13Q334.46-48.13 334.46-46.72L334.46-46.72L334.46-18.11L334.72-18.11L346.94-32.70L346.94-32.70Q347.65-33.60 350.34-33.60L350.34-33.60L350.59-33.60L350.59-33.60Q351.68-33.60 352.26-33.38L352.26-33.38L352.26-33.38Q352.83-33.15 352.83-32.77L352.83-32.77L352.83-32.77Q352.83-32.19 352.19-31.49L352.19-31.49L340.29-17.41L353.47-1.79ZM375.62 0.38L375.62 0.38Q367.62 0.38 363.78-3.78L363.78-3.78L363.78-3.78Q359.94-7.94 359.94-16.51L359.94-16.51L359.94-16.51Q359.94-25.02 363.71-29.44L363.71-29.44L363.71-29.44Q367.49-33.86 374.85-33.86L374.85-33.86L374.85-33.86Q381.38-33.86 384.70-29.60L384.70-29.60L384.70-29.60Q388.03-25.34 388.03-17.15L388.03-17.15L388.03-17.15Q388.03-16.58 387.26-15.55L387.26-15.55L387.26-15.55Q386.50-14.53 385.92-14.53L385.92-14.53L365.70-14.53L365.70-14.53Q366.08-9.22 368.45-6.72L368.45-6.72L368.45-6.72Q370.82-4.22 375.55-4.22L375.55-4.22L375.55-4.22Q378.24-4.22 380.19-4.90L380.19-4.90L380.19-4.90Q382.14-5.57 383.42-6.24L383.42-6.24L383.42-6.24Q384.70-6.91 384.90-6.91L384.90-6.91L384.90-6.91Q385.54-6.91 386.34-5.63L386.34-5.63L386.34-5.63Q387.14-4.35 387.14-3.71L387.14-3.71L387.14-3.71Q387.14-2.94 385.54-1.95L385.54-1.95L385.54-1.95Q383.94-0.96 381.28-0.29L381.28-0.29L381.28-0.29Q378.62 0.38 375.62 0.38L375.62 0.38ZM365.70-19.14L382.34-19.14L382.34-19.14Q382.34-29.25 374.66-29.25L374.66-29.25L374.66-29.25Q366.40-29.25 365.70-19.14L365.70-19.14ZM406.66 0.38L406.66 0.38Q402.88 0.38 400.06-1.79L400.06-1.79L400.06-1.79Q397.25-3.97 395.74-7.87L395.74-7.87L395.74-7.87Q394.24-11.78 394.24-16.70L394.24-16.70L394.24-16.70Q394.24-22.14 395.87-26.02L395.87-26.02L395.87-26.02Q397.50-29.89 400.45-31.87L400.45-31.87L400.45-31.87Q403.39-33.86 407.23-33.86L407.23-33.86L407.23-33.86Q410.05-33.86 412.19-33.02L412.19-33.02L412.19-33.02Q414.34-32.19 416.38-30.59L416.38-30.59L416.38-46.72L416.38-46.72Q416.38-48.13 418.94-48.13L418.94-48.13L419.20-48.13L419.20-48.13Q421.76-48.13 421.76-46.72L421.76-46.72L421.76-9.47L421.76-9.47Q421.76-5.25 422.14-3.42L422.14-3.42L422.14-3.42Q422.53-1.60 422.53-1.41L422.53-1.41L422.53-1.41Q422.53-0.64 421.31-0.29L421.31-0.29L421.31-0.29Q420.10 0.06 419.07 0.06L419.07 0.06L419.07 0.06Q418.18 0.06 417.76-0.93L417.76-0.93L417.76-0.93Q417.34-1.92 417.12-3.01L417.12-3.01L417.12-3.01Q416.90-4.10 416.83-4.42L416.83-4.42L416.83-4.42Q412.22 0.38 406.66 0.38L406.66 0.38ZM407.74-4.29L407.74-4.29Q409.92-4.29 412.19-5.44L412.19-5.44L412.19-5.44Q414.46-6.59 416.38-8.70L416.38-8.70L416.38-26.24L416.38-26.24Q412.93-29.12 408.51-29.12L408.51-29.12L408.51-29.12Q404.22-29.12 402.05-26.05L402.05-26.05L402.05-26.05Q399.87-22.98 399.87-17.22L399.87-17.22L399.87-17.22Q399.87-11.01 401.92-7.65L401.92-7.65L401.92-7.65Q403.97-4.29 407.74-4.29L407.74-4.29ZM457.66 0.38L457.66 0.38Q452.80 0.38 450.02-2.37L450.02-2.37L450.02-2.37Q447.23-5.12 447.23-9.98L447.23-9.98L447.23-32.19L447.23-32.19Q447.23-33.60 449.79-33.60L449.79-33.60L450.05-33.60L450.05-33.60Q452.61-33.60 452.61-32.19L452.61-32.19L452.61-10.50L452.61-10.50Q452.61-7.55 454.30-5.92L454.30-5.92L454.30-5.92Q456.00-4.29 459.14-4.29L459.14-4.29L459.14-4.29Q461.31-4.29 463.46-5.50L463.46-5.50L463.46-5.50Q465.60-6.72 467.20-8.77L467.20-8.77L467.20-32.19L467.20-32.19Q467.20-33.60 469.76-33.60L469.76-33.60L470.02-33.60L470.02-33.60Q472.58-33.60 472.58-32.19L472.58-32.19L472.58-9.47L472.58-9.47Q472.58-5.25 472.96-3.42L472.96-3.42L472.96-3.42Q473.34-1.60 473.34-1.41L473.34-1.41L473.34-1.41Q473.34-0.64 472.13-0.29L472.13-0.29L472.13-0.29Q470.91 0.06 469.89 0.06L469.89 0.06L469.89 0.06Q468.99 0.06 468.58-0.93L468.58-0.93L468.58-0.93Q468.16-1.92 467.94-3.01L467.94-3.01L467.94-3.01Q467.71-4.10 467.65-4.42L467.65-4.42L467.65-4.42Q465.60-2.18 462.98-0.90L462.98-0.90L462.98-0.90Q460.35 0.38 457.66 0.38L457.66 0.38ZM486.14 13.31L486.14 13.31Q483.58 13.31 483.58 11.90L483.58 11.90L483.58-23.74L483.58-23.74Q483.58-27.97 483.20-29.79L483.20-29.79L483.20-29.79Q482.82-31.62 482.82-31.81L482.82-31.81L482.82-31.81Q482.82-32.58 484.03-32.93L484.03-32.93L484.03-32.93Q485.25-33.28 486.27-33.28L486.27-33.28L486.27-33.28Q487.17-33.28 487.58-32.35L487.58-32.35L487.58-32.35Q488.00-31.42 488.22-30.40L488.22-30.40L488.22-30.40Q488.45-29.38 488.51-29.06L488.51-29.06L488.51-29.06Q493.12-33.86 498.69-33.86L498.69-33.86L498.69-33.86Q502.59-33.86 505.38-31.65L505.38-31.65L505.38-31.65Q508.16-29.44 509.63-25.57L509.63-25.57L509.63-25.57Q511.10-21.70 511.10-16.70L511.10-16.70L511.10-16.70Q511.10-11.26 509.47-7.42L509.47-7.42L509.47-7.42Q507.84-3.58 504.90-1.60L504.90-1.60L504.90-1.60Q501.95 0.38 498.11 0.38L498.11 0.38L498.11 0.38Q495.30 0.38 493.15-0.45L493.15-0.45L493.15-0.45Q491.01-1.28 488.96-2.88L488.96-2.88L488.96 11.90L488.96 11.90Q488.96 13.31 486.40 13.31L486.40 13.31L486.14 13.31ZM496.90-4.35L496.90-4.35Q501.12-4.35 503.30-7.42L503.30-7.42L503.30-7.42Q505.47-10.50 505.47-16.26L505.47-16.26L505.47-16.26Q505.47-22.46 503.42-25.82L503.42-25.82L503.42-25.82Q501.38-29.18 497.60-29.18L497.60-29.18L497.60-29.18Q495.42-29.18 493.15-28.03L493.15-28.03L493.15-28.03Q490.88-26.88 488.96-24.77L488.96-24.77L488.96-7.23L488.96-7.23Q492.42-4.35 496.90-4.35L496.90-4.35Z" fill="url(#editing-glowing-gradient)"></path></g></g><style>text {
  font-size: 64px;
  font-family: Arial Black;
  dominant-baseline: central;
  text-anchor: middle;
}</style></svg>